<svg width="45" height="60" viewBox="0 0 45 60" fill="none" xmlns="http://www.w3.org/2000/svg">
<path id="Vector" d="M17.7251 22.1586C17.7251 23.0353 17.985 23.8923 18.4721 24.6213C18.9592 25.3502 19.6515 25.9184 20.4615 26.2539C21.2714 26.5894 22.1627 26.6772 23.0226 26.5062C23.8825 26.3351 24.6723 25.9129 25.2922 25.293C25.9122 24.6731 26.3343 23.8832 26.5054 23.0234C26.6764 22.1635 26.5886 21.2722 26.2531 20.4622C25.9176 19.6523 25.3495 18.96 24.6205 18.4729C23.8915 17.9858 23.0345 17.7258 22.1578 17.7258C20.9826 17.7273 19.856 18.1948 19.025 19.0258C18.194 19.8568 17.7265 20.9834 17.7251 22.1586ZM22.1578 18.9121C22.7999 18.9121 23.4276 19.1025 23.9615 19.4592C24.4953 19.8159 24.9115 20.323 25.1572 20.9162C25.4029 21.5094 25.4672 22.1622 25.3419 22.7919C25.2167 23.4217 24.9075 24.0002 24.4534 24.4542C23.9994 24.9082 23.4209 25.2174 22.7912 25.3427C22.1614 25.468 21.5086 25.4037 20.9154 25.158C20.3222 24.9122 19.8152 24.4961 19.4584 23.9622C19.1017 23.4284 18.9113 22.8007 18.9113 22.1586C18.9122 21.2978 19.2546 20.4726 19.8632 19.864C20.4718 19.2553 21.2971 18.913 22.1578 18.9121ZM28.0758 22.3272C28.0447 23.46 27.6878 24.5598 27.0478 25.495C26.9824 25.5909 26.9465 25.7038 26.9445 25.8199C26.9425 25.9359 26.9745 26.05 27.0366 26.1481L31.5168 33.214C31.5632 33.2873 31.6251 33.3495 31.6982 33.3962C31.7713 33.4429 31.8538 33.473 31.9398 33.4844C31.9655 33.4877 31.9913 33.4894 32.0172 33.4893C32.1658 33.4893 32.3091 33.4336 32.4186 33.3331C34.3421 31.5648 35.7771 29.3304 36.5849 26.8456C37.3928 24.3608 37.5463 21.7097 37.0305 19.1484C37.0133 19.0632 36.9777 18.9829 36.9261 18.9131C36.8745 18.8432 36.8083 18.7855 36.732 18.7441C36.6557 18.7026 36.5713 18.6784 36.4846 18.6731C36.3979 18.6678 36.3111 18.6816 36.2304 18.7134L28.4501 21.7962C28.3422 21.8388 28.2492 21.9122 28.1827 22.0073C28.1162 22.1023 28.079 22.2148 28.0758 22.3307V22.3272ZM35.9899 20.0816C36.3098 22.2253 36.1276 24.4141 35.4576 26.4754C34.7875 28.5367 33.648 30.4142 32.1287 31.9601L28.2417 25.8323C28.8068 24.8987 29.1482 23.8469 29.239 22.7594L35.9899 20.0816ZM39.9836 22.1551C39.9829 18.6296 38.9368 15.1836 36.9777 12.2526C35.0186 9.3216 32.2343 7.03737 28.977 5.68872C25.7197 4.34006 22.1357 3.98755 18.678 4.67575C15.2204 5.36396 12.0445 7.06197 9.55185 9.55509C7.05922 12.0482 5.36183 15.2245 4.6743 18.6822C3.98677 22.14 4.33998 25.724 5.68928 28.981C7.03857 32.238 9.32335 35.0218 12.2547 36.9804C15.1861 38.939 18.6323 39.9843 22.1578 39.9843C26.8839 39.979 31.4148 38.0992 34.7566 34.7574C38.0984 31.4156 39.9782 26.8846 39.9836 22.1586V22.1551ZM5.51828 22.1551C5.51897 18.8643 6.49545 15.6475 8.32424 12.9116C10.153 10.1757 12.752 8.04354 15.7926 6.78467C18.8331 5.5258 22.1786 5.19677 25.4062 5.83921C28.6337 6.48164 31.5982 8.06668 33.925 10.3939C36.2517 12.7211 37.8361 15.686 38.4779 18.9137C39.1196 22.1413 38.7899 25.4868 37.5304 28.5271C36.2709 31.5673 34.1381 34.1659 31.4019 35.9941C28.6656 37.8223 25.4486 38.7981 22.1578 38.7981C17.7462 38.7933 13.5167 37.0387 10.3972 33.9192C7.27771 30.7997 5.52308 26.5702 5.51828 22.1586V22.1551ZM23.7608 16.0615C23.7684 16.1771 23.8095 16.2881 23.8792 16.3807C23.9489 16.4733 24.0442 16.5435 24.1532 16.5828C25.2208 16.9645 26.1563 17.6447 26.8484 18.5427C26.9195 18.6341 27.0158 18.7026 27.1255 18.7397C27.2351 18.7769 27.3533 18.7811 27.4653 18.7518L35.571 16.672C35.6545 16.6499 35.7321 16.6098 35.7985 16.5546C35.8648 16.4993 35.9183 16.4303 35.9551 16.3522C35.992 16.2741 36.0113 16.1889 36.0118 16.1026C36.0123 16.0162 35.9939 15.9308 35.9579 15.8524C34.8657 13.4797 33.1823 11.4274 31.0692 9.8922C28.956 8.35701 26.4838 7.39044 23.8898 7.08516C23.8036 7.07529 23.7162 7.08447 23.6339 7.11203C23.5516 7.1396 23.4764 7.1849 23.4135 7.24472C23.3507 7.30453 23.3017 7.37742 23.27 7.45824C23.2384 7.53905 23.2249 7.62582 23.2304 7.71243L23.7608 16.0615ZM34.5709 15.7067L27.5336 17.5091C26.8197 16.682 25.9245 16.0309 24.9178 15.6063L24.4578 8.36271C26.5945 8.72519 28.6187 9.5764 30.3723 10.8499C32.1259 12.1235 33.5616 13.7849 34.5674 15.7046L34.5709 15.7067ZM29.6154 35.3718C29.6909 35.329 29.7561 35.2703 29.8064 35.1996C29.8568 35.129 29.891 35.0482 29.9067 34.9629C29.9225 34.8776 29.9193 34.7898 29.8976 34.7059C29.8758 34.6219 29.8358 34.5437 29.7806 34.4769L24.4467 28.032C24.3724 27.9421 24.2733 27.876 24.1618 27.8421C24.0502 27.8081 23.9311 27.8077 23.8194 27.841C22.7311 28.1588 21.5747 28.1588 20.4865 27.841C20.3747 27.8077 20.2556 27.8081 20.1441 27.8421C20.0325 27.876 19.9334 27.9421 19.8592 28.032L14.5253 34.4776C14.47 34.5444 14.4301 34.6225 14.4083 34.7064C14.3865 34.7903 14.3834 34.878 14.3991 34.9632C14.4149 35.0485 14.4491 35.1292 14.4995 35.1998C14.5498 35.2704 14.615 35.3291 14.6904 35.3718C16.9665 36.6551 19.5351 37.3294 22.148 37.3294C24.761 37.3294 27.3296 36.6551 29.6057 35.3718H29.6154ZM20.5401 29.0802C21.6043 29.3283 22.7113 29.3283 23.7755 29.0802L28.4041 34.6706C26.4639 35.6378 24.3257 36.1412 22.1578 36.1412C19.9899 36.1412 17.8517 35.6378 15.9115 34.6706L20.5401 29.0802ZM17.2678 25.4985C16.6278 24.5633 16.2709 23.4635 16.2398 22.3307C16.2366 22.2148 16.1994 22.1023 16.1329 22.0073C16.0664 21.9122 15.9734 21.8388 15.8655 21.7962L8.08523 18.7141C8.00453 18.6821 7.91777 18.6682 7.8311 18.6734C7.74443 18.6786 7.65996 18.7028 7.58365 18.7442C7.50734 18.7856 7.44105 18.8432 7.38946 18.9131C7.33788 18.9829 7.30225 19.0632 7.28511 19.1484C6.76934 21.7097 6.9228 24.3608 7.73066 26.8456C8.53853 29.3304 9.9735 31.5648 11.897 33.3331C12.0065 33.4336 12.1498 33.4893 12.2984 33.4893C12.3243 33.4898 12.3501 33.4886 12.3758 33.4858C12.4618 33.4744 12.5443 33.4443 12.6174 33.3976C12.6905 33.3509 12.7524 33.2887 12.7989 33.2154L17.279 26.1515C17.3411 26.0535 17.3731 25.9394 17.3711 25.8233C17.3692 25.7073 17.3333 25.5944 17.2678 25.4985ZM12.1869 31.9636C10.6676 30.4177 9.5281 28.5402 8.85805 26.4789C8.18801 24.4176 8.00576 22.2288 8.32569 20.0851L15.0766 22.7594C15.1669 23.8481 15.5083 24.9011 16.0739 25.8358L12.1869 31.9636ZM8.74806 16.6734L16.8538 18.7525C16.9658 18.7818 17.084 18.7776 17.1936 18.7404C17.3032 18.7033 17.3996 18.6348 17.4707 18.5434C18.1627 17.6456 19.0979 16.9654 20.1652 16.5835C20.2745 16.5444 20.37 16.4741 20.4399 16.3813C20.5097 16.2886 20.5509 16.1774 20.5583 16.0615L21.0852 7.71452C21.0907 7.62791 21.0772 7.54114 21.0456 7.46033C21.0139 7.37951 20.965 7.30662 20.9021 7.24681C20.8392 7.18699 20.764 7.1417 20.6817 7.11413C20.5994 7.08656 20.5121 7.07738 20.4258 7.08725C17.832 7.39233 15.36 8.35859 13.2468 9.89339C11.1337 11.4282 9.45018 13.4801 8.35775 15.8524C8.3217 15.9314 8.3034 16.0173 8.30415 16.1041C8.3049 16.1909 8.32468 16.2765 8.36209 16.3549C8.3995 16.4332 8.45364 16.5024 8.52068 16.5576C8.58773 16.6127 8.66606 16.6525 8.75015 16.6741L8.74806 16.6734ZM19.8578 8.36271L19.3978 15.6063C18.3911 16.0309 17.4959 16.682 16.7821 17.5091L9.74751 15.7046C10.7535 13.7849 12.1893 12.1234 13.943 10.8499C15.6968 9.57639 17.721 8.72519 19.8578 8.36271ZM41.4326 41.1525H33.5686C37.7217 38.6576 40.9427 34.8703 42.7383 30.3705C44.5339 25.8707 44.8052 20.9064 43.5107 16.2377C42.2162 11.569 39.4272 7.45318 35.5708 4.52054C31.7143 1.58789 27.003 0 22.1582 0C17.3133 0 12.602 1.58789 8.74554 4.52054C4.8891 7.45318 2.10011 11.569 0.805606 16.2377C-0.488901 20.9064 -0.217576 25.8707 1.57804 30.3705C3.37365 34.8703 6.59459 38.6576 10.7477 41.1525H2.88303C2.11909 41.1534 1.38669 41.4572 0.846428 41.9974C0.306172 42.5375 0.00215712 43.2698 0.00105051 44.0338V57.1187C0.00215712 57.8827 0.306172 58.615 0.846428 59.1551C1.38669 59.6952 2.11909 59.9991 2.88303 60H41.4326C42.1965 59.9991 42.9289 59.6952 43.4692 59.1551C44.0094 58.615 44.3135 57.8827 44.3146 57.1187V44.0358C44.314 43.2715 44.0102 42.5387 43.4699 41.9981C42.9296 41.4575 42.1969 41.1534 41.4326 41.1525ZM1.188 49.5517L2.88721 50.3218C2.96383 50.3567 3.047 50.3747 3.13115 50.3747C3.21531 50.3747 3.29848 50.3567 3.3751 50.3218L5.66744 49.2827L7.95978 50.3218C8.03639 50.3567 8.11957 50.3747 8.20372 50.3747C8.28787 50.3747 8.37105 50.3567 8.44766 50.3218L10.7393 49.2827L13.0316 50.3218C13.1083 50.3567 13.1914 50.3747 13.2756 50.3747C13.3597 50.3747 13.4429 50.3567 13.5195 50.3218L15.8154 49.2827L18.107 50.3218C18.1837 50.3564 18.2668 50.3743 18.3509 50.3743C18.4351 50.3743 18.5182 50.3564 18.5949 50.3218L20.8865 49.2827L23.1782 50.3218C23.2548 50.3567 23.338 50.3747 23.4221 50.3747C23.5063 50.3747 23.5894 50.3567 23.6661 50.3218L25.9577 49.2827L28.2493 50.3218C28.326 50.3567 28.4091 50.3747 28.4933 50.3747C28.5774 50.3747 28.6606 50.3567 28.7372 50.3218L31.0296 49.2827L33.3205 50.3218C33.3972 50.3566 33.4803 50.3745 33.5645 50.3745C33.6486 50.3745 33.7318 50.3566 33.8084 50.3218L36.1 49.2827L38.391 50.3218C38.4676 50.3566 38.5508 50.3745 38.6349 50.3745C38.7191 50.3745 38.8022 50.3566 38.8789 50.3218L41.1852 49.2827L43.1283 50.1643V51.6029L41.4291 50.8327C41.3525 50.7979 41.2693 50.7799 41.1852 50.7799C41.101 50.7799 41.0178 50.7979 40.9412 50.8327L38.6475 51.8719L36.3558 50.8327C36.2792 50.7979 36.196 50.7799 36.1119 50.7799C36.0277 50.7799 35.9446 50.7979 35.8679 50.8327L33.5742 51.8719L31.2826 50.8327C31.206 50.7979 31.1228 50.7799 31.0386 50.7799C30.9545 50.7799 30.8713 50.7979 30.7947 50.8327L28.5003 51.8719L26.2086 50.8327C26.132 50.7979 26.0488 50.7799 25.9647 50.7799C25.8805 50.7799 25.7973 50.7979 25.7207 50.8327L23.4277 51.8719L21.136 50.8327C21.0594 50.7981 20.9762 50.7802 20.8921 50.7802C20.808 50.7802 20.7248 50.7981 20.6482 50.8327L18.3544 51.8719L16.0628 50.8327C15.9862 50.7979 15.903 50.7799 15.8188 50.7799C15.7347 50.7799 15.6515 50.7979 15.5749 50.8327L13.2805 51.8719L10.9888 50.8327C10.9122 50.7979 10.829 50.7799 10.7449 50.7799C10.6607 50.7799 10.5776 50.7979 10.5009 50.8327L8.20651 51.8719L5.91835 50.8327C5.84173 50.7979 5.75856 50.7799 5.67441 50.7799C5.59026 50.7799 5.50708 50.7979 5.43047 50.8327L3.13046 51.8719L1.1866 50.9902L1.188 49.5517ZM38.0732 42.3415H39.2824L38.5053 43.9404H37.296L38.0732 42.3415ZM30.1834 42.3415H31.3927L30.6156 43.9404H29.4063L30.1834 42.3415ZM1.18939 22.1586C1.18981 18.4015 2.19964 14.7135 4.11327 11.4802C6.02691 8.24699 8.77407 5.58726 12.0675 3.77916C15.3609 1.97105 19.0796 1.08098 22.8348 1.20202C26.5899 1.32306 30.2436 2.45076 33.4137 4.46721C36.5839 6.48366 39.154 9.31479 40.8555 12.6646C42.5569 16.0143 43.3272 19.7597 43.0856 23.509C42.8441 27.2584 41.5997 30.8739 39.4825 33.9777C37.3653 37.0815 34.4531 39.5594 31.0505 41.1525H13.2651C9.66155 39.4531 6.61394 36.7664 4.47618 33.4043C2.33843 30.0423 1.19823 26.1427 1.188 22.1586H1.18939ZM22.2972 42.3415H23.503L22.7258 43.9404H21.5159L22.2972 42.3415ZM14.4068 42.3415H15.616L14.8354 43.9404H13.6262L14.4068 42.3415ZM6.51705 42.3415H7.72629L6.94568 43.9404H5.73644L6.51705 42.3415ZM2.88652 42.3415H5.19768L4.25816 44.2721C4.21402 44.3625 4.19362 44.4626 4.19888 44.5631C4.20414 44.6635 4.23489 44.761 4.28824 44.8463C4.34158 44.9315 4.41575 45.0018 4.50377 45.0505C4.59179 45.0992 4.69076 45.1247 4.79134 45.1245H7.31996C7.43121 45.1245 7.54023 45.0933 7.63452 45.0342C7.72882 44.9752 7.80458 44.8908 7.85314 44.7907L9.04566 42.3415H13.0881L12.1486 44.2721C12.1046 44.3623 12.0842 44.4622 12.0893 44.5625C12.0945 44.6627 12.125 44.76 12.178 44.8453C12.231 44.9305 12.3047 45.0009 12.3924 45.0499C12.48 45.0988 12.5786 45.1248 12.679 45.1252H15.2083C15.3195 45.1251 15.4285 45.0937 15.5227 45.0347C15.617 44.9757 15.6928 44.8914 15.7415 44.7914L16.9333 42.3422H20.9757L20.0362 44.2728C19.9923 44.3633 19.972 44.4634 19.9774 44.5639C19.9828 44.6643 20.0136 44.7617 20.067 44.8469C20.1204 44.9322 20.1946 45.0024 20.2826 45.0511C20.3706 45.0998 20.4695 45.1253 20.5701 45.1252H23.0987C23.21 45.1252 23.3189 45.0938 23.4132 45.0348C23.5075 44.9758 23.5833 44.8914 23.6319 44.7914L24.8244 42.3422H28.8669L27.9273 44.2728C27.8832 44.3632 27.8628 44.4633 27.8681 44.5638C27.8733 44.6642 27.9041 44.7617 27.9574 44.847C28.0108 44.9322 28.0849 45.0025 28.173 45.0512C28.261 45.0999 28.3599 45.1254 28.4605 45.1252H30.9891C31.1004 45.1252 31.2094 45.0939 31.3037 45.0349C31.398 44.9759 31.4738 44.8915 31.5223 44.7914L32.7148 42.3422H36.7573L35.8178 44.2728C35.7738 44.3632 35.7536 44.4633 35.7589 44.5637C35.7643 44.664 35.7951 44.7614 35.8484 44.8466C35.9017 44.9318 35.9758 45.0021 36.0637 45.0508C36.1516 45.0996 36.2504 45.1252 36.3509 45.1252H38.8796C38.9909 45.1252 39.1 45.0939 39.1944 45.0349C39.2888 44.9758 39.3647 44.8915 39.4134 44.7914L40.606 42.3422H41.4361C41.8854 42.3426 42.3162 42.5212 42.634 42.8388C42.9518 43.1565 43.1305 43.5872 43.1311 44.0365V48.8624L41.4291 48.0908C41.3524 48.0563 41.2693 48.0385 41.1852 48.0385C41.1011 48.0385 41.0179 48.0563 40.9412 48.0908L38.6496 49.1307L36.3579 48.0908C36.2812 48.0563 36.1981 48.0385 36.114 48.0385C36.0299 48.0385 35.9467 48.0563 35.87 48.0908L33.5742 49.1307L31.2826 48.0908C31.2059 48.0563 31.1227 48.0385 31.0386 48.0385C30.9545 48.0385 30.8714 48.0563 30.7947 48.0908L28.5003 49.1307L26.2086 48.0908C26.1319 48.0563 26.0488 48.0385 25.9647 48.0385C25.8806 48.0385 25.7974 48.0563 25.7207 48.0908L23.4291 49.1307L21.1374 48.0908C21.0607 48.0563 20.9776 48.0385 20.8935 48.0385C20.8094 48.0385 20.7262 48.0563 20.6496 48.0908L18.3579 49.1307L16.0663 48.0908C15.9896 48.0563 15.9064 48.0385 15.8223 48.0385C15.7382 48.0385 15.6551 48.0563 15.5784 48.0908L13.286 49.1307L10.9944 48.0908C10.9177 48.0563 10.8346 48.0385 10.7505 48.0385C10.6664 48.0385 10.5832 48.0563 10.5065 48.0908L8.21417 49.1307L5.91835 48.0908C5.84165 48.0563 5.75851 48.0385 5.67441 48.0385C5.59031 48.0385 5.50716 48.0563 5.43047 48.0908L3.13046 49.1307L1.1866 48.249V44.0358C1.18715 43.5863 1.36613 43.1553 1.68421 42.8376C2.0023 42.52 2.43347 42.3415 2.88303 42.3415H2.88652ZM5.73992 57.2163H6.94917L7.72629 58.8137H6.51356L5.73992 57.2163ZM13.6297 57.2163H14.8389L15.616 58.8137H14.4033L13.6297 57.2163ZM21.5194 57.2163H22.7293L23.503 58.8137H22.2972L21.5194 57.2163ZM29.4098 57.2163H30.619L31.3927 58.8137H30.1834L29.4098 57.2163ZM37.2995 57.2163H38.5088L39.2824 58.8137H38.0732L37.2995 57.2163ZM41.4361 58.8137H40.6025L39.41 56.3639C39.3612 56.2638 39.2853 56.1794 39.1909 56.1204C39.0965 56.0613 38.9874 56.03 38.8761 56.03H36.3475C36.2469 56.0302 36.1481 56.0559 36.0602 56.1047C35.9723 56.1535 35.8982 56.2239 35.8449 56.3091C35.7917 56.3944 35.7609 56.4918 35.7555 56.5922C35.7502 56.6926 35.7704 56.7927 35.8143 56.8831L36.7538 58.8137H32.7114L31.5188 56.3639C31.4703 56.2638 31.3945 56.1794 31.3002 56.1203C31.2059 56.0613 31.0969 56.03 30.9857 56.03H28.4577C28.3571 56.03 28.2582 56.0556 28.1702 56.1044C28.0822 56.1531 28.008 56.2235 27.9547 56.3088C27.9014 56.3941 27.8706 56.4916 27.8654 56.5921C27.8601 56.6925 27.8805 56.7927 27.9246 56.8831L28.8641 58.8137H24.8216L23.6291 56.3639C23.5805 56.2638 23.5047 56.1795 23.4104 56.1205C23.3161 56.0614 23.2072 56.0301 23.0959 56.03H20.568C20.4674 56.0301 20.3685 56.0557 20.2805 56.1045C20.1925 56.1532 20.1183 56.2236 20.065 56.3088C20.0116 56.3941 19.9808 56.4916 19.9754 56.592C19.97 56.6925 19.9902 56.7926 20.0341 56.8831L20.9729 58.8137H16.9305L15.7387 56.3639C15.69 56.2639 15.6142 56.1796 15.5199 56.1206C15.4257 56.0615 15.3167 56.0302 15.2055 56.03H12.679C12.5784 56.0302 12.4796 56.0559 12.3917 56.1047C12.3038 56.1535 12.2298 56.2239 12.1765 56.3091C12.1232 56.3944 12.0924 56.4918 12.087 56.5922C12.0817 56.6926 12.1019 56.7927 12.1458 56.8831L13.0853 58.8137H9.04287L7.85035 56.3639C7.8018 56.2638 7.72603 56.1794 7.63174 56.1203C7.53744 56.0613 7.42843 56.03 7.31717 56.03H4.78786C4.68725 56.03 4.58829 56.0556 4.50029 56.1044C4.41229 56.1531 4.33814 56.2235 4.28482 56.3088C4.2315 56.3941 4.20075 56.4916 4.19548 56.5921C4.19021 56.6925 4.21058 56.7927 4.25467 56.8831L5.19419 58.8137H2.88303C2.43365 58.8132 2.00283 58.6344 1.68507 58.3167C1.36731 57.9989 1.18855 57.5681 1.188 57.1187V52.2929L2.88721 53.0637C2.96391 53.0982 3.04705 53.1161 3.13115 53.1161C3.21526 53.1161 3.2984 53.0982 3.3751 53.0637L5.66953 52.0252L7.96187 53.0651C8.03857 53.0996 8.12171 53.1175 8.20581 53.1175C8.28991 53.1175 8.37306 53.0996 8.44975 53.0651L10.7435 52.0252L13.0358 53.0651C13.1125 53.0996 13.1957 53.1175 13.2798 53.1175C13.3639 53.1175 13.447 53.0996 13.5237 53.0651L15.8154 52.0252L18.107 53.0651C18.1837 53.0997 18.2668 53.1176 18.3509 53.1176C18.4351 53.1176 18.5182 53.0997 18.5949 53.0651L20.8907 52.0252L23.1824 53.0637C23.2591 53.0982 23.3422 53.1161 23.4263 53.1161C23.5104 53.1161 23.5935 53.0982 23.6702 53.0637L25.964 52.0252L28.2556 53.0651C28.3323 53.0996 28.4155 53.1175 28.4996 53.1175C28.5837 53.1175 28.6668 53.0996 28.7435 53.0651L31.0379 52.0252L33.3289 53.0651C33.4056 53.0995 33.4887 53.1173 33.5728 53.1173C33.6569 53.1173 33.74 53.0995 33.8168 53.0651L36.1112 52.0252L38.4021 53.0651C38.4789 53.0995 38.562 53.1173 38.6461 53.1173C38.7302 53.1173 38.8133 53.0995 38.89 53.0651L41.1852 52.0252L43.1283 52.9069V57.1201C43.1274 57.5694 42.9484 57.9999 42.6305 58.3174C42.3126 58.6349 41.8818 58.8134 41.4326 58.8137H41.4361Z" fill="#FF861D"/>
</svg>
