<svg width="72" height="60" viewBox="0 0 72 60" fill="none" xmlns="http://www.w3.org/2000/svg">
<g id="Group">
<g id="Group_2">
<path id="Vector" fill-rule="evenodd" clip-rule="evenodd" d="M6.39131 29.8315C5.93902 29.8315 5.57422 29.4603 5.57422 29.0024V5.78018C5.57422 5.32224 5.93879 4.95117 6.39131 4.95117C6.8426 4.95113 7.20699 5.32234 7.20699 5.78018L7.20713 29.0024C7.20713 29.46 6.84241 29.8315 6.39131 29.8315Z" fill="#FF861D"/>
<path id="Vector_2" fill-rule="evenodd" clip-rule="evenodd" d="M6.39351 29.8325H1.90687C1.7562 29.8325 1.63419 29.9568 1.63419 30.1092L1.63428 58.0651C1.63428 58.2172 1.7562 58.3417 1.90664 58.3417L6.39068 58.3416C6.5397 58.3416 6.66304 58.2175 6.66304 58.0651L6.66322 30.1091C6.66322 30.0084 6.61196 29.9425 6.5822 29.9121C6.54676 29.8756 6.4843 29.8327 6.39351 29.8325ZM6.39067 59.9996H1.90687C0.85547 59.9996 0 59.1319 0 58.065L9.16332e-05 30.109C9.16332e-05 29.0423 0.855383 28.1745 1.90665 28.1745L6.39068 28.1743C6.38921 28.1743 6.39224 28.1743 6.39068 28.1743C6.8958 28.1742 7.37656 28.3744 7.73687 28.7381C8.09727 29.1034 8.29723 29.5906 8.29723 30.1091L8.29742 58.065C8.29742 59.1317 7.44185 59.9996 6.39067 59.9996Z" fill="#FF861D"/>
<path id="Vector_3" fill-rule="evenodd" clip-rule="evenodd" d="M64.9695 29.8315C64.5186 29.8315 64.1523 29.4603 64.1523 29.0024L64.1524 5.78018C64.1524 5.32224 64.5184 4.95117 64.9694 4.95117C65.4209 4.95113 65.7865 5.32234 65.7865 5.78018L65.7866 29.0024C65.7866 29.46 65.4206 29.8315 64.9695 29.8315Z" fill="#FF861D"/>
<path id="Vector_4" fill-rule="evenodd" clip-rule="evenodd" d="M69.4561 29.8325H64.9691C64.8188 29.8325 64.6967 29.9568 64.6967 30.1092L64.6968 58.0651C64.6968 58.2172 64.8186 58.3417 64.969 58.3417L69.4532 58.3416C69.6035 58.3416 69.7255 58.2175 69.7255 58.0651V30.1091C69.7255 30.0084 69.6758 29.9425 69.6446 29.9122C69.6093 29.8756 69.5467 29.8327 69.4561 29.8325ZM69.4532 59.9996H64.9691C63.918 59.9996 63.0625 59.1319 63.0625 58.065L63.0626 30.109C63.0626 29.0423 63.9179 28.1745 64.969 28.1745L69.4532 28.1743C69.4504 28.1743 69.4548 28.1743 69.4532 28.1743C69.9583 28.1742 70.4404 28.3744 70.7994 28.7381C71.1611 29.1034 71.3596 29.5906 71.3596 30.1091V58.065C71.3596 59.1317 70.5043 59.9996 69.4532 59.9996Z" fill="#FF861D"/>
<path id="Vector_5" fill-rule="evenodd" clip-rule="evenodd" d="M57.5643 52.4643C57.1133 52.4643 56.7472 52.0932 56.7472 51.6354V43.8642C56.7472 41.899 55.1711 40.3004 53.2348 40.3004L18.1324 40.3002C16.1947 40.3002 14.6186 41.8992 14.6186 43.8643L14.6186 51.6352C14.6186 52.0931 14.254 52.4644 13.8015 52.4644C13.3505 52.4643 12.9844 52.0932 12.9844 51.6354L12.9844 43.8641C12.9844 40.9848 15.2938 38.6423 18.1324 38.6423L53.235 38.6421C56.0721 38.6421 58.3814 40.9848 58.3814 43.8643V51.6352C58.3814 52.0931 58.0154 52.4644 57.5643 52.4643Z" fill="#FF861D"/>
<path id="Vector_6" fill-rule="evenodd" clip-rule="evenodd" d="M52.9169 40.2986C52.5779 40.2986 52.2615 40.0832 52.1451 39.74L48.4797 28.9729C48.1366 27.9645 47.1986 27.2872 46.1475 27.2872L25.2167 27.287C24.164 27.287 23.2262 27.9646 22.8843 28.9728L19.219 39.7399C19.0712 40.1726 18.6059 40.4026 18.1804 40.253C17.7536 40.1033 17.5264 39.6315 17.6739 39.1987L21.3396 28.4318C21.91 26.7552 23.4674 25.629 25.2164 25.629L46.1475 25.6289C47.8952 25.6289 49.4541 26.7554 50.0244 28.4317L53.6903 39.1985C53.8361 39.6314 53.6105 40.1035 53.1836 40.253C53.0956 40.2837 53.0048 40.2986 52.9169 40.2986Z" fill="#FF861D"/>
<path id="Vector_7" fill-rule="evenodd" clip-rule="evenodd" d="M48.9701 40.2986C48.6312 40.2986 48.3145 40.0834 48.1982 39.7401L45.5897 32.0794C45.3838 31.4734 44.8206 31.0665 44.1894 31.0665L27.1623 31.0663C26.5313 31.0663 25.9679 31.4733 25.7622 32.0788L23.1563 39.7396C23.0088 40.1726 22.5434 40.4025 22.1179 40.253C21.691 40.1036 21.4639 39.6318 21.6114 39.1989L24.2176 31.5382C24.65 30.2645 25.8331 29.4084 27.1623 29.4084L44.1895 29.4082C45.5188 29.4082 46.7016 30.2644 47.1343 31.5385L49.7419 39.1989C49.8893 39.6315 49.6636 40.1036 49.2366 40.253C49.1489 40.284 49.0579 40.2989 48.9701 40.2986Z" fill="#FF861D"/>
<path id="Vector_8" fill-rule="evenodd" clip-rule="evenodd" d="M13.3982 52.4628C12.8763 52.4628 12.4506 52.8939 12.4506 53.4239C12.4509 53.9538 12.8762 54.3849 13.3982 54.3849L57.9598 54.3848C58.4833 54.3848 58.9073 53.9538 58.9073 53.4239C58.9075 52.8938 58.4831 52.4628 57.9596 52.4628L13.3982 52.4628ZM57.9598 56.0429H13.3982C11.9756 56.0429 10.8164 54.8681 10.8164 53.4239C10.8167 51.9796 11.9754 50.8047 13.3982 50.8047L57.9598 50.8047C59.384 50.8047 60.5414 51.9796 60.5414 53.4239C60.5417 54.868 59.3839 56.043 57.9598 56.0429Z" fill="#FF861D"/>
<path id="Vector_9" fill-rule="evenodd" clip-rule="evenodd" d="M19.3861 44.727C18.9364 44.727 18.5717 45.0977 18.5717 45.5532C18.5718 46.0088 18.9363 46.3794 19.386 46.3794L21.4486 46.3792C21.6673 46.3792 21.8712 46.2932 22.0259 46.1367C22.1792 45.9809 22.2628 45.7744 22.2628 45.5548C22.2628 45.0975 21.8968 44.727 21.4485 44.727L19.3861 44.727ZM21.4486 48.0373H19.3861C18.0356 48.0373 16.9375 46.923 16.9375 45.5532C16.9376 44.1832 18.0355 43.0689 19.386 43.0689L21.4486 43.0688C22.7978 43.0688 23.897 44.1834 23.897 45.5532C23.897 46.2147 23.6445 46.8387 23.182 47.308C22.7199 47.7783 22.104 48.0375 21.4486 48.0373Z" fill="#FF861D"/>
<path id="Vector_10" fill-rule="evenodd" clip-rule="evenodd" d="M49.9133 44.727C49.4652 44.727 49.099 45.0977 49.099 45.5532C49.099 46.0088 49.465 46.3794 49.9133 46.3794L51.9761 46.3792C52.4258 46.3792 52.7901 46.0088 52.7901 45.5532C52.7904 45.0975 52.4256 44.727 51.9759 44.727L49.9133 44.727ZM51.9761 48.0373H49.9133C48.5628 48.0373 47.4648 46.923 47.4648 45.5532C47.4648 44.1832 48.5628 43.0689 49.9133 43.0689L51.9761 43.0688C53.3266 43.0688 54.4243 44.1834 54.4243 45.5532C54.4246 46.923 53.3264 48.0375 51.9761 48.0373Z" fill="#FF861D"/>
<path id="Vector_11" fill-rule="evenodd" clip-rule="evenodd" d="M28.9171 46.8211H42.4416L40.6913 44.2834H30.6675L28.9171 46.8211ZM42.6418 48.4792H28.717C28.1454 48.4792 27.6247 48.1587 27.3608 47.6428C27.0969 47.1268 27.1367 46.5111 27.4643 46.0357L29.3596 43.2882C29.6433 42.874 30.1128 42.6255 30.6136 42.6255L40.7466 42.6256C41.2473 42.6256 41.7153 42.8742 42.0019 43.2907L43.8959 46.0361C44.2234 46.5115 44.263 47.1271 43.9992 47.6427C43.7341 48.1586 43.2147 48.4792 42.6418 48.4792Z" fill="#FF861D"/>
<path id="Vector_12" fill-rule="evenodd" clip-rule="evenodd" d="M20.4868 59.9997H17.2395C15.807 59.9997 14.6406 58.8167 14.6406 57.3626L14.6407 55.2136C14.6407 54.756 15.0067 54.3848 15.4577 54.3848C15.9091 54.3845 16.2748 54.756 16.2748 55.2138L16.2749 57.3623C16.2749 57.9025 16.7075 58.3417 17.2395 58.3417L20.4868 58.3416C21.0188 58.3416 21.4512 57.9025 21.4512 57.3626L21.4514 55.2136C21.4514 54.7557 21.8172 54.3848 22.2683 54.3848C22.7194 54.3845 23.0854 54.7558 23.0854 55.2137L23.0856 57.3623C23.0856 58.8167 21.9193 59.9997 20.4868 59.9997Z" fill="#FF861D"/>
<path id="Vector_13" fill-rule="evenodd" clip-rule="evenodd" d="M54.1154 59.9997H50.8685C49.4357 59.9997 48.2695 58.8167 48.2695 57.3626L48.2697 55.2136C48.2697 54.756 48.6355 54.3848 49.0866 54.3848C49.5378 54.3845 49.9037 54.756 49.9037 55.2138L49.9039 57.3623C49.9039 57.9025 50.3364 58.3417 50.8683 58.3417L54.1154 58.3416C54.6475 58.3416 55.08 57.9025 55.08 57.3626L55.0803 55.2136C55.0803 54.7557 55.446 54.3848 55.8971 54.3848C56.3484 54.3845 56.7142 54.7558 56.7142 55.2137L56.7145 57.3623C56.7145 58.8167 55.5482 59.9997 54.1154 59.9997Z" fill="#FF861D"/>
<path id="Vector_14" fill-rule="evenodd" clip-rule="evenodd" d="M22.3602 17.6939C21.9092 17.6939 21.543 17.3227 21.543 16.8648L21.5431 15.7194C21.5431 15.2615 21.909 14.8906 22.3601 14.8906C22.8112 14.8906 23.1772 15.2617 23.1772 15.7195L23.1773 16.8648C23.1773 17.3224 22.8112 17.6939 22.3602 17.6939Z" fill="#FF861D"/>
<path id="Vector_15" fill-rule="evenodd" clip-rule="evenodd" d="M27.6923 17.6939C27.2397 17.6939 26.875 17.3227 26.875 16.8648L26.8752 15.7194C26.8752 15.2615 27.2395 14.8906 27.6921 14.8906C28.1432 14.8906 28.5077 15.2617 28.5077 15.7195L28.5078 16.8648C28.5078 17.3224 28.1431 17.6939 27.6923 17.6939Z" fill="#FF861D"/>
<path id="Vector_16" fill-rule="evenodd" clip-rule="evenodd" d="M33.0204 17.6939C32.5691 17.6939 32.2031 17.3227 32.2031 16.8648L32.2034 15.7194C32.2034 15.2615 32.5691 14.8906 33.0202 14.8906C33.4714 14.8906 33.8373 15.2617 33.8373 15.7195L33.8375 16.8648C33.8375 17.3224 33.4713 17.6939 33.0204 17.6939Z" fill="#FF861D"/>
<path id="Vector_17" fill-rule="evenodd" clip-rule="evenodd" d="M38.3445 17.6939C37.8936 17.6939 37.5273 17.3227 37.5273 16.8648L37.5274 15.7194C37.5274 15.2615 37.8933 14.8906 38.3444 14.8906C38.7955 14.8906 39.1615 15.2617 39.1615 15.7195L39.1616 16.8648C39.1616 17.3224 38.7955 17.6939 38.3445 17.6939Z" fill="#FF861D"/>
<path id="Vector_18" fill-rule="evenodd" clip-rule="evenodd" d="M43.6688 17.6939C43.2178 17.6939 42.8516 17.3227 42.8516 16.8648L42.8517 15.7194C42.8517 15.2615 43.2176 14.8906 43.6687 14.8906C44.1198 14.8906 44.4858 15.2617 44.4858 15.7195L44.4859 16.8648C44.4859 17.3224 44.1198 17.6939 43.6688 17.6939Z" fill="#FF861D"/>
<path id="Vector_19" fill-rule="evenodd" clip-rule="evenodd" d="M49.0007 17.6939C48.5497 17.6939 48.1836 17.3227 48.1836 16.8648V15.7194C48.1836 15.2615 48.5495 14.8906 49.0007 14.8906C49.4533 14.8906 49.8178 15.2617 49.8178 15.7195V16.8648C49.8178 17.3224 49.4532 17.6939 49.0007 17.6939Z" fill="#FF861D"/>
<path id="Vector_20" fill-rule="evenodd" clip-rule="evenodd" d="M25.0283 22.7974C24.5769 22.7974 24.2109 22.4262 24.2109 21.9683L24.2112 20.8229C24.2112 20.365 24.5769 19.9941 25.028 19.9941C25.4792 19.9941 25.8451 20.3652 25.8451 20.8231L25.8454 21.9683C25.8454 22.4259 25.4791 22.7974 25.0283 22.7974Z" fill="#FF861D"/>
<path id="Vector_21" fill-rule="evenodd" clip-rule="evenodd" d="M30.3525 22.7974C29.9012 22.7974 29.5352 22.4262 29.5352 21.9683L29.5354 20.8229C29.5354 20.365 29.9011 19.9941 30.3523 19.9941C30.8048 19.9941 31.1693 20.3652 31.1693 20.8231L31.1696 21.9683C31.1696 22.4259 30.8048 22.7974 30.3525 22.7974Z" fill="#FF861D"/>
<path id="Vector_22" fill-rule="evenodd" clip-rule="evenodd" d="M35.6843 22.7974C35.2333 22.7974 34.8672 22.4262 34.8672 21.9683L34.8672 20.8229C34.8672 20.365 35.2332 19.9941 35.6843 19.9941C36.1357 19.9941 36.5014 20.3652 36.5014 20.8231L36.5014 21.9683C36.5014 22.4259 36.1354 22.7974 35.6843 22.7974Z" fill="#FF861D"/>
<path id="Vector_23" fill-rule="evenodd" clip-rule="evenodd" d="M41.0085 22.7974C40.5575 22.7974 40.1914 22.4262 40.1914 21.9683L40.1915 20.8229C40.1915 20.365 40.5574 19.9941 41.0085 19.9941C41.4599 19.9941 41.8256 20.3652 41.8256 20.8231L41.8256 21.9683C41.8256 22.4259 41.4596 22.7974 41.0085 22.7974Z" fill="#FF861D"/>
<path id="Vector_24" fill-rule="evenodd" clip-rule="evenodd" d="M46.3369 22.7974C45.8856 22.7974 45.5195 22.4262 45.5195 21.9683L45.5198 20.8229C45.5198 20.365 45.8855 19.9941 46.3366 19.9941C46.7879 19.9941 47.1537 20.3652 47.1537 20.8231L47.154 21.9683C47.154 22.4259 46.7877 22.7974 46.3369 22.7974Z" fill="#FF861D"/>
<path id="Vector_25" fill-rule="evenodd" clip-rule="evenodd" d="M69.4564 6.60928H1.90717C1.45584 6.60928 1.08984 6.23811 1.08984 5.78022C1.09007 5.32229 1.45575 4.95122 1.90694 4.95122L69.4564 4.95117C69.9074 4.95117 70.2734 5.32239 70.2734 5.78023C70.2735 6.23783 69.9074 6.60928 69.4564 6.60928Z" fill="#FF861D"/>
<path id="Vector_26" fill-rule="evenodd" clip-rule="evenodd" d="M1.90717 29.8329C1.45584 29.8329 1.08984 29.4617 1.08984 29.0038L1.09007 2.30678C1.09007 1.03468 2.10975 0.00032541 3.36235 0.00032541L67.9997 0C69.2537 0 70.2734 1.03497 70.2734 2.30679L70.2735 29.0023C70.2735 29.4599 69.9074 29.8313 69.4563 29.8313C69.0054 29.8313 68.6392 29.4601 68.6392 29.0023L68.6393 2.30679C68.6393 1.94926 68.3526 1.65844 67.9994 1.65844L3.3627 1.65811C3.01059 1.65811 2.72406 1.94926 2.72406 2.30679L2.72433 29.0038C2.72433 29.4614 2.35795 29.8329 1.90717 29.8329Z" fill="#FF861D"/>
<path id="Vector_27" fill-rule="evenodd" clip-rule="evenodd" d="M47.4909 12.0567H23.8759C22.287 12.0567 20.9961 10.7463 20.9961 9.1351L20.9962 5.78018C20.9962 5.32224 21.3621 4.95117 21.8132 4.95117C22.2643 4.95113 22.6303 5.32234 22.6303 5.78018L22.6304 9.13491C22.6304 9.83189 23.1892 10.399 23.8758 10.399L47.4909 10.3989C48.1774 10.3989 48.7362 9.83203 48.7362 9.1351L48.7363 5.78018C48.7363 5.32225 49.1022 4.95117 49.5533 4.95117C50.0044 4.95113 50.3704 5.32234 50.3704 5.78018L50.3705 9.13492C50.3705 10.7461 49.078 12.0569 47.4909 12.0567Z" fill="#FF861D"/>
</g>
</g>
</svg>
