<svg width="66" height="60" viewBox="0 0 66 60" fill="none" xmlns="http://www.w3.org/2000/svg">
<path id="Vector" d="M65.5362 24.7929C65.5356 24.102 65.2927 23.4332 64.85 22.9029C64.4072 22.3725 63.7925 22.0142 63.1129 21.8902L60.6752 11.2177C60.4011 9.99352 59.717 8.89969 58.7363 8.11742C57.7556 7.33515 56.537 6.91138 55.2825 6.91632H43.2106V5.74858C43.2088 4.22438 42.6024 2.76314 41.5246 1.68544C40.4468 0.607746 38.9854 0.00160335 37.4613 0H28.0588C26.5346 0.00160335 25.0732 0.607746 23.9954 1.68544C22.9176 2.76314 22.3112 4.22438 22.3094 5.74858V6.91405H10.2375C8.98299 6.90911 7.76445 7.33288 6.78372 8.11515C5.80299 8.89742 5.11892 9.99125 4.84483 11.2154L2.41015 21.8932C1.73553 22.0195 1.12594 22.3767 0.686122 22.9036C0.246303 23.4305 0.00371635 24.0941 4.23517e-05 24.7804C-0.00363165 25.4668 0.231837 26.1329 0.665989 26.6645C1.10014 27.1961 1.70587 27.5598 2.3791 27.6933L7.02431 55.9068C7.20912 57.0514 7.79626 58.0925 8.68013 58.8428C9.56399 59.5931 10.6866 60.0034 11.846 60H53.674C54.8334 60.0034 55.956 59.5931 56.8399 58.8428C57.7238 58.0925 58.3109 57.0514 58.4957 55.9068L63.1409 27.6933C63.815 27.5636 64.4229 27.2031 64.86 26.6737C65.2972 26.1444 65.5363 25.4794 65.5362 24.7929ZM23.5968 5.74858C23.599 4.56634 24.0697 3.43317 24.9057 2.59728C25.7418 1.76138 26.875 1.29091 28.0572 1.28891H37.4613C38.6435 1.29091 39.7767 1.76138 40.6128 2.59728C41.4488 3.43317 41.9195 4.56634 41.9217 5.74858V6.91405H40.7926V5.74858C40.7926 4.86486 40.4415 4.01733 39.8166 3.39245C39.1917 2.76756 38.3442 2.41651 37.4605 2.41651H28.0588C27.175 2.41651 26.3275 2.76756 25.7026 3.39245C25.0777 4.01733 24.7267 4.86486 24.7267 5.74858V6.91405H23.5968V5.74858ZM26.0201 6.91405V5.74858C26.0201 5.48007 26.073 5.21418 26.1758 4.96611C26.2785 4.71804 26.4291 4.49264 26.619 4.30277C26.8089 4.11291 27.0343 3.9623 27.2824 3.85954C27.5304 3.75679 27.7963 3.7039 28.0648 3.7039H37.4613C37.7298 3.7039 37.9956 3.75679 38.2437 3.85954C38.4918 3.9623 38.7172 4.11291 38.9071 4.30277C39.0969 4.49264 39.2475 4.71804 39.3503 4.96611C39.453 5.21418 39.5059 5.48007 39.5059 5.74858V6.91405H26.0201ZM6.10345 11.5025C6.31382 10.5636 6.83857 9.72473 7.5908 9.12482C8.34303 8.52491 9.27761 8.19993 10.2398 8.20371H55.2825C56.2443 8.20031 57.1784 8.52547 57.9302 9.12536C58.682 9.72525 59.2064 10.5639 59.4166 11.5025L61.777 21.8425H54.1155V20.1462C54.1155 19.9752 54.0476 19.8113 53.9268 19.6905C53.8059 19.5696 53.642 19.5017 53.4711 19.5017H49.618C49.4471 19.5017 49.2832 19.5696 49.1623 19.6905C49.0415 19.8113 48.9736 19.9752 48.9736 20.1462V21.8425H16.5465V20.1462C16.5465 19.9752 16.4786 19.8113 16.3577 19.6905C16.2368 19.5696 16.0729 19.5017 15.902 19.5017H12.0512C11.8803 19.5017 11.7164 19.5696 11.5955 19.6905C11.4746 19.8113 11.4067 19.9752 11.4067 20.1462V21.8425H3.74298L6.10345 11.5025ZM52.8282 20.7906V29.8175C52.8282 30.1571 52.6932 30.4828 52.4531 30.723C52.2129 30.9631 51.8872 31.0981 51.5476 31.0981C51.208 31.0981 50.8822 30.9631 50.6421 30.723C50.4019 30.4828 50.267 30.1571 50.267 29.8175V20.7906H52.8282ZM48.9736 26.4544H16.5465V23.1314H48.9736V26.4544ZM15.2568 20.7906V29.8175C15.2568 30.1571 15.1219 30.4828 14.8817 30.723C14.6416 30.9631 14.3158 31.0981 13.9762 31.0981C13.6366 31.0981 13.3109 30.9631 13.0707 30.723C12.8306 30.4828 12.6956 30.1571 12.6956 29.8175V20.7906H15.2568ZM1.27346 24.7929C1.27466 24.3526 1.45009 23.9307 1.76142 23.6193C2.07275 23.308 2.49466 23.1326 2.93495 23.1314H11.4045V26.4544H2.93495C2.49466 26.4532 2.07275 26.2777 1.76142 25.9664C1.45009 25.6551 1.27466 25.2332 1.27346 24.7929ZM57.2242 55.6948C57.0878 56.5373 56.6554 57.3036 56.0046 57.8559C55.3539 58.4082 54.5276 58.7104 53.674 58.708H11.846C10.9931 58.7095 10.1676 58.4069 9.51771 57.8547C8.86777 57.3025 8.4359 56.5367 8.29958 55.6948L3.69451 27.7433H11.4045V29.8175C11.3986 30.1587 11.4608 30.4976 11.5873 30.8145C11.7138 31.1315 11.9021 31.42 12.1414 31.6634C12.3806 31.9067 12.6659 32.1 12.9806 32.2319C13.2953 32.3639 13.6331 32.4318 13.9743 32.4318C14.3156 32.4318 14.6534 32.3639 14.9681 32.2319C15.2828 32.1 15.5681 31.9067 15.8073 31.6634C16.0465 31.42 16.2349 31.1315 16.3614 30.8145C16.4879 30.4976 16.55 30.1587 16.5442 29.8175V27.7433H48.9736V29.8175C48.9677 30.1587 49.0298 30.4976 49.1564 30.8145C49.2829 31.1315 49.4712 31.42 49.7105 31.6634C49.9497 31.9067 50.2349 32.1 50.5496 32.2319C50.8643 32.3639 51.2022 32.4318 51.5434 32.4318C51.8847 32.4318 52.2225 32.3639 52.5372 32.2319C52.8519 32.1 53.1372 31.9067 53.3764 31.6634C53.6156 31.42 53.804 31.1315 53.9305 30.8145C54.057 30.4976 54.1191 30.1587 54.1133 29.8175V27.7433H61.8263L57.2242 55.6948ZM62.5851 26.4544H54.1155V23.1314H62.5851C63.0257 23.1314 63.4483 23.3064 63.7599 23.618C64.0715 23.9296 64.2466 24.3522 64.2466 24.7929C64.2466 25.2335 64.0715 25.6561 63.7599 25.9677C63.4483 26.2793 63.0257 26.4544 62.5851 26.4544ZM53.0553 40.73C53.2389 40.7368 53.4209 40.6939 53.5822 40.606C53.7434 40.518 53.878 40.3882 53.9717 40.2302C54.0762 40.0166 54.122 39.7792 54.1046 39.542C54.0872 39.3049 54.0071 39.0767 53.8725 38.8807L52.8441 37.0988C52.6199 36.7439 52.3128 36.4487 51.9492 36.2389C51.5856 36.029 51.1765 35.9106 50.757 35.894H45.0773C44.6579 35.9105 44.2488 36.0289 43.8854 36.2388C43.5219 36.4487 43.2149 36.7438 42.991 37.0988L41.6498 39.4222H23.8717L22.5306 37.0988C22.3066 36.7438 21.9996 36.4487 21.6362 36.2388C21.2727 36.0289 20.8636 35.9105 20.4442 35.894H14.7646C14.3451 35.9106 13.9359 36.029 13.5723 36.2389C13.2088 36.4487 12.9017 36.7439 12.6775 37.0988L11.6491 38.8807C11.5145 39.0767 11.4344 39.3049 11.4169 39.542C11.3995 39.7792 11.4454 40.0166 11.5499 40.2302C11.6436 40.3882 11.7781 40.518 11.9394 40.606C12.1006 40.6939 12.2826 40.7368 12.4662 40.73H19.047L20.4859 43.2291L19.047 45.7281H12.7131C12.4891 45.7067 12.2636 45.7502 12.0636 45.8533C11.8636 45.9564 11.6975 46.1148 11.5849 46.3097C11.4724 46.5045 11.4183 46.7276 11.429 46.9524C11.4397 47.1772 11.5148 47.3941 11.6453 47.5774L12.6737 49.3593C12.8979 49.7143 13.205 50.0094 13.5686 50.2193C13.9321 50.4292 14.3413 50.5475 14.7608 50.5642H20.4404C20.8598 50.5476 21.2689 50.4293 21.6324 50.2194C21.9958 50.0095 22.3028 49.7143 22.5268 49.3593L23.8679 47.0367H41.6483L42.9895 49.3593C43.2135 49.7142 43.5205 50.0093 43.8839 50.2192C44.2474 50.4291 44.6564 50.5475 45.0758 50.5642H50.7555C51.1749 50.5475 51.5841 50.4292 51.9477 50.2193C52.3112 50.0094 52.6184 49.7143 52.8425 49.3593L53.8747 47.5676C54.0052 47.3843 54.0803 47.1673 54.091 46.9426C54.1017 46.7178 54.0476 46.4947 53.9351 46.2998C53.8225 46.1049 53.6564 45.9465 53.4564 45.8434C53.2564 45.7403 53.031 45.6969 52.807 45.7183H46.4768L45.0379 43.2192L46.4768 40.7202L53.0553 40.73ZM45.5438 39.763L43.7331 42.9034C43.6766 43.0014 43.6468 43.1125 43.6468 43.2257C43.6468 43.3388 43.6766 43.4499 43.7331 43.5479L45.5461 46.6884C45.6029 46.7863 45.6844 46.8675 45.7825 46.924C45.8806 46.9805 45.9918 47.0102 46.1049 47.0102H52.7093L51.7293 48.708C51.6186 48.8667 51.4742 48.9991 51.3066 49.0958C51.1389 49.1926 50.9521 49.2512 50.7592 49.2677H45.0796C44.8867 49.2512 44.6999 49.1926 44.5322 49.0958C44.3646 48.9991 44.2203 48.8667 44.1095 48.708L42.582 46.0628C42.5255 45.9648 42.4441 45.8835 42.3462 45.8268C42.2482 45.7702 42.1371 45.7403 42.0239 45.7402H23.4999C23.3867 45.7403 23.2756 45.7702 23.1776 45.8268C23.0797 45.8835 22.9983 45.9648 22.9418 46.0628L21.4143 48.708C21.3035 48.8667 21.1592 48.9991 20.9916 49.0958C20.8239 49.1926 20.6371 49.2512 20.4442 49.2677H14.7646C14.5717 49.2512 14.3849 49.1926 14.2172 49.0958C14.0496 48.9991 13.9052 48.8667 13.7945 48.708L12.8145 47.0102H19.4196C19.5327 47.0102 19.6438 46.9805 19.7418 46.924C19.8397 46.8675 19.9211 46.7863 19.9777 46.6884L21.7907 43.5479C21.8472 43.4499 21.877 43.3388 21.877 43.2257C21.877 43.1125 21.8472 43.0014 21.7907 42.9034L19.9777 39.763C19.9209 39.665 19.8394 39.5838 19.7413 39.5273C19.6432 39.4708 19.532 39.4411 19.4188 39.4411H12.8108L13.7907 37.744C13.9013 37.5851 14.0456 37.4525 14.2132 37.3557C14.3809 37.2588 14.5678 37.2001 14.7608 37.1836H20.4404C20.6334 37.2 20.8204 37.2586 20.9882 37.3553C21.156 37.452 21.3004 37.5845 21.4113 37.7433L22.9387 40.3885C22.9953 40.4865 23.0767 40.5679 23.1746 40.6245C23.2726 40.6811 23.3837 40.711 23.4969 40.7111H42.0201C42.1333 40.711 42.2444 40.6811 42.3424 40.6245C42.4403 40.5679 42.5217 40.4865 42.5783 40.3885L44.1057 37.7433C44.2165 37.5846 44.3608 37.4522 44.5285 37.3555C44.6961 37.2588 44.883 37.2001 45.0758 37.1836H50.7555C50.9483 37.2001 51.1352 37.2588 51.3028 37.3555C51.4704 37.4522 51.6148 37.5846 51.7255 37.7433L52.7055 39.4411H46.1049C45.9918 39.4411 45.8806 39.4708 45.7825 39.5273C45.6844 39.5838 45.6029 39.665 45.5461 39.763H45.5438Z" fill="#FF861D"/>
</svg>
