<svg width="61" height="60" viewBox="0 0 61 60" fill="none" xmlns="http://www.w3.org/2000/svg">
<g id="Group">
<g id="Group_2">
<path id="Vector" fill-rule="evenodd" clip-rule="evenodd" d="M30.1157 25.8725C27.8314 25.8725 25.9729 27.7248 25.9729 30.0003C25.9733 32.2759 27.831 34.127 30.1152 34.127C32.3999 34.127 34.2587 32.276 34.2587 30.0003C34.2591 27.7247 32.3995 25.8725 30.1157 25.8725ZM30.1157 35.501C27.0712 35.501 24.5938 33.0333 24.5938 30.0003C24.5942 26.9662 27.0708 24.4985 30.1152 24.4985C33.1612 24.4985 35.6379 26.9662 35.6379 30.0003C35.6383 33.0333 33.1609 35.501 30.1157 35.501Z" fill="#FF861D"/>
<path id="Vector_2" fill-rule="evenodd" clip-rule="evenodd" d="M30.1159 4.56673C29.735 4.56673 29.4258 4.25905 29.4258 3.87979L29.4263 0.686943C29.4263 0.307715 29.7347 3.62148e-09 30.1154 3.62148e-09C30.4973 -3.85476e-05 30.8049 0.307715 30.8049 0.68702L30.8055 3.87975C30.8055 4.25898 30.4973 4.56677 30.1159 4.56673Z" fill="#FF861D"/>
<path id="Vector_3" fill-rule="evenodd" clip-rule="evenodd" d="M3.89368 30.6874H0.689778C0.308881 30.6874 0 30.3798 0 30.0005C0.000193486 29.62 0.308881 29.3135 0.689506 29.3135L3.89367 29.3135C4.27399 29.3135 4.58287 29.62 4.58287 30.0005C4.58325 30.3798 4.27395 30.6874 3.89368 30.6874Z" fill="#FF861D"/>
<path id="Vector_4" fill-rule="evenodd" clip-rule="evenodd" d="M9.31078 51.4151C9.13459 51.4151 8.95829 51.3472 8.82308 51.2136C8.55382 50.9453 8.55371 50.51 8.82308 50.2416L11.0886 47.985C11.358 47.7179 11.7945 47.7179 12.0639 47.9851C12.3336 48.2534 12.3332 48.6888 12.0639 48.9571L9.79887 51.2136C9.66366 51.3472 9.48747 51.4152 9.31078 51.4151Z" fill="#FF861D"/>
<path id="Vector_5" fill-rule="evenodd" clip-rule="evenodd" d="M30.1159 59.9996C29.735 59.9996 29.4258 59.6919 29.4258 59.3126L29.4263 56.121C29.4263 55.7418 29.7347 55.4341 30.1154 55.4341C30.4973 55.434 30.8049 55.7418 30.8049 56.1211L30.8055 59.3126C30.8055 59.6919 30.4973 59.9996 30.1159 59.9996Z" fill="#FF861D"/>
<path id="Vector_6" fill-rule="evenodd" clip-rule="evenodd" d="M50.9195 51.4151C50.7433 51.4151 50.567 51.3472 50.4318 51.2136L48.1671 48.9571C47.8977 48.6888 47.8973 48.2534 48.1667 47.9851C48.4365 47.7179 48.873 47.7179 49.1424 47.9851L51.4076 50.2416C51.677 50.5099 51.6769 50.9453 51.4075 51.2136C51.2724 51.3472 51.0962 51.4152 50.9195 51.4151Z" fill="#FF861D"/>
<path id="Vector_7" fill-rule="evenodd" clip-rule="evenodd" d="M59.5378 30.6874H56.3345C55.9525 30.6874 55.6445 30.3798 55.6445 30.0005C55.6449 29.62 55.9522 29.3135 56.3341 29.3135L59.5378 29.3135C59.9187 29.3135 60.2273 29.62 60.2273 30.0005C60.2274 30.3798 59.9184 30.6874 59.5378 30.6874Z" fill="#FF861D"/>
<path id="Vector_8" fill-rule="evenodd" clip-rule="evenodd" d="M48.6541 12.2164C48.478 12.2164 48.302 12.1485 48.1667 12.0149C47.8977 11.7465 47.8974 11.3112 48.1667 11.0428L50.432 8.78629C50.7014 8.51913 51.1382 8.51917 51.4076 8.78633C51.677 9.05464 51.677 9.49 51.4076 9.75836L49.1428 12.0148C49.0076 12.1485 48.8312 12.2165 48.6541 12.2164Z" fill="#FF861D"/>
<path id="Vector_9" fill-rule="evenodd" clip-rule="evenodd" d="M6.83757 16.7213C6.85432 16.7213 6.87108 16.7213 6.88783 16.7225C7.08542 16.7368 7.26738 16.8358 7.38703 16.9921C8.33422 18.2348 9.7719 18.9469 11.333 18.9469C14.0642 18.9469 16.2846 16.7344 16.2846 14.014C16.2849 13.8934 16.2786 13.7599 16.2666 13.6072C16.244 13.3234 16.3984 13.0562 16.6557 12.9334C16.912 12.8105 17.2185 12.8571 17.4267 13.0515C17.9119 13.5059 18.5425 13.7551 19.2046 13.7551C20.6379 13.7551 21.8049 12.5935 21.8049 11.1646C21.8053 10.0173 21.0314 8.99518 19.9217 8.67913C19.7425 8.62782 19.5912 8.50616 19.5039 8.34278C19.4155 8.17932 19.3973 7.98737 19.4536 7.80965C19.6094 7.32306 19.6882 6.81734 19.6882 6.30688C19.6886 3.58756 17.4674 1.37399 14.7367 1.37399C12.0073 1.37391 9.78505 3.58756 9.78505 6.30688C9.78505 6.58472 9.81017 6.86622 9.85812 7.14653C9.90838 7.4399 9.76226 7.73331 9.49653 7.87167C9.22956 8.0088 8.90516 7.95992 8.69198 7.74881C8.20006 7.26218 7.54871 6.99387 6.85796 6.99387C5.425 6.99383 4.25758 8.15672 4.25758 9.58435C4.25758 10.2308 4.5018 10.8522 4.94481 11.334C5.12711 11.532 5.17587 11.817 5.07173 12.0652C4.96656 12.312 4.72687 12.4766 4.45637 12.4849C3.04272 12.5266 1.93378 13.6621 1.93378 15.0694C1.93401 16.4983 3.10112 17.6599 4.53415 17.6599C5.21924 17.6599 5.86545 17.3964 6.35509 16.9181C6.48472 16.7917 6.65797 16.7213 6.83757 16.7213ZM11.3333 20.3208C9.57602 20.3208 7.9402 19.6159 6.74899 18.3636C6.09899 18.8001 5.3327 19.0339 4.53415 19.0339C2.33967 19.0339 0.554688 17.2556 0.554688 15.0695C0.554842 13.3114 1.68484 11.829 3.27707 11.3089C3.01633 10.7747 2.87841 10.1878 2.87841 9.58436C2.87841 7.39939 4.66343 5.61991 6.85795 5.61991C7.40273 5.61987 7.93064 5.72847 8.41784 5.93596C8.61059 2.63104 11.3713 3.93826e-10 14.7367 3.93826e-10C18.2281 -3.85508e-05 21.0674 2.83023 21.0674 6.3069C21.0678 6.74218 21.0231 7.17395 20.9345 7.59855C22.2875 8.25095 23.1852 9.63566 23.184 11.1658C23.1845 13.3508 21.399 15.1291 19.2046 15.1291C18.6515 15.1291 18.1116 15.0158 17.6159 14.7999C17.2271 17.908 14.5571 20.3208 11.3333 20.3208Z" fill="#FF861D"/>
<path id="Vector_10" fill-rule="evenodd" clip-rule="evenodd" d="M22.8365 21.9235C22.0596 21.9235 21.2823 21.7244 20.5892 21.3248L15.2753 18.2668C14.9445 18.0771 14.8318 17.6573 15.0222 17.3282C15.2128 17.0002 15.634 16.8869 15.9644 17.0777L21.279 20.1357C22.239 20.6879 23.4325 20.6879 24.3926 20.1357C24.8659 19.865 25.2606 19.4714 25.5361 18.9979C25.8082 18.5268 25.9514 17.9901 25.9514 17.4474L25.9514 8.88522C25.9514 8.50588 26.2603 8.19824 26.641 8.19824C27.023 8.19824 27.3305 8.50592 27.3305 8.88522L27.3306 17.4474C27.3306 18.2298 27.1235 19.0027 26.7308 19.6849C26.3323 20.3683 25.7634 20.9348 25.0823 21.326C24.3907 21.7243 23.6133 21.9235 22.8365 21.9235Z" fill="#FF861D"/>
<path id="Vector_11" fill-rule="evenodd" clip-rule="evenodd" d="M10.0229 38.2517C9.7843 38.2517 9.552 38.1277 9.42515 37.9083C9.23368 37.579 9.34729 37.1593 9.67653 36.9696L17.1208 32.6879C18.0814 32.1357 18.6782 31.1052 18.6782 30.0008C18.6783 28.8952 18.0809 27.8647 17.1207 27.3125L9.67653 23.0308C9.34737 22.8412 9.2336 22.4214 9.42515 22.0934C9.61457 21.7642 10.037 21.6521 10.3661 21.8417L17.8104 26.1222C19.1971 26.9201 20.0574 28.4062 20.0574 30.0008C20.0574 31.5943 19.1966 33.0803 17.8102 33.8782L10.3666 38.1599C10.2584 38.2219 10.1398 38.2518 10.0229 38.2517Z" fill="#FF861D"/>
<path id="Vector_12" fill-rule="evenodd" clip-rule="evenodd" d="M26.6443 51.8011C26.264 51.8011 25.9547 51.4935 25.9547 51.1142L25.9547 42.552C25.9547 41.4475 25.3586 40.4171 24.3972 39.8637C23.4373 39.3115 22.2434 39.3115 21.2832 39.8637L13.8396 44.1454C13.5088 44.335 13.0873 44.2229 12.8969 43.8937C12.7067 43.5658 12.8203 43.1448 13.1495 42.9551L20.5938 38.6746C21.9805 37.8767 23.7016 37.8767 25.088 38.6746C26.4736 39.4725 27.3338 40.9586 27.3338 42.552L27.3339 51.1142C27.3339 51.4934 27.0263 51.8012 26.6443 51.8011Z" fill="#FF861D"/>
<path id="Vector_13" fill-rule="evenodd" clip-rule="evenodd" d="M33.5806 51.8026C33.1997 51.8026 32.8906 51.4961 32.8906 51.1157L32.891 42.5534C32.891 40.96 33.7526 39.4739 35.1378 38.6761C36.5243 37.8782 38.2469 37.8782 39.632 38.6761L47.0764 42.9565C47.4056 43.1474 47.5191 43.5672 47.3277 43.8952C47.1384 44.2243 46.7158 44.3365 46.3866 44.1469L38.9426 39.8663C37.9826 39.3129 36.7887 39.3129 35.8285 39.8663C34.8676 40.4185 34.2698 41.449 34.2698 42.5535L34.2701 51.1156C34.2701 51.4961 33.9621 51.8026 33.5806 51.8026Z" fill="#FF861D"/>
<path id="Vector_14" fill-rule="evenodd" clip-rule="evenodd" d="M50.2032 38.2517C50.0857 38.2517 49.9669 38.222 49.858 38.1599L42.4152 33.8782C41.0291 33.0803 40.168 31.5943 40.168 30.0008C40.1682 28.4062 41.0287 26.9201 42.4151 26.1222L49.8584 21.8417C50.1886 21.6521 50.6099 21.7642 50.8002 22.0934C50.9909 22.4214 50.8781 22.8412 50.5476 23.0308L43.1048 27.3125C42.1448 27.8647 41.5471 28.8952 41.5471 30.0008C41.5473 31.1052 42.1446 32.1357 43.1047 32.6891L50.548 36.9696C50.8782 37.1592 50.9906 37.5791 50.8002 37.9083C50.6735 38.1277 50.4411 38.2518 50.2032 38.2517Z" fill="#FF861D"/>
<path id="Vector_15" fill-rule="evenodd" clip-rule="evenodd" d="M37.3851 21.9225C36.6083 21.9225 35.831 21.7234 35.1378 21.3239C33.7529 20.526 32.8906 19.0399 32.8906 17.4465L32.891 8.88425C32.891 8.50498 33.1995 8.19727 33.5802 8.19727C33.9625 8.19727 34.2698 8.50498 34.2698 8.88429L34.2701 17.4465C34.2701 18.5509 34.8672 19.5814 35.8285 20.1348C36.7887 20.687 37.9823 20.687 38.9425 20.1348L46.3868 15.853C46.716 15.6634 47.1384 15.7768 47.3277 16.1047C47.5193 16.4339 47.4054 16.8537 47.0762 17.0434L39.6322 21.3238C38.9389 21.7234 38.1619 21.9226 37.3851 21.9225Z" fill="#FF861D"/>
<path id="Vector_16" fill-rule="evenodd" clip-rule="evenodd" d="M30.1145 52.0793C28.9157 52.0793 27.7113 51.9827 26.5332 51.7931C21.2129 50.9307 16.393 48.1578 12.9618 43.9846C9.72975 40.0572 7.94922 35.0897 7.94922 30.0005C7.94922 26.2519 8.9081 22.5522 10.7219 19.3022C10.9063 18.9706 11.3265 18.8514 11.6593 19.0351C11.9925 19.2199 12.1118 19.6374 11.9274 19.9689C10.2275 23.0162 9.32831 26.4845 9.32831 30.0004C9.32839 34.7735 10.9972 39.431 14.0285 43.114C17.2468 47.0271 21.766 49.6283 26.7547 50.437C28.9637 50.7935 31.2657 50.7936 33.4746 50.437C38.4633 49.6283 42.9827 47.0271 46.2007 43.114C49.2311 39.4321 50.8997 34.7747 50.8997 30.0004C50.9001 25.2262 49.2309 20.5688 46.2007 16.8858C42.9828 12.9727 38.4633 10.3714 33.4746 9.564C31.2658 9.20617 28.9635 9.20617 26.7547 9.564C25.323 9.79415 23.9102 10.1782 22.5562 10.7042C22.2021 10.8425 21.8019 10.6684 21.6631 10.3142C21.5254 9.96112 21.7001 9.56281 22.0545 9.42448C23.4999 8.86383 25.0068 8.45361 26.5333 8.20673C28.8883 7.82627 31.3411 7.82627 33.696 8.20673C39.0166 9.0702 43.8363 11.8432 47.2673 16.0152C50.5002 19.9438 52.2789 24.9102 52.2789 30.0005C52.2792 35.0921 50.4998 40.0583 47.2673 43.9846C43.8367 48.1578 39.0164 50.9308 33.696 51.7931C32.5183 51.9827 31.3135 52.0793 30.1145 52.0793Z" fill="#FF861D"/>
<path id="Vector_17" fill-rule="evenodd" clip-rule="evenodd" d="M30.1135 59.9999C22.0706 59.9999 14.5075 56.8787 8.81974 51.2123C3.1335 45.5459 0 38.013 0 30.0005C0.000193485 25.7593 0.871538 21.6589 2.59194 17.8137C2.69499 17.5645 2.94153 17.3892 3.22882 17.3892C3.60975 17.3891 3.91844 17.6969 3.91844 18.0762C3.91844 18.1728 3.89805 18.2694 3.85858 18.3576C2.21387 22.0299 1.37917 25.9478 1.37917 30.0005C1.37936 45.7843 14.2693 58.6259 30.1129 58.6259C45.9583 58.6259 58.8479 45.7844 58.8479 30.0005C58.848 14.2154 45.9578 1.374 30.1129 1.374C26.4112 1.37392 22.8065 2.06692 19.3993 3.43136C19.0451 3.57322 18.6439 3.40271 18.5026 3.0509C18.3604 2.69777 18.5313 2.2983 18.8845 2.15639C22.4558 0.726341 26.2341 3.57106e-10 30.1129 3.57106e-10C38.1573 -3.85508e-05 45.7184 3.12126 51.4063 8.78766C57.0945 14.454 60.2272 21.987 60.2272 30.0005C60.2273 38.013 57.0941 45.5472 51.4063 51.2135C45.7185 56.8787 38.1569 59.9999 30.1135 59.9999Z" fill="#FF861D"/>
</g>
</g>
</svg>
