<svg width="60" height="60" viewBox="0 0 60 60" fill="none" xmlns="http://www.w3.org/2000/svg">
<g id="Layer_1" clip-path="url(#clip0_1524_11221)">
<path id="Vector" d="M53.2775 3.36752C50.555 4.48002 47.1625 5.05502 43.7725 5.00002C38.5625 4.90752 33.955 3.40002 30.8025 0.757522L30 0.085022L29.1975 0.757522C26.045 3.40002 21.4375 4.90752 16.2275 5.00002C12.8425 5.07252 9.445 4.48252 6.7225 3.36752L5 2.66252V29.74C5 46.265 22.8975 56.4975 28.385 59.24L29.955 60.0225L31.575 59.37C37.07 57.16 55 48.4875 55 29.74V2.66252L53.2775 3.36752ZM16.2725 7.50002C21.6375 7.40252 26.465 5.92252 30 3.30752C33.535 5.92252 38.365 7.40502 43.7275 7.50002C46.7825 7.52752 49.8325 7.13252 52.5 6.30002V20H7.5V6.30002C10.165 7.13252 13.2125 7.53252 16.2725 7.50002ZM30.6425 57.05L30.0625 57.2825L29.5025 57.0025C24.3425 54.4225 7.5 44.8275 7.5 29.7375V22.4975H52.5V29.7375C52.5 46.92 35.77 54.9875 30.6425 57.05Z" fill="#FF861D"/>
</g>
<defs>
<clipPath id="clip0_1524_11221">
<rect width="60" height="60" fill="white"/>
</clipPath>
</defs>
</svg>
