<svg width="90" height="81" viewBox="0 0 90 81" fill="none" xmlns="http://www.w3.org/2000/svg">
<path d="M55.2022 28.8996H33.9149C33.3845 28.8996 32.9541 28.4692 32.9541 27.9388L32.9597 26.5452H56.171L56.1638 27.9388C56.163 28.4692 55.7326 28.8996 55.2022 28.8996Z" fill="#555969"/>
<path d="M32.3838 21.558C32.4302 21.7868 32.4742 22.0052 32.5158 22.2092C32.5598 22.414 32.5998 22.6052 32.6366 22.7836C32.6766 22.9348 32.7142 23.0748 32.747 23.2012C32.8806 23.7068 32.9574 23.9956 32.9574 23.9956L32.9542 25.5836H56.1647L56.1687 23.9956C56.1687 23.9956 56.2455 23.7068 56.3799 23.2012C56.4127 23.0748 56.4503 22.9348 56.4895 22.7836C56.5271 22.6052 56.5679 22.414 56.6103 22.2092C56.6527 22.0044 56.6959 21.7868 56.7439 21.558C56.7823 21.33 56.8063 21.09 56.8399 20.8404C56.9167 20.35 56.9287 19.782 56.9423 19.1932C56.9255 18.8924 56.9095 18.5828 56.8919 18.2668C56.8407 17.9436 56.7959 17.6172 56.7279 17.2852C56.5535 16.6212 56.3335 15.9284 55.9287 15.2964L55.7855 15.0588C55.7367 14.9796 55.6735 14.9084 55.6191 14.8348C55.5031 14.6868 55.3895 14.5388 55.2695 14.3964C55.0055 14.134 54.7495 13.8636 54.4503 13.6532C54.1679 13.418 53.8535 13.25 53.5503 13.0676C53.2367 12.9172 52.9279 12.7595 52.6111 12.6547C52.2975 12.5283 51.9823 12.4507 51.6743 12.3635C51.5191 12.3259 51.3639 12.2971 51.2127 12.2635C51.0607 12.2291 50.9079 12.2028 50.7583 12.1836C50.1591 12.082 49.5839 12.0547 49.0423 12.0331C48.5015 12.0259 47.9951 12.0331 47.5311 12.0691C47.3935 12.0779 47.2711 12.0899 47.1415 12.1019C47.1439 12.1435 47.1479 12.1835 47.1479 12.2243C47.1479 12.9364 46.9079 13.586 46.5143 14.086C46.5239 14.1028 46.5343 14.1156 46.5439 14.134C46.6567 14.3716 46.7543 14.65 46.8247 14.9644C46.8575 15.122 46.8863 15.2868 46.9119 15.4548C46.9279 15.6308 46.9575 15.7972 46.9647 15.9788C46.9911 16.3364 46.9951 16.7092 46.9887 17.0844C46.9815 17.2724 46.9743 17.4612 46.9679 17.6476C46.9527 17.8372 46.9399 18.026 46.9255 18.2132C46.8919 18.5876 46.8503 18.958 46.8039 19.3164C46.7511 19.6772 46.7095 20.022 46.6479 20.3524C46.5903 20.6804 46.5423 20.9948 46.4823 21.2756C46.4327 21.5276 46.3863 21.7588 46.3439 21.9692C45.7783 21.9492 45.187 21.9372 44.563 21.9372C43.939 21.9372 43.347 21.9492 42.7822 21.9692C42.7406 21.758 42.6942 21.5276 42.6438 21.2756C42.5838 20.994 42.5358 20.6804 42.4782 20.3516C42.4174 20.0212 42.375 19.6772 42.3222 19.3164C42.2742 18.958 42.2342 18.5876 42.2006 18.2132C42.1862 18.026 42.1726 17.8372 42.1582 17.6476C42.151 17.4612 42.1438 17.2716 42.1366 17.0836C42.1302 16.7084 42.1358 16.3364 42.1614 15.9788C42.1686 15.7964 42.1982 15.63 42.2142 15.4548C42.239 15.2868 42.2686 15.122 42.3022 14.9644C42.3726 14.65 42.4686 14.3716 42.583 14.134C42.5926 14.1164 42.603 14.1036 42.6126 14.086C42.219 13.586 41.979 12.9356 41.979 12.2243C41.979 12.1827 41.983 12.1427 41.9838 12.1019C41.855 12.0899 41.7326 12.0779 41.595 12.0691C41.1318 12.0331 40.6246 12.0259 40.0838 12.0331C39.5422 12.0539 38.967 12.0812 38.3678 12.1836C38.2174 12.2028 38.0654 12.2299 37.9142 12.2635C37.7614 12.2971 37.607 12.3259 37.4518 12.3635C37.1438 12.4507 36.8278 12.5283 36.515 12.6547C36.1974 12.7595 35.8894 12.9172 35.575 13.0676C35.2726 13.25 34.9582 13.418 34.6758 13.6532C34.3766 13.8636 34.1214 14.134 33.8582 14.3964C33.7374 14.5388 33.6246 14.6868 33.5086 14.8348C33.4526 14.9092 33.3902 14.9804 33.3414 15.0588L33.1982 15.2964C32.7934 15.9284 32.5734 16.6212 32.399 17.2852C32.3302 17.6164 32.2854 17.9428 32.2342 18.2668C32.2174 18.5828 32.2006 18.8924 32.1846 19.1932C32.1974 19.7812 32.2094 20.3492 32.2862 20.8404C32.3198 21.09 32.3446 21.33 32.3838 21.558ZM48.9023 13.5956C49.3791 13.682 49.8807 13.7772 50.3695 13.9332C50.4943 13.9668 50.6159 14.0068 50.7359 14.0524C50.8567 14.0972 50.9807 14.138 51.0991 14.1852C51.3319 14.2916 51.5751 14.3844 51.7919 14.5132C52.0215 14.6252 52.2199 14.774 52.4279 14.906C52.6119 15.0636 52.8119 15.2028 52.9639 15.3796C53.1375 15.5372 53.2591 15.7308 53.3983 15.9036L53.5623 16.1924C53.5879 16.2412 53.6207 16.2828 53.6415 16.334L53.7007 16.4868C53.8847 16.878 53.9463 17.3228 54.0007 17.7476C54.0119 17.9676 54.0071 18.1908 54.0151 18.4012C53.9959 18.6236 53.9759 18.8404 53.9567 19.0508C53.8791 19.482 53.8223 19.8844 53.7031 20.2668C53.6495 20.4564 53.6055 20.6396 53.5527 20.8076C53.4927 20.9724 53.4383 21.1276 53.3847 21.274C53.3327 21.4196 53.2855 21.5564 53.2415 21.6828C53.1807 21.8284 53.1247 21.962 53.0735 22.082C52.9351 22.414 52.8383 22.6444 52.7903 22.7588C51.9367 22.5556 50.9007 22.3644 49.6631 22.2172C49.6615 22.0092 49.6599 21.79 49.6583 21.5484C49.6599 21.2276 49.6415 20.8868 49.6311 20.5244C49.6223 20.1644 49.5903 19.7772 49.5671 19.382C49.5383 18.9844 49.4991 18.5732 49.4503 18.1548C49.4231 17.9444 49.3951 17.734 49.3663 17.522C49.3311 17.3084 49.2935 17.0948 49.2575 16.8804C49.1767 16.4524 49.0815 16.0236 48.9599 15.6012C48.9063 15.39 48.8255 15.1796 48.7599 14.974C48.6823 14.766 48.6015 14.5628 48.5119 14.3636C48.3679 14.0524 48.1927 13.758 47.9967 13.4796C48.2903 13.5116 48.5895 13.5476 48.9023 13.5956ZM35.1238 17.7492C35.1782 17.3244 35.2406 16.8796 35.4246 16.4884L35.4846 16.3356C35.503 16.2852 35.5374 16.2428 35.563 16.194L35.727 15.9052C35.8662 15.7316 35.987 15.5388 36.1622 15.3812C36.3126 15.2044 36.5134 15.0652 36.6974 14.9076C36.9054 14.7756 37.1038 14.626 37.3334 14.5148C37.551 14.386 37.7934 14.2932 38.0254 14.1868C38.1454 14.1396 38.2686 14.0988 38.3894 14.054C38.5086 14.0076 38.631 13.9684 38.7558 13.9348C39.2446 13.7788 39.7462 13.6836 40.223 13.5972C40.535 13.5492 40.835 13.5132 41.1278 13.4828C40.9326 13.762 40.7558 14.0556 40.6134 14.3668C40.5238 14.566 40.4414 14.7692 40.3646 14.9772C40.299 15.1828 40.2182 15.3932 40.1646 15.6044C40.0438 16.026 39.9478 16.4556 39.8662 16.8836C39.831 17.098 39.7934 17.3116 39.7574 17.5244C39.7302 17.7372 39.703 17.9476 39.6742 18.158C39.6254 18.5764 39.587 18.9876 39.5574 19.3852C39.5342 19.7796 39.503 20.1668 39.4942 20.5276C39.483 20.89 39.4654 21.2308 39.467 21.5516C39.4646 21.7932 39.4638 22.0132 39.4614 22.2204C38.2246 22.3684 37.1878 22.5588 36.335 22.762C36.287 22.6476 36.1902 22.4172 36.0518 22.0852C36.0014 21.9652 35.9454 21.8316 35.8846 21.686C35.8398 21.5596 35.7926 21.4228 35.7406 21.2772C35.6894 21.1308 35.6326 20.9756 35.5742 20.8108C35.5206 20.6428 35.4774 20.4604 35.4238 20.27C35.3046 19.8884 35.2462 19.486 35.1694 19.054C35.1502 18.8428 35.131 18.6268 35.1118 18.4044C35.119 18.1916 35.1142 17.9692 35.1238 17.7492Z" fill="#555969"/>
<path d="M42.9395 12.2252C42.9395 11.1828 43.6667 10.3387 44.5627 10.3387C45.4603 10.3387 46.1867 11.1836 46.1867 12.2252C46.1867 13.2668 45.4603 14.11 44.5627 14.11C43.6667 14.1108 42.9395 13.2668 42.9395 12.2252Z" fill="#555969"/>
<path d="M36.6247 3.60828C36.6247 3.60828 36.2046 3.67469 35.415 3.79949C35.023 3.87229 34.5302 3.91788 33.967 4.05148C33.407 4.19948 32.763 4.36828 32.043 4.55868C29.1894 5.34589 25.1086 6.8051 20.9342 9.76672C16.7821 12.6963 12.5213 17.07 9.5757 22.7188C9.2357 23.4364 8.8925 24.1596 8.5461 24.8884L8.28689 25.4364C8.20689 25.622 8.14609 25.8164 8.07569 26.0068C7.93809 26.3892 7.80049 26.7716 7.66209 27.1572C7.04289 28.6732 6.70369 30.2964 6.29008 31.9092C6.09728 32.7188 6.02848 33.5572 5.89088 34.3829L5.70768 35.6277C5.64448 36.0437 5.65808 36.4677 5.62928 36.8869C5.59088 37.7277 5.55328 38.5701 5.51568 39.4141C5.54048 40.2573 5.60448 41.0997 5.64768 41.9437L5.71888 43.2085L5.91728 44.4581C6.05808 45.2893 6.16368 46.1269 6.33248 46.9485C6.77968 48.5685 7.11569 50.2157 7.76609 51.7486L8.19889 52.9126L8.41569 53.4934L8.6869 54.0478C9.0485 54.7862 9.4077 55.5214 9.7653 56.2518C9.9285 56.6254 10.1589 56.9606 10.3669 57.3054C10.5789 57.6494 10.7893 57.9918 10.9997 58.3334C11.2109 58.675 11.4189 59.0142 11.6285 59.3534C11.8277 59.6982 12.0965 59.995 12.3261 60.315C12.8029 60.9438 13.2749 61.567 13.7429 62.1862C14.2437 62.7758 14.7805 63.327 15.2893 63.8902C15.5453 64.1694 15.8013 64.447 16.0557 64.723C16.3117 64.9966 16.6061 65.2294 16.8765 65.4822C17.4277 65.9774 17.9733 66.4662 18.511 66.9494C19.0574 67.4214 19.6558 67.8134 20.2118 68.2399C20.495 68.4487 20.7742 68.6543 21.0526 68.8598L21.4678 69.1671L21.9046 69.4319C22.487 69.7807 23.0598 70.1239 23.6222 70.4607C23.903 70.6287 24.1814 70.7959 24.4566 70.9607C24.747 71.0983 25.035 71.2351 25.319 71.3695C26.4638 71.8927 27.5238 72.4799 28.6246 72.8183C29.1638 73.0119 29.6894 73.2007 30.2006 73.3839C30.4566 73.4719 30.7054 73.5751 30.9582 73.6471C31.2134 73.7111 31.4662 73.7735 31.7134 73.8359C32.7062 74.0751 33.6278 74.3367 34.4926 74.5127C35.3678 74.6407 36.171 74.7583 36.8959 74.8639C37.2591 74.9135 37.6007 74.9767 37.9255 75.0071C38.2511 75.0215 38.5567 75.0351 38.8415 75.0479C39.4103 75.0727 39.8943 75.0943 40.2863 75.1119C41.0711 75.1471 41.4887 75.1655 41.4887 75.1655V76.4511C41.4887 76.4511 41.0559 76.4271 40.2439 76.3815C39.8383 76.3583 39.3383 76.3295 38.7503 76.2975C38.4567 76.2807 38.1399 76.2623 37.8023 76.2431C37.4671 76.2079 37.1143 76.1391 36.7391 76.0839C35.9902 75.9655 35.1614 75.8343 34.259 75.6911C33.367 75.4991 32.4158 75.2183 31.3942 74.9583C31.1398 74.8911 30.8798 74.8223 30.6166 74.7527C30.3566 74.6751 30.1006 74.5663 29.8366 74.4727C29.3118 74.2767 28.771 74.0759 28.2174 73.8687C27.0878 73.5047 25.9998 72.8895 24.8278 72.3359C24.5366 72.1935 24.2422 72.0495 23.9446 71.9031C23.6622 71.7295 23.3774 71.5551 23.0902 71.3791C22.5158 71.0263 21.931 70.6655 21.335 70.2983L20.8886 70.0198L20.4654 69.6998C20.1822 69.4854 19.8966 69.2694 19.6094 69.0527C19.0422 68.6078 18.4325 68.1967 17.8765 67.7055C17.3301 67.203 16.7765 66.6934 16.2165 66.1782C15.9413 65.9158 15.6429 65.6734 15.3829 65.3894C15.1253 65.103 14.8661 64.815 14.6053 64.5262C14.0901 63.9422 13.5477 63.371 13.0413 62.759C12.5685 62.1198 12.0917 61.4758 11.6117 60.8254C11.3813 60.4934 11.1101 60.187 10.9093 59.8318C10.6997 59.483 10.4901 59.1318 10.2781 58.7798C10.0669 58.4286 9.8557 58.075 9.6429 57.7206C9.4333 57.3646 9.2029 57.019 9.0397 56.635C8.6837 55.8846 8.32449 55.1278 7.96449 54.3686L7.69409 53.7982L7.47889 53.203L7.05009 52.0085C6.40528 50.4349 6.08048 48.7501 5.64528 47.0941C5.48368 46.2533 5.38528 45.3981 5.25248 44.5493L5.06607 43.2741L5.00768 41.9861C4.97488 41.1277 4.92047 40.2677 4.90527 39.4109C4.95407 38.5549 5.00127 37.6981 5.05007 36.8437C5.08447 36.4173 5.07568 35.9885 5.14528 35.5661L5.34448 34.3037C5.49408 33.466 5.57408 32.6172 5.78048 31.798C6.21728 30.1652 6.58208 28.526 7.22769 26.9964C7.37249 26.6084 7.51569 26.222 7.65969 25.8364C7.73409 25.6452 7.79809 25.45 7.88049 25.262L8.14929 24.7116C8.50769 23.9788 8.8637 23.2508 9.2173 22.5284C12.2637 16.8508 16.6117 12.4963 20.8214 9.60031C25.0526 6.6731 29.1622 5.25949 32.0294 4.50508C32.7534 4.32268 33.3998 4.16108 33.9614 4.02028C34.5262 3.89388 35.0206 3.85308 35.4134 3.78588C36.2031 3.66988 36.6247 3.60828 36.6247 3.60828Z" fill="#555969"/>
<path d="M31.1767 67.0374C31.1767 67.0374 31.8687 67.3246 32.7399 67.8942C33.1919 68.1318 33.6911 68.4398 34.1807 68.8318C34.4247 69.0278 34.6663 69.2446 34.8991 69.4814C35.0159 69.6006 35.1295 69.7254 35.2399 69.8558C35.3535 69.971 35.4647 70.091 35.5703 70.2174C36.4183 71.231 36.8335 72.4382 37.0247 73.3863C37.2167 74.3351 37.1735 75.0239 37.1735 75.0239C37.1735 75.0239 36.2623 74.8599 35.1151 74.4375C34.8303 74.3247 34.5255 74.2255 34.2287 74.0567C33.9327 73.8855 33.6343 73.6967 33.3455 73.4895C32.7663 73.0751 32.2263 72.5894 31.8127 72.031C31.3919 71.495 31.1735 70.823 31.0399 70.2518C30.9111 69.6662 30.8879 69.1142 30.9095 68.639C30.9551 67.6886 31.1767 67.0374 31.1767 67.0374Z" fill="#555969"/>
<path d="M25.8056 64.6462C25.8056 64.6462 26.4208 65.043 27.1392 65.7678C27.9057 66.4086 28.8049 67.3478 29.3833 68.5518C29.9945 69.6758 30.1497 70.9014 30.1425 71.835C30.1377 72.771 29.9585 73.4166 29.9585 73.4166C29.9585 73.4166 29.1233 73.0846 28.1145 72.4638C27.5985 72.1814 27.1 71.6894 26.624 71.2014C26.1536 70.6982 25.7328 70.1342 25.4456 69.5246C24.9064 68.2422 25.0248 67.0022 25.244 66.115C25.4696 65.2214 25.8056 64.6462 25.8056 64.6462Z" fill="#555969"/>
<path d="M20.9693 61.203C20.9693 61.203 21.4853 61.6982 22.0413 62.5222C22.3021 62.9574 22.6677 63.3614 22.9453 63.891C23.2349 64.407 23.4845 64.9894 23.6389 65.6238C23.9821 66.8422 23.9109 67.9998 23.7141 68.8894C23.5253 69.7726 23.2261 70.3454 23.2261 70.3454C23.2261 70.3454 22.4949 69.8742 21.6541 69.0958C20.8701 68.2366 20.0013 67.047 19.6997 65.771C19.4517 64.427 19.7789 63.2942 20.1597 62.4886C20.5413 61.6854 20.9693 61.203 20.9693 61.203Z" fill="#555969"/>
<path d="M16.8742 56.8374C16.8742 56.8374 17.2782 57.4062 17.6582 58.2926C17.7558 58.5126 17.843 58.7614 17.9406 59.0118C18.051 59.2534 18.1542 59.511 18.2446 59.7822C18.4254 60.3254 18.5574 60.9238 18.5862 61.5518C18.6022 61.8662 18.5894 62.1742 18.5606 62.4686C18.5438 62.7502 18.5062 63.0238 18.4534 63.2846C18.3478 63.807 18.1814 64.2806 18.0062 64.6774C17.6558 65.4726 17.259 65.9574 17.259 65.9574C17.259 65.9574 17.1078 65.8118 16.8742 65.555C16.6526 65.2854 16.2974 64.9534 16.023 64.455C15.735 63.971 15.4398 63.4078 15.2086 62.807C14.987 62.1998 14.7878 61.5934 14.815 60.9182C14.8294 59.6014 15.351 58.591 15.863 57.9014C16.3766 57.2134 16.8742 56.8374 16.8742 56.8374Z" fill="#555969"/>
<path d="M13.7051 51.7109C13.7051 51.7109 13.9851 52.3285 14.1852 53.2429C14.3372 54.1845 14.6268 55.3166 14.4388 56.5206C14.3523 57.1182 14.1627 57.6726 13.9491 58.155C13.7507 58.6278 13.5027 59.0406 13.2611 59.3806C12.7755 60.0622 12.3067 60.4406 12.3067 60.4406C12.3067 60.4406 12.1899 60.2758 12.0155 59.9894C11.8275 59.711 11.6291 59.2798 11.4491 58.7654C11.2643 58.2542 11.0891 57.6662 10.9811 57.0558C10.9275 56.751 10.8907 56.4414 10.8779 56.1326C10.8883 55.8126 10.9251 55.4918 10.9899 55.1822C11.2475 53.9382 11.9323 53.0821 12.5467 52.5269C13.1619 51.9725 13.7051 51.7109 13.7051 51.7109Z" fill="#555969"/>
<path d="M11.6105 46.0157C11.6105 46.0157 11.761 46.6581 11.7786 47.5645C11.8002 48.0157 11.7345 48.5509 11.7065 49.0837C11.6745 49.6173 11.5777 50.1781 11.3817 50.7269C10.9993 51.8189 10.2569 52.6717 9.68574 53.2085C9.09693 53.7541 8.57773 54.0181 8.57773 54.0181C8.57773 54.0181 8.49693 53.8397 8.38573 53.5365C8.29853 53.2221 8.19853 52.7741 8.11853 52.2565C7.97053 51.2165 7.85213 49.9141 8.38333 48.7749C8.86333 47.6509 9.67134 46.9709 10.3593 46.5637C11.0465 46.1589 11.6105 46.0157 11.6105 46.0157Z" fill="#555969"/>
<path d="M10.6955 39.958C10.6955 39.958 10.7123 40.6012 10.5555 41.47C10.4843 41.9044 10.3371 42.4012 10.1843 42.9036C10.0523 43.4036 9.85549 43.918 9.56509 44.398C8.98668 45.3596 8.15308 46.0108 7.46587 46.4116C6.78187 46.8148 6.25067 46.9572 6.25067 46.9572C6.25067 46.9572 6.20267 46.774 6.19307 46.458C6.17547 46.1428 6.16347 45.702 6.18667 45.198C6.23467 44.1884 6.39707 42.9348 7.11547 41.958C7.78508 40.9852 8.67948 40.4964 9.40669 40.2396C10.1355 39.986 10.6955 39.958 10.6955 39.958Z" fill="#555969"/>
<path d="M10.9899 33.7909C10.9899 33.7909 10.8811 34.4036 10.5635 35.1965C10.4155 35.5957 10.1707 36.0365 9.94349 36.4853C9.72269 36.9365 9.43629 37.3853 9.07068 37.7853C8.33948 38.5853 7.42827 39.0365 6.70347 39.2805C5.97627 39.5261 5.43946 39.5549 5.43946 39.5549C5.43946 39.5549 5.49386 38.8269 5.73226 37.8821C5.97787 36.9397 6.35867 35.7845 7.22667 35.0005C8.04588 34.2093 8.98508 33.9165 9.72109 33.8125C10.4563 33.7108 10.9899 33.7909 10.9899 33.7909Z" fill="#555969"/>
<path d="M12.5077 27.7717C12.5077 27.7717 12.2877 28.3317 11.8365 29.0229C11.6157 29.3701 11.3181 29.7461 10.9925 30.1205C10.6981 30.5021 10.3437 30.8717 9.92213 31.1781C9.07972 31.7917 8.13732 32.0389 7.40692 32.1269C6.67731 32.2149 6.16211 32.1373 6.16211 32.1373C6.16211 32.1373 6.35491 31.4613 6.76211 30.6189C6.96611 30.1981 7.22211 29.7373 7.53252 29.3045C7.82692 28.8669 8.28612 28.4925 8.73332 28.1941C9.65493 27.6053 10.5949 27.5076 11.3077 27.55C12.0205 27.594 12.5077 27.7717 12.5077 27.7717Z" fill="#555969"/>
<path d="M15.2144 22.1267C15.2144 22.1267 14.9008 22.6171 14.3464 23.1883C14.0688 23.4747 13.7296 23.7827 13.3376 24.0667C12.9536 24.3539 12.5752 24.6499 12.1152 24.8547C11.2079 25.2715 10.2783 25.3203 9.57834 25.2603C8.87834 25.2003 8.41113 25.0243 8.41113 25.0243C8.41113 25.0243 8.71993 24.4243 9.26074 23.7083C9.53114 23.3515 9.85914 22.9659 10.2319 22.6187C10.6423 22.2899 11.1055 22.0043 11.5911 21.8131C12.5672 21.4323 13.4688 21.5179 14.1296 21.6923C14.7904 21.8675 15.2144 22.1267 15.2144 22.1267Z" fill="#555969"/>
<path d="M19.0189 17.0867C19.0189 17.0867 18.6317 17.4939 18.0045 17.9339C17.3901 18.3859 16.4645 18.8211 15.5725 19.0739C14.6476 19.2979 13.7684 19.1651 13.1276 18.9731C12.4852 18.7827 12.082 18.5251 12.082 18.5251C12.082 18.5251 12.4828 18.0179 13.1228 17.4451C13.7308 16.8483 14.7012 16.2947 15.6845 16.1187C16.6685 15.9411 17.4973 16.1891 18.0837 16.4755C18.6709 16.7635 19.0189 17.0867 19.0189 17.0867Z" fill="#555969"/>
<path d="M23.7952 12.8843C23.7952 12.8843 23.7656 12.9003 23.7104 12.9299C23.6544 12.9571 23.5728 12.9987 23.4784 13.0595C23.2848 13.1755 23.0072 13.3291 22.6712 13.4795C22.008 13.7915 21.0744 14.0515 20.156 14.0787C19.2504 14.1203 18.4576 13.8299 17.8968 13.5283C17.3352 13.2275 17.0088 12.9091 17.0088 12.9091C17.0088 12.9091 17.4768 12.5059 18.18 12.0851C18.5208 11.8635 18.9568 11.6819 19.4216 11.5531C19.8832 11.4195 20.3704 11.3347 20.8456 11.3419C21.7976 11.3555 22.5264 11.7387 23.0224 12.1187C23.528 12.5139 23.7952 12.8843 23.7952 12.8843Z" fill="#555969"/>
<path d="M29.3429 9.68988C29.3429 9.68988 29.2189 9.73148 29.0061 9.78268C28.7957 9.84108 28.5117 9.94589 28.1669 10.0235C27.4813 10.1851 26.5773 10.2939 25.6901 10.1035C24.8253 9.95228 24.1533 9.55069 23.6869 9.15629C23.2229 8.76828 22.9805 8.40748 22.9805 8.40748C22.9805 8.40748 23.4925 8.11388 24.2261 7.84908C24.9877 7.63547 25.9877 7.49308 26.8709 7.67868C27.7573 7.87068 28.3589 8.34987 28.7645 8.82907C29.1629 9.29308 29.3429 9.68988 29.3429 9.68988Z" fill="#555969"/>
<path d="M35.4535 7.65154C35.4535 7.65154 34.9527 7.68515 34.2847 7.73315C33.6103 7.75715 32.7447 7.69155 31.9551 7.34755C31.1583 6.98275 30.6255 6.52274 30.2647 6.05554C29.9103 5.60433 29.7559 5.22194 29.7559 5.22194C29.7559 5.22194 29.8879 5.17713 30.1127 5.11873C30.3399 5.06913 30.6471 4.96513 31.0287 4.95953C31.7815 4.91633 32.7375 4.95954 33.5255 5.30114C34.3135 5.63474 34.7895 6.21954 35.0775 6.74034C35.3615 7.24755 35.4535 7.65154 35.4535 7.65154Z" fill="#555969"/>
<path d="M26.4336 79.6863C26.4336 79.6863 27.4808 80.0567 28.9224 80.2911C29.6576 80.3591 30.488 80.3927 31.32 80.3399C31.736 80.3135 32.152 80.2663 32.556 80.1919C32.7576 80.1543 32.956 80.1095 33.1504 80.0583C33.348 79.9927 33.54 79.9175 33.728 79.8367C35.2248 79.1815 36.0496 78.1623 36.5113 77.3151C36.9713 76.4663 37.0817 75.7871 37.0817 75.7871C37.0817 75.7871 36.1568 75.6711 34.8816 75.7239C34.5632 75.7303 34.2176 75.7751 33.8672 75.7823C33.5168 75.7879 33.1528 75.8055 32.7824 75.8431C32.04 75.9175 31.2688 76.0655 30.5336 76.3295C29.7912 76.6151 29.1904 76.8743 28.664 77.2367C28.1424 77.5855 27.7168 77.9719 27.3848 78.3335C26.7184 79.0575 26.4336 79.6863 26.4336 79.6863Z" fill="#555969"/>
<path d="M18.8867 75.6998C18.8867 75.6998 19.8107 76.2375 21.1219 76.7455C22.4755 77.1703 24.2348 77.5191 25.746 77.2631C27.294 76.9303 28.2804 76.1239 28.8884 75.4087C29.4948 74.6927 29.7356 74.0711 29.7356 74.0711C29.7356 74.0711 28.8796 73.7838 27.6572 73.5878C27.034 73.5174 26.374 73.331 25.6484 73.275C24.9284 73.2038 24.166 73.1982 23.4171 73.3086C21.9539 73.4646 20.8251 74.0263 20.0499 74.5951C19.2787 75.1567 18.8867 75.6998 18.8867 75.6998Z" fill="#555969"/>
<path d="M12.3262 70.3302C12.3262 70.3302 13.0998 71.0078 14.2454 71.7302C14.7982 72.1134 15.539 72.3918 16.263 72.6558C16.9998 72.907 17.767 73.0846 18.503 73.1166C20.0118 73.1326 21.1262 72.5295 21.8398 71.9783C22.5582 71.4174 22.911 70.875 22.911 70.875C22.911 70.875 22.1526 70.4422 21.0278 70.027C19.959 69.5286 18.531 69.0142 17.0766 68.9254C15.6782 68.7726 14.4806 69.1142 13.6414 69.503C12.8014 69.8894 12.3262 70.3302 12.3262 70.3302Z" fill="#555969"/>
<path d="M6.98242 63.8086C6.98242 63.8086 7.58883 64.5902 8.54003 65.4846C8.78003 65.7062 9.03123 65.9422 9.31683 66.159C9.61444 66.3662 9.92884 66.5678 10.2544 66.7534C10.9056 67.127 11.6016 67.4366 12.2953 67.6054C12.6425 67.6894 12.9729 67.735 13.2865 67.7478C13.6129 67.7478 13.9193 67.719 14.2049 67.6686C14.7761 67.5686 15.2625 67.387 15.6601 67.191C16.4537 66.799 16.8953 66.3558 16.8953 66.3558C16.8953 66.3558 16.7353 66.2166 16.4513 66.0046C16.1785 65.7798 15.7329 65.5294 15.2897 65.1758C14.8313 64.8358 14.2873 64.4782 13.6849 64.1606C13.0921 63.8374 12.3977 63.5902 11.7656 63.3694C10.4632 62.9622 9.25923 63.0622 8.38883 63.2726C7.51762 63.4806 6.98242 63.8086 6.98242 63.8086Z" fill="#555969"/>
<path d="M3.05273 56.3902C3.05273 56.3902 3.47994 57.2398 4.21354 58.2622C4.89834 59.3086 6.10235 60.3982 7.34796 60.983C7.97916 61.2718 8.56796 61.4046 9.11517 61.4302C9.67757 61.4454 10.176 61.367 10.5928 61.259C11.424 61.0422 11.9296 60.7102 11.9296 60.7102C11.9296 60.7102 11.8032 60.5494 11.5728 60.295C11.3288 60.0494 11.0288 59.6782 10.6616 59.2686C10.288 58.8614 9.83837 58.4198 9.32477 58.0086C9.06797 57.8022 8.79517 57.603 8.50797 57.4198C8.24476 57.223 7.96876 57.0406 7.67836 56.883C6.51675 56.2502 5.35595 56.1166 4.48954 56.151C3.62154 56.1822 3.05273 56.3902 3.05273 56.3902Z" fill="#555969"/>
<path d="M0.698242 48.3733C0.698242 48.3733 0.939842 49.2541 1.43905 50.3565C1.70065 50.9021 1.97185 51.5173 2.40465 52.0669C2.83345 52.6173 3.32306 53.1317 3.86386 53.5253C4.95587 54.3109 6.00147 54.4789 6.84948 54.4309C7.68068 54.3877 8.22549 54.1749 8.22549 54.1749C8.22549 54.1749 8.13509 53.9989 7.96388 53.7157C7.81748 53.4221 7.61108 53.0117 7.33268 52.5573C6.79028 51.6421 5.91347 50.5613 4.98227 49.7245C4.00226 48.9061 2.92946 48.5581 2.10225 48.4237C1.27665 48.2861 0.698242 48.3733 0.698242 48.3733Z" fill="#555969"/>
<path d="M0 40.1069C0 40.1069 0.0592029 40.9781 0.317604 42.1045C0.454405 42.6661 0.606405 43.2933 0.886406 43.8933C1.18561 44.4925 1.54961 45.0701 1.98401 45.5445C2.85602 46.4965 3.84242 46.8557 4.61123 46.9861C5.38323 47.1141 5.95043 47.0189 5.95043 47.0189C5.95043 47.0189 5.89123 46.8373 5.82243 46.5301C5.74483 46.2229 5.62483 45.7981 5.44963 45.3141C5.10003 44.3477 4.50323 43.1549 3.78562 42.1893C3.01842 41.2301 2.07121 40.6997 1.31681 40.4173C0.562403 40.1341 0 40.1069 0 40.1069Z" fill="#555969"/>
<path d="M0.936918 31.9133C0.936918 31.9133 0.825717 32.7429 0.852917 33.8509C0.876118 34.4045 0.891319 35.0229 1.05132 35.6405C1.21852 36.2581 1.45052 36.8701 1.76972 37.3989C2.40653 38.4589 3.26813 38.9885 3.96734 39.2613C4.66574 39.5333 5.20974 39.5549 5.20974 39.5549C5.20974 39.5549 5.22494 38.8293 5.08014 37.8525C4.94334 36.8757 4.59694 35.6365 4.10734 34.5917C3.56813 33.5429 2.77773 32.8637 2.12012 32.4557C1.46252 32.0461 0.936918 31.9133 0.936918 31.9133Z" fill="#555969"/>
<path d="M3.46552 24.1004C3.46552 24.1004 3.20472 24.8556 3.01992 25.9004C2.93192 26.422 2.84632 27.0108 2.85512 27.614C2.89432 28.2268 2.99512 28.8452 3.19272 29.4044C3.58952 30.5244 4.29833 31.1916 4.90313 31.586C5.50953 31.9788 6.01194 32.1052 6.01194 32.1052C6.01194 32.1052 6.16714 31.4252 6.21994 30.4796C6.24714 30.006 6.24874 29.4644 6.19434 28.9012C6.12394 28.3332 6.10874 27.778 5.94074 27.2276C5.63353 26.1372 5.01913 25.3468 4.47753 24.8372C3.93512 24.3252 3.46552 24.1004 3.46552 24.1004Z" fill="#555969"/>
<path d="M7.47568 16.9899C7.47568 16.9899 7.09248 17.6483 6.72607 18.5907C6.54287 19.0619 6.36607 19.6035 6.24607 20.1628C6.13247 20.726 6.13647 21.3404 6.20927 21.8996C6.37087 23.0276 6.90848 23.7948 7.40128 24.2852C7.89328 24.774 8.34128 24.9932 8.34128 24.9932C8.34128 24.9932 8.61489 24.3828 8.84289 23.5036C8.95649 23.0628 9.05969 22.5524 9.11489 22.0132C9.20609 21.4932 9.25889 20.9468 9.21489 20.4028C9.13089 19.3171 8.69969 18.4571 8.28688 17.8747C7.87488 17.2907 7.47568 16.9899 7.47568 16.9899Z" fill="#555969"/>
<path d="M12.781 10.8547C12.781 10.8547 12.3025 11.3995 11.7897 12.2147C11.2905 13.0411 10.6961 14.0803 10.6721 15.1987C10.6145 16.2899 10.9729 17.1171 11.3409 17.6747C11.7097 18.2315 12.0849 18.5259 12.0849 18.5259C12.0849 18.5259 12.4546 18.0035 12.8314 17.2171C13.1786 16.4051 13.661 15.4291 13.7826 14.3907C13.9026 13.3531 13.6578 12.4643 13.3778 11.8379C13.0978 11.2131 12.781 10.8547 12.781 10.8547Z" fill="#555969"/>
<path d="M19.1679 5.9314C19.1679 5.9314 19.1319 5.95459 19.0679 5.99779C19.0015 6.04099 18.9095 6.1074 18.8047 6.2058C18.5895 6.3946 18.2967 6.6674 17.9831 7.0018C17.3655 7.681 16.6327 8.56341 16.3679 9.56341C16.1127 10.5778 16.2911 11.425 16.5279 12.0202C16.7671 12.6154 17.0607 12.9642 17.0607 12.9642C17.0607 12.9642 17.5023 12.541 17.9983 11.8714C18.2375 11.5234 18.5271 11.1578 18.7919 10.7546C19.0527 10.3474 19.2831 9.89702 19.4367 9.41942C19.7415 8.46581 19.6759 7.5834 19.5311 6.9466C19.3975 6.3242 19.1679 5.9314 19.1679 5.9314Z" fill="#555969"/>
<path d="M26.3673 2.39069C26.3673 2.39069 26.2169 2.44988 25.9721 2.56588C25.7321 2.68748 25.4129 2.90029 25.0577 3.15069C24.3513 3.66109 23.5257 4.3851 23.0648 5.2251C22.624 6.10591 22.6392 6.9523 22.744 7.55151C22.8528 8.15631 23.0585 8.53872 23.0585 8.53872C23.0585 8.53872 23.5481 8.22271 24.1361 7.68591C24.7529 7.2003 25.4937 6.5299 25.9553 5.68749C26.4193 4.85389 26.5161 4.00109 26.5145 3.40909C26.5073 2.80188 26.3673 2.39069 26.3673 2.39069Z" fill="#555969"/>
<path d="M34.0848 0.365845C34.0848 0.365845 33.4728 0.449842 32.7264 0.815444C31.976 1.15705 31.0744 1.67785 30.4855 2.37545C29.8895 3.05225 29.7535 3.88826 29.7311 4.45707C29.7143 5.04267 29.8311 5.44028 29.8311 5.44028C29.8311 5.44028 29.9607 5.38908 30.1704 5.28908C30.3832 5.19788 30.6632 5.01707 31.0032 4.87067C31.6736 4.54747 32.4864 4.04986 33.076 3.35466C33.664 2.65145 33.9216 1.89946 34.0304 1.34426C34.1368 0.775453 34.0848 0.365845 34.0848 0.365845Z" fill="#555969"/>
<path d="M41.4876 3.24507C41.4876 3.24507 41.086 3.54027 40.4572 3.84827C39.826 4.15627 38.9772 4.47468 38.0235 4.52188C37.0747 4.63948 36.1835 4.51788 35.5059 4.33708C34.8291 4.16108 34.3779 3.95147 34.3779 3.95147C34.3779 3.95147 34.7179 3.62107 35.3219 3.24987C35.9251 2.88587 36.7979 2.45387 37.8084 2.32987C38.826 2.27707 39.7636 2.50587 40.4252 2.74747C41.09 2.98907 41.4876 3.24507 41.4876 3.24507Z" fill="#555969"/>
<path d="M52.7502 3.83789C52.7502 3.83789 53.1694 3.8995 53.955 4.0147C54.3454 4.0819 54.8366 4.12269 55.3982 4.24829C55.9558 4.38829 56.5982 4.5499 57.3166 4.7299C60.1662 5.4803 64.2486 6.88431 68.4535 9.79312C72.6367 12.6707 76.9567 16.9972 79.9847 22.6388C80.3359 23.3556 80.6895 24.0788 81.0447 24.8076L81.3127 25.3556C81.3951 25.5412 81.4583 25.7364 81.5319 25.926C81.6743 26.3092 81.8167 26.6924 81.9607 27.0788C82.6023 28.598 82.9647 30.2276 83.3992 31.8493C83.604 32.6637 83.6832 33.5069 83.832 34.3381L84.0304 35.5933C84.0992 36.0117 84.0912 36.4397 84.1248 36.8629C84.1736 37.7117 84.2207 38.5621 84.2687 39.4141C84.2535 40.2661 84.1992 41.1197 84.1664 41.9725L84.1096 43.2525L83.9239 44.5205C83.7919 45.3637 83.6943 46.2125 83.5343 47.0477C83.1007 48.6941 82.7799 50.3686 82.1383 51.9318L81.7119 53.119L81.4983 53.7094L81.2303 54.2766C80.8727 55.031 80.5159 55.7822 80.1623 56.5278C79.9999 56.9094 79.7703 57.2534 79.5623 57.607C79.3511 57.959 79.1415 58.3102 78.9319 58.6598C78.7215 59.0102 78.5135 59.3582 78.3047 59.7062C78.1047 60.059 77.8359 60.3638 77.6063 60.6926C77.1287 61.339 76.6551 61.9798 76.1863 62.6142C75.6831 63.2222 75.1431 63.7894 74.6311 64.3694C74.3727 64.6566 74.1151 64.9438 73.8591 65.2278C73.6007 65.5094 73.3047 65.751 73.0311 66.0118C72.4743 66.5247 71.9239 67.0303 71.3815 67.5295C70.8295 68.0175 70.2239 68.4254 69.6607 68.8687C69.3743 69.0846 69.0903 69.2991 68.8095 69.5119L68.3887 69.8303L67.9447 70.1071C67.3535 70.4711 66.7719 70.8287 66.2015 71.1807C65.9159 71.3559 65.6326 71.5295 65.3526 71.7015C65.0574 71.8463 64.7646 71.9887 64.475 72.1311C63.3102 72.6815 62.2286 73.2927 61.1062 73.6543C60.555 73.8599 60.019 74.0591 59.4966 74.2535C59.2342 74.3471 58.9806 74.4551 58.7214 74.5327C58.4606 74.6023 58.203 74.6695 57.9494 74.7367C56.9326 74.9951 55.9902 75.2743 55.103 75.4647C54.2062 75.6071 53.3822 75.7375 52.6382 75.8551C52.2654 75.9103 51.9142 75.9783 51.5822 76.0135C51.2462 76.0327 50.9334 76.0503 50.6398 76.0671C50.0558 76.0999 49.5582 76.1279 49.1558 76.1503C48.3486 76.1959 47.9189 76.2191 47.9189 76.2191V74.9335C47.9189 74.9335 48.335 74.9143 49.1134 74.8791C49.5022 74.8623 49.9838 74.8407 50.5486 74.8159C50.831 74.8031 51.1342 74.7903 51.459 74.7759C51.7814 74.7455 52.1206 74.6831 52.4814 74.6335C53.2022 74.5279 53.9998 74.4119 54.8686 74.2847C55.727 74.1103 56.643 73.8503 57.6294 73.6127C57.8758 73.5511 58.1254 73.4887 58.3798 73.4255C58.631 73.3543 58.8774 73.2511 59.1318 73.1639C59.6398 72.9815 60.1622 72.7943 60.6974 72.6015C61.791 72.2663 62.8446 71.6831 63.9814 71.1631C64.2638 71.0295 64.5494 70.8935 64.8382 70.7567C65.1118 70.5935 65.3886 70.4271 65.667 70.2607C66.2255 69.9255 66.7943 69.5847 67.3727 69.2383L67.8079 68.975L68.2207 68.6703C68.4959 68.4663 68.7735 68.2606 69.0543 68.0542C69.6071 67.631 70.2023 67.2406 70.7455 66.7718C71.2791 66.2918 71.8207 65.8062 72.3687 65.3142C72.6375 65.0638 72.9295 64.8326 73.1847 64.5606C73.4367 64.2862 73.6911 64.0102 73.9463 63.7326C74.4511 63.1726 74.9855 62.6262 75.4831 62.0406C75.9479 61.4262 76.4167 60.8062 76.8903 60.1814C77.1183 59.863 77.3847 59.5686 77.5831 59.2262C77.7903 58.8902 77.9983 58.551 78.2071 58.2126C78.4159 57.8734 78.6255 57.5326 78.8359 57.1918C79.0431 56.8478 79.2727 56.515 79.4343 56.1438C79.7887 55.4182 80.1463 54.6886 80.5047 53.955L80.7751 53.4038L80.9895 52.827L81.4207 51.671C82.0679 50.1486 82.3991 48.5125 82.8447 46.9021C83.0119 46.0861 83.1159 45.2533 83.256 44.4277L83.4535 43.1845L83.5247 41.9285C83.5672 41.0901 83.6312 40.2525 83.656 39.4149C83.6184 38.5765 83.5807 37.7389 83.5431 36.9029C83.5151 36.4869 83.5287 36.0653 83.4655 35.6533L83.2831 34.4157C83.1463 33.5949 83.0784 32.7629 82.8871 31.9588C82.4759 30.3564 82.1391 28.7428 81.5239 27.2372C81.3871 26.854 81.2503 26.474 81.1135 26.094C81.0423 25.9052 80.9831 25.7124 80.9039 25.5276L80.6463 24.9844C80.3023 24.2596 79.9623 23.5404 79.6239 22.8276C76.6967 17.2156 72.4639 12.8691 68.3383 9.95793C64.191 7.01472 60.1366 5.56671 57.3014 4.7835C56.5854 4.5947 55.9462 4.4259 55.3894 4.27949C54.831 4.14669 54.3406 4.1003 53.951 4.0299C53.1678 3.9051 52.7502 3.83789 52.7502 3.83789Z" fill="#555969"/>
<path d="M62.9725 79.6863C62.9725 79.6863 61.9252 80.0567 60.4836 80.2911C59.7484 80.3591 58.9172 80.3927 58.0852 80.3399C57.67 80.3135 57.2548 80.2663 56.8508 80.1919C56.6484 80.1543 56.45 80.1095 56.2556 80.0583C56.0588 79.9927 55.866 79.9175 55.6788 79.8367C54.1804 79.1815 53.3572 78.1623 52.8948 77.3151C52.4348 76.4663 52.3252 75.7871 52.3252 75.7871C52.3252 75.7871 53.25 75.6711 54.5252 75.7239C54.8428 75.7303 55.1892 75.7751 55.5396 75.7823C55.89 75.7879 56.254 75.8055 56.6252 75.8431C57.3668 75.9183 58.1372 76.0655 58.8732 76.3295C59.6148 76.6151 60.2164 76.8743 60.742 77.2367C61.2636 77.5855 61.69 77.9719 62.0221 78.3335C62.6877 79.0575 62.9725 79.6863 62.9725 79.6863Z" fill="#555969"/>
<path d="M70.519 75.6999C70.519 75.6999 69.5958 76.2375 68.2845 76.7455C66.9301 77.1703 65.1717 77.5191 63.6597 77.2631C62.1101 76.9303 61.1253 76.1239 60.5181 75.4087C59.9109 74.6927 59.6709 74.0711 59.6709 74.0711C59.6709 74.0711 60.5269 73.7839 61.7485 73.5879C62.3717 73.5175 63.0309 73.3311 63.7573 73.2743C64.4781 73.2039 65.2389 73.1983 65.9885 73.3087C67.4517 73.4655 68.5806 74.0263 69.3558 74.5951C70.127 75.1567 70.519 75.6999 70.519 75.6999Z" fill="#555969"/>
<path d="M77.08 70.3302C77.08 70.3302 76.3064 71.0078 75.1608 71.7302C74.6072 72.1134 73.8672 72.3918 73.1432 72.6558C72.4072 72.907 71.6391 73.0846 70.9023 73.1166C69.3943 73.1326 68.2799 72.5295 67.5655 71.9783C66.8479 71.4174 66.4951 70.875 66.4951 70.875C66.4951 70.875 67.2535 70.4422 68.3783 70.027C69.4479 69.5286 70.8751 69.0142 72.3295 68.9254C73.728 68.7726 74.9264 69.1142 75.7656 69.503C76.6048 69.8894 77.08 70.3302 77.08 70.3302Z" fill="#555969"/>
<path d="M82.4247 63.8086C82.4247 63.8086 81.8183 64.591 80.8671 65.4846C80.6271 65.7062 80.3767 65.9422 80.0903 66.159C79.7927 66.3662 79.4783 66.5678 79.1527 66.7542C78.5023 67.127 77.8063 67.4366 77.1119 67.6054C76.7639 67.6886 76.4351 67.7342 76.1215 67.747C75.7951 67.747 75.4879 67.7182 75.2031 67.667C74.6319 67.5678 74.1447 67.3862 73.7479 67.1902C72.9543 66.7982 72.5127 66.355 72.5127 66.355C72.5127 66.355 72.6735 66.2166 72.9575 66.0038C73.2303 65.779 73.6743 65.5286 74.1191 65.175C74.5775 64.8358 75.1215 64.4774 75.7239 64.1598C76.3159 63.8366 77.0111 63.5894 77.6415 63.3686C78.9447 62.9614 80.1479 63.0614 81.0191 63.2718C81.8903 63.4806 82.4247 63.8086 82.4247 63.8086Z" fill="#555969"/>
<path d="M86.3526 56.3901C86.3526 56.3901 85.9254 57.2397 85.1926 58.2622C84.5078 59.3094 83.303 60.3982 82.0566 60.983C81.427 61.2718 80.8382 61.4046 80.2902 61.4302C79.7278 61.4454 79.2294 61.3678 78.8126 61.259C77.9814 61.0422 77.4766 60.7102 77.4766 60.7102C77.4766 60.7102 77.603 60.5494 77.8334 60.295C78.0774 60.0494 78.3774 59.679 78.7446 59.2686C79.1174 58.8614 79.567 58.4198 80.0814 58.0086C80.3374 57.8022 80.6102 57.603 80.8974 57.4198C81.1614 57.2238 81.4374 57.0405 81.7278 56.8829C82.8886 56.2509 84.0502 56.1165 84.9166 56.1509C85.7846 56.1821 86.3526 56.3901 86.3526 56.3901Z" fill="#555969"/>
<path d="M88.7089 48.3741C88.7089 48.3741 88.4657 49.2542 87.9673 50.3566C87.7049 50.9022 87.4353 51.5182 87.0017 52.067C86.5737 52.6174 86.0833 53.1318 85.5425 53.5254C84.4513 54.311 83.4056 54.479 82.5568 54.431C81.7256 54.3878 81.1816 54.175 81.1816 54.175C81.1816 54.175 81.2712 53.9998 81.4424 53.7158C81.5888 53.4222 81.7952 53.0126 82.0737 52.5574C82.6169 51.6422 83.4928 50.5614 84.4241 49.7246C85.4041 48.9062 86.4777 48.5582 87.3041 48.4238C88.1297 48.2862 88.7089 48.3741 88.7089 48.3741Z" fill="#555969"/>
<path d="M89.4067 40.1069C89.4067 40.1069 89.3483 40.9781 89.0899 42.1045C88.9523 42.6661 88.7995 43.2933 88.5211 43.8933C88.2211 44.4925 87.8579 45.0701 87.4227 45.5445C86.5515 46.4965 85.5643 46.8557 84.7955 46.9861C84.0234 47.1141 83.457 47.0189 83.457 47.0189C83.457 47.0189 83.5154 46.8373 83.585 46.5301C83.6626 46.2229 83.7826 45.7981 83.957 45.3141C84.3074 44.3477 84.9035 43.1549 85.6219 42.1893C86.3891 41.2301 87.3355 40.6997 88.0899 40.4173C88.8443 40.1341 89.4067 40.1069 89.4067 40.1069Z" fill="#555969"/>
<path d="M88.4704 31.9133C88.4704 31.9133 88.5816 32.7429 88.5544 33.8509C88.5304 34.4045 88.516 35.0229 88.3552 35.6405C88.188 36.2581 87.956 36.8701 87.6384 37.3989C87.0008 38.4589 86.14 38.9885 85.44 39.2613C84.7424 39.5333 84.1984 39.5549 84.1984 39.5549C84.1984 39.5549 84.1832 38.8293 84.3272 37.8525C84.4648 36.8757 84.8104 35.6365 85.3008 34.5917C85.8392 33.5429 86.6304 32.8637 87.2872 32.4557C87.9456 32.0461 88.4704 31.9133 88.4704 31.9133Z" fill="#555969"/>
<path d="M85.9404 24.1004C85.9404 24.1004 86.202 24.8556 86.386 25.8996C86.474 26.422 86.5604 27.0108 86.5508 27.614C86.5124 28.2268 86.4108 28.8452 86.2132 29.4044C85.8164 30.5244 85.1084 31.1916 84.5028 31.586C83.8971 31.9788 83.3948 32.1052 83.3948 32.1052C83.3948 32.1052 83.2396 31.4252 83.1852 30.4796C83.1596 30.0052 83.158 29.4644 83.2124 28.9012C83.2828 28.3332 83.2979 27.778 83.4651 27.2276C83.7724 26.1372 84.3876 25.346 84.9292 24.8372C85.4708 24.3252 85.9404 24.1004 85.9404 24.1004Z" fill="#555969"/>
<path d="M81.9293 16.9899C81.9293 16.9899 82.3133 17.6483 82.6797 18.5907C82.8621 19.0619 83.0389 19.6035 83.1597 20.1628C83.2725 20.726 83.2685 21.3404 83.1957 21.8996C83.0349 23.0276 82.4973 23.7948 82.0045 24.2852C81.5117 24.774 81.0645 24.9932 81.0645 24.9932C81.0645 24.9932 80.7909 24.3828 80.5629 23.5036C80.4485 23.0628 80.3461 22.5524 80.2909 22.0132C80.1997 21.4932 80.1469 20.9468 80.1901 20.4028C80.2749 19.3171 80.7061 18.4571 81.1189 17.8747C81.5309 17.2907 81.9293 16.9899 81.9293 16.9899Z" fill="#555969"/>
<path d="M76.626 10.8539C76.626 10.8539 77.1044 11.3995 77.6172 12.2147C78.1164 13.0403 78.7116 14.0803 78.7356 15.1987C78.7924 16.2899 78.4348 17.1171 78.0668 17.6747C77.698 18.2315 77.322 18.5259 77.322 18.5259C77.322 18.5259 76.9524 18.0035 76.5756 17.2171C76.2284 16.4043 75.746 15.4291 75.6244 14.3907C75.5036 13.3531 75.7484 12.4643 76.0284 11.8379C76.3092 11.2123 76.626 10.8539 76.626 10.8539Z" fill="#555969"/>
<path d="M70.2377 5.93066C70.2377 5.93066 70.2729 5.95386 70.3385 5.99786C70.4033 6.04106 70.4961 6.10747 70.6009 6.20587C70.8153 6.39467 71.1097 6.66747 71.4225 7.00187C72.0409 7.68108 72.7729 8.56348 73.0393 9.56348C73.2945 10.5779 73.1161 11.4251 72.8777 12.0203C72.6401 12.6155 72.3465 12.9643 72.3465 12.9643C72.3465 12.9643 71.9049 12.5411 71.4081 11.8715C71.1697 11.5235 70.8793 11.1579 70.6145 10.7547C70.3545 10.3475 70.1233 9.89709 69.9705 9.41949C69.6649 8.46588 69.7305 7.58348 69.8761 6.94588C70.0089 6.32428 70.2377 5.93066 70.2377 5.93066Z" fill="#555969"/>
<path d="M63.0387 2.39069C63.0387 2.39069 63.1891 2.44988 63.4331 2.56588C63.6747 2.68748 63.9931 2.90029 64.3483 3.15069C65.0555 3.66109 65.8811 4.3851 66.3411 5.2251C66.7827 6.10591 66.7659 6.9523 66.6619 7.55151C66.5531 8.15551 66.3467 8.53872 66.3467 8.53872C66.3467 8.53872 65.8579 8.22271 65.2691 7.68591C64.6515 7.2003 63.9115 6.5299 63.4507 5.68749C62.9859 4.85389 62.8883 4.00109 62.8907 3.40909C62.8987 2.80188 63.0387 2.39069 63.0387 2.39069Z" fill="#555969"/>
<path d="M55.3222 0.365845C55.3222 0.365845 55.9342 0.449842 56.6806 0.815444C57.431 1.15705 58.3334 1.67785 58.9222 2.37545C59.5174 3.05225 59.6534 3.88826 59.6758 4.45707C59.6926 5.04267 59.575 5.44028 59.575 5.44028C59.575 5.44028 59.4462 5.38908 59.2366 5.28908C59.0238 5.19788 58.7438 5.01707 58.4038 4.87067C57.7326 4.54747 56.9198 4.04986 56.3302 3.35466C55.743 2.65145 55.4854 1.89946 55.3774 1.34426C55.2702 0.775453 55.3222 0.365845 55.3222 0.365845Z" fill="#555969"/>
<path d="M58.2298 67.0374C58.2298 67.0374 57.5378 67.3246 56.6666 67.8942C56.2154 68.1318 55.7162 68.4398 55.2266 68.8318C54.9818 69.0278 54.7402 69.2446 54.5074 69.4814C54.3906 69.6006 54.277 69.7254 54.1666 69.8558C54.0522 69.971 53.9426 70.091 53.8362 70.2174C52.9874 71.231 52.573 72.4382 52.3826 73.3862C52.1898 74.335 52.2338 75.0238 52.2338 75.0238C52.2338 75.0238 53.1442 74.8598 54.2914 74.4374C54.5762 74.3246 54.8818 74.2254 55.1778 74.0566C55.4738 73.8854 55.7722 73.6966 56.0618 73.4894C56.6402 73.075 57.1802 72.5894 57.5938 72.031C58.0138 71.495 58.2338 70.823 58.3666 70.2518C58.4954 69.6662 58.5194 69.1142 58.497 68.639C58.4514 67.6886 58.2298 67.0374 58.2298 67.0374Z" fill="#555969"/>
<path d="M63.6006 64.6461C63.6006 64.6461 62.9862 65.0429 62.267 65.7677C61.5013 66.4085 60.6013 67.3477 60.0229 68.5517C59.4117 69.6765 59.2557 70.9013 59.2629 71.835C59.2685 72.771 59.4477 73.4166 59.4477 73.4166C59.4477 73.4166 60.2821 73.0846 61.2917 72.4638C61.8077 72.1814 62.3061 71.6894 62.7822 71.2014C63.2534 70.6974 63.6734 70.1341 63.9606 69.5245C64.5006 68.2421 64.3822 67.0021 64.1622 66.1149C63.9366 65.2213 63.6006 64.6461 63.6006 64.6461Z" fill="#555969"/>
<path d="M68.4369 61.2029C68.4369 61.2029 67.9201 61.6981 67.3641 62.5222C67.1048 62.9574 66.7385 63.3614 66.46 63.891C66.172 64.407 65.9216 64.9894 65.7664 65.6238C65.424 66.8422 65.496 67.9998 65.692 68.8894C65.8808 69.7726 66.18 70.3454 66.18 70.3454C66.18 70.3454 66.9104 69.8742 67.7521 69.0958C68.5369 68.2366 69.4057 67.047 69.7065 65.771C69.9553 64.427 69.6273 63.2942 69.2465 62.4894C68.8657 61.6853 68.4369 61.2029 68.4369 61.2029Z" fill="#555969"/>
<path d="M72.5339 56.8373C72.5339 56.8373 72.1299 57.4061 71.7499 58.2925C71.6515 58.5126 71.5659 58.7614 71.4667 59.0118C71.3571 59.2534 71.2531 59.511 71.1619 59.7822C70.9811 60.3254 70.8507 60.9238 70.8211 61.5518C70.8059 61.8662 70.8179 62.1742 70.8467 62.4686C70.8635 62.7502 70.9003 63.0238 70.9547 63.2846C71.0603 63.807 71.2259 64.2806 71.4019 64.6774C71.7515 65.4726 72.1491 65.9574 72.1491 65.9574C72.1491 65.9574 72.3003 65.8118 72.5339 65.555C72.7555 65.2854 73.1099 64.9534 73.3843 64.455C73.6731 63.971 73.9675 63.4078 74.1987 62.8078C74.4203 62.1998 74.6203 61.5934 74.5915 60.9182C74.5787 59.6014 74.0563 58.591 73.5443 57.9013C73.0315 57.2133 72.5339 56.8373 72.5339 56.8373Z" fill="#555969"/>
<path d="M75.7031 51.7117C75.7031 51.7117 75.4231 52.3285 75.2239 53.2429C75.0719 54.1845 74.7815 55.3165 74.9695 56.5205C75.0559 57.1181 75.2455 57.6725 75.4591 58.1549C75.6583 58.6277 75.9063 59.0405 76.1479 59.3805C76.6319 60.0621 77.1023 60.4405 77.1023 60.4405C77.1023 60.4405 77.2191 60.2757 77.3935 59.9893C77.5815 59.7109 77.7799 59.2797 77.9599 58.7653C78.1455 58.2541 78.3199 57.6661 78.4271 57.0557C78.4807 56.7509 78.5175 56.4413 78.5303 56.1325C78.5199 55.8125 78.4831 55.4917 78.4191 55.1821C78.1615 53.9381 77.4767 53.0821 76.8615 52.5269C76.2471 51.9725 75.7031 51.7117 75.7031 51.7117Z" fill="#555969"/>
<path d="M77.7976 46.0157C77.7976 46.0157 77.6464 46.6581 77.6296 47.5645C77.6072 48.0157 77.6728 48.5509 77.7016 49.0837C77.7336 49.6173 77.8296 50.1781 78.0256 50.7269C78.408 51.8189 79.1504 52.6717 79.7216 53.2085C80.3104 53.7549 80.8304 54.0189 80.8304 54.0189C80.8304 54.0189 80.9104 53.8405 81.0224 53.5357C81.1088 53.2213 81.2088 52.7733 81.2888 52.2557C81.4376 51.2157 81.556 49.9133 81.0248 48.7749C80.5448 47.6501 79.736 46.9701 79.048 46.5629C78.3608 46.1589 77.7976 46.0157 77.7976 46.0157Z" fill="#555969"/>
<path d="M78.7114 39.958C78.7114 39.958 78.6954 40.6012 78.8522 41.47C78.9226 41.9044 79.0698 42.4012 79.2226 42.9036C79.3546 43.4036 79.5522 43.918 79.8402 44.398C80.4202 45.3596 81.253 46.0108 81.9402 46.4124C82.6242 46.8148 83.1554 46.9572 83.1554 46.9572C83.1554 46.9572 83.205 46.7748 83.2138 46.458C83.2306 46.1428 83.2434 45.702 83.2194 45.198C83.1714 44.1884 83.0098 42.9348 82.2914 41.958C81.6218 40.9852 80.7266 40.4964 79.9994 40.2396C79.2714 39.986 78.7114 39.958 78.7114 39.958Z" fill="#555969"/>
<path d="M78.417 33.7908C78.417 33.7908 78.5266 34.4036 78.8434 35.1964C78.9922 35.5956 79.2362 36.0364 79.4642 36.4852C79.685 36.9364 79.9706 37.3852 80.3362 37.7852C81.0674 38.5852 81.9786 39.0364 82.7034 39.2804C83.4314 39.526 83.9682 39.5548 83.9682 39.5548C83.9682 39.5548 83.9138 38.8268 83.6746 37.882C83.429 36.9396 83.0482 35.7844 82.1802 35.0004C81.361 34.2092 80.4218 33.9164 79.6866 33.8124C78.9514 33.7108 78.417 33.7908 78.417 33.7908Z" fill="#555969"/>
<path d="M76.9004 27.7715C76.9004 27.7715 77.1204 28.3315 77.5716 29.0227C77.7932 29.3699 78.09 29.7459 78.4156 30.1203C78.7108 30.5019 79.0652 30.8715 79.486 31.1779C80.3292 31.7915 81.2716 32.0379 82.002 32.1267C82.7308 32.2147 83.246 32.1371 83.246 32.1371C83.246 32.1371 83.054 31.4611 82.646 30.6187C82.4428 30.1979 82.1868 29.7371 81.8756 29.3043C81.5812 28.8675 81.1228 28.4931 80.6756 28.1947C79.754 27.6059 78.8132 27.5083 78.1004 27.5507C77.3876 27.5939 76.9004 27.7715 76.9004 27.7715Z" fill="#555969"/>
<path d="M74.1924 22.1267C74.1924 22.1267 74.5068 22.6171 75.0612 23.1883C75.3388 23.4747 75.6764 23.7827 76.0692 24.0667C76.4532 24.3539 76.8324 24.6499 77.2924 24.8547C78.1988 25.2715 79.1292 25.3203 79.8284 25.2595C80.5284 25.2003 80.9964 25.0243 80.9964 25.0243C80.9964 25.0243 80.6868 24.4243 80.1468 23.7083C79.8756 23.3507 79.5484 22.9659 79.1756 22.6187C78.7652 22.2899 78.302 22.0043 77.8156 21.8131C76.8388 21.4323 75.938 21.5179 75.2772 21.6923C74.6172 21.8675 74.1924 22.1267 74.1924 22.1267Z" fill="#555969"/>
<path d="M70.3867 17.0867C70.3867 17.0867 70.7739 17.4939 71.4019 17.9339C72.0155 18.3859 72.9419 18.8203 73.8339 19.0739C74.7595 19.2979 75.638 19.1651 76.2788 18.9731C76.922 18.7819 77.3244 18.5251 77.3244 18.5251C77.3244 18.5251 76.9244 18.0179 76.2844 17.4451C75.6756 16.8483 74.7059 16.2947 73.7219 16.1187C72.7387 15.9411 71.9099 16.1891 71.3227 16.4755C70.7363 16.7635 70.3867 17.0867 70.3867 17.0867Z" fill="#555969"/>
<path d="M65.6113 12.8842C65.6113 12.8842 65.6417 12.9003 65.6961 12.9299C65.7529 12.9571 65.8337 12.9987 65.9289 13.0595C66.1225 13.1755 66.3993 13.3291 66.7353 13.4795C67.3993 13.7915 68.3329 14.0515 69.2497 14.0787C70.1562 14.1203 70.949 13.8299 71.509 13.5283C72.0706 13.2267 72.397 12.9082 72.397 12.9082C72.397 12.9082 71.929 12.5058 71.2258 12.085C70.8858 11.8634 70.4498 11.6818 69.9841 11.553C69.5225 11.4194 69.0361 11.3346 68.5601 11.341C67.6089 11.3554 66.8801 11.7386 66.3833 12.1186C65.8785 12.5138 65.6113 12.8842 65.6113 12.8842Z" fill="#555969"/>
<path d="M60.0645 9.68982C60.0645 9.68982 60.1885 9.73142 60.4013 9.78262C60.6117 9.84102 60.8957 9.94583 61.2405 10.0234C61.9261 10.185 62.8309 10.2938 63.7181 10.1034C64.5821 9.95222 65.2549 9.55063 65.7205 9.15622C66.1853 8.76822 66.4277 8.40742 66.4277 8.40742C66.4277 8.40742 65.9149 8.11461 65.1821 7.84981C64.4205 7.63621 63.4205 7.49381 62.5365 7.67941C61.6501 7.87141 61.0493 8.35062 60.6429 8.82982C60.2445 9.29302 60.0645 9.68982 60.0645 9.68982Z" fill="#555969"/>
<path d="M53.9521 7.65148C53.9521 7.65148 54.453 7.68509 55.121 7.73309C55.7946 7.75709 56.6618 7.69149 57.4514 7.34749C58.2482 6.98269 58.781 6.52268 59.1402 6.05548C59.4954 5.60427 59.6506 5.22188 59.6506 5.22188C59.6506 5.22188 59.5178 5.17707 59.2938 5.11867C59.0666 5.06907 58.7594 4.96507 58.377 4.95947C57.6242 4.91627 56.6682 4.95948 55.8802 5.30108C55.0922 5.63468 54.6162 6.21948 54.329 6.74028C54.0449 7.24748 53.9521 7.65148 53.9521 7.65148Z" fill="#555969"/>
<path d="M47.918 3.47703C47.918 3.47703 48.3132 3.22182 48.9732 2.97942C49.6308 2.73622 50.5628 2.50741 51.574 2.56021C52.5788 2.68421 53.4468 3.11542 54.0452 3.47942C54.646 3.84982 54.9836 4.17942 54.9836 4.17942C54.9836 4.17942 54.534 4.38902 53.8628 4.56502C53.1876 4.74742 52.302 4.86982 51.3612 4.75142C50.4116 4.70582 49.5692 4.38743 48.9428 4.08023C48.318 3.77303 47.918 3.47703 47.918 3.47703Z" fill="#555969"/>
<path d="M21.8176 33.6491C24.3008 33.6491 24.7712 34.7195 24.7712 35.9387C24.7712 37.3515 23.4872 38.0579 21.956 38.0579H21.1424V39.7164H21.7944V41.1292H18.3496V39.7164H18.9496V35.0499H18.3496V33.6483H21.8176V33.6491ZM21.144 36.9019H21.6256C22.2456 36.9019 22.6736 36.5811 22.6736 36.0147C22.6736 35.3827 22.2992 35.0395 21.6792 35.0395H21.144V36.9019Z" fill="#555969"/>
<path d="M28.6814 33.6491C31.1638 33.6491 31.6454 34.6331 31.6454 35.8539C31.6454 36.6891 30.9822 37.2771 30.0942 37.4051C30.8326 37.5123 31.4958 38.1547 31.4958 38.9243C31.4958 39.3843 31.5606 39.6524 31.7526 39.6524C31.9134 39.6524 31.999 39.5236 31.999 39.3092V38.9564H32.7158V39.5452C32.7158 40.4332 32.3414 41.258 31.1534 41.258C29.751 41.258 29.0766 40.5188 29.0766 39.2675C29.0766 38.2931 28.9598 38.0579 28.007 38.0579V39.7164H28.659V41.1292H25.2021V39.7164H25.8022V35.0499H25.2021V33.6483H28.6814V33.6491ZM28.007 36.8587H28.4886C29.1094 36.8587 29.5158 36.5595 29.5158 35.9923C29.5158 35.3611 29.163 35.0395 28.5422 35.0395H28.007V36.8587Z" fill="#555969"/>
<path d="M39.5456 33.6492V36.0148H37.6952V35.062H35.9824V36.5388H38.0152V37.962H35.9824V39.7069H37.6952V38.7117H39.5456V41.1301H33.0928V39.7069H33.7672V35.062H33.0928V33.6492H39.5456Z" fill="#555969"/>
<path d="M47.5104 35.5315C47.4256 36.0147 47.2752 36.7203 47.2 36.9667L46.0768 41.1292H43.84L42.6416 36.8587C42.588 36.6771 42.4488 36.0675 42.4168 35.5315H42.3736V39.7484H42.984V41.1292H40.084V39.7484H40.6616V35.0291H40.0936V33.6483H44.1496L45.2312 37.6507L46.2584 33.6483H50.336V35.0291H49.748V39.7379H50.336V41.1292H46.9536V39.7379H47.5528V36.1635V35.5315H47.5104Z" fill="#555969"/>
<path d="M54.4288 33.6492V35.062H53.7656V39.7069H54.4288V41.1301H50.876V39.7069H51.5504V35.062H50.876V33.6492H54.4288Z" fill="#555969"/>
<path d="M58.2605 33.6492V35.03H57.6821V37.342C57.6821 39.0645 58.0669 39.4285 58.7525 39.4285C59.4045 39.4285 59.8333 39.1717 59.8333 37.3308V35.062H59.2557V33.6492H62.4229V35.03H61.8453V37.6308C61.8453 40.1669 60.7853 41.3125 58.7733 41.3125C56.6117 41.2485 55.4564 40.1141 55.4564 37.6844V35.0404H54.8564V33.65L58.2605 33.6492Z" fill="#555969"/>
<path d="M70.3457 35.0292V41.1292H68.0449L65.3161 37.0516V39.7484H66.1401V41.1292H62.8545V39.7484H63.4865V35.0292H62.8657V33.6484H65.9369L68.5585 37.5756V35.0284H67.8313V33.6476H71.0521V35.0284L70.3457 35.0292Z" fill="#555969"/>
<path d="M32.2752 49.8077C32.2752 50.4933 31.8904 51.0413 31.1192 51.0413C30.4872 51.0413 30.0936 50.6405 29.924 50.1853C29.7392 50.2157 29.5312 50.2317 29.3224 50.2317C27.7656 50.2317 26.6855 49.3221 26.6855 47.5021C26.6855 45.9293 27.7264 44.8205 29.276 44.8205C31.0952 44.8205 31.9128 45.9141 31.9128 47.5573C31.9128 48.3669 31.6968 49.0221 31.2728 49.4845C31.3344 49.7237 31.42 49.9861 31.612 49.9861C31.7512 49.9861 31.7664 49.7693 31.7664 49.6381V49.4149H32.2752V49.8077ZM30.1864 47.8565C30.1936 47.7637 30.2016 47.6637 30.2016 47.5557C30.2016 46.6693 29.8392 45.9445 29.2688 45.9445C28.8064 45.9357 28.3824 46.5997 28.3824 47.5005C28.3824 47.6549 28.3904 47.7941 28.4136 47.9253C28.5912 47.7405 28.868 47.5549 29.3232 47.5549C29.6536 47.5557 29.9392 47.6797 30.1864 47.8565ZM29.7312 48.9053C29.6768 48.5205 29.584 48.2581 29.3216 48.2581C29.068 48.2581 28.9128 48.5117 28.8056 48.8213C28.9592 48.9909 29.1368 49.0749 29.3216 49.0749C29.4688 49.0749 29.608 49.0133 29.7312 48.9053Z" fill="#555969"/>
<path d="M34.9618 44.8421V45.8365H34.545V47.5013C34.545 48.7437 34.8226 49.0053 35.3162 49.0053C35.7858 49.0053 36.0946 48.8213 36.0946 47.4941V45.8597H35.6786V44.8413H37.961V45.8357H37.545V47.7093C37.545 49.5365 36.7818 50.3613 35.3314 50.3613C33.7746 50.3149 32.9418 49.4981 32.9418 47.7469V45.8429H32.5098V44.8405H34.9618V44.8421Z" fill="#555969"/>
<path d="M41.2177 50.2309V49.2205H41.9505L41.7889 48.6973H40.2073L40.0457 49.2205H40.6473V50.2309H38.1953V49.2205H38.7201L39.7609 45.8365H39.4449V44.8421H42.4049L43.7697 49.2213H44.3097V50.2317H41.2177V50.2309ZM41.5025 47.7717L40.9937 46.1069L40.4929 47.7717H41.5025Z" fill="#555969"/>
<path d="M47.0579 44.8421V45.8605H46.6491V49.2069H47.6443V48.2277H48.9395V50.2317H44.6211V49.2069H45.0451V45.8605H44.6211V44.8421H47.0579Z" fill="#555969"/>
<path d="M51.8864 44.8421V45.8605H51.4088V49.2069H51.8872V50.2317H49.3271V49.2069H49.8128V45.8605H49.3271V44.8421H51.8864Z" fill="#555969"/>
<path d="M57.3707 46.8469H56.2371V45.8605H55.5891V49.2069H56.2291V50.2317H53.3611V49.2069H53.9931V45.8605H53.3299V46.8469H52.1963V44.8421H57.3707V46.8469Z" fill="#555969"/>
<path d="M60.3647 47.2709C60.3959 47.1165 60.5655 46.7925 60.6503 46.6077L61.0735 45.8285H60.6503V44.8421H62.724V45.8285H62.3072L60.8808 48.3349V49.2285H61.3128V50.2309H58.8455V49.2285H59.2855V48.3189L57.7895 45.8285H57.4111V44.8421H60.0487V45.8285H59.6471L60.0951 46.6453C60.1415 46.7925 60.3031 47.1389 60.3343 47.2701L60.3647 47.2709Z" fill="#555969"/>
<path d="M35.3406 58.1166L34.6326 55.9382L33.9254 58.1166H31.6357L33.4878 59.4614L32.7813 61.6398L34.6326 60.2926L36.4854 61.6398L35.7782 59.4614L37.6302 58.1166H35.3406Z" fill="#555969"/>
<path d="M45.7832 57.7614L44.7032 54.4374L43.6224 57.7614H40.1279L42.9551 59.8158L41.8751 63.1406L44.7032 61.0854L47.5304 63.1406L46.4512 59.8158L49.2784 57.7614H45.7832Z" fill="#555969"/>
<path d="M57.7708 58.1166H55.482L54.774 55.9382L54.066 58.1166H51.7764L53.6284 59.4614L52.9212 61.6398L54.774 60.2926L56.626 61.6398L55.9188 59.4614L57.7708 58.1166Z" fill="#555969"/>
</svg>
