<svg width="74" height="81" viewBox="0 0 74 81" fill="none" xmlns="http://www.w3.org/2000/svg">
<path d="M16.8402 60.7332H17.2322C17.4235 60.7472 17.6009 60.7868 17.7642 60.8522C17.9462 60.9128 18.1212 61.0062 18.2892 61.1322C18.3312 61.1648 18.3522 61.1765 18.3522 61.1672C18.3569 61.1672 18.4432 61.0972 18.6112 60.9572C18.7979 60.8078 18.8889 60.7355 18.8842 60.7402C18.9215 60.7168 18.9892 60.7168 19.0872 60.7402C19.1105 60.7542 19.1245 60.7775 19.1292 60.8102C19.1339 60.8568 19.1362 61.1602 19.1362 61.7202C19.1362 62.3408 19.1292 62.6605 19.1152 62.6792L19.0872 62.6932C19.0685 62.7025 18.9939 62.7072 18.8632 62.7072C18.7325 62.7072 18.6579 62.7025 18.6392 62.6932C18.6065 62.6698 18.5879 62.6348 18.5832 62.5882C18.5459 62.2428 18.4222 61.9442 18.2122 61.6922C18.1189 61.5895 18.0302 61.5078 17.9462 61.4472C17.7969 61.3398 17.6405 61.2745 17.4772 61.2512C17.2719 61.2092 17.0199 61.2208 16.7212 61.2862C16.4225 61.3468 16.1822 61.4542 16.0002 61.6082C15.8929 61.6922 15.8135 61.7762 15.7622 61.8602C15.5662 62.1448 15.4682 62.5928 15.4682 63.2042C15.4682 63.8435 15.5779 64.3055 15.7972 64.5902C15.8205 64.6228 15.8485 64.6555 15.8812 64.6882C15.9419 64.7488 15.9815 64.7862 16.0002 64.8002C16.1822 64.9542 16.4225 65.0615 16.7212 65.1222C16.9825 65.1782 17.2135 65.1945 17.4142 65.1712C17.8389 65.1292 18.1679 64.9402 18.4012 64.6042C18.5412 64.4082 18.6182 64.1912 18.6322 63.9532C18.6322 63.8738 18.6485 63.8248 18.6812 63.8062C18.6999 63.7968 18.7675 63.7922 18.8842 63.7922C19.0009 63.7922 19.0685 63.7968 19.0872 63.8062C19.1199 63.8295 19.1362 63.8832 19.1362 63.9672C19.1222 64.1912 19.0709 64.3942 18.9822 64.5762C18.7629 65.0335 18.3872 65.3555 17.8552 65.5422C17.6592 65.6122 17.4515 65.6565 17.2322 65.6752C17.0829 65.6892 16.8939 65.6868 16.6652 65.6682C16.0772 65.6028 15.5872 65.4348 15.1952 65.1642C14.8219 64.8888 14.5559 64.5458 14.3972 64.1352C14.3272 63.9578 14.2735 63.7478 14.2362 63.5052C14.2175 63.3372 14.2175 63.1458 14.2362 62.9312C14.2362 62.9172 14.2362 62.9055 14.2362 62.8962C14.2829 62.5228 14.3995 62.1868 14.5862 61.8882C14.8709 61.4262 15.3025 61.0972 15.8812 60.9012C16.1799 60.8078 16.4995 60.7518 16.8402 60.7332ZM19.8646 61.0552V60.8032H19.9556C19.9509 60.8032 20.1749 60.8078 20.6276 60.8172C21.0149 60.8218 21.4023 60.8218 21.7896 60.8172L22.4546 60.8032H22.5456V61.0552V61.3072H22.1676H21.7896V62.8192C21.7943 63.8645 21.8036 64.4198 21.8176 64.4852C21.8176 64.4945 21.8223 64.5132 21.8316 64.5412C21.8689 64.7185 21.9459 64.8562 22.0626 64.9542C22.2539 65.1082 22.5409 65.1828 22.9236 65.1782C23.3669 65.1642 23.6959 65.0498 23.9106 64.8352C24.0459 64.6952 24.1393 64.4968 24.1906 64.2402C24.1953 64.1982 24.1999 63.6965 24.2046 62.7352V61.3072H23.8266H23.4486V61.0552V60.8032H23.5186L24.0296 60.8172C24.3283 60.8218 24.6269 60.8218 24.9256 60.8172C25.2709 60.8078 25.4413 60.8032 25.4366 60.8032H25.5066V61.0552V61.3072H25.1286H24.7506V62.7002C24.7506 63.6475 24.7483 64.1398 24.7436 64.1772C24.7156 64.4992 24.6059 64.7815 24.4146 65.0242C24.2046 65.2948 23.9153 65.4815 23.5466 65.5842C23.3413 65.6448 23.1289 65.6775 22.9096 65.6822C22.4523 65.6915 22.0556 65.6285 21.7196 65.4932C21.6076 65.4512 21.4909 65.3928 21.3696 65.3182C21.2016 65.2155 21.0593 65.0895 20.9426 64.9402C20.7606 64.7022 20.6556 64.4408 20.6276 64.1562C20.6229 64.1235 20.6206 63.6358 20.6206 62.6932V61.3072H20.2426H19.8646V61.0552ZM27.5979 60.7332C27.7939 60.7145 27.9829 60.7215 28.1649 60.7542C28.4216 60.7915 28.6643 60.8848 28.8929 61.0342C28.9209 61.0575 28.9419 61.0668 28.9559 61.0622C28.9793 61.0388 29.0399 60.9852 29.1379 60.9012C29.2593 60.7985 29.3223 60.7448 29.3269 60.7402C29.3409 60.7308 29.3736 60.7262 29.4249 60.7262C29.4809 60.7262 29.5159 60.7308 29.5299 60.7402C29.5533 60.7542 29.5673 60.7868 29.5719 60.8382C29.5766 60.9035 29.5789 61.1462 29.5789 61.5662C29.5789 62.0888 29.5626 62.3618 29.5299 62.3852C29.5113 62.3945 29.4436 62.3992 29.3269 62.3992C29.2103 62.3992 29.1426 62.3945 29.1239 62.3852C29.0959 62.3712 29.0773 62.3222 29.0679 62.2382C29.0399 62.0888 28.9956 61.9512 28.9349 61.8252C28.8789 61.7085 28.8019 61.6058 28.7039 61.5172C28.5033 61.3212 28.2233 61.2162 27.8639 61.2022C27.4813 61.1882 27.2386 61.3142 27.1359 61.5802C27.1126 61.6455 27.1009 61.7202 27.1009 61.8042C27.1009 61.8975 27.1173 61.9792 27.1499 62.0492C27.2199 62.1938 27.3459 62.3012 27.5279 62.3712C27.5606 62.3898 27.7403 62.4318 28.0669 62.4972C28.4029 62.5672 28.5896 62.6092 28.6269 62.6232C28.8323 62.6745 29.0166 62.7608 29.1799 62.8822C29.5159 63.1295 29.7189 63.4678 29.7889 63.8972C29.8076 64.0278 29.8076 64.1912 29.7889 64.3872C29.7609 64.5645 29.7073 64.7348 29.6279 64.8982C29.5346 65.0895 29.4109 65.2435 29.2569 65.3602C29.0423 65.5235 28.7833 65.6262 28.4799 65.6682C28.3633 65.6868 28.1836 65.6892 27.9409 65.6752C27.9176 65.6705 27.8989 65.6682 27.8849 65.6682C27.4836 65.6262 27.1616 65.5258 26.9189 65.3672C26.8909 65.3485 26.8699 65.3415 26.8559 65.3462C26.8326 65.3695 26.7719 65.4232 26.6739 65.5072C26.5526 65.6098 26.4896 65.6635 26.4849 65.6682C26.4709 65.6775 26.4383 65.6822 26.3869 65.6822C26.3309 65.6822 26.2959 65.6775 26.2819 65.6682C26.2586 65.6542 26.2446 65.6215 26.2399 65.5702C26.2353 65.5048 26.2329 65.2645 26.2329 64.8492C26.2329 64.3405 26.2376 64.0792 26.2469 64.0652C26.2516 64.0558 26.2609 64.0442 26.2749 64.0302C26.2983 64.0162 26.3659 64.0092 26.4779 64.0092C26.5993 64.0092 26.6693 64.0138 26.6879 64.0232C26.7206 64.0418 26.7369 64.0908 26.7369 64.1702C26.7509 64.4222 26.8396 64.6298 27.0029 64.7932C27.1243 64.9145 27.2923 65.0102 27.5069 65.0802C27.7823 65.1688 28.0576 65.1992 28.3329 65.1712C28.3703 65.1665 28.4029 65.1618 28.4309 65.1572C28.5616 65.1292 28.6689 65.0732 28.7529 64.9892C28.8463 64.8958 28.9069 64.7698 28.9349 64.6112C28.9723 64.3732 28.9069 64.1702 28.7389 64.0022C28.6689 63.9228 28.5779 63.8668 28.4659 63.8342C28.4473 63.8248 28.2606 63.7805 27.9059 63.7012C27.5699 63.6358 27.3786 63.5938 27.3319 63.5752C26.9866 63.4772 26.7159 63.2928 26.5199 63.0222C26.3193 62.7562 26.2236 62.4575 26.2329 62.1262C26.2469 61.7948 26.3449 61.5102 26.5269 61.2722C26.6996 61.0388 26.9516 60.8778 27.2829 60.7892C27.3949 60.7612 27.4999 60.7425 27.5979 60.7332ZM30.6897 60.9222V60.8802H33.0487H35.4147V60.9222L35.4917 61.8112C35.5337 62.3945 35.557 62.6908 35.5617 62.7002V62.7422H35.3097C35.1417 62.7422 35.0577 62.7398 35.0577 62.7352C35.0577 62.6418 35.046 62.5205 35.0227 62.3712C34.9947 62.1612 34.955 61.9885 34.9037 61.8532C34.8337 61.6898 34.7147 61.5685 34.5467 61.4892C34.4767 61.4518 34.3833 61.4238 34.2667 61.4052C34.2247 61.3958 34.1057 61.3888 33.9097 61.3842H33.6367V63.2392V65.1012H34.1757H34.7077V65.3532V65.6052H34.5957L33.7697 65.5912C33.289 65.5865 32.8107 65.5865 32.3347 65.5912L31.5087 65.6052H31.3967V65.3532V65.1012H31.9357H32.4677V63.2392V61.3842H32.1947C31.9987 61.3888 31.8797 61.3958 31.8377 61.4052C31.6183 61.4472 31.4503 61.5288 31.3337 61.6502C31.259 61.7248 31.1983 61.8368 31.1517 61.9862C31.1143 62.1215 31.084 62.3292 31.0607 62.6092C31.0513 62.6885 31.0467 62.7305 31.0467 62.7352C31.0467 62.7398 30.9627 62.7422 30.7947 62.7422H30.5427V62.7002L30.6197 61.8112C30.6617 61.2278 30.685 60.9315 30.6897 60.9222ZM38.6403 60.7332C38.7943 60.7238 38.988 60.7262 39.2213 60.7402C39.856 60.8102 40.367 61.0365 40.7543 61.4192C41.1323 61.7972 41.3586 62.2942 41.4333 62.9102C41.452 63.0968 41.452 63.2998 41.4333 63.5192C41.4333 63.5285 41.4333 63.5378 41.4333 63.5472C41.3633 64.1305 41.1486 64.6065 40.7893 64.9752C40.6166 65.1432 40.4206 65.2832 40.2013 65.3952C39.912 65.5352 39.5853 65.6262 39.2213 65.6682C39.0253 65.6868 38.806 65.6868 38.5633 65.6682C38.5493 65.6682 38.5376 65.6682 38.5283 65.6682C37.8656 65.5888 37.3453 65.3578 36.9673 64.9752C36.6033 64.6112 36.3863 64.1352 36.3163 63.5472C36.2976 63.3698 36.2976 63.1692 36.3163 62.9452C36.3163 62.9312 36.3163 62.9195 36.3163 62.9102C36.3536 62.6302 36.412 62.3922 36.4913 62.1962C36.7013 61.6595 37.0536 61.2698 37.5483 61.0272C37.8656 60.8638 38.2296 60.7658 38.6403 60.7332ZM39.0183 61.1882C38.6263 61.1462 38.2926 61.2512 38.0173 61.5032C37.952 61.5638 37.8936 61.6315 37.8423 61.7062C37.7163 61.8975 37.63 62.1355 37.5833 62.4202C37.5366 62.7608 37.5296 63.1668 37.5623 63.6382C37.567 63.6802 37.5716 63.7198 37.5763 63.7572C37.6276 64.2938 37.7956 64.6835 38.0803 64.9262C38.3883 65.1828 38.7383 65.2692 39.1303 65.1852C39.331 65.1432 39.5106 65.0568 39.6693 64.9262C39.954 64.6835 40.122 64.2938 40.1733 63.7572C40.22 63.3652 40.2223 62.9498 40.1803 62.5112C40.1756 62.4785 40.171 62.4482 40.1663 62.4202C40.1336 62.2195 40.0776 62.0328 39.9983 61.8602C39.8023 61.4635 39.4756 61.2395 39.0183 61.1882ZM42.1771 61.0552V60.8032H43.1571H44.1441L44.1791 60.8242C44.2258 60.8475 44.2654 60.9012 44.2981 60.9852L45.0331 62.7352L45.7261 64.3872L46.4191 62.7352L47.1541 60.9852C47.1868 60.9012 47.2288 60.8475 47.2801 60.8242L47.3151 60.8032H48.2881H49.2681V61.0552V61.3072H48.8901H48.5121V63.2042V65.1012H48.8901H49.2681V65.3532V65.6052H49.1841C49.1888 65.6052 48.9741 65.6005 48.5401 65.5912C48.1714 65.5865 47.8028 65.5865 47.4341 65.5912C47.0001 65.6005 46.7854 65.6052 46.7901 65.6052H46.7061V65.3532V65.1012H47.0841H47.4621V63.2322L47.4551 61.3772C47.4318 61.4238 47.1424 62.1145 46.5871 63.4492C46.0084 64.8212 45.7144 65.5118 45.7051 65.5212C45.6818 65.5585 45.6468 65.5842 45.6001 65.5982C45.5534 65.6122 45.4671 65.6145 45.3411 65.6052C45.3224 65.6052 45.3084 65.6028 45.2991 65.5982C45.2524 65.5842 45.2174 65.5585 45.1941 65.5212C45.1848 65.5118 44.8978 64.8352 44.3331 63.4912C43.7684 62.1378 43.4861 61.4635 43.4861 61.4682L43.4791 63.2672V63.2812V65.1012H43.8571H44.2351V65.3532V65.6052H44.1651C44.1698 65.6052 43.9994 65.6005 43.6541 65.5912C43.3554 65.5865 43.0568 65.5865 42.7581 65.5912C42.4128 65.6005 42.2424 65.6052 42.2471 65.6052H42.1771V65.3532V65.1012H42.5551H42.9331V63.2042V61.3072H42.5551H42.1771V61.0552ZM49.8197 61.0972V60.8452H51.9897H54.1667V60.8732C54.1713 60.8918 54.2087 61.1928 54.2787 61.7762C54.3393 62.3455 54.3743 62.6465 54.3837 62.6792V62.7072H54.1317H53.8797L53.8657 62.5882C53.8237 62.2848 53.7677 62.0538 53.6977 61.8952C53.553 61.6012 53.2847 61.4262 52.8927 61.3702C52.7667 61.3562 52.531 61.3492 52.1857 61.3492H51.7447V62.1122V62.8822H51.8707C52.0853 62.8822 52.2417 62.8565 52.3397 62.8052C52.419 62.7725 52.4773 62.7212 52.5147 62.6512C52.58 62.5438 52.6127 62.3782 52.6127 62.1542V62.0632H52.8647H53.1167V63.1342V64.2052H52.8647H52.6127V64.1142C52.6127 63.8902 52.58 63.7245 52.5147 63.6172C52.4773 63.5472 52.419 63.4958 52.3397 63.4632C52.2417 63.4118 52.0853 63.3862 51.8707 63.3862H51.7447V64.2402V65.1012H52.1997C52.531 65.1012 52.7177 65.0988 52.7597 65.0942C53.2357 65.0615 53.5717 64.9075 53.7677 64.6322C53.791 64.6042 53.8213 64.5505 53.8587 64.4712C53.9427 64.3078 54.015 64.0512 54.0757 63.7012C54.085 63.6078 54.0943 63.5518 54.1037 63.5332V63.5122H54.3557H54.6077V63.5332C54.603 63.5425 54.5493 63.8832 54.4467 64.5552C54.344 65.2318 54.2903 65.5748 54.2857 65.5842V65.6052H52.0527H49.8197V65.3532V65.1012H50.1977H50.5757V63.2252V61.3492H50.1977H49.8197V61.0972ZM55.1107 61.0552V60.8032H56.5597C57.5397 60.8078 58.1114 60.8195 58.2747 60.8382C58.7507 60.9035 59.1334 61.0505 59.4227 61.2792C59.642 61.4658 59.782 61.6945 59.8427 61.9652C59.8614 62.0678 59.8614 62.1868 59.8427 62.3222C59.8054 62.4668 59.747 62.5952 59.6677 62.7072C59.565 62.8518 59.4344 62.9708 59.2757 63.0642C59.1917 63.1108 59.0797 63.1645 58.9397 63.2252L58.8697 63.2532L58.9257 63.2812C59.0844 63.3838 59.2034 63.4935 59.2827 63.6102C59.348 63.6942 59.3924 63.7758 59.4157 63.8552C59.4484 63.9252 59.481 64.1002 59.5137 64.3802C59.551 64.6648 59.579 64.8328 59.5977 64.8842C59.6724 65.1268 59.8264 65.2482 60.0597 65.2482C60.111 65.2482 60.1484 65.2435 60.1717 65.2342C60.265 65.1548 60.321 65.0498 60.3397 64.9192C60.3397 64.8678 60.363 64.8258 60.4097 64.7932C60.4424 64.7792 60.545 64.7768 60.7177 64.7862C60.7504 64.7862 60.769 64.7885 60.7737 64.7932C60.8064 64.8118 60.8274 64.8398 60.8367 64.8772C60.8554 64.9192 60.8507 64.9915 60.8227 65.0942C60.748 65.3695 60.5824 65.5515 60.3257 65.6402C60.279 65.6542 60.2324 65.6658 60.1857 65.6752C60.041 65.6985 59.796 65.6938 59.4507 65.6612C58.8114 65.5958 58.4404 65.3625 58.3377 64.9612C58.3284 64.9332 58.3214 64.9028 58.3167 64.8702C58.312 64.8375 58.3097 64.6905 58.3097 64.4292C58.3097 64.1445 58.298 63.9625 58.2747 63.8832C58.2094 63.6778 58.088 63.5355 57.9107 63.4562C57.8454 63.4282 57.689 63.4142 57.4417 63.4142H57.3647H56.9937V64.2542V65.1012H57.3717H57.7497V65.3532V65.6052H57.6587C57.6634 65.6052 57.444 65.6005 57.0007 65.5912C56.6227 65.5865 56.2424 65.5865 55.8597 65.5912C55.4164 65.6005 55.197 65.6052 55.2017 65.6052H55.1107V65.3532V65.1012H55.4887H55.8667V63.2042V61.3072H55.4887H55.1107V61.0552ZM57.8617 61.3142C57.8244 61.3095 57.661 61.3072 57.3717 61.3072H56.9937V62.1472V62.9872H57.4417C57.7777 62.9825 57.997 62.9685 58.0997 62.9452C58.2117 62.9218 58.319 62.8775 58.4217 62.8122C58.5104 62.7422 58.5687 62.6325 58.5967 62.4832C58.62 62.3245 58.6224 62.1332 58.6037 61.9092C58.5897 61.6945 58.522 61.5452 58.4007 61.4612C58.3774 61.4472 58.3517 61.4332 58.3237 61.4192C58.193 61.3632 58.039 61.3282 57.8617 61.3142ZM21.1175 68.7332C21.3135 68.7145 21.5025 68.7215 21.6845 68.7542C21.9411 68.7915 22.1838 68.8848 22.4125 69.0342C22.4405 69.0575 22.4615 69.0668 22.4755 69.0622C22.4988 69.0388 22.5595 68.9852 22.6575 68.9012C22.7788 68.7985 22.8418 68.7448 22.8465 68.7402C22.8605 68.7308 22.8931 68.7262 22.9445 68.7262C23.0005 68.7262 23.0355 68.7308 23.0495 68.7402C23.0728 68.7542 23.0868 68.7868 23.0915 68.8382C23.0961 68.9035 23.0985 69.1462 23.0985 69.5662C23.0985 70.0888 23.0821 70.3618 23.0495 70.3852C23.0308 70.3945 22.9631 70.3992 22.8465 70.3992C22.7298 70.3992 22.6621 70.3945 22.6435 70.3852C22.6155 70.3712 22.5968 70.3222 22.5875 70.2382C22.5595 70.0888 22.5151 69.9512 22.4545 69.8252C22.3985 69.7085 22.3215 69.6058 22.2235 69.5172C22.0228 69.3212 21.7428 69.2162 21.3835 69.2022C21.0008 69.1882 20.7581 69.3142 20.6555 69.5802C20.6321 69.6455 20.6205 69.7202 20.6205 69.8042C20.6205 69.8975 20.6368 69.9792 20.6695 70.0492C20.7395 70.1938 20.8655 70.3012 21.0475 70.3712C21.0801 70.3898 21.2598 70.4318 21.5865 70.4972C21.9225 70.5672 22.1091 70.6092 22.1465 70.6232C22.3518 70.6745 22.5361 70.7608 22.6995 70.8822C23.0355 71.1295 23.2385 71.4678 23.3085 71.8972C23.3271 72.0278 23.3271 72.1912 23.3085 72.3872C23.2805 72.5645 23.2268 72.7348 23.1475 72.8982C23.0541 73.0895 22.9305 73.2435 22.7765 73.3602C22.5618 73.5235 22.3028 73.6262 21.9995 73.6682C21.8828 73.6868 21.7031 73.6892 21.4605 73.6752C21.4371 73.6705 21.4185 73.6682 21.4045 73.6682C21.0031 73.6262 20.6811 73.5258 20.4385 73.3672C20.4105 73.3485 20.3895 73.3415 20.3755 73.3462C20.3521 73.3695 20.2915 73.4232 20.1935 73.5072C20.0721 73.6098 20.0091 73.6635 20.0045 73.6682C19.9905 73.6775 19.9578 73.6822 19.9065 73.6822C19.8505 73.6822 19.8155 73.6775 19.8015 73.6682C19.7781 73.6542 19.7641 73.6215 19.7595 73.5702C19.7548 73.5048 19.7525 73.2645 19.7525 72.8492C19.7525 72.3405 19.7571 72.0792 19.7665 72.0652C19.7711 72.0558 19.7805 72.0442 19.7945 72.0302C19.8178 72.0162 19.8855 72.0092 19.9975 72.0092C20.1188 72.0092 20.1888 72.0138 20.2075 72.0232C20.2401 72.0418 20.2565 72.0908 20.2565 72.1702C20.2705 72.4222 20.3591 72.6298 20.5225 72.7932C20.6438 72.9145 20.8118 73.0102 21.0265 73.0802C21.3018 73.1688 21.5771 73.1992 21.8525 73.1712C21.8898 73.1665 21.9225 73.1618 21.9505 73.1572C22.0811 73.1292 22.1885 73.0732 22.2725 72.9892C22.3658 72.8958 22.4265 72.7698 22.4545 72.6112C22.4918 72.3732 22.4265 72.1702 22.2585 72.0022C22.1885 71.9228 22.0975 71.8668 21.9855 71.8342C21.9668 71.8248 21.7801 71.7805 21.4255 71.7012C21.0895 71.6358 20.8981 71.5938 20.8515 71.5752C20.5061 71.4772 20.2355 71.2928 20.0395 71.0222C19.8388 70.7562 19.7431 70.4575 19.7525 70.1262C19.7665 69.7948 19.8645 69.5102 20.0465 69.2722C20.2191 69.0388 20.4711 68.8778 20.8025 68.7892C20.9145 68.7612 21.0195 68.7425 21.1175 68.7332ZM24.0482 69.0972V68.8452H26.2182H28.3952V68.8732C28.3998 68.8918 28.4372 69.1928 28.5072 69.7762C28.5678 70.3455 28.6028 70.6465 28.6122 70.6792V70.7072H28.3602H28.1082L28.0942 70.5882C28.0522 70.2848 27.9962 70.0538 27.9262 69.8952C27.7815 69.6012 27.5132 69.4262 27.1212 69.3702C26.9952 69.3562 26.7595 69.3492 26.4142 69.3492H25.9732V70.1122V70.8822H26.0992C26.3138 70.8822 26.4702 70.8565 26.5682 70.8052C26.6475 70.7725 26.7058 70.7212 26.7432 70.6512C26.8085 70.5438 26.8412 70.3782 26.8412 70.1542V70.0632H27.0932H27.3452V71.1342V72.2052H27.0932H26.8412V72.1142C26.8412 71.8902 26.8085 71.7245 26.7432 71.6172C26.7058 71.5472 26.6475 71.4958 26.5682 71.4632C26.4702 71.4118 26.3138 71.3862 26.0992 71.3862H25.9732V72.2402V73.1012H26.4282C26.7595 73.1012 26.9462 73.0988 26.9882 73.0942C27.4642 73.0615 27.8002 72.9075 27.9962 72.6322C28.0195 72.6042 28.0498 72.5505 28.0872 72.4712C28.1712 72.3078 28.2435 72.0512 28.3042 71.7012C28.3135 71.6078 28.3228 71.5518 28.3322 71.5332V71.5122H28.5842H28.8362V71.5332C28.8315 71.5425 28.7778 71.8832 28.6752 72.5552C28.5725 73.2318 28.5188 73.5748 28.5142 73.5842V73.6052H26.2812H24.0482V73.3532V73.1012H24.4262H24.8042V71.2252V69.3492H24.4262H24.0482V69.0972ZM29.3392 69.0552V68.8032H30.7882C31.7682 68.8078 32.3399 68.8195 32.5032 68.8382C32.9792 68.9035 33.3619 69.0505 33.6512 69.2792C33.8705 69.4658 34.0105 69.6945 34.0712 69.9652C34.0899 70.0678 34.0899 70.1868 34.0712 70.3222C34.0339 70.4668 33.9755 70.5952 33.8962 70.7072C33.7935 70.8518 33.6629 70.9708 33.5042 71.0642C33.4202 71.1108 33.3082 71.1645 33.1682 71.2252L33.0982 71.2532L33.1542 71.2812C33.3129 71.3838 33.4319 71.4935 33.5112 71.6102C33.5765 71.6942 33.6209 71.7758 33.6442 71.8552C33.6769 71.9252 33.7095 72.1002 33.7422 72.3802C33.7795 72.6648 33.8075 72.8328 33.8262 72.8842C33.9009 73.1268 34.0549 73.2482 34.2882 73.2482C34.3395 73.2482 34.3769 73.2435 34.4002 73.2342C34.4935 73.1548 34.5495 73.0498 34.5682 72.9192C34.5682 72.8678 34.5915 72.8258 34.6382 72.7932C34.6709 72.7792 34.7735 72.7768 34.9462 72.7862C34.9789 72.7862 34.9975 72.7885 35.0022 72.7932C35.0349 72.8118 35.0559 72.8398 35.0652 72.8772C35.0839 72.9192 35.0792 72.9915 35.0512 73.0942C34.9765 73.3695 34.8109 73.5515 34.5542 73.6402C34.5075 73.6542 34.4609 73.6658 34.4142 73.6752C34.2695 73.6985 34.0245 73.6938 33.6792 73.6612C33.0399 73.5958 32.6689 73.3625 32.5662 72.9612C32.5569 72.9332 32.5499 72.9028 32.5452 72.8702C32.5405 72.8375 32.5382 72.6905 32.5382 72.4292C32.5382 72.1445 32.5265 71.9625 32.5032 71.8832C32.4379 71.6778 32.3165 71.5355 32.1392 71.4562C32.0739 71.4282 31.9175 71.4142 31.6702 71.4142H31.5932H31.2222V72.2542V73.1012H31.6002H31.9782V73.3532V73.6052H31.8872C31.8919 73.6052 31.6725 73.6005 31.2292 73.5912C30.8512 73.5865 30.4709 73.5865 30.0882 73.5912C29.6449 73.6005 29.4255 73.6052 29.4302 73.6052H29.3392V73.3532V73.1012H29.7172H30.0952V71.2042V69.3072H29.7172H29.3392V69.0552ZM32.0902 69.3142C32.0529 69.3095 31.8895 69.3072 31.6002 69.3072H31.2222V70.1472V70.9872H31.6702C32.0062 70.9825 32.2255 70.9685 32.3282 70.9452C32.4402 70.9218 32.5475 70.8775 32.6502 70.8122C32.7389 70.7422 32.7972 70.6325 32.8252 70.4832C32.8485 70.3245 32.8509 70.1332 32.8322 69.9092C32.8182 69.6945 32.7505 69.5452 32.6292 69.4612C32.6059 69.4472 32.5802 69.4332 32.5522 69.4192C32.4215 69.3632 32.2675 69.3282 32.0902 69.3142ZM35.2773 69.0552V68.8032H35.3543L35.9423 68.8172C36.283 68.8218 36.6493 68.8218 37.0413 68.8172L37.7203 68.8032H37.8113V69.0552V69.3072H37.5173H37.2233L37.8393 70.7562C38.25 71.7315 38.4553 72.2168 38.4553 72.2122L39.6873 69.3212C39.6873 69.3118 39.5917 69.3072 39.4003 69.3072H39.1063V69.0552V68.8032H39.1763L39.6943 68.8172C39.993 68.8218 40.266 68.8218 40.5133 68.8172C40.798 68.8078 40.9427 68.8032 40.9473 68.8032H41.0033V69.0552V69.3072H40.6463H40.2823L39.3863 71.4282C38.7797 72.8468 38.474 73.5608 38.4693 73.5702C38.446 73.6075 38.4087 73.6355 38.3573 73.6542C38.3107 73.6682 38.187 73.6705 37.9863 73.6612C37.9537 73.6612 37.9327 73.6588 37.9233 73.6542C37.872 73.6355 37.8347 73.6075 37.8113 73.5702C37.8067 73.5608 37.501 72.8468 36.8943 71.4282L35.9983 69.3072H35.6343H35.2773V69.0552ZM41.3263 69.0552V68.8032H41.4243L42.1103 68.8172C42.5116 68.8218 42.9106 68.8218 43.3073 68.8172L44.0003 68.8032H44.0913V69.0552V69.3072H43.6923H43.2933V71.2042V73.1012H43.6923H44.0913V73.3532V73.6052H43.9933L43.3073 73.5912C42.9106 73.5865 42.5116 73.5865 42.1103 73.5912L41.4173 73.6052H41.3263V73.3532V73.1012H41.7253H42.1243V71.2042V69.3072H41.7253H41.3263V69.0552ZM47.3011 68.7332H47.6931C47.8845 68.7472 48.0618 68.7868 48.2251 68.8522C48.4071 68.9128 48.5821 69.0062 48.7501 69.1322C48.7921 69.1648 48.8131 69.1765 48.8131 69.1672C48.8178 69.1672 48.9041 69.0972 49.0721 68.9572C49.2588 68.8078 49.3498 68.7355 49.3451 68.7402C49.3825 68.7168 49.4501 68.7168 49.5481 68.7402C49.5715 68.7542 49.5855 68.7775 49.5901 68.8102C49.5948 68.8568 49.5971 69.1602 49.5971 69.7202C49.5971 70.3408 49.5901 70.6605 49.5761 70.6792L49.5481 70.6932C49.5295 70.7025 49.4548 70.7072 49.3241 70.7072C49.1935 70.7072 49.1188 70.7025 49.1001 70.6932C49.0675 70.6698 49.0488 70.6348 49.0441 70.5882C49.0068 70.2428 48.8831 69.9442 48.6731 69.6922C48.5798 69.5895 48.4911 69.5078 48.4071 69.4472C48.2578 69.3398 48.1015 69.2745 47.9381 69.2512C47.7328 69.2092 47.4808 69.2208 47.1821 69.2862C46.8835 69.3468 46.6431 69.4542 46.4611 69.6082C46.3538 69.6922 46.2745 69.7762 46.2231 69.8602C46.0271 70.1448 45.9291 70.5928 45.9291 71.2042C45.9291 71.8435 46.0388 72.3055 46.2581 72.5902C46.2815 72.6228 46.3095 72.6555 46.3421 72.6882C46.4028 72.7488 46.4425 72.7862 46.4611 72.8002C46.6431 72.9542 46.8835 73.0615 47.1821 73.1222C47.4435 73.1782 47.6745 73.1945 47.8751 73.1712C48.2998 73.1292 48.6288 72.9402 48.8621 72.6042C49.0021 72.4082 49.0791 72.1912 49.0931 71.9532C49.0931 71.8738 49.1095 71.8248 49.1421 71.8062C49.1608 71.7968 49.2285 71.7922 49.3451 71.7922C49.4618 71.7922 49.5295 71.7968 49.5481 71.8062C49.5808 71.8295 49.5971 71.8832 49.5971 71.9672C49.5831 72.1912 49.5318 72.3942 49.4431 72.5762C49.2238 73.0335 48.8481 73.3555 48.3161 73.5422C48.1201 73.6122 47.9125 73.6565 47.6931 73.6752C47.5438 73.6892 47.3548 73.6868 47.1261 73.6682C46.5381 73.6028 46.0481 73.4348 45.6561 73.1642C45.2828 72.8888 45.0168 72.5458 44.8581 72.1352C44.7881 71.9578 44.7345 71.7478 44.6971 71.5052C44.6785 71.3372 44.6785 71.1458 44.6971 70.9312C44.6971 70.9172 44.6971 70.9055 44.6971 70.8962C44.7438 70.5228 44.8605 70.1868 45.0471 69.8882C45.3318 69.4262 45.7635 69.0972 46.3421 68.9012C46.6408 68.8078 46.9605 68.7518 47.3011 68.7332ZM50.3255 69.0972V68.8452H52.4955H54.6725V68.8732C54.6772 68.8918 54.7145 69.1928 54.7845 69.7762C54.8452 70.3455 54.8802 70.6465 54.8895 70.6792V70.7072H54.6375H54.3855L54.3715 70.5882C54.3295 70.2848 54.2735 70.0538 54.2035 69.8952C54.0589 69.6012 53.7905 69.4262 53.3985 69.3702C53.2725 69.3562 53.0369 69.3492 52.6915 69.3492H52.2505V70.1122V70.8822H52.3765C52.5912 70.8822 52.7475 70.8565 52.8455 70.8052C52.9249 70.7725 52.9832 70.7212 53.0205 70.6512C53.0859 70.5438 53.1185 70.3782 53.1185 70.1542V70.0632H53.3705H53.6225V71.1342V72.2052H53.3705H53.1185V72.1142C53.1185 71.8902 53.0859 71.7245 53.0205 71.6172C52.9832 71.5472 52.9249 71.4958 52.8455 71.4632C52.7475 71.4118 52.5912 71.3862 52.3765 71.3862H52.2505V72.2402V73.1012H52.7055C53.0369 73.1012 53.2235 73.0988 53.2655 73.0942C53.7415 73.0615 54.0775 72.9075 54.2735 72.6322C54.2969 72.6042 54.3272 72.5505 54.3645 72.4712C54.4485 72.3078 54.5209 72.0512 54.5815 71.7012C54.5909 71.6078 54.6002 71.5518 54.6095 71.5332V71.5122H54.8615H55.1135V71.5332C55.1089 71.5425 55.0552 71.8832 54.9525 72.5552C54.8499 73.2318 54.7962 73.5748 54.7915 73.5842V73.6052H52.5585H50.3255V73.3532V73.1012H50.7035H51.0815V71.2252V69.3492H50.7035H50.3255V69.0972Z" fill="#555969"/>
<path d="M51.3736 33.4518C54.1592 24.8646 53.9585 25.3694 57.0713 15.7885C54.6769 16.3421 53.5176 16.6765 51.2808 17.4429C50.712 19.8229 50.4272 23.2109 49.8568 25.591C49.8128 25.7694 49.792 25.859 49.7488 26.0374C47.7128 26.867 46.7344 27.331 44.876 28.3334C43.416 26.8054 42.632 26.0638 40.96 24.6486C40.9752 24.4654 40.9808 24.375 40.996 24.191C41.1864 21.7509 41.2824 18.3325 41.4744 15.8917C39.5959 14.4749 38.6047 13.7997 36.5247 12.5333C34.4439 13.7997 33.4535 14.4749 31.5751 15.8917C31.7663 18.3317 31.8615 21.7501 32.0535 24.191C32.0687 24.3742 32.0743 24.4646 32.0895 24.6486C30.4167 26.0646 29.6327 26.8054 28.1735 28.3334C26.3142 27.3294 25.3374 26.8662 23.3006 26.0366C23.2574 25.8566 23.2358 25.7686 23.1934 25.5902C22.6238 23.2101 22.3374 19.8213 21.7686 17.4413C19.5334 16.6749 18.3718 16.3405 15.9766 15.7877C19.091 25.3694 18.8886 24.8638 21.675 33.451L51.3736 33.4518Z" fill="#555969"/>
<path d="M49.4496 38.5063H23.5886C22.7806 38.5063 22.1494 37.851 22.1494 37.0414V34.9166H50.8992V37.0414C50.8992 37.851 50.2584 38.5063 49.4496 38.5063Z" fill="#555969"/>
<path d="M64.4197 80.3658H8.62807C3.87043 80.3658 0 76.4954 0 71.7378V11.4653C0 11.0317 0.351211 10.6813 0.784015 10.6813H3.26722L0.668816 2.68526C0.582415 2.41646 0.645609 2.12126 0.83681 1.91245C1.02801 1.70445 1.31602 1.61405 1.59122 1.67885L18.3425 5.55008C21.0546 6.17649 22.5874 6.61489 25.1762 7.5021L25.225 7.5189L25.2482 7.5021C27.4378 5.85009 28.6882 5.00128 31.0594 3.55727L36.1147 0.480446C36.3643 0.327644 36.6803 0.327644 36.9307 0.480446L41.9859 3.55727C44.3675 5.00768 45.6179 5.85649 47.8012 7.5037L47.8228 7.5205L47.8716 7.5037C50.4852 6.60689 51.9532 6.18689 54.7004 5.55088L71.4549 1.67325C71.7325 1.60845 72.0197 1.69885 72.2101 1.90685C72.4006 2.11486 72.4653 2.41006 72.3781 2.67886L69.7773 10.6805H72.2613C72.6949 10.6805 73.0454 11.0317 73.0454 11.4645V71.7378C73.047 76.4954 69.1765 80.3658 64.4197 80.3658ZM1.56882 12.2493V71.7378C1.56882 75.6298 4.73604 78.797 8.62807 78.797H64.4197C68.3117 78.797 71.4781 75.6306 71.4781 71.7378V12.2493H68.6997C68.4485 12.2493 68.2133 12.1293 68.0653 11.9261C67.9181 11.7229 67.8765 11.4613 67.9533 11.2229L70.4589 3.51327L55.054 7.07809C52.3684 7.6997 50.934 8.1101 48.3804 8.98611L47.938 9.13731C47.6908 9.22211 47.4204 9.17811 47.2124 9.02291L46.8572 8.75651C44.7219 7.14369 43.4995 6.31489 41.1707 4.89648L36.5235 2.06766L31.8746 4.89648C29.5554 6.30849 28.3346 7.13809 26.1914 8.75491L25.8346 9.02211C25.6266 9.17891 25.3546 9.22131 25.1098 9.13651L24.6674 8.98451C22.1378 8.1173 20.6402 7.6893 17.9881 7.07729L2.58883 3.51887L5.09204 11.2221C5.16964 11.4613 5.12804 11.7221 4.98004 11.9253C4.83284 12.1285 4.59764 12.2485 4.34564 12.2485L1.56882 12.2493Z" fill="#555969"/>
<path d="M64.419 77.6202H8.62739C5.38336 77.6202 2.74414 74.9818 2.74414 71.7378V13.8182C2.74414 13.6013 2.92015 13.4261 3.13615 13.4261H7.04498L4.56416 5.79249C4.52016 5.65809 4.55216 5.51009 4.64737 5.40609C4.74257 5.30209 4.88737 5.25969 5.02497 5.28929L17.7235 8.22371C20.3299 8.82531 21.8011 9.24612 24.2835 10.0981L25.7091 10.5861L26.8931 9.69812C29.0043 8.10451 30.2067 7.2885 32.4844 5.90129L36.3172 3.56848C36.4428 3.49247 36.5996 3.49247 36.7252 3.56848L40.558 5.90129C42.8477 7.2957 44.0485 8.11091 46.1453 9.69412L47.3349 10.5877L48.7605 10.0989C51.2701 9.23812 52.6789 8.83491 55.3181 8.22371L68.019 5.28449C68.1582 5.25408 68.3014 5.29809 68.3966 5.40129C68.4918 5.50529 68.5238 5.65329 68.4806 5.78689L65.9982 13.4245H69.9062C70.1231 13.4245 70.2982 13.5997 70.2982 13.8165V71.7362C70.3014 74.9818 67.663 77.6202 64.419 77.6202ZM3.52895 14.2102V71.7386C3.52895 74.5498 5.81617 76.837 8.62739 76.837H64.419C67.2302 76.837 69.5166 74.5498 69.5166 71.7386V14.2102H65.4614C65.3358 14.2102 65.2174 14.1502 65.1446 14.0486C65.0702 13.947 65.0502 13.8158 65.0894 13.6974L67.523 6.20529L55.4973 8.98851C52.8901 9.59172 51.4981 9.99012 49.0173 10.8413L47.3957 11.3973C47.2733 11.4381 47.1357 11.4173 47.0333 11.3397L45.6773 10.3213C43.6036 8.75571 42.4164 7.95011 40.1532 6.5725L36.5228 4.36368L32.894 6.5717C30.6428 7.94211 29.4539 8.74931 27.3659 10.3245L26.0147 11.3381C25.9107 11.4173 25.7747 11.4381 25.6523 11.3957L24.0315 10.8405C21.5787 9.99892 20.1235 9.58292 17.5483 8.98851L5.52577 6.21009L7.95858 13.6974C7.99778 13.8166 7.97698 13.947 7.90338 14.0486C7.82978 14.1502 7.71218 14.2102 7.58658 14.2102H3.52895Z" fill="#555969"/>
<path d="M63.7943 44.2728C63.7943 44.2728 62.9423 44.3416 61.4503 44.4248C59.9591 44.492 57.8287 44.6328 55.2719 44.7216C52.715 44.8224 49.7326 44.9056 46.5366 44.9624C44.939 44.9824 43.2878 45.0264 41.6102 45.0296C39.9317 45.0384 38.2269 45.0472 36.5237 45.0568C34.8189 45.048 33.1141 45.0392 31.4373 45.0304C29.7589 45.0304 28.1092 44.984 26.5108 44.964C23.3156 44.9096 20.3332 44.8256 17.7764 44.724C15.2196 44.636 13.0891 44.4936 11.5971 44.4264C10.1059 44.3432 9.25391 44.2736 9.25391 44.2736C9.25391 44.2736 10.1051 44.204 11.5971 44.1208C13.0883 44.0536 15.2188 43.9104 17.7764 43.8232C20.3332 43.7216 23.3156 43.6376 26.5108 43.5832C28.1092 43.5632 29.7597 43.5168 31.4373 43.516C33.1149 43.5072 34.8197 43.4984 36.5237 43.4896C38.2277 43.4992 39.9325 43.508 41.6102 43.5168C43.2878 43.52 44.939 43.564 46.5366 43.584C49.7326 43.64 52.715 43.724 55.2719 43.8248C57.8279 43.9128 59.9583 44.0544 61.4503 44.1216C62.9415 44.2032 63.7943 44.2728 63.7943 44.2728Z" fill="#555969"/>
<path d="M19.1484 55.2713H19.8916V49.6312H19.1484V47.9776H23.9285C26.0565 47.9776 27.0693 48.772 27.0693 50.1688C27.0693 51.2456 26.7749 51.7712 25.8133 52.1552C26.7365 52.412 27.5053 53.0912 27.5053 54.3344C27.5053 56.1417 26.4925 56.9361 24.0189 56.9361H19.1492V55.2713H19.1484ZM22.5445 51.592H23.3269C24.0069 51.592 24.1989 51.2208 24.1989 50.6048C24.1989 50.016 23.8397 49.6696 23.3517 49.6696H22.5445V51.592ZM23.5709 55.2713C24.1093 55.2713 24.6085 54.8609 24.6085 54.1688C24.6085 53.5152 24.2373 53.0408 23.5325 53.0408H22.5453V55.2713H23.5709Z" fill="#555969"/>
<path d="M35.682 47.9776V50.8104H33.4644V49.6704H31.4148V51.4384H33.8492V53.1432H31.4148V55.2329H33.4644V54.04H35.682V56.9369H27.9531V55.2329H28.7619V49.6696H27.9531V47.9776H35.682Z" fill="#555969"/>
<path d="M36.3232 53.7072H38.7073C38.7073 54.784 39.7841 54.9632 40.3225 54.9888C40.7713 54.9888 41.4121 54.8864 41.4121 54.348C41.4121 53.3488 36.4904 53.7712 36.4904 50.5032C36.4904 48.6056 38.2849 47.7472 39.5409 47.7472C40.6169 47.7472 41.7065 48.0936 42.2193 49.0544L42.3481 47.9776H44.5521V51.1944H42.2329C42.2329 50.2464 41.4889 49.708 40.5921 49.708C40.2201 49.708 39.7073 49.9384 39.7073 50.3872C39.7073 51.7072 44.7833 51.4 44.7833 54.412C44.7833 56.4105 42.9121 57.1289 41.3865 57.1289C40.0929 57.1289 39.1961 56.5265 38.7081 55.9497L38.5673 56.9361H36.3232V53.7072Z" fill="#555969"/>
<path d="M53.896 51.3104H52.012V49.6696H50.9351V55.2329H51.9991V56.9369H47.2311V55.2329H48.2823V49.6696H47.1799V51.3104H45.2959V47.9776H53.8968V51.3104H53.896Z" fill="#555969"/>
</svg>
