<svg width="81" height="81" viewBox="0 0 81 81" fill="none" xmlns="http://www.w3.org/2000/svg">
<path d="M39.0966 21.2562C39.7774 21.1954 40.2422 21.1714 40.7022 21.1714C41.1638 21.1714 41.6278 21.1954 42.3086 21.2562C42.971 21.3138 43.3134 21.3602 43.9686 21.4794C44.7302 21.6186 45.1582 21.7178 45.8302 21.9202C45.587 20.6154 45.3534 19.8034 44.8198 18.3634C44.8198 18.3634 43.847 20.2554 43.391 20.0842C41.7646 19.4722 41.147 16.0298 40.7022 14.0666C40.2574 16.029 39.6382 19.4746 38.0134 20.0842C37.5574 20.2554 36.5854 18.3634 36.5854 18.3634C36.0526 19.8026 35.8182 20.6154 35.5742 21.9202C36.2462 21.7178 36.6734 21.6186 37.4366 21.4794C38.0926 21.3602 38.4342 21.3146 39.0966 21.2562Z" fill="#555969"/>
<path d="M43.8853 21.9489C43.2413 21.8321 42.9173 21.7881 42.2693 21.7313C41.0189 21.6209 40.3893 21.6209 39.1397 21.7313C38.4901 21.7881 38.1669 21.8321 37.5229 21.9489C36.6981 22.1001 36.2877 22.1985 35.4805 22.4465C35.4805 22.4465 35.4805 22.6233 35.4805 22.8385C35.4805 23.0553 35.6941 23.2313 35.9573 23.2313H45.4501C45.7133 23.2313 45.9269 23.0553 45.9269 22.8385V22.4465C45.1189 22.1985 44.7109 22.0993 43.8853 21.9489Z" fill="#555969"/>
<path d="M80.6031 37.4866C79.1191 16.777 61.8135 0.381845 40.7375 0.365845C40.7295 0.365845 40.7143 0.365845 40.7071 0.365845C19.6079 0.365845 2.28632 16.7698 0.802319 37.4866C0.740719 38.4354 0.703125 39.3986 0.703125 40.3626C0.703125 62.4178 18.6439 80.3658 40.7071 80.3658C62.7615 80.3658 80.7031 62.4178 80.7031 40.3626C80.7031 39.3986 80.6647 38.4354 80.6031 37.4866ZM72.3287 24.0426L73.4223 26.7506L76.3359 26.5594L74.0879 28.4258L75.1815 31.1402L72.7039 29.581L70.4631 31.4546L71.1743 28.625L68.7039 27.073L71.6183 26.8738L72.3287 24.0426ZM68.1687 17.5274L70.8983 16.4946L69.2999 18.9346L71.1279 21.2138L68.3135 20.441L66.7071 22.8882L66.5695 19.9674L63.7479 19.2027L66.4855 18.1706L66.3399 15.249L68.1687 17.5274ZM57.6455 8.71704L60.0551 10.3762L62.3719 8.59464L61.5383 11.393L63.9399 13.0522L61.0255 13.129L60.1919 15.9282L59.2207 13.1754L56.2999 13.2434L58.6167 11.4698L57.6455 8.71704ZM50.1823 6.37784L51.8879 3.99865L51.9031 6.92024L54.6943 7.80024L51.9183 8.72505L51.9407 11.6459L50.2047 9.29784L47.4367 10.2146L49.1335 7.84425L47.3983 5.48905L50.1823 6.37784ZM39.7959 5.37625L40.7071 2.59945L41.6095 5.37625H44.5239L42.1599 7.08905L43.0703 9.87224L40.7079 8.15225L38.3447 9.87224L39.2471 7.08905L36.8839 5.37625H39.7959ZM29.4951 6.92024L29.5263 3.99865L31.2231 6.37784L34.0071 5.49065L32.2711 7.84585L33.9687 10.2162L31.1999 9.29945L29.4639 11.6474L29.4863 8.72665L26.7103 7.80184L29.4951 6.92024ZM19.0335 8.59545L21.3583 10.3771L23.7599 8.71785L22.7887 11.4706L25.1055 13.2443L22.1839 13.1762L21.2127 15.929L20.3871 13.1298L17.4663 13.053L19.8671 11.4018L19.0335 8.59545ZM10.5071 16.4946L13.2375 17.5274L15.0647 15.2474L14.9271 18.169L17.6575 19.201L14.8359 19.9658L14.6975 22.8866L13.0999 20.4394L10.2783 21.2122L12.1047 18.933L10.5071 16.4946ZM7.99032 26.7498L9.07593 24.0418L9.78793 26.8714L12.7015 27.0706L10.2311 28.6226L10.9423 31.4522L8.70232 29.5858L6.23192 31.1378L7.31753 28.4306L5.07672 26.557L7.99032 26.7498ZM5.66553 36.921L5.88712 34.0066L7.41672 36.4995L10.2543 35.8122L8.36553 38.037L9.89513 40.5226L7.19513 39.4066L5.29912 41.6306L5.52793 38.717L2.82872 37.6082L5.66553 36.921ZM6.44633 49.2339L3.53273 48.9882L6.03273 47.4746L5.36792 44.6282L7.57832 46.541L10.0711 45.0266L8.93912 47.7178L11.1567 49.6298L8.24313 49.3858L7.11112 52.0771L6.44633 49.2339ZM11.9983 58.693L11.7151 61.5995L10.2311 59.0762L7.37992 59.7026L9.32233 57.5162L7.84552 55.0002L10.5223 56.1706L12.4655 53.9907L12.1751 56.897L14.8519 58.0667L11.9983 58.693ZM19.1791 69.3467L17.0455 67.3586L14.4919 68.7803L15.7223 66.1274L13.5815 64.1394L16.4799 64.4907L17.7111 61.8442L18.2767 64.7122L21.1751 65.0642L18.6207 66.4786L19.1791 69.3467ZM28.7311 74.2554L26.1151 72.9714L24.0807 75.0667L24.4935 72.1762L21.8711 70.8922L24.7471 70.3867L25.1599 67.4962L26.5207 70.0803L29.4047 69.5754L27.3703 71.6714L28.7311 74.2554ZM36.2935 75.525L34.9783 78.1331L34.5119 75.249L31.6287 74.7979L34.2207 73.4594L33.7615 70.5762L35.8263 72.641L38.4263 71.3026L37.1111 73.9098L39.1839 75.9675L36.2935 75.525ZM12.1743 40.3626C12.1743 38.8858 12.2895 37.4418 12.5031 36.0258C14.4911 23.0562 25.2511 12.9315 38.5119 11.9219C39.2383 11.8683 39.9727 11.8378 40.7071 11.8378C54.9615 11.8378 66.8079 22.345 68.9031 36.0258C69.1167 37.4418 69.2311 38.8858 69.2311 40.3626C69.2311 56.093 56.4367 68.8947 40.7071 68.8947C24.9759 68.8947 12.1743 56.093 12.1743 40.3626ZM46.8935 75.2427L46.4263 78.1331L45.1111 75.525L42.2279 75.969L44.3007 73.9115L42.9775 71.3043L45.5775 72.6427L47.6503 70.5779L47.1839 73.461L49.7839 74.7994L46.8935 75.2427ZM57.3327 75.0667L55.2983 72.9714L52.6751 74.2554L54.0439 71.6714L52.0103 69.5754L54.8855 70.0731L56.2463 67.4954L56.6591 70.3858L59.5423 70.8826L56.9199 72.1754L57.3327 75.0667ZM66.9223 68.7803L64.3671 67.3586L62.2263 69.3467L62.7919 66.4786L60.2383 65.0642L63.1367 64.7122L63.6943 61.8442L64.9263 64.4907L67.8247 64.1394L65.6903 66.1274L66.9223 68.7803ZM71.1743 59.0762L69.6983 61.5923L69.4079 58.6866L66.5551 58.0667L69.2319 56.897L68.9423 53.9826L70.8847 56.1698L73.5615 54.9995L72.0855 57.5154L74.0279 59.7018L71.1743 59.0762ZM74.9671 49.2339L74.2943 52.0787L73.1623 49.3874L70.2559 49.6314L72.4671 47.7194L71.3343 45.0282L73.8271 46.5426L76.0447 44.6298L75.3719 47.4762L77.8727 48.9898L74.9671 49.2339ZM75.8847 38.7178L76.1063 41.6314L74.2095 39.4074L71.5103 40.5234L73.0399 38.0378L71.1503 35.813L73.9879 36.4938L75.5167 34.0082L75.7383 36.9226L78.5839 37.6106L75.8847 38.7178Z" fill="#555969"/>
<path d="M21.8574 38.4818H22.667V32.3394H21.8574V30.5402H27.0638C29.3806 30.5402 30.4822 31.405 30.4822 32.9266C30.4822 34.0994 30.1614 34.6714 29.115 35.089C30.1198 35.369 30.9574 36.1074 30.9574 37.461C30.9574 39.4298 29.8542 40.2946 27.1606 40.2946H21.8574V38.4818ZM25.5558 34.4762H26.407C27.147 34.4762 27.3558 34.0714 27.3558 33.401C27.3558 32.7602 26.9654 32.3826 26.4358 32.3826H25.5558V34.4762ZM26.6734 38.4818C27.259 38.4818 27.803 38.0346 27.803 37.281C27.803 36.5682 27.3982 36.053 26.631 36.053H25.5558V38.4818H26.6734Z" fill="#555969"/>
<path d="M39.8613 30.541V33.625H37.4461V32.3818H35.2133V34.3082H37.8645V36.1634H35.2133V38.4394H37.4461V37.1418H39.8613V40.2946H31.4453V38.4394H32.3245V32.3818H31.4453V30.5402H39.8613V30.541Z" fill="#555969"/>
<path d="M40.5576 36.7795H43.1528C43.1528 37.9507 44.3256 38.1467 44.912 38.1747C45.4 38.1747 46.0984 38.0627 46.0984 37.4771C46.0984 36.3891 40.7392 36.8483 40.7392 33.2907C40.7392 31.2251 42.6928 30.2899 44.0608 30.2899C45.2336 30.2899 46.4192 30.6667 46.9768 31.7131L47.1168 30.5411H49.5176V34.0435H46.9912C46.9912 33.0115 46.1816 32.4251 45.2048 32.4251C44.8 32.4251 44.2424 32.6771 44.2424 33.1659C44.2424 34.6027 49.7688 34.2683 49.7688 37.5475C49.7688 39.7243 47.7312 40.5051 46.0704 40.5051C44.66 40.5051 43.684 39.8491 43.1536 39.2211L43.0008 40.2955H40.5584L40.5576 36.7795Z" fill="#555969"/>
<path d="M59.689 34.169H57.6378V32.3826H56.465V38.4402H57.6234V40.2954H52.4314V38.4402H53.5762V32.3826H52.3754V34.169H50.3242V30.541H59.6898V34.169H59.689Z" fill="#555969"/>
<path d="M58.0173 26.5538H23.3877V27.3186H58.0173V26.5538Z" fill="#555969"/>
<path d="M54.691 24.3474H26.7158V25.1122H54.691V24.3474Z" fill="#555969"/>
<path d="M23.7188 60.3338C24.0268 60.5954 24.3404 60.8498 24.6612 61.0986H56.7492C57.0684 60.8498 57.3828 60.5954 57.6908 60.3338H23.7188Z" fill="#555969"/>
<path d="M26.873 62.6418C27.2994 62.9082 27.7307 63.1658 28.1739 63.4066H53.237C53.6794 63.1658 54.1115 62.9082 54.5379 62.6418H26.873Z" fill="#555969"/>
<path d="M31.5557 64.9498C32.3389 65.2418 33.1397 65.4978 33.9557 65.7146H47.4557C48.2717 65.4978 49.0717 65.2418 49.8549 64.9498H31.5557Z" fill="#555969"/>
<path d="M21.3232 58.025C21.5608 58.2858 21.8048 58.5394 22.0528 58.7898H59.356C59.604 58.5386 59.8473 58.2858 60.0849 58.025H21.3232Z" fill="#555969"/>
<path d="M19.4512 55.717C19.6384 55.9754 19.8312 56.2306 20.028 56.4818H61.38C61.576 56.2306 61.7688 55.9754 61.956 55.717H19.4512Z" fill="#555969"/>
<path d="M17.957 53.4082C18.1058 53.665 18.2554 53.9218 18.4114 54.173H62.9946C63.1506 53.9218 63.301 53.665 63.449 53.4082H17.957Z" fill="#555969"/>
<path d="M17.3785 44.7031V44.4511H18.8765C19.9031 44.4511 20.4375 44.4534 20.4795 44.4581C21.0581 44.5001 21.4945 44.6751 21.7885 44.9831C21.9705 45.1791 22.0848 45.4101 22.1315 45.6761C22.1408 45.7181 22.1455 45.7904 22.1455 45.8931C22.1455 46.0237 22.1338 46.1311 22.1105 46.2151C22.0545 46.4671 21.9238 46.6841 21.7185 46.8661C21.4571 47.0901 21.1258 47.2301 20.7245 47.2861C20.5985 47.3047 20.3138 47.3141 19.8705 47.3141H19.3035V48.0281V48.7491H19.6815H20.0595V49.0011V49.2531H19.9685C19.9731 49.2531 19.7491 49.2484 19.2965 49.2391C18.9091 49.2344 18.5218 49.2344 18.1345 49.2391L17.4695 49.2531H17.3785V49.0011V48.7491H17.7565H18.1345V46.8521V44.9551H17.7565H17.3785V44.7031ZM20.3115 44.9691C20.2835 44.9644 20.0968 44.9597 19.7515 44.9551H19.2615V45.9001V46.8521H19.6815C20.0921 46.8521 20.3581 46.8334 20.4795 46.7961C20.6381 46.7494 20.7478 46.6771 20.8085 46.5791C20.8785 46.4577 20.9111 46.2057 20.9065 45.8231C20.9018 45.6037 20.8878 45.4497 20.8645 45.3611C20.8458 45.2817 20.8131 45.2187 20.7665 45.1721C20.6825 45.0741 20.5308 45.0064 20.3115 44.9691ZM22.8814 44.7031V44.4511H24.3304C25.3104 44.4557 25.8821 44.4674 26.0454 44.4861C26.5214 44.5514 26.9041 44.6984 27.1934 44.9271C27.4127 45.1137 27.5527 45.3424 27.6134 45.6131C27.6321 45.7157 27.6321 45.8347 27.6134 45.9701C27.5761 46.1147 27.5177 46.2431 27.4384 46.3551C27.3357 46.4997 27.2051 46.6187 27.0464 46.7121C26.9624 46.7587 26.8504 46.8124 26.7104 46.8731L26.6404 46.9011L26.6964 46.9291C26.8551 47.0317 26.9741 47.1414 27.0534 47.2581C27.1187 47.3421 27.1631 47.4237 27.1864 47.5031C27.2191 47.5731 27.2517 47.7481 27.2844 48.0281C27.3217 48.3127 27.3497 48.4807 27.3684 48.5321C27.4431 48.7747 27.5971 48.8961 27.8304 48.8961C27.8817 48.8961 27.9191 48.8914 27.9424 48.8821C28.0357 48.8027 28.0917 48.6977 28.1104 48.5671C28.1104 48.5157 28.1337 48.4737 28.1804 48.4411C28.2131 48.4271 28.3157 48.4247 28.4884 48.4341C28.5211 48.4341 28.5397 48.4364 28.5444 48.4411C28.5771 48.4597 28.5981 48.4877 28.6074 48.5251C28.6261 48.5671 28.6214 48.6394 28.5934 48.7421C28.5187 49.0174 28.3531 49.1994 28.0964 49.2881C28.0497 49.3021 28.0031 49.3137 27.9564 49.3231C27.8117 49.3464 27.5667 49.3417 27.2214 49.3091C26.5821 49.2437 26.2111 49.0104 26.1084 48.6091C26.0991 48.5811 26.0921 48.5507 26.0874 48.5181C26.0827 48.4854 26.0804 48.3384 26.0804 48.0771C26.0804 47.7924 26.0687 47.6104 26.0454 47.5311C25.9801 47.3257 25.8587 47.1834 25.6814 47.1041C25.6161 47.0761 25.4597 47.0621 25.2124 47.0621H25.1354H24.7644V47.9021V48.7491H25.1424H25.5204V49.0011V49.2531H25.4294C25.4341 49.2531 25.2147 49.2484 24.7714 49.2391C24.3934 49.2344 24.0131 49.2344 23.6304 49.2391C23.1871 49.2484 22.9677 49.2531 22.9724 49.2531H22.8814V49.0011V48.7491H23.2594H23.6374V46.8521V44.9551H23.2594H22.8814V44.7031ZM25.6324 44.9621C25.5951 44.9574 25.4317 44.9551 25.1424 44.9551H24.7644V45.7951V46.6351H25.2124C25.5484 46.6304 25.7677 46.6164 25.8704 46.5931C25.9824 46.5697 26.0897 46.5254 26.1924 46.4601C26.2811 46.3901 26.3394 46.2804 26.3674 46.1311C26.3907 45.9724 26.3931 45.7811 26.3744 45.5571C26.3604 45.3424 26.2927 45.1931 26.1714 45.1091C26.1481 45.0951 26.1224 45.0811 26.0944 45.0671C25.9637 45.0111 25.8097 44.9761 25.6324 44.9621ZM31.4305 44.3811C31.5845 44.3717 31.7782 44.3741 32.0115 44.3881C32.6462 44.4581 33.1572 44.6844 33.5445 45.0671C33.9225 45.4451 34.1489 45.9421 34.2235 46.5581C34.2422 46.7447 34.2422 46.9477 34.2235 47.1671C34.2235 47.1764 34.2235 47.1857 34.2235 47.1951C34.1535 47.7784 33.9389 48.2544 33.5795 48.6231C33.4069 48.7911 33.2109 48.9311 32.9915 49.0431C32.7022 49.1831 32.3755 49.2741 32.0115 49.3161C31.8155 49.3347 31.5962 49.3347 31.3535 49.3161C31.3395 49.3161 31.3279 49.3161 31.3185 49.3161C30.6559 49.2367 30.1355 49.0057 29.7575 48.6231C29.3935 48.2591 29.1765 47.7831 29.1065 47.1951C29.0879 47.0177 29.0879 46.8171 29.1065 46.5931C29.1065 46.5791 29.1065 46.5674 29.1065 46.5581C29.1439 46.2781 29.2022 46.0401 29.2815 45.8441C29.4915 45.3074 29.8439 44.9177 30.3385 44.6751C30.6559 44.5117 31.0199 44.4137 31.4305 44.3811ZM31.8085 44.8361C31.4165 44.7941 31.0829 44.8991 30.8075 45.1511C30.7422 45.2117 30.6839 45.2794 30.6325 45.3541C30.5065 45.5454 30.4202 45.7834 30.3735 46.0681C30.3269 46.4087 30.3199 46.8147 30.3525 47.2861C30.3572 47.3281 30.3619 47.3677 30.3665 47.4051C30.4179 47.9417 30.5859 48.3314 30.8705 48.5741C31.1785 48.8307 31.5285 48.9171 31.9205 48.8331C32.1212 48.7911 32.3009 48.7047 32.4595 48.5741C32.7442 48.3314 32.9122 47.9417 32.9635 47.4051C33.0102 47.0131 33.0125 46.5977 32.9705 46.1591C32.9659 46.1264 32.9612 46.0961 32.9565 46.0681C32.9239 45.8674 32.8679 45.6807 32.7885 45.5081C32.5925 45.1114 32.2659 44.8874 31.8085 44.8361ZM34.9673 44.7031V44.4511H36.5143C37.5737 44.4511 38.1243 44.4534 38.1663 44.4581C38.5537 44.4861 38.899 44.5771 39.2023 44.7311C39.7997 45.0344 40.1777 45.5291 40.3363 46.2151C40.3457 46.2664 40.355 46.3177 40.3643 46.3691C40.4437 46.8217 40.425 47.2487 40.3083 47.6501C40.131 48.2567 39.7717 48.6954 39.2303 48.9661C38.9737 49.1014 38.6633 49.1924 38.2993 49.2391C38.248 49.2437 37.6763 49.2484 36.5843 49.2531H34.9673V49.0011V48.7491H35.3453H35.7233V46.8521V44.9551H35.3453H34.9673V44.7031ZM37.8373 44.9621C37.8047 44.9574 37.625 44.9551 37.2983 44.9551H36.8503V46.8521V48.7491H37.3613C37.73 48.7444 37.9307 48.7397 37.9633 48.7351C38.3693 48.6837 38.6773 48.5414 38.8873 48.3081C39.0647 48.1074 39.1673 47.7994 39.1953 47.3841C39.214 47.0107 39.214 46.6631 39.1953 46.3411C39.1907 46.3177 39.1883 46.2991 39.1883 46.2851C39.1417 45.7624 38.9573 45.3984 38.6353 45.1931C38.5933 45.1697 38.549 45.1464 38.5023 45.1231C38.325 45.0391 38.1033 44.9854 37.8373 44.9621ZM41.1402 44.7031V44.4511H41.2312C41.2265 44.4511 41.4505 44.4557 41.9032 44.4651C42.2905 44.4697 42.6779 44.4697 43.0652 44.4651L43.7302 44.4511H43.8212V44.7031V44.9551H43.4432H43.0652V46.4671C43.0699 47.5124 43.0792 48.0677 43.0932 48.1331C43.0932 48.1424 43.0979 48.1611 43.1072 48.1891C43.1445 48.3664 43.2215 48.5041 43.3382 48.6021C43.5295 48.7561 43.8165 48.8307 44.1992 48.8261C44.6425 48.8121 44.9715 48.6977 45.1862 48.4831C45.3215 48.3431 45.4149 48.1447 45.4662 47.8881C45.4709 47.8461 45.4755 47.3444 45.4802 46.3831V44.9551H45.1022H44.7242V44.7031V44.4511H44.7942L45.3052 44.4651C45.6039 44.4697 45.9025 44.4697 46.2012 44.4651C46.5465 44.4557 46.7169 44.4511 46.7122 44.4511H46.7822V44.7031V44.9551H46.4042H46.0262V46.3481C46.0262 47.2954 46.0239 47.7877 46.0192 47.8251C45.9912 48.1471 45.8815 48.4294 45.6902 48.6721C45.4802 48.9427 45.1909 49.1294 44.8222 49.2321C44.6169 49.2927 44.4045 49.3254 44.1852 49.3301C43.7279 49.3394 43.3312 49.2764 42.9952 49.1411C42.8832 49.0991 42.7665 49.0407 42.6452 48.9661C42.4772 48.8634 42.3349 48.7374 42.2182 48.5881C42.0362 48.3501 41.9312 48.0887 41.9032 47.8041C41.8985 47.7714 41.8962 47.2837 41.8962 46.3411V44.9551H41.5182H41.1402V44.7031ZM20.1715 52.3811H20.5635C20.7548 52.3951 20.9321 52.4347 21.0955 52.5001C21.2775 52.5607 21.4525 52.6541 21.6205 52.7801C21.6625 52.8127 21.6835 52.8244 21.6835 52.8151C21.6881 52.8151 21.7745 52.7451 21.9425 52.6051C22.1291 52.4557 22.2201 52.3834 22.2155 52.3881C22.2528 52.3647 22.3205 52.3647 22.4185 52.3881C22.4418 52.4021 22.4558 52.4254 22.4605 52.4581C22.4651 52.5047 22.4675 52.8081 22.4675 53.3681C22.4675 53.9887 22.4605 54.3084 22.4465 54.3271L22.4185 54.3411C22.3998 54.3504 22.3251 54.3551 22.1945 54.3551C22.0638 54.3551 21.9891 54.3504 21.9705 54.3411C21.9378 54.3177 21.9191 54.2827 21.9145 54.2361C21.8771 53.8907 21.7535 53.5921 21.5435 53.3401C21.4501 53.2374 21.3615 53.1557 21.2775 53.0951C21.1281 52.9877 20.9718 52.9224 20.8085 52.8991C20.6031 52.8571 20.3511 52.8687 20.0525 52.9341C19.7538 52.9947 19.5135 53.1021 19.3315 53.2561C19.2241 53.3401 19.1448 53.4241 19.0935 53.5081C18.8975 53.7927 18.7995 54.2407 18.7995 54.8521C18.7995 55.4914 18.9091 55.9534 19.1285 56.2381C19.1518 56.2707 19.1798 56.3034 19.2125 56.3361C19.2731 56.3967 19.3128 56.4341 19.3315 56.4481C19.5135 56.6021 19.7538 56.7094 20.0525 56.7701C20.3138 56.8261 20.5448 56.8424 20.7455 56.8191C21.1701 56.7771 21.4991 56.5881 21.7325 56.2521C21.8725 56.0561 21.9495 55.8391 21.9635 55.6011C21.9635 55.5217 21.9798 55.4727 22.0125 55.4541C22.0311 55.4447 22.0988 55.4401 22.2155 55.4401C22.3321 55.4401 22.3998 55.4447 22.4185 55.4541C22.4511 55.4774 22.4675 55.5311 22.4675 55.6151C22.4535 55.8391 22.4021 56.0421 22.3135 56.2241C22.0941 56.6814 21.7185 57.0034 21.1865 57.1901C20.9905 57.2601 20.7828 57.3044 20.5635 57.3231C20.4141 57.3371 20.2251 57.3347 19.9965 57.3161C19.4085 57.2507 18.9185 57.0827 18.5265 56.8121C18.1531 56.5367 17.8871 56.1937 17.7285 55.7831C17.6585 55.6057 17.6048 55.3957 17.5675 55.1531C17.5488 54.9851 17.5488 54.7937 17.5675 54.5791C17.5675 54.5651 17.5675 54.5534 17.5675 54.5441C17.6141 54.1707 17.7308 53.8347 17.9175 53.5361C18.2021 53.0741 18.6338 52.7451 19.2125 52.5491C19.5111 52.4557 19.8308 52.3997 20.1715 52.3811ZM23.3569 52.5701V52.5281H25.7159H28.0819V52.5701L28.1589 53.4591C28.2009 54.0424 28.2242 54.3387 28.2289 54.3481V54.3901H27.9769C27.8089 54.3901 27.7249 54.3877 27.7249 54.3831C27.7249 54.2897 27.7132 54.1684 27.6899 54.0191C27.6619 53.8091 27.6222 53.6364 27.5709 53.5011C27.5009 53.3377 27.3819 53.2164 27.2139 53.1371C27.1439 53.0997 27.0505 53.0717 26.9339 53.0531C26.8919 53.0437 26.7729 53.0367 26.5769 53.0321H26.3039V54.8871V56.7491H26.8429H27.3749V57.0011V57.2531H27.2629L26.4369 57.2391C25.9562 57.2344 25.4779 57.2344 25.0019 57.2391L24.1759 57.2531H24.0639V57.0011V56.7491H24.6029H25.1349V54.8871V53.0321H24.8619C24.6659 53.0367 24.5469 53.0437 24.5049 53.0531C24.2855 53.0951 24.1175 53.1767 24.0009 53.2981C23.9262 53.3727 23.8655 53.4847 23.8189 53.6341C23.7815 53.7694 23.7512 53.9771 23.7279 54.2571C23.7185 54.3364 23.7139 54.3784 23.7139 54.3831C23.7139 54.3877 23.6299 54.3901 23.4619 54.3901H23.2099V54.3481L23.2869 53.4591C23.3289 52.8757 23.3522 52.5794 23.3569 52.5701ZM30.3345 52.3811C30.5305 52.3624 30.7195 52.3694 30.9015 52.4021C31.1582 52.4394 31.4008 52.5327 31.6295 52.6821C31.6575 52.7054 31.6785 52.7147 31.6925 52.7101C31.7158 52.6867 31.7765 52.6331 31.8745 52.5491C31.9958 52.4464 32.0588 52.3927 32.0635 52.3881C32.0775 52.3787 32.1102 52.3741 32.1615 52.3741C32.2175 52.3741 32.2525 52.3787 32.2665 52.3881C32.2898 52.4021 32.3038 52.4347 32.3085 52.4861C32.3132 52.5514 32.3155 52.7941 32.3155 53.2141C32.3155 53.7367 32.2992 54.0097 32.2665 54.0331C32.2478 54.0424 32.1802 54.0471 32.0635 54.0471C31.9468 54.0471 31.8792 54.0424 31.8605 54.0331C31.8325 54.0191 31.8138 53.9701 31.8045 53.8861C31.7765 53.7367 31.7322 53.5991 31.6715 53.4731C31.6155 53.3564 31.5385 53.2537 31.4405 53.1651C31.2398 52.9691 30.9598 52.8641 30.6005 52.8501C30.2178 52.8361 29.9752 52.9621 29.8725 53.2281C29.8492 53.2934 29.8375 53.3681 29.8375 53.4521C29.8375 53.5454 29.8538 53.6271 29.8865 53.6971C29.9565 53.8417 30.0825 53.9491 30.2645 54.0191C30.2972 54.0377 30.4768 54.0797 30.8035 54.1451C31.1395 54.2151 31.3262 54.2571 31.3635 54.2711C31.5688 54.3224 31.7532 54.4087 31.9165 54.5301C32.2525 54.7774 32.4555 55.1157 32.5255 55.5451C32.5442 55.6757 32.5442 55.8391 32.5255 56.0351C32.4975 56.2124 32.4438 56.3827 32.3645 56.5461C32.2712 56.7374 32.1475 56.8914 31.9935 57.0081C31.7788 57.1714 31.5198 57.2741 31.2165 57.3161C31.0998 57.3347 30.9202 57.3371 30.6775 57.3231C30.6542 57.3184 30.6355 57.3161 30.6215 57.3161C30.2202 57.2741 29.8982 57.1737 29.6555 57.0151C29.6275 56.9964 29.6065 56.9894 29.5925 56.9941C29.5692 57.0174 29.5085 57.0711 29.4105 57.1551C29.2892 57.2577 29.2262 57.3114 29.2215 57.3161C29.2075 57.3254 29.1748 57.3301 29.1235 57.3301C29.0675 57.3301 29.0325 57.3254 29.0185 57.3161C28.9952 57.3021 28.9812 57.2694 28.9765 57.2181C28.9718 57.1527 28.9695 56.9124 28.9695 56.4971C28.9695 55.9884 28.9742 55.7271 28.9835 55.7131C28.9882 55.7037 28.9975 55.6921 29.0115 55.6781C29.0348 55.6641 29.1025 55.6571 29.2145 55.6571C29.3358 55.6571 29.4058 55.6617 29.4245 55.6711C29.4572 55.6897 29.4735 55.7387 29.4735 55.8181C29.4875 56.0701 29.5762 56.2777 29.7395 56.4411C29.8608 56.5624 30.0288 56.6581 30.2435 56.7281C30.5188 56.8167 30.7942 56.8471 31.0695 56.8191C31.1068 56.8144 31.1395 56.8097 31.1675 56.8051C31.2982 56.7771 31.4055 56.7211 31.4895 56.6371C31.5828 56.5437 31.6435 56.4177 31.6715 56.2591C31.7088 56.0211 31.6435 55.8181 31.4755 55.6501C31.4055 55.5707 31.3145 55.5147 31.2025 55.4821C31.1838 55.4727 30.9972 55.4284 30.6425 55.3491C30.3065 55.2837 30.1152 55.2417 30.0685 55.2231C29.7232 55.1251 29.4525 54.9407 29.2565 54.6701C29.0558 54.4041 28.9602 54.1054 28.9695 53.7741C28.9835 53.4427 29.0815 53.1581 29.2635 52.9201C29.4362 52.6867 29.6882 52.5257 30.0195 52.4371C30.1315 52.4091 30.2365 52.3904 30.3345 52.3811Z" fill="#555969"/>
</svg>
