<svg width="60" height="38" viewBox="0 0 60 38" fill="none" xmlns="http://www.w3.org/2000/svg">
<g id="Group">
<g id="Group_2">
<path id="Vector" fill-rule="evenodd" clip-rule="evenodd" d="M13.3438 1.37681C10.4981 1.37681 7.75599 2.60395 5.88468 4.83602C3.01759 8.25344 1.37396 13.308 1.37396 18.7029C1.37407 24.0967 3.01747 29.1513 5.88468 32.5687C8.39657 35.5643 12.4742 36.7496 16.2717 35.5882C19.8141 34.5044 25.0701 33.2533 29.9995 33.4374C34.9313 33.2557 40.1849 34.5044 43.7284 35.5882C47.5259 36.7496 51.6025 35.5643 54.1154 32.5687C56.9814 29.1512 58.6261 24.0968 58.6261 18.7029C58.6262 13.3079 56.9814 8.25344 54.1154 4.83602C51.6024 1.84036 47.5247 0.655051 43.7284 1.81649C40.1862 2.90026 34.9312 4.15135 29.9995 3.96734C25.0677 4.15135 19.814 2.9003 16.2717 1.81649C15.3045 1.52018 14.3181 1.37681 13.3438 1.37681ZM13.3426 37.4044C10.0973 37.4044 6.97002 36.0039 4.83274 33.4552C1.76171 29.7928 0 24.4158 0 18.7029C0.000115653 12.9888 1.7616 7.61174 4.83274 3.95063C7.69994 0.531972 12.3478 -0.823009 16.6724 0.499715C20.1205 1.55482 25.2251 2.77366 29.9732 2.59082C29.9912 2.58959 30.009 2.58962 30.0269 2.59082C34.7738 2.77239 39.8796 1.55483 43.3264 0.499715C47.6523 -0.821901 52.3001 0.531966 55.1673 3.95063C58.2385 7.61177 60 12.9889 60 18.7029C60.0001 24.4157 58.2384 29.7928 55.1673 33.4552C53.03 36.0027 49.9016 37.4044 46.6564 37.4044C45.5484 37.4044 44.4272 37.2419 43.3264 36.9049C39.8796 35.8498 34.7737 34.631 30.0269 34.8138C30.0091 34.815 29.9911 34.815 29.9732 34.8138C25.2277 34.6322 20.1205 35.8498 16.6737 36.9049C15.5729 37.2419 14.4505 37.4044 13.3426 37.4044Z" fill="#FF861D"/>
<path id="Vector_2" fill-rule="evenodd" clip-rule="evenodd" d="M18.2546 22.6687C16.9928 22.6687 15.9658 23.6976 15.9658 24.9629C15.9658 26.2272 16.9927 27.256 18.2545 27.256C19.5177 27.256 20.5445 26.2272 20.5445 24.9629C20.5445 23.6975 19.5176 22.6688 18.2546 22.6687ZM18.2546 28.6325C16.2353 28.6325 14.5918 26.9859 14.5918 24.9629C14.5918 22.9388 16.2353 21.2922 18.2545 21.2922C20.275 21.2922 21.9184 22.9388 21.9184 24.9629C21.9185 26.9859 20.2749 28.6325 18.2546 28.6325Z" fill="#FF861D"/>
<path id="Vector_3" fill-rule="evenodd" clip-rule="evenodd" d="M42.7448 22.6687C41.4829 22.6687 40.456 23.6976 40.456 24.9629C40.456 26.2272 41.4828 27.256 42.7447 27.256C44.0078 27.256 45.0346 26.2272 45.0346 24.9629C45.0346 23.6975 44.0078 22.6688 42.7448 22.6687ZM42.7448 28.6325C40.7256 28.6325 39.082 26.9859 39.082 24.9629C39.0821 22.9388 40.7255 21.2922 42.7447 21.2922C44.7651 21.2922 46.4086 22.9388 46.4086 24.9629C46.4086 26.9859 44.7651 28.6325 42.7448 28.6325Z" fill="#FF861D"/>
<path id="Vector_4" fill-rule="evenodd" clip-rule="evenodd" d="M24.8785 25.6501C24.6972 25.6501 24.5206 25.5773 24.3918 25.4494C24.3608 25.4171 24.3322 25.3825 24.3071 25.3442C24.2822 25.3072 24.2606 25.2666 24.2439 25.226C24.2261 25.1841 24.2129 25.1411 24.2045 25.0969C24.1963 25.0527 24.1914 25.0073 24.1914 24.9631C24.1915 24.9176 24.1962 24.8722 24.2045 24.828C24.213 24.7838 24.226 24.7408 24.2439 24.699C24.2607 24.6572 24.282 24.6177 24.3071 24.5795C24.3322 24.5424 24.3608 24.5066 24.3918 24.4756C24.5516 24.3153 24.7889 24.2426 25.012 24.288C25.0561 24.2963 25.0991 24.3095 25.1408 24.3262C25.1826 24.3441 25.2219 24.3656 25.2589 24.3895C25.2971 24.4146 25.3316 24.4433 25.3638 24.4756C25.3961 24.5066 25.4247 24.5424 25.4497 24.5795C25.4737 24.6177 25.495 24.6572 25.5129 24.699C25.5296 24.7408 25.5427 24.7838 25.5511 24.828C25.5606 24.8722 25.5654 24.9176 25.5654 24.9631C25.5654 25.1435 25.4914 25.3204 25.3638 25.4494C25.3317 25.4804 25.2971 25.5091 25.2589 25.5343C25.222 25.5593 25.1825 25.5808 25.1408 25.5976C25.0991 25.6155 25.0561 25.6286 25.012 25.637C24.9679 25.6465 24.9225 25.6502 24.8785 25.6501Z" fill="#FF861D"/>
<path id="Vector_5" fill-rule="evenodd" clip-rule="evenodd" d="M12.1323 25.6501C12.0871 25.6501 12.0417 25.6466 11.9976 25.637C11.9535 25.6286 11.9105 25.6155 11.8688 25.5976C11.8283 25.5808 11.7876 25.5594 11.7506 25.5343C11.7125 25.5091 11.6779 25.4805 11.6457 25.4494C11.5182 25.3215 11.4453 25.1435 11.4453 24.9631C11.4453 24.9176 11.4501 24.8723 11.4585 24.828C11.4668 24.7839 11.4811 24.7408 11.4978 24.6991C11.5146 24.6572 11.536 24.6177 11.561 24.5795C11.5861 24.5424 11.6147 24.5066 11.6457 24.4756C11.678 24.4433 11.7125 24.4146 11.7506 24.3896C11.7876 24.3656 11.8282 24.3441 11.8688 24.3262C11.9105 24.3095 11.9534 24.2963 11.9976 24.288C12.2206 24.2425 12.4579 24.3154 12.6177 24.4756C12.65 24.5066 12.6786 24.5425 12.7036 24.5795C12.7275 24.6177 12.7489 24.6572 12.7668 24.6991C12.7836 24.7408 12.7966 24.7839 12.805 24.828C12.8146 24.8722 12.8193 24.9177 12.8193 24.9631C12.8193 25.1435 12.7454 25.3204 12.6177 25.4494C12.4902 25.5773 12.3124 25.6502 12.1323 25.6501Z" fill="#FF861D"/>
<path id="Vector_6" fill-rule="evenodd" clip-rule="evenodd" d="M36.1225 25.6501C35.9425 25.6501 35.7647 25.5773 35.6371 25.4494C35.605 25.4171 35.5763 25.3825 35.5512 25.3442C35.5275 25.3072 35.5059 25.2666 35.488 25.226C35.4714 25.1841 35.4582 25.1411 35.4487 25.0969C35.4404 25.0527 35.4355 25.0073 35.4355 24.9631C35.4355 24.9176 35.4403 24.8722 35.4487 24.828C35.4582 24.7838 35.4714 24.7408 35.488 24.699C35.506 24.6572 35.5274 24.6177 35.5512 24.5795C35.5763 24.5424 35.6049 24.5066 35.6371 24.4756C35.797 24.3153 36.0343 24.2426 36.2573 24.288C36.3015 24.2963 36.3444 24.3095 36.3849 24.3262C36.4267 24.3441 36.4672 24.3656 36.5042 24.3895C36.5413 24.4146 36.5769 24.4433 36.6079 24.4756C36.6402 24.5066 36.6688 24.5424 36.6938 24.5795C36.7189 24.6177 36.7404 24.6572 36.757 24.699C36.7738 24.7408 36.7868 24.7838 36.7964 24.828C36.8048 24.8722 36.8095 24.9176 36.8095 24.9631C36.8096 25.1435 36.7368 25.3204 36.6079 25.4494C36.4804 25.5772 36.3038 25.6502 36.1225 25.6501Z" fill="#FF861D"/>
<path id="Vector_7" fill-rule="evenodd" clip-rule="evenodd" d="M48.8667 25.6501C48.8214 25.6501 48.7772 25.6466 48.7319 25.637C48.689 25.6286 48.6449 25.6155 48.6043 25.5976C48.5627 25.5808 48.522 25.5594 48.485 25.5343C48.448 25.5091 48.4123 25.4805 48.3812 25.4494C48.2524 25.3204 48.1797 25.1435 48.1797 24.9631C48.1797 24.9176 48.1845 24.8723 48.1928 24.828C48.2024 24.7839 48.2155 24.7408 48.2322 24.6991C48.249 24.6572 48.2704 24.6177 48.2954 24.5795C48.3205 24.5424 48.349 24.5066 48.3812 24.4756C48.4124 24.4433 48.448 24.4146 48.485 24.3896C48.522 24.3656 48.5626 24.3441 48.6043 24.3262C48.6449 24.3095 48.689 24.2963 48.7319 24.288C48.9562 24.2425 49.1923 24.3154 49.3521 24.4756C49.3843 24.5066 49.4129 24.5425 49.438 24.5795C49.4631 24.6177 49.4833 24.6572 49.5012 24.6991C49.518 24.7408 49.531 24.7839 49.5405 24.828C49.549 24.8722 49.5537 24.9177 49.5537 24.9631C49.5537 25.0073 49.5489 25.0527 49.5405 25.0969C49.531 25.1411 49.5179 25.1842 49.5012 25.226C49.4834 25.2666 49.4631 25.3072 49.438 25.3442C49.4129 25.3824 49.3843 25.4172 49.3521 25.4494C49.2245 25.5773 49.048 25.6502 48.8667 25.6501Z" fill="#FF861D"/>
<path id="Vector_8" fill-rule="evenodd" clip-rule="evenodd" d="M12.1326 10.1485C10.8696 10.1485 9.84271 11.1773 9.84271 12.4427C9.84279 13.7069 10.8696 14.7357 12.1326 14.7357C13.3945 14.7357 14.4214 13.7069 14.4214 12.4427C14.4214 11.1773 13.3945 10.1485 12.1326 10.1485ZM12.1326 16.1122C10.1123 16.1122 8.46875 14.4657 8.46875 12.4427C8.46883 10.4186 10.1123 8.77197 12.1326 8.77197C14.1519 8.77197 15.7953 10.4186 15.7953 12.4427C15.7954 14.4657 14.1518 16.1123 12.1326 16.1122Z" fill="#FF861D"/>
<path id="Vector_9" fill-rule="evenodd" clip-rule="evenodd" d="M24.3763 11.1499C23.6654 11.1499 23.0869 11.7295 23.0869 12.4428C23.087 13.155 23.6653 13.7345 24.3762 13.7345C25.087 13.7345 25.6666 13.155 25.6666 12.4428C25.6666 11.7294 25.087 11.15 24.3763 11.1499ZM24.3763 15.111C22.908 15.111 21.7129 13.9138 21.7129 12.4428C21.713 10.9707 22.908 9.77344 24.3762 9.77344C25.8456 9.7734 27.0406 10.9707 27.0406 12.4428C27.0406 13.9137 25.8455 15.1111 24.3763 15.111Z" fill="#FF861D"/>
<path id="Vector_10" fill-rule="evenodd" clip-rule="evenodd" d="M48.8664 11.1499C48.1555 11.1499 47.5759 11.7295 47.5759 12.4428C47.576 13.155 48.1555 13.7345 48.8664 13.7345C49.5772 13.7345 50.1568 13.155 50.1568 12.4428C50.1569 11.7294 49.5772 11.15 48.8664 11.1499ZM48.8664 15.111C47.397 15.111 46.2031 13.9138 46.2031 12.4428C46.2031 10.9707 47.397 9.77344 48.8664 9.77344C50.3358 9.7734 51.5296 10.9707 51.5296 12.4428C51.5297 13.9137 50.3357 15.1111 48.8664 15.111Z" fill="#FF861D"/>
<path id="Vector_11" fill-rule="evenodd" clip-rule="evenodd" d="M30.5004 23.67C29.7896 23.67 29.2099 24.2495 29.2099 24.9629C29.2101 25.675 29.7896 26.2546 30.5004 26.2546C31.2113 26.2546 31.7897 25.6751 31.7897 24.9629C31.7897 24.2495 31.2112 23.67 30.5004 23.67ZM30.5004 27.6311C29.0311 27.6311 27.8359 26.4338 27.8359 24.9629C27.8361 23.4907 29.031 22.2935 30.5004 22.2935C31.9686 22.2935 33.1636 23.4908 33.1636 24.9629C33.1637 26.4338 31.9686 27.6311 30.5004 27.6311Z" fill="#FF861D"/>
<path id="Vector_12" fill-rule="evenodd" clip-rule="evenodd" d="M36.623 10.1485C35.36 10.1485 34.3329 11.1773 34.3329 12.4427C34.333 13.7069 35.3599 14.7357 36.6229 14.7357C37.8847 14.7357 38.9116 13.7069 38.9116 12.4427C38.9117 11.1773 37.8847 10.1485 36.623 10.1485ZM36.623 16.1122C34.6025 16.1122 32.959 14.4657 32.959 12.4427C32.959 10.4186 34.6025 8.77197 36.6229 8.77197C38.6422 8.77197 40.2856 10.4186 40.2856 12.4427C40.2857 14.4657 38.6421 16.1123 36.623 16.1122Z" fill="#FF861D"/>
<path id="Vector_13" fill-rule="evenodd" clip-rule="evenodd" d="M18.7553 13.1299C18.5753 13.1299 18.3975 13.057 18.27 12.9292C18.2378 12.8969 18.2091 12.8623 18.1841 12.824C18.1591 12.787 18.1375 12.7464 18.1209 12.7057C18.1042 12.6638 18.0911 12.6209 18.0815 12.5767C18.0732 12.5325 18.0684 12.487 18.0684 12.4416C18.0684 12.3974 18.0731 12.352 18.0815 12.3078C18.0911 12.2636 18.1042 12.2206 18.1209 12.1788C18.1376 12.1369 18.159 12.0975 18.1841 12.0604C18.2091 12.0222 18.2378 11.9876 18.27 11.9553C18.3011 11.923 18.3368 11.8944 18.3737 11.8693C18.4108 11.8454 18.4512 11.8239 18.493 11.8071C18.5336 11.7892 18.5777 11.7761 18.6206 11.7677C18.8436 11.7223 19.0821 11.7952 19.2408 11.9553C19.273 11.9875 19.3016 12.0222 19.3266 12.0604C19.3518 12.0975 19.372 12.1369 19.3899 12.1788C19.4066 12.2205 19.4197 12.2636 19.4292 12.3078C19.4376 12.352 19.4423 12.3974 19.4423 12.4416C19.4425 12.487 19.4376 12.5325 19.4292 12.5767C19.4198 12.6208 19.4066 12.6639 19.3899 12.7057C19.372 12.7463 19.3517 12.787 19.3266 12.824C19.3017 12.8623 19.273 12.8969 19.2408 12.9292C19.1132 13.057 18.9355 13.1299 18.7553 13.1299Z" fill="#FF861D"/>
<path id="Vector_14" fill-rule="evenodd" clip-rule="evenodd" d="M30.0008 13.1299C29.9554 13.1299 29.91 13.1263 29.8659 13.1168C29.8218 13.1084 29.7789 13.0952 29.7371 13.0773C29.6954 13.0606 29.656 13.0391 29.619 13.014C29.5809 12.9889 29.5463 12.9603 29.514 12.9292C29.4831 12.8969 29.4533 12.8623 29.4294 12.824C29.4044 12.787 29.3829 12.7464 29.3662 12.7057C29.3484 12.6638 29.3351 12.6209 29.3268 12.5767C29.3173 12.5325 29.3125 12.487 29.3125 12.4416C29.3126 12.3974 29.3173 12.352 29.3268 12.3078C29.3352 12.2636 29.3483 12.2206 29.3662 12.1788C29.3829 12.1369 29.4044 12.0975 29.4294 12.0604C29.4533 12.0222 29.4831 11.9876 29.514 11.9553C29.5463 11.923 29.5809 11.8944 29.619 11.8693C29.6561 11.8454 29.6954 11.8239 29.7371 11.8071C29.7789 11.7892 29.8218 11.7761 29.8659 11.7677C30.089 11.7223 30.3263 11.7952 30.4861 11.9553C30.5172 11.9875 30.5457 12.0222 30.5708 12.0604C30.5958 12.0975 30.6173 12.1369 30.634 12.1788C30.6519 12.2205 30.665 12.2636 30.6734 12.3078C30.6829 12.352 30.6865 12.3974 30.6865 12.4416C30.6865 12.487 30.6829 12.5325 30.6734 12.5767C30.6651 12.6208 30.6519 12.6639 30.634 12.7057C30.6173 12.7463 30.5958 12.787 30.5708 12.824C30.5458 12.8623 30.5171 12.8969 30.4861 12.9292C30.3574 13.057 30.1808 13.1299 30.0008 13.1299Z" fill="#FF861D"/>
<path id="Vector_15" fill-rule="evenodd" clip-rule="evenodd" d="M43.2456 13.1298C43.2003 13.1298 43.1549 13.1262 43.1108 13.1167C43.0679 13.1083 43.0238 13.0951 42.9832 13.0772C42.9414 13.0605 42.9009 13.039 42.8639 13.0139C42.827 12.9888 42.7911 12.9602 42.7589 12.9291C42.728 12.8968 42.6993 12.8622 42.6743 12.8239C42.6492 12.7869 42.6278 12.7463 42.6111 12.7056C42.5945 12.6637 42.5812 12.6208 42.5717 12.5766C42.5633 12.5324 42.5586 12.4869 42.5586 12.4415C42.5586 12.3973 42.5633 12.3519 42.5717 12.3077C42.5813 12.2635 42.5943 12.2205 42.6111 12.1787C42.6279 12.1368 42.6492 12.0974 42.6743 12.0604C42.6994 12.0221 42.7279 11.9875 42.7589 11.9552C42.7912 11.9229 42.827 11.8943 42.8639 11.8692C42.9009 11.8453 42.9414 11.8238 42.9832 11.807C43.0238 11.7891 43.0679 11.776 43.1108 11.7676C43.2003 11.7497 43.2909 11.7497 43.3792 11.7676C43.4233 11.7759 43.4662 11.7891 43.508 11.807C43.5498 11.8237 43.5891 11.8453 43.6272 11.8692C43.6643 11.8942 43.7 11.923 43.731 11.9552C43.7633 11.9874 43.7918 12.0222 43.8169 12.0604C43.8419 12.0974 43.8622 12.1368 43.8801 12.1787C43.8968 12.2204 43.9099 12.2635 43.9195 12.3077C43.9278 12.3519 43.9326 12.3973 43.9326 12.4415C43.9326 12.4869 43.9278 12.5324 43.9183 12.5766C43.9099 12.6207 43.8967 12.6638 43.8801 12.7056C43.8622 12.7462 43.8407 12.7869 43.8169 12.8239C43.7919 12.8622 43.7632 12.8968 43.731 12.9291C43.7001 12.9601 43.6642 12.9888 43.6272 13.0139C43.5891 13.039 43.5497 13.0605 43.508 13.0772C43.4662 13.0951 43.4233 13.1083 43.3792 13.1167C43.3351 13.1262 43.2897 13.1298 43.2456 13.1298Z" fill="#FF861D"/>
</g>
</g>
</svg>
