<svg width="60" height="60" viewBox="0 0 60 60" fill="none" xmlns="http://www.w3.org/2000/svg">
<g id="Capa_1" clip-path="url(#clip0_1184_9016)">
<g id="Group">
<g id="Group_2">
<path id="Vector" d="M55 2.8109e-06H15C13.6734 -0.00140344 12.4009 0.524886 11.4629 1.46285C10.525 2.40082 9.99867 3.67348 10.0001 4.99992V15C10.0018 16.6561 11.344 17.9982 13.0001 18C14.6537 17.9923 15.9923 16.6536 16.0001 15C15.9995 14.7302 16.1105 14.4722 16.3068 14.2872C16.4958 14.1032 16.7502 14.0018 17.014 14.0054C17.2778 14.0091 17.5293 14.1175 17.713 14.3066C17.8989 14.4892 18.0026 14.7395 18.0001 15V21C18.0019 22.6561 19.344 23.9982 21.0001 24C22.6538 23.9923 23.9924 22.6536 24.0001 21V15C24.0005 14.4479 24.448 14.0004 25.0001 14C25.2698 13.9995 25.5278 14.1104 25.7129 14.3067C25.8988 14.4893 26.0025 14.7396 26 15.0001V28.0098C25.6663 28.0062 25.335 28.0001 25.0001 28.0001C12.5762 28 0 30.4043 0 35C0 48.8071 11.1929 60 25 60C38.807 60 49.9999 48.8071 49.9999 35C49.9999 31.0247 40.8727 28.9307 31.9999 28.2585V11.25C32.0033 10.8322 32.03 10.4148 32.08 9.99996H54.9998C57.7612 9.99996 59.9999 7.76145 59.9999 4.99992C59.9999 2.2384 57.7615 2.8109e-06 55 2.8109e-06ZM25 58C13.4879 57.9844 3.75563 49.4704 2.20992 38.0625C6.35437 40.6575 15.7185 42 25 42C26.5605 42 27.9795 41.9668 29.335 41.8995C36.2784 41.59 44.0661 40.4102 47.7868 38.0879C46.2298 49.4844 36.5025 57.9846 25 58ZM48 35C48 36.6612 41.3213 39.3623 29.2403 39.9014C27.9141 39.9679 26.5264 40.0001 25.0001 40.0001C10.9601 40.0001 2.00004 37.0391 2.00004 35C2.00004 32.961 10.96 30 25 30C25.3339 30 25.6679 30.0029 25.9999 30.0059V32C26.0017 33.6561 27.3438 34.9983 28.9999 35C30.6536 34.9923 31.9922 33.6537 31.9999 32V30.2637C42.4473 31.0723 48 33.4961 48 35ZM31.7686 4.87008C30.5802 6.78352 29.9662 8.99789 30 11.25V32C30.0006 32.2698 29.8896 32.5279 29.6933 32.7129C29.5107 32.8988 29.2604 33.0025 28.9999 33C28.4479 32.9997 28.0003 32.5521 28 32V15C27.9922 13.3464 26.6536 12.0077 25 12C23.3439 12.0018 22.0017 13.3439 22 15V21C22.0005 21.2698 21.8896 21.5278 21.6933 21.7129C21.5107 21.8987 21.2604 22.0024 20.9999 22C20.4478 21.9996 20.0003 21.5521 19.9999 21V15C20.0064 14.2083 19.6914 13.4479 19.1269 12.8926C17.948 11.7544 16.0819 11.7458 14.8925 12.873C14.3177 13.4309 13.9954 14.199 13.9999 15C14.0005 15.2698 13.8895 15.5278 13.6932 15.7129C13.5107 15.8987 13.2604 16.0024 12.9998 16C12.4477 15.9996 12.0002 15.5521 11.9999 15V5.00004C11.9984 4.20387 12.3138 3.43992 12.8768 2.87696C13.4398 2.31399 14.2037 1.9984 14.9999 2.00004H33.7457C33.4413 2.70188 33.0178 3.34582 32.494 3.9034C32.2219 4.20153 31.9788 4.52531 31.7686 4.87008ZM55 8.00004H32.5155C32.7417 7.27254 33.0604 6.57703 33.4638 5.93075C33.6116 5.68664 33.783 5.45778 33.9756 5.24719C34.852 4.33172 35.4935 3.21762 35.8453 2.00016H55C56.6568 2.00016 58 3.34336 58 5.00016C58 6.65696 56.6569 8.00004 55 8.00004Z" fill="#FF861D"/>
</g>
</g>
</g>
<defs>
<clipPath id="clip0_1184_9016">
<rect width="60" height="60" fill="white"/>
</clipPath>
</defs>
</svg>
