<svg width="51" height="60" viewBox="0 0 51 60" fill="none" xmlns="http://www.w3.org/2000/svg">
<g id="Group 642">
<path id="Vector" d="M50.4176 10.0645C50.331 9.97575 50.2274 9.90525 50.1131 9.85716C49.9987 9.80907 49.8759 9.78437 49.7518 9.78451C42.748 9.78451 38.2647 6.71419 36.426 0.659355C36.3679 0.468522 36.25 0.301418 36.0897 0.182698C35.9294 0.0639772 35.7352 -7.19243e-05 35.5357 6.06115e-08H15.2131C15.0136 -2.98762e-05 14.8193 0.0641126 14.659 0.182957C14.4986 0.301801 14.3808 0.469047 14.3228 0.66C12.4841 6.71484 8.00023 9.78516 0.997003 9.78516C0.872938 9.78504 0.750103 9.80975 0.635737 9.85783C0.521371 9.90592 0.417787 9.97642 0.331088 10.0652C0.244389 10.1539 0.176329 10.2591 0.130919 10.3746C0.0855087 10.49 0.0636671 10.6134 0.0666805 10.7374C0.0821644 11.3774 0.096788 12.0346 0.110551 12.709C0.270551 20.3432 0.469906 29.8439 3.62281 38.6445C5.20626 43.2278 7.7214 47.4337 11.0099 50.9974C14.917 55.0526 19.7331 58.1197 25.0602 59.9451C25.2637 60.0183 25.4864 60.0183 25.6899 59.9451C31.017 58.1193 35.8332 55.0522 39.7409 50.9974C43.0283 47.4335 45.5427 43.2279 47.126 38.6452C50.2789 29.8426 50.4809 20.3419 50.6383 12.7097C50.6525 12.0361 50.6671 11.3789 50.6821 10.7381C50.6851 10.6138 50.6633 10.4903 50.6179 10.3746C50.5724 10.2589 50.5044 10.1535 50.4176 10.0645ZM48.7783 12.669C48.4686 27.4432 48.0041 49.7335 25.3751 58.0793C2.74797 49.7342 2.28152 27.4439 1.97184 12.6703C1.9641 12.3181 1.95657 11.9703 1.94926 11.6271C8.98152 11.3523 13.7789 7.9929 15.8912 1.86064H34.8589C36.9712 7.98968 41.768 11.3523 48.8009 11.6271C48.7931 11.9703 48.7856 12.3178 48.7783 12.6697V12.669ZM25.3751 17.1684C22.8372 17.1684 20.3563 17.9209 18.2462 19.3309C16.1361 20.7409 14.4914 22.7449 13.5202 25.0895C12.549 27.4342 12.2949 30.0142 12.79 32.5033C13.2851 34.9924 14.5072 37.2788 16.3017 39.0733C18.0963 40.8678 20.3826 42.0899 22.8717 42.585C25.3608 43.0802 27.9408 42.826 30.2855 41.8549C32.6302 40.8837 34.6342 39.239 36.0442 37.1289C37.4541 35.0187 38.2067 32.5378 38.2067 30C38.2029 26.598 36.8498 23.3364 34.4442 20.9308C32.0386 18.5252 28.7771 17.1721 25.3751 17.1684ZM25.3751 40.971C23.2052 40.9708 21.0842 40.3273 19.2801 39.1217C17.476 37.9161 16.0699 36.2026 15.2397 34.198C14.4094 32.1933 14.1922 29.9874 14.6156 27.8593C15.039 25.7312 16.0839 23.7764 17.6183 22.2421C19.1526 20.7079 21.1075 19.663 23.2356 19.2398C25.3638 18.8165 27.5696 19.0338 29.5743 19.8642C31.5789 20.6946 33.2923 22.1008 34.4978 23.9049C35.7032 25.7091 36.3467 27.8302 36.3467 30C36.3434 32.9088 35.1864 35.6975 33.1295 37.7543C31.0726 39.8111 28.2839 40.9679 25.3751 40.971ZM31.8131 25.1787C31.9875 25.3532 32.0855 25.5898 32.0855 25.8364C32.0855 26.0831 31.9875 26.3197 31.8131 26.4942L23.4867 34.8213C23.3122 34.9957 23.0756 35.0937 22.8289 35.0937C22.5822 35.0937 22.3457 34.9957 22.1712 34.8213L18.937 31.5871C18.7674 31.4116 18.6736 31.1766 18.6757 30.9326C18.6777 30.6886 18.7756 30.4552 18.9481 30.2827C19.1206 30.1102 19.354 30.0123 19.598 30.0103C19.842 30.0082 20.077 30.102 20.2525 30.2716L22.8286 32.8477L30.4976 25.1787C30.6721 25.0043 30.9087 24.9063 31.1554 24.9063C31.4021 24.9063 31.6387 25.0043 31.8131 25.1787Z" fill="#FF861D"/>
</g>
</svg>
