<svg width="61" height="60" viewBox="0 0 61 60" fill="none" xmlns="http://www.w3.org/2000/svg">
<g id="Group 645">
<path id="Vector" d="M1.57507 31.2C2.23777 31.2 2.77504 30.6633 2.77504 30C2.77504 14.7809 15.1565 2.40004 30.375 2.40004C45.5936 2.40004 57.9751 14.7809 57.9751 30C57.9751 45.2191 45.5936 57.6001 30.375 57.6001C22.6435 57.6001 15.4357 54.4345 10.2257 48.8485H16.5018C17.1645 48.8485 17.7018 48.3118 17.7018 47.6485C17.7018 46.9852 17.1645 46.4484 16.5018 46.4484H7.61955C7.56286 46.4484 7.51441 46.4731 7.45978 46.4807C7.38406 46.4907 7.31168 46.5006 7.23832 46.5253C7.15535 46.5536 7.08326 46.5943 7.00951 46.639C6.96783 46.6639 6.92055 46.6722 6.88132 46.7027C6.86171 46.7179 6.85317 46.7407 6.83474 46.7569C6.77236 46.8117 6.72489 46.8756 6.67507 46.9422C6.62887 47.0038 6.5816 47.0615 6.54865 47.1296C6.51893 47.1905 6.50461 47.2557 6.48548 47.3219C6.46008 47.4096 6.43733 47.4942 6.43233 47.5851C6.43115 47.6073 6.41958 47.626 6.41958 47.6485V56.5313C6.41958 57.1946 6.95684 57.7313 7.61955 57.7313C8.28225 57.7313 8.81962 57.1946 8.81962 56.5313V50.8628C14.4532 56.7035 22.1433 60 30.375 60C46.9173 60 60.3751 46.5422 60.3751 30C60.3751 13.4578 46.9173 0 30.375 0C13.8328 0 0.375 13.4578 0.375 30C0.375 30.6633 0.912363 31.2 1.57507 31.2Z" fill="#FF861D"/>
<path id="Vector_2" d="M22.5132 37.2985C22.5132 36.6352 21.976 36.0986 21.3133 36.0986C20.6505 36.0986 20.1133 36.6352 20.1133 37.2985C20.1133 41.6482 24.0807 45.2403 29.1742 45.7349V47.5619C29.1742 48.2251 29.7115 48.7619 30.3742 48.7619C31.0369 48.7619 31.5742 48.2251 31.5742 47.5619V45.7349C36.6683 45.2404 40.6357 41.6482 40.6357 37.2985C40.6357 31.8709 34.5989 29.8531 31.5742 29.064V16.6962C35.3372 17.1486 38.2357 19.6571 38.2357 22.7005C38.2357 23.3638 38.773 23.9006 39.4357 23.9006C40.0984 23.9006 40.6357 23.3638 40.6357 22.7005C40.6357 18.3509 36.6683 14.7597 31.5742 14.2653V12.4372C31.5742 11.7739 31.0369 11.2373 30.3742 11.2373C29.7115 11.2373 29.1742 11.7739 29.1742 12.4372V14.2653C24.0807 14.7597 20.1133 18.3509 20.1133 22.7005C20.1133 26.5144 23.1843 29.2635 29.1742 30.9062V43.304C25.4112 42.8516 22.5132 40.343 22.5132 37.2985ZM38.2357 37.2985C38.2357 40.343 35.3372 42.8516 31.5742 43.304V31.5743C36.0373 32.8923 38.2357 34.7686 38.2357 37.2985ZM22.5132 22.7005C22.5132 19.6571 25.4112 17.1486 29.1742 16.6962V28.4232C24.7665 27.1078 22.5132 25.1902 22.5132 22.7005Z" fill="#FF861D"/>
</g>
</svg>
