<svg width="43" height="60" viewBox="0 0 43 60" fill="none" xmlns="http://www.w3.org/2000/svg">
<g id="Group 644">
<path id="Vector" d="M35.4662 14.1762C35.2381 14.1762 35.0194 14.0856 34.8582 13.9244C34.6969 13.7631 34.6063 13.5444 34.6063 13.3164V7.38344C34.6063 6.55815 34.2785 5.76665 33.6949 5.18308C33.1113 4.59951 32.3198 4.27166 31.4946 4.27166C30.6693 4.27166 29.8778 4.59951 29.2942 5.18308C28.7106 5.76665 28.3828 6.55815 28.3828 7.38344V11.76C28.3828 11.9881 28.2922 12.2068 28.1309 12.3681C27.9697 12.5293 27.751 12.6199 27.5229 12.6199C27.2949 12.6199 27.0762 12.5293 26.9149 12.3681C26.7537 12.2068 26.6631 11.9881 26.6631 11.76V7.38344C26.6631 6.10205 27.1721 4.87315 28.0782 3.96707C28.9843 3.061 30.2132 2.55197 31.4946 2.55197C32.7759 2.55197 34.0048 3.061 34.9109 3.96707C35.817 4.87315 36.326 6.10205 36.326 7.38344V13.3164C36.326 13.5444 36.2354 13.7631 36.0742 13.9244C35.9129 14.0856 35.6942 14.1762 35.4662 14.1762Z" fill="#FF861D"/>
<path id="Vector_2" d="M28.9319 59.9965C25.329 59.9168 21.7522 59.3643 18.2931 58.3533C17.8721 58.231 17.4853 58.0124 17.1635 57.7146C16.8418 57.4168 16.5938 57.0482 16.4392 56.6379C16.1861 55.9804 15.8644 55.3512 15.4797 54.7609C14.0436 52.6714 12.08 50.9994 9.78835 49.9148C6.39024 48.1753 3.7359 44.3826 3.62412 44.2218C3.60349 44.1908 3.58457 44.159 3.56651 44.1255L0.621545 38.3903C0.380898 37.9129 0.31381 37.3666 0.431781 36.8452C0.549753 36.3237 0.845437 35.8595 1.26815 35.5322C1.50868 35.3444 1.76501 35.1779 2.03427 35.0343C1.84587 34.7975 1.694 34.5337 1.58371 34.2519C1.39616 33.7494 1.33025 33.2098 1.39137 32.677C1.4525 32.1442 1.63892 31.6334 1.93539 31.1865C3.96735 28.2161 6.4383 25.5712 9.26384 23.3422C10.6307 22.2038 12.3821 21.6332 14.1572 21.748C16.5699 22.0067 18.9232 22.6624 21.122 23.6887C21.3376 19.4756 20.5106 15.2744 18.7144 11.4574C17.7396 10.0145 17.0201 8.41485 16.5871 6.72824C16.3648 5.85989 16.3315 4.95393 16.4895 4.0716C16.6475 3.18927 16.9931 2.35114 17.5029 1.61388L17.5889 1.4978C17.9539 1.00879 18.4334 0.616877 18.9852 0.356465C19.5371 0.0960517 20.1444 -0.0248912 20.7539 0.00425467C21.3785 0.0308415 21.9873 0.209146 22.5275 0.523754C23.0677 0.838363 23.5232 1.27981 23.8546 1.80993C25.9122 5.10829 30.5897 13.6938 29.5725 22.1642C29.559 22.2763 29.5236 22.3847 29.4682 22.4831C29.4128 22.5815 29.3386 22.6681 29.2498 22.7378C29.161 22.8076 29.0593 22.8591 28.9505 22.8896C28.8418 22.92 28.7281 22.9287 28.6159 22.9152C28.5038 22.9018 28.3954 22.8663 28.297 22.8109C28.1986 22.7556 28.112 22.6813 28.0423 22.5925C27.9725 22.5037 27.921 22.402 27.8905 22.2932C27.8601 22.1845 27.8514 22.0708 27.8649 21.9587C28.8167 14.0318 24.3576 5.8641 22.3954 2.71964C22.2123 2.42624 21.9605 2.18185 21.6618 2.00761C21.3631 1.83338 21.0264 1.73454 20.6809 1.71964C20.3511 1.7042 20.0225 1.76952 19.7237 1.90993C19.4249 2.05034 19.1649 2.26158 18.9663 2.52532L18.9079 2.60614C18.5401 3.14259 18.2919 3.75179 18.18 4.39251C18.0682 5.03322 18.0953 5.69049 18.2595 6.31981C18.6565 7.83866 19.3102 9.27844 20.1925 10.5769C22.3767 15.0851 23.2579 20.1139 22.7368 25.0962C22.7222 25.2364 22.6734 25.3708 22.5946 25.4877C22.5159 25.6046 22.4096 25.7003 22.2852 25.7665C22.1608 25.8326 22.022 25.8672 21.8811 25.8671C21.7402 25.8671 21.6014 25.8323 21.4771 25.7661C19.1517 24.568 16.6339 23.788 14.0386 23.4617C12.6989 23.3878 11.3808 23.8227 10.3481 24.6792C7.66764 26.79 5.32157 29.2938 3.38939 32.1057C3.23813 32.3256 3.14085 32.5781 3.10544 32.8427C3.07003 33.1073 3.0975 33.3765 3.1856 33.6285C3.27406 33.8425 3.41249 34.0323 3.5893 34.1819C3.76612 34.3315 3.97619 34.4366 4.20194 34.4883C4.33204 34.5225 4.46559 34.5419 4.60005 34.5459C5.15497 34.5421 5.68755 34.3269 6.0893 33.944L11.3455 29.2949C11.7245 28.9491 12.1693 28.6833 12.6534 28.5133C13.735 28.1478 15.539 28.012 17.9612 29.4488C18.042 29.4926 20.4607 30.871 20.962 34.7532C21.0704 35.2596 21.7918 39.1495 18.8288 40.8581L16.4539 42.736C15.8704 43.1994 15.142 43.4417 14.3973 43.4203C13.6525 43.3989 12.9392 43.1151 12.3834 42.619L10.7565 41.1968C9.86774 40.4331 9.02775 39.6144 8.24149 38.7454C6.96978 37.3215 4.51148 35.1891 2.3249 36.8933C2.21744 36.9743 2.14151 37.0901 2.11014 37.221C2.07876 37.3518 2.09389 37.4895 2.15293 37.6104L5.06952 43.2854C5.36445 43.6981 7.74364 46.9363 10.5725 48.386C13.1348 49.6059 15.3269 51.4849 16.9242 53.8305C17.3757 54.5215 17.7524 55.2585 18.048 56.0292C18.1076 56.1884 18.2034 56.3316 18.3278 56.4474C18.4523 56.5632 18.602 56.6485 18.7651 56.6964C21.0867 57.3585 29.0635 59.3722 34.3085 57.4703C34.3608 57.4518 34.4146 57.438 34.4693 57.429C34.6344 57.4006 38.6594 56.6328 38.4539 50.1203L39.7505 26.7437L40.9999 13.4024C41.0286 13.097 40.9968 12.7889 40.9063 12.4958C40.8158 12.2027 40.6684 11.9303 40.4725 11.6943C40.2766 11.4583 40.036 11.2632 39.7645 11.1203C39.4931 10.9774 39.1961 10.8895 38.8907 10.8615C38.2761 10.8088 37.6654 11.0001 37.1908 11.3942C36.7163 11.7883 36.416 12.3534 36.355 12.9673L35.2845 24.3017C35.2761 24.4149 35.2449 24.5252 35.1928 24.626C35.1407 24.7268 35.0687 24.816 34.9812 24.8883C34.8938 24.9606 34.7926 25.0144 34.6838 25.0466C34.575 25.0788 34.4608 25.0887 34.3481 25.0756C34.1214 25.0538 33.9126 24.943 33.7675 24.7675C33.6224 24.5919 33.5529 24.366 33.5742 24.1392L34.643 12.8005C34.7178 12.0026 35.0274 11.2449 35.5328 10.623C36.0382 10.0011 36.7165 9.54301 37.4822 9.30659C38.2478 9.07018 39.0664 9.06606 39.8344 9.29477C40.6024 9.52348 41.2854 9.97475 41.7969 10.5915C42.1385 11.0006 42.3952 11.4736 42.5523 11.9829C42.7093 12.4921 42.7636 13.0276 42.7118 13.558L41.465 26.8701L40.171 50.1435C40.4091 57.5382 35.625 58.9311 34.8399 59.1091C32.9348 59.7364 30.9372 60.0364 28.9319 59.9965ZM6.99385 35.4264C7.94011 36.022 8.79287 36.7545 9.52438 37.6001C10.264 38.416 11.0537 39.1851 11.889 39.9028L13.5227 41.3293C13.7766 41.558 14.1033 41.6894 14.4449 41.7001C14.7865 41.7108 15.1208 41.6001 15.3885 41.3877L17.8159 39.4685C17.8521 39.4392 17.8909 39.4133 17.9319 39.3912C19.9741 38.2562 19.2853 35.1272 19.2785 35.0962C19.2716 35.0653 19.2664 35.0369 19.263 35.0103C18.8864 32.0008 17.1271 30.9544 17.1134 30.9449C15.1306 29.7704 13.8176 29.9415 13.2088 30.147C12.9428 30.2437 12.699 30.3928 12.4917 30.5855L7.22773 35.2338C7.15121 35.3017 7.07296 35.3654 6.99385 35.4264Z" fill="#FF861D"/>
</g>
</svg>
