<svg width="43" height="60" viewBox="0 0 43 60" fill="none" xmlns="http://www.w3.org/2000/svg">
<path d="M11.9348 60C17.7205 60 23.8696 58.2026 23.8696 54.8719C23.8696 52.573 20.8033 50.7106 15.8668 50.0114C15.6457 49.98 15.4212 50.0378 15.2427 50.1719C15.0641 50.306 14.9462 50.5056 14.9148 50.7266C14.8834 50.9477 14.9411 51.1722 15.0753 51.3507C15.2094 51.5293 15.4089 51.6472 15.63 51.6786C19.8883 52.2812 22.186 53.7736 22.186 54.8719C22.186 56.3102 18.2861 58.3164 11.9348 58.3164C5.58351 58.3164 1.68361 56.3102 1.68361 54.8719C1.68361 53.6096 4.51975 52.0239 9.26639 51.5557C9.37637 51.5448 9.48313 51.5124 9.58058 51.4603C9.67803 51.4081 9.76426 51.3373 9.83434 51.2519C9.90442 51.1664 9.95697 51.068 9.98901 50.9622C10.021 50.8564 10.0319 50.7454 10.021 50.6354C10.0123 50.5245 9.9813 50.4166 9.92983 50.318C9.87836 50.2194 9.8075 50.1323 9.72152 50.0617C9.63553 49.9912 9.53618 49.9388 9.42944 49.9076C9.32269 49.8764 9.21075 49.8672 9.10032 49.8803C3.5719 50.4258 0 52.3852 0 54.8719C8.418e-06 58.2026 6.1491 60 11.9348 60Z" fill="white"/>
<path d="M11.5518 10.9094V55.7035C11.5518 55.9268 11.6405 56.1409 11.7983 56.2987C11.9562 56.4566 12.1703 56.5453 12.3936 56.5453C12.6168 56.5453 12.831 56.4566 12.9888 56.2987C13.1467 56.1409 13.2354 55.9268 13.2354 55.7035V33.4881L42.3457 23.9095C42.5142 23.8541 42.6609 23.7468 42.7648 23.6031C42.8688 23.4593 42.9246 23.2864 42.9244 23.109C42.9242 22.9316 42.868 22.7588 42.7638 22.6153C42.6596 22.4718 42.5126 22.3648 42.344 22.3098L13.2354 12.8147V10.9093C14.6012 10.6972 15.8367 9.9775 16.6949 8.89397C17.553 7.81044 17.9707 6.44295 17.8643 5.06484C17.7579 3.68673 17.1354 2.39954 16.1211 1.46055C15.1068 0.521563 13.7755 -4.14637e-05 12.3933 2.47215e-09C11.011 4.14687e-05 9.67977 0.521725 8.66553 1.46078C7.65129 2.39982 7.02881 3.68705 6.92251 5.06517C6.81621 6.44328 7.23393 7.81075 8.09217 8.89423C8.9504 9.97771 10.1859 10.6974 11.5518 10.9094ZM39.3789 23.1133L13.2584 31.7081L13.237 14.586L39.3789 23.1133ZM12.3936 1.69059C13.1458 1.69067 13.8811 1.91381 14.5065 2.33177C15.1319 2.74974 15.6193 3.34376 15.9071 4.03873C16.1949 4.73371 16.2701 5.49841 16.1233 6.23616C15.9765 6.9739 15.6143 7.65154 15.0823 8.1834C14.5504 8.71526 13.8727 9.07745 13.135 9.22416C12.3972 9.37088 11.6325 9.29553 10.9376 9.00766C10.2426 8.71978 9.64867 8.2323 9.23077 7.60686C8.81288 6.98142 8.58983 6.2461 8.58983 5.4939C8.59089 4.48545 8.992 3.51861 9.70512 2.80557C10.4182 2.09253 11.3851 1.69153 12.3936 1.69059Z" fill="white"/>
</svg>
