<svg width="62" height="60" viewBox="0 0 62 60" fill="none" xmlns="http://www.w3.org/2000/svg">
<path d="M14.8689 60C14.9044 60 14.94 60 14.9755 59.9995C17.4408 59.9832 19.8632 59.354 22.0248 58.1686C24.1864 56.9831 26.0192 55.2786 27.3581 53.2086C28.6971 51.1385 29.5001 48.768 29.695 46.3104C29.8898 43.8528 29.4703 41.3853 28.4743 39.1301L48.1495 19.1794L51.9685 22.9456C52.0556 23.0316 52.1589 23.0996 52.2724 23.1457C52.3859 23.1918 52.5074 23.2151 52.6298 23.2143C52.7523 23.2134 52.8734 23.1884 52.9863 23.1408C53.0991 23.0931 53.2015 23.0237 53.2874 22.9364L61.3545 14.7565C61.5281 14.5803 61.6247 14.3424 61.623 14.0951C61.6213 13.8477 61.5214 13.6112 61.3454 13.4375L57.5268 9.67131L59.2065 7.96837C59.2926 7.88118 59.3606 7.77789 59.4067 7.66441C59.4528 7.55093 59.4761 7.42947 59.4753 7.30698C59.4744 7.18449 59.4494 7.06337 59.4018 6.95054C59.3541 6.8377 59.2847 6.73537 59.1974 6.64937L52.7277 0.268908C52.6406 0.182822 52.5373 0.114765 52.4238 0.0686269C52.3103 0.0224891 52.1888 -0.000824156 52.0663 2.22466e-05C51.9438 0.00086865 51.8227 0.0258571 51.7099 0.0735587C51.597 0.12126 51.4947 0.190739 51.4087 0.278021L20.676 31.4402C18.6469 30.5797 16.452 30.181 14.2499 30.2729C12.0479 30.3648 9.89378 30.9451 7.94351 31.9717C5.99324 32.9983 4.29557 34.4456 2.97332 36.2089C1.65107 37.9722 0.73732 40.0073 0.298172 42.1671C-0.140975 44.3269 -0.094534 46.5572 0.434136 48.6969C0.962806 50.8365 1.96048 52.8319 3.35498 54.5386C4.74949 56.2453 6.50593 57.6207 8.49724 58.5652C10.4886 59.5097 12.6649 59.9998 14.8689 60ZM5.61042 35.9902C7.51228 34.0658 9.96671 32.782 12.6322 32.3175C15.2977 31.853 18.0417 32.231 20.4824 33.3987C20.6574 33.4826 20.8543 33.5096 21.0454 33.4762C21.2366 33.4427 21.4125 33.3503 21.5486 33.212L52.0819 2.252L57.2235 7.32255L55.5438 9.02549C55.4577 9.11268 55.3897 9.21596 55.3436 9.32945C55.2975 9.44293 55.2742 9.56439 55.2751 9.68687C55.2759 9.80936 55.3009 9.93048 55.3486 10.0433C55.3962 10.1562 55.4657 10.2585 55.5529 10.3445L59.3714 14.1106L52.6143 20.9625L48.7953 17.1963C48.7081 17.1103 48.6048 17.0423 48.4913 16.9962C48.3779 16.95 48.2564 16.9267 48.1339 16.9276C48.0114 16.9284 47.8903 16.9534 47.7775 17.0011C47.6646 17.0488 47.5623 17.1182 47.4763 17.2054L26.6902 38.2821C26.554 38.4203 26.4642 38.5975 26.4334 38.7891C26.4026 38.9807 26.4324 39.1771 26.5185 39.351C27.5 41.3264 27.9627 43.5191 27.8631 45.7226C27.7634 47.9261 27.1047 50.0681 25.9488 51.9468C24.793 53.8255 23.1781 55.3791 21.2562 56.4615C19.3342 57.544 17.1685 58.1195 14.9627 58.134C14.9313 58.1345 14.9008 58.1345 14.8694 58.1345C12.3042 58.1341 9.7964 57.3754 7.66127 55.9536C5.52615 54.5319 3.85901 52.5107 2.86948 50.1441C1.87995 47.7774 1.6122 45.1711 2.09989 42.6527C2.58758 40.1343 3.80895 37.8164 5.61042 35.9902Z" fill="white"/>
<path d="M14.872 52.7824L14.9271 52.782C16.9316 52.758 18.8446 51.9398 20.2464 50.5068C21.6481 49.0738 22.424 47.1432 22.4037 45.1387C22.3834 43.1342 21.5686 41.2197 20.1382 39.8153C18.7078 38.411 16.7786 37.6316 14.774 37.6482C12.7695 37.6648 10.8535 38.4761 9.44657 39.904C8.03963 41.3319 7.25671 43.2597 7.26969 45.2642C7.28267 47.2688 8.09047 49.1862 9.51578 50.5958C10.9411 52.0053 12.8675 52.7917 14.872 52.7824ZM10.751 41.0586C11.4198 40.3805 12.2455 39.8778 13.1549 39.595C14.0644 39.3123 15.0295 39.2582 15.9649 39.4375C16.9002 39.6168 17.7769 40.0241 18.5173 40.6232C19.2577 41.2223 19.8389 41.9947 20.2094 42.8721C20.5799 43.7494 20.7284 44.7046 20.6416 45.653C20.5548 46.6015 20.2354 47.5139 19.7118 48.3094C19.1881 49.1049 18.4764 49.759 17.6396 50.2137C16.8028 50.6685 15.8667 50.9098 14.9143 50.9164C14.1519 50.9347 13.3938 50.7961 12.6872 50.5092C11.9806 50.2223 11.3405 49.7932 10.8066 49.2485C9.71322 48.1698 9.09311 46.701 9.08269 45.1651C9.07227 43.6292 9.67239 42.152 10.751 41.0586Z" fill="white"/>
</svg>
