<svg width="45" height="60" viewBox="0 0 45 60" fill="none" xmlns="http://www.w3.org/2000/svg">
<path d="M17.8472 56.4653L19.0904 57.7229C19.3258 57.9588 19.5494 58.1788 19.7495 58.3717L20.6694 59.2531C20.7676 59.3478 20.8733 59.4345 20.9854 59.5125C21.0386 59.555 21.0956 59.5928 21.1556 59.6252C21.2461 59.6838 21.3401 59.7367 21.4372 59.7836C21.495 59.8095 21.5543 59.8322 21.6146 59.8515C21.6886 59.8819 21.7645 59.9073 21.8419 59.9276C21.9208 59.9487 22.0014 59.9633 22.0827 59.971C22.1461 59.9814 22.2095 59.9896 22.2774 59.9941C22.3127 59.9977 22.3489 60 22.3815 60C22.4543 59.999 22.5268 59.9933 22.5988 59.9828C22.6359 59.9796 22.7527 59.9656 22.789 59.9584C22.8757 59.9392 22.9612 59.9152 23.0452 59.8864C23.0787 59.8769 23.1729 59.8443 23.2055 59.8307C23.293 59.7932 23.3777 59.7495 23.459 59.6999C23.5128 59.6724 23.5651 59.642 23.6156 59.6089C23.7325 59.528 23.8436 59.4389 23.9479 59.3422L24.1661 59.1335C24.1797 59.1222 24.2476 59.0597 24.2602 59.048L24.5427 58.7768C24.8524 58.4803 25.2019 58.1408 25.5975 57.7474C25.9778 57.3703 26.3898 56.9542 26.8669 56.4635C33.5316 49.5942 44.7123 36.1291 44.7123 23.1257C44.7123 10.5905 34.4749 0 22.3571 0C10.2383 0 0 10.5905 0 23.1257C0 36.1287 11.1799 49.5942 17.8445 56.4635L17.8472 56.4653ZM22.3571 1.85428C33.47 1.85428 42.858 11.5955 42.858 23.1258C42.858 35.4736 32.0059 48.5041 25.5821 55.129C25.5667 55.1425 25.5142 55.1946 25.4997 55.2095C25.0678 55.6532 24.6649 56.0611 24.2792 56.444C23.9035 56.8162 23.563 57.1475 23.2108 57.4857L23.008 57.6808C22.9972 57.6899 22.932 57.7505 22.922 57.76L22.6839 57.9855C22.645 58.0213 22.5952 58.0602 22.6296 58.0412C22.6088 58.0525 22.5499 58.0937 22.53 58.105C22.5209 58.1077 22.4322 58.1335 22.4232 58.1367L22.4023 58.1412L22.3752 58.1403C22.367 58.1389 22.2783 58.1177 22.2692 58.1163C22.2529 58.1104 22.166 58.0647 22.1497 58.0593L22.0863 58.0222C22.0331 57.9851 21.9828 57.944 21.936 57.8991L21.1375 57.1349L21.0497 57.0498C20.8459 56.8524 20.6298 56.6398 20.4014 56.4119L20.0238 56.0348L19.3692 56.6912L19.9514 55.9615L19.6463 55.6518L19.5793 55.5857L19.1755 55.1724C12.7064 48.5046 1.85424 35.4745 1.85424 23.1258C1.85424 11.5955 11.2432 1.85428 22.3571 1.85428Z" fill="white"/>
<path d="M34.8151 22.645C34.8151 20.1809 34.0844 17.7722 32.7154 15.7234C31.3464 13.6746 29.4006 12.0778 27.1241 11.1349C24.8476 10.192 22.3426 9.94532 19.9259 10.4261C17.5092 10.9069 15.2894 12.0935 13.5471 13.8359C11.8048 15.5784 10.6183 17.7983 10.1377 20.215C9.65711 22.6318 9.90396 25.1368 10.847 27.4132C11.7901 29.6896 13.3871 31.6353 15.436 33.0041C17.4848 34.373 19.8936 35.1035 22.3577 35.1033C25.6605 35.0994 28.827 33.7855 31.1624 31.4499C33.4978 29.1144 34.8114 25.9478 34.8151 22.645ZM11.7527 22.645C11.7527 20.5477 12.3746 18.4976 13.5397 16.7538C14.7049 15.01 16.361 13.6508 18.2985 12.8482C20.2361 12.0456 22.3682 11.8355 24.4252 12.2446C26.4821 12.6537 28.3716 13.6635 29.8546 15.1464C31.3377 16.6294 32.3477 18.5187 32.7569 20.5756C33.1662 22.6326 32.9563 24.7647 32.1539 26.7023C31.3514 28.64 29.9924 30.2962 28.2487 31.4615C26.505 32.6268 24.4549 33.2488 22.3577 33.249C19.5462 33.2459 16.8507 32.1277 14.8626 30.1398C12.8745 28.1518 11.7561 25.4565 11.7527 22.645Z" fill="white"/>
</svg>
