<svg width="301" height="74" viewBox="0 0 301 74" fill="none" xmlns="http://www.w3.org/2000/svg">
<path d="M296.524 34.1557C295.754 34.1557 295.065 33.9713 294.457 33.6024C293.86 33.2335 293.388 32.7321 293.041 32.0981C292.694 31.4525 292.521 30.7205 292.521 29.9021C292.521 29.0836 292.694 28.3574 293.041 27.7234C293.388 27.0778 293.86 26.5706 294.457 26.2018C295.065 25.8329 295.754 25.6484 296.524 25.6484C297.294 25.6484 297.978 25.8329 298.574 26.2018C299.182 26.5706 299.659 27.0778 300.007 27.7234C300.354 28.3574 300.527 29.0836 300.527 29.9021C300.527 30.7205 300.354 31.4525 300.007 32.0981C299.659 32.7321 299.182 33.2335 298.574 33.6024C297.978 33.9713 297.294 34.1557 296.524 34.1557ZM296.524 33.1701C297.468 33.1701 298.206 32.8762 298.737 32.2883C299.28 31.7004 299.551 30.905 299.551 29.9021C299.551 28.8992 299.28 28.1038 298.737 27.5159C298.206 26.928 297.468 26.634 296.524 26.634C295.58 26.634 294.837 26.928 294.294 27.5159C293.763 28.1038 293.497 28.8992 293.497 29.9021C293.497 30.905 293.763 31.7004 294.294 32.2883C294.837 32.8762 295.58 33.1701 296.524 33.1701ZM294.962 31.977V27.8271H296.866C297.365 27.8271 297.734 27.9366 297.972 28.1557C298.211 28.3747 298.33 28.6744 298.33 29.0548C298.33 29.3084 298.265 29.5332 298.135 29.7292C298.016 29.9251 297.831 30.0692 297.582 30.1614L298.444 31.8906V31.977H297.386L296.589 30.3171H295.938V31.977H294.962ZM295.938 29.539H296.735C296.887 29.539 297.018 29.5101 297.126 29.4525C297.245 29.3949 297.305 29.2738 297.305 29.0894C297.305 28.8934 297.245 28.7666 297.126 28.709C297.007 28.6398 296.877 28.6052 296.735 28.6052H295.938V29.539Z" fill="#787B8A"/>
<path d="M97.1644 50.368C94.5923 48.8653 92.5872 46.7018 91.0869 43.8773C89.5865 41.0529 88.8467 37.811 88.8467 34.1865C88.8467 30.5621 89.5934 27.2715 91.0454 24.5027C92.4973 21.727 94.5024 19.5634 97.0745 18.0608C99.6465 16.5581 102.544 15.7998 105.766 15.7998C108.476 15.7998 110.951 16.3146 113.198 17.3512C115.438 18.3877 117.312 19.8417 118.806 21.727C120.299 23.6053 121.378 25.8175 121.986 28.3081H115.673C114.878 26.0054 113.661 24.1688 112.03 22.8053C110.391 21.4417 108.289 20.7391 105.717 20.7391C103.567 20.7391 101.7 21.3026 100.061 22.4296C98.4227 23.5566 97.1644 25.1567 96.2724 27.1811C95.3874 29.2055 94.9657 31.5569 94.9657 34.2352C94.9657 36.9136 95.4358 39.265 96.3692 41.2894C97.3026 43.3138 98.5679 44.9139 100.2 46.0409C101.831 47.1679 103.657 47.7314 105.717 47.7314C108.289 47.7314 110.439 47.0705 112.168 45.7556C113.896 44.4408 115.162 42.5555 115.998 40.1137H122.263C121.094 44.253 119.082 47.3557 116.233 49.4705C113.385 51.5854 109.879 52.622 105.717 52.622C102.537 52.622 99.688 51.8706 97.116 50.368H97.1644Z" fill="#E1E0E6"/>
<path d="M141.304 27.4658C142.942 28.3563 144.152 29.532 144.947 30.9929C145.742 32.4538 146.116 34.0956 146.116 35.8835V52.058H140.322V47.0282C139.762 48.2526 139.105 49.2405 138.407 50.0405C137.708 50.8405 136.816 51.4527 135.745 51.9188C134.673 52.3919 133.359 52.6215 131.817 52.6215C130.276 52.6215 128.782 52.2458 127.468 51.5432C126.162 50.8405 125.131 49.8527 124.385 48.5796C123.638 47.3065 123.265 45.9012 123.265 44.3499C123.265 42.5133 123.776 41.0593 124.806 39.9741C125.837 38.8958 127.095 38.1375 128.595 37.6714C130.096 37.2053 131.817 36.8714 133.74 36.6835L140.425 35.9809V35.5565C140.425 34.5687 140.239 33.6782 139.865 32.8782C139.492 32.0781 138.932 31.4173 138.137 30.9512C137.342 30.485 136.408 30.2485 135.288 30.2485C133.795 30.2485 132.626 30.6242 131.734 31.3755C130.849 32.1268 130.331 33.066 130.144 34.2H124.253C124.44 32.5512 125.048 31.0972 126.03 29.8729C127.012 28.6485 128.319 27.7093 129.909 27.0484C131.499 26.3875 133.318 26.0605 135.33 26.0605C137.805 26.0605 139.865 26.4849 141.497 27.3754L141.31 27.4728L141.304 27.4658ZM137.376 47.877C138.31 47.2161 139.015 46.3256 139.478 45.1986C139.948 44.0716 140.177 42.7568 140.177 41.2959V39.7932L135.641 40.2663C134.237 40.4054 133.117 40.5932 132.232 40.8298C131.347 41.0663 130.594 41.442 129.992 42.0055C129.384 42.569 129.059 43.369 129.059 44.4055C129.059 45.3447 129.294 46.1447 129.716 46.8056C130.137 47.4665 130.746 47.9813 131.492 48.357C132.239 48.7326 133.083 48.9205 133.968 48.9205C135.323 48.9205 136.491 48.5935 137.425 47.9326L137.376 47.8839V47.877Z" fill="#E1E0E6"/>
<path d="M190.013 41.15C190.248 43.5501 190.946 45.3797 192.115 46.6528C193.283 47.9259 194.777 48.5311 196.602 48.5311C198.144 48.5311 199.361 48.2042 200.246 47.5433C201.131 46.8824 201.836 45.8945 202.299 44.6284H208.232C207.436 47.3068 206.033 49.3312 204.028 50.6947C202.016 52.0582 199.492 52.7191 196.505 52.7191C193.982 52.7191 191.783 52.1556 189.916 51.0286C188.049 49.9016 186.597 48.3503 185.616 46.3259C184.634 44.3014 184.122 41.9987 184.122 39.4108C184.122 36.8229 184.634 34.5202 185.664 32.4958C186.694 30.4714 188.139 28.92 190.013 27.793C191.88 26.666 194.078 26.1025 196.554 26.1025C199.029 26.1025 201.179 26.6173 203.053 27.7026C204.92 28.7809 206.372 30.2905 207.402 32.2662C208.432 34.242 208.944 36.5446 208.944 39.1326C208.944 39.7448 208.895 40.357 208.805 41.0109L190.02 41.15H190.013ZM192.212 32.0297C191.091 33.1567 190.386 34.8541 190.061 37.0594H202.776C202.68 35.6959 202.355 34.5202 201.795 33.5324C201.234 32.5445 200.488 31.7445 199.554 31.181C198.621 30.6175 197.591 30.3323 196.422 30.3323C194.694 30.3323 193.29 30.8957 192.17 32.0227H192.218L192.212 32.0297Z" fill="#E1E0E6"/>
<path d="M216.557 50.9314C214.642 49.8044 213.19 48.253 212.167 46.2286C211.144 44.2042 210.625 41.9015 210.625 39.3136C210.625 36.7256 211.137 34.423 212.167 32.3985C213.197 30.3741 214.69 28.8228 216.606 27.7445C218.521 26.6662 220.72 26.0957 223.195 26.0957C225.297 26.0957 227.212 26.4714 228.899 27.2714C230.579 28.0714 231.934 29.1497 232.964 30.5619C233.995 31.9742 234.693 33.616 235.066 35.5012H229.134C228.809 33.9499 228.152 32.6768 227.122 31.6889C226.092 30.7011 224.785 30.235 223.195 30.235C221.791 30.235 220.574 30.6106 219.6 31.362C218.618 32.1133 217.871 33.1499 217.352 34.5134C216.841 35.8769 216.557 37.477 216.557 39.3066C216.557 41.1362 216.841 42.785 217.352 44.1485C217.864 45.512 218.618 46.5486 219.6 47.2999C220.581 48.0513 221.798 48.4269 223.195 48.4269C226.375 48.4269 228.429 46.6877 229.411 43.2511H235.301C234.88 45.2268 234.133 46.9173 233.013 48.3295C231.893 49.7417 230.489 50.7713 228.809 51.4809C227.129 52.1836 225.255 52.5592 223.25 52.5592C220.727 52.5592 218.528 51.9957 216.613 50.8687L216.564 50.9174L216.557 50.9314Z" fill="#E1E0E6"/>
<path d="M245.078 44.3423V44.4397C245.078 45.6154 245.361 46.4154 245.921 46.8815C246.481 47.3546 247.325 47.5841 248.493 47.5841H251.155V51.9599H247.512C245.921 51.9599 244.518 51.6747 243.259 51.1599C242.001 50.6451 241.019 49.8451 240.314 48.7598C239.616 47.6815 239.235 46.318 239.235 44.718V44.6275" fill="#E1E0E6"/>
<path d="M253.727 51.9605V16.2236H259.569V51.9605H253.727Z" fill="#E1E0E6"/>
<path d="M281.39 26.6172H287.509L276.716 61.1784H270.687L274.38 49.2336H269.194L261.111 26.6172H267.002L274.67 48.3919L281.397 26.6172H281.39Z" fill="#E1E0E6"/>
<path d="M150.894 32.6138C154.116 32.6138 156.736 35.2504 156.736 38.4922V52.0858H150.894V32.6207V32.6138Z" fill="#E1E0E6"/>
<path d="M165.378 26.7354V32.6138H150.9V31.2503C150.9 28.7598 152.912 26.7354 155.387 26.7354H165.385H165.378Z" fill="#E1E0E6"/>
<path d="M168.179 32.6138C171.401 32.6138 174.021 35.2504 174.021 38.4922V52.0858H168.179V32.6207V32.6138Z" fill="#E1E0E6"/>
<path d="M239.235 30.8193H240.141C242.865 30.8193 245.078 33.0455 245.078 35.7865V44.7329H239.235V30.8193Z" fill="#E1E0E6"/>
<path d="M245.078 15.6392H239.235V30.8188H245.078V15.6392Z" fill="#E1E0E6"/>
<path d="M250.989 30.8189V24.9404H239.235V30.8189H250.989Z" fill="#E1E0E6"/>
<path d="M182.665 26.7354V32.6138H168.187V31.2503C168.187 28.7598 170.199 26.7354 172.674 26.7354H182.672H182.665Z" fill="#E1E0E6"/>
<rect x="0.527344" width="73.1384" height="73.1384" fill="#725DF2"/>
<path d="M29.0899 11.9595L12.4863 26.9782V44.58H29.0899V11.9595Z" fill="#090A0E"/>
<path d="M29.0791 44.5742L44.0978 61.1777H61.6996V44.5742H29.0791Z" fill="#090A0E"/>
<path d="M29.085 11.9595L44.1037 28.563H61.7055V11.9595H29.085Z" fill="#090A0E"/>
</svg>
