<svg width="44" height="58" viewBox="0 0 44 58" fill="none" xmlns="http://www.w3.org/2000/svg">
<g id="Group">
<g id="Group_2">
<path id="Vector" fill-rule="evenodd" clip-rule="evenodd" d="M2.24842 5.34499C1.73357 5.34499 1.31549 5.76395 1.31549 6.27858L1.31553 55.1959C1.31553 55.7097 1.73342 56.1289 2.24838 56.1289L37.6208 56.1288C37.8697 56.1288 38.1036 56.0318 38.2806 55.8548C38.4565 55.6789 38.5524 55.4449 38.5524 55.196L38.5526 6.27851C38.5526 5.76388 38.1333 5.34506 37.6183 5.34506L2.24842 5.34499ZM37.6208 57.4443H2.24842C1.00852 57.4443 0 56.435 0 55.196L7.37608e-05 6.27855C7.37608e-05 5.0385 1.00829 4.02965 2.24838 4.02965L37.6184 4.02954C38.8586 4.02954 39.8678 5.03854 39.8678 6.27859L39.868 55.1959C39.8691 55.7943 39.6349 56.3596 39.2112 56.7844C38.7866 57.2102 38.2213 57.4444 37.6208 57.4443Z" fill="#FF861D"/>
<path id="Vector_2" fill-rule="evenodd" clip-rule="evenodd" d="M41.6404 53.4145H39.2117C38.8487 53.4145 38.5539 53.12 38.5539 52.7569C38.554 52.3937 38.8485 52.0992 39.2116 52.0992H41.6404C42.1612 52.0992 42.5836 51.6767 42.5836 51.1571V2.25812C42.5836 1.73832 42.1611 1.31557 41.6404 1.31557L6.28893 1.31545C5.76943 1.31545 5.3467 1.7384 5.3467 2.2582L5.34678 4.68732C5.34678 5.05062 5.05209 5.34504 4.68898 5.34504C4.32601 5.34493 4.03125 5.05065 4.03125 4.68743L4.03132 2.25812C4.03132 1.01305 5.04409 0.000110921 6.28878 0.000110921L41.6404 0C42.8862 0 43.8991 1.01305 43.8991 2.2582V51.157C43.8991 52.4017 42.8862 53.4146 41.6404 53.4145Z" fill="#FF861D"/>
<path id="Vector_3" fill-rule="evenodd" clip-rule="evenodd" d="M34.3053 33.7579H14.5758C14.2127 33.7579 13.918 33.4637 13.918 33.1003C13.918 32.7371 14.2126 32.4427 14.5757 32.4427L34.3053 32.4426C34.6686 32.4426 34.9629 32.7371 34.9629 33.1003C34.963 33.4637 34.6684 33.758 34.3053 33.7579Z" fill="#FF861D"/>
<path id="Vector_4" fill-rule="evenodd" clip-rule="evenodd" d="M34.3053 37.6492H14.5758C14.2127 37.6492 13.918 37.3548 13.918 36.9915C13.918 36.6282 14.2126 36.3338 14.5757 36.3338L34.3053 36.3337C34.6686 36.3337 34.9629 36.6283 34.9629 36.9915C34.963 37.3548 34.6684 37.6493 34.3053 37.6492Z" fill="#FF861D"/>
<path id="Vector_5" fill-rule="evenodd" clip-rule="evenodd" d="M5.34689 37.6744H10.6041V32.4161H5.34689V37.6744ZM10.7834 38.9898H5.16759C4.54068 38.9898 4.03125 38.4798 4.03125 37.853L4.03143 32.2376C4.03143 31.6108 4.54053 31.1008 5.16743 31.1008H10.7834C11.4103 31.1008 11.9194 31.6108 11.9194 32.2376L11.9195 37.853C11.9172 38.4812 11.4067 38.9898 10.7834 38.9898Z" fill="#FF861D"/>
<path id="Vector_6" fill-rule="evenodd" clip-rule="evenodd" d="M7.33418 36.7889C7.15945 36.7889 6.99273 36.7196 6.86938 36.5963L5.97326 35.7009C5.71733 35.4441 5.71725 35.0275 5.973 34.7707C6.23018 34.5137 6.64674 34.5138 6.90367 34.7707L7.33418 35.201L9.04015 33.4954C9.29707 33.2385 9.71271 33.2385 9.96964 33.4954C10.2266 33.7522 10.2266 34.1687 9.96964 34.4255L7.79896 36.5962C7.67564 36.7196 7.50884 36.789 7.33418 36.7889Z" fill="#FF861D"/>
<path id="Vector_7" fill-rule="evenodd" clip-rule="evenodd" d="M34.3053 45.5906H14.5758C14.2127 45.5906 13.918 45.2962 13.918 44.933C13.918 44.5697 14.2126 44.2752 14.5757 44.2752L34.3053 44.2751C34.6686 44.2751 34.9629 44.5698 34.9629 44.933C34.963 45.2961 34.6684 45.5907 34.3053 45.5906Z" fill="#FF861D"/>
<path id="Vector_8" fill-rule="evenodd" clip-rule="evenodd" d="M34.3053 49.482H14.5758C14.2127 49.482 13.918 49.1875 13.918 48.8243C13.918 48.4611 14.2126 48.1666 14.5757 48.1666L34.3053 48.1665C34.6686 48.1665 34.9629 48.4612 34.9629 48.8243C34.963 49.1874 34.6684 49.4821 34.3053 49.482Z" fill="#FF861D"/>
<path id="Vector_9" fill-rule="evenodd" clip-rule="evenodd" d="M5.34689 49.507H10.6041V44.2487H5.34689V49.507ZM10.7834 50.8225H5.16759C4.54068 50.8225 4.03125 50.3121 4.03125 49.6852L4.03143 44.0701C4.03143 43.4433 4.54053 42.9335 5.16743 42.9335L10.7834 42.9333C11.4103 42.9333 11.9194 43.4434 11.9194 44.0702L11.9195 49.6851C11.9172 50.3143 11.4067 50.8225 10.7834 50.8225Z" fill="#FF861D"/>
<path id="Vector_10" fill-rule="evenodd" clip-rule="evenodd" d="M7.33418 48.6222C7.15945 48.6222 6.99273 48.5526 6.86938 48.4293L5.97326 47.534C5.71733 47.2771 5.71725 46.8603 5.973 46.6034C6.23018 46.3464 6.64674 46.3464 6.90367 46.6034L7.33418 47.0338L9.04015 45.3282C9.29707 45.0712 9.71271 45.0713 9.96964 45.3282C10.2266 45.585 10.2266 46.0016 9.96964 46.2585L7.79896 48.4292C7.67564 48.5526 7.50884 48.6222 7.33418 48.6222Z" fill="#FF861D"/>
<path id="Vector_11" fill-rule="evenodd" clip-rule="evenodd" d="M8.56694 23.8978H6.25793C4.9882 23.8978 4.03125 22.8804 4.03125 21.5313C4.03143 21.5237 4.03125 21.5161 4.03125 21.5085L4.12397 18.8339C4.19919 16.6589 5.92109 14.8689 8.04611 14.759C8.11705 14.7547 8.19571 14.7531 8.27447 14.7531L11.8214 14.7529L18.1405 11.0411C18.1484 11.0365 18.1564 11.0319 18.1656 11.0276C18.6281 10.7816 19.1475 10.6517 19.6694 10.6517L24.8148 10.6516C25.2866 10.6516 25.7614 10.759 26.1884 10.9621C26.1953 10.965 26.2021 10.9684 26.2078 10.9717L34.7344 15.3754C35.4071 15.7021 35.8408 16.3935 35.8408 17.1402L35.841 21.53C35.841 22.8348 34.78 23.8964 33.4748 23.8964L31.167 23.8963C30.804 23.8963 30.5093 23.6019 30.5093 23.2387C30.5093 22.8754 30.8039 22.581 31.167 22.581L33.475 22.5809C34.0539 22.5809 34.5253 22.1096 34.5253 21.5301L34.5256 17.1401C34.5256 16.8933 34.3803 16.6646 34.1565 16.5574C34.1509 16.5546 34.1451 16.5517 34.1393 16.5487L25.6154 12.1459C25.3618 12.0272 25.0933 11.9671 24.8147 11.9671L19.6694 11.9671C19.367 11.9671 19.0642 12.0418 18.7947 12.1829L12.3329 15.9778C12.2312 16.0371 12.1169 16.0684 11.9993 16.0684L8.27453 16.0683C8.22212 16.0683 8.17056 16.0694 8.11922 16.0724C6.66565 16.1476 5.49056 17.3805 5.43808 18.8794L5.34687 21.5416C5.3502 22.0448 5.63562 22.5823 6.25787 22.5823H8.56693C8.92993 22.5823 9.22455 22.8768 9.22455 23.24C9.22466 23.6032 8.92991 23.8978 8.56694 23.8978Z" fill="#FF861D"/>
<path id="Vector_12" fill-rule="evenodd" clip-rule="evenodd" d="M26.5601 23.8977H13.1656C12.8026 23.8977 12.5078 23.6033 12.5078 23.24C12.5079 22.8767 12.8024 22.5823 13.1655 22.5823H26.5601C26.9231 22.5823 27.2176 22.8768 27.2176 23.24C27.2178 23.6032 26.923 23.8977 26.5601 23.8977Z" fill="#FF861D"/>
<path id="Vector_13" fill-rule="evenodd" clip-rule="evenodd" d="M19.6695 16.0681C19.3064 16.0681 19.0117 15.7737 19.0117 15.4105L19.0118 11.3105C19.0118 10.9472 19.3063 10.6528 19.6694 10.6528C20.0328 10.6528 20.3272 10.9473 20.3272 11.3105L20.3272 15.4104C20.3272 15.7737 20.0326 16.0682 19.6695 16.0681Z" fill="#FF861D"/>
<path id="Vector_14" fill-rule="evenodd" clip-rule="evenodd" d="M24.8142 16.0681C24.4509 16.0681 24.1562 15.7737 24.1562 15.4105L24.1565 11.3105C24.1565 10.9472 24.4509 10.6528 24.814 10.6528C25.1772 10.6528 25.4717 10.9473 25.4717 11.3105L25.4719 15.4104C25.4719 15.7737 25.1771 16.0682 24.8142 16.0681Z" fill="#FF861D"/>
<path id="Vector_15" fill-rule="evenodd" clip-rule="evenodd" d="M33.3659 16.0681H11.9977C11.6346 16.0681 11.3398 15.7737 11.3398 15.4105C11.34 15.0473 11.6345 14.7528 11.9976 14.7528L33.3658 14.7527C33.7288 14.7527 34.0234 15.0473 34.0234 15.4105C34.0236 15.7737 33.7288 16.0683 33.3659 16.0681Z" fill="#FF861D"/>
<path id="Vector_16" fill-rule="evenodd" clip-rule="evenodd" d="M5.43686 21.1108H4.72413C4.36106 21.1108 4.06641 20.8164 4.06641 20.4531C4.06641 20.0898 4.36098 19.7954 4.72413 19.7954H5.43686C6.17549 19.7954 6.77722 19.194 6.77722 18.4547L6.77744 18.1961H5.07584C4.71283 18.1961 4.41804 17.9016 4.41804 17.5383C4.41811 17.175 4.71269 16.8806 5.07577 16.8806H7.43516C7.79821 16.8806 8.09267 17.1751 8.09267 17.5383L8.09289 18.4547C8.09289 19.9193 6.90054 21.1108 5.43686 21.1108Z" fill="#FF861D"/>
<path id="Vector_17" fill-rule="evenodd" clip-rule="evenodd" d="M35.1831 21.1121H33.1848C32.5337 21.1121 32.0039 20.5823 32.0039 19.931L32.0039 18.0618C32.0039 17.4104 32.5337 16.8806 33.1846 16.8806H35.1831C35.5462 16.8806 35.8406 17.1751 35.8406 17.5383C35.8409 17.9015 35.546 18.1961 35.1829 18.1961H33.3194V19.7967H35.1831C35.5462 19.7967 35.8406 20.0913 35.8406 20.4545C35.8409 20.8177 35.546 21.1122 35.1831 21.1121Z" fill="#FF861D"/>
<path id="Vector_18" fill-rule="evenodd" clip-rule="evenodd" d="M10.8662 21.5466C9.95956 21.5466 9.2217 22.2845 9.2217 23.1916C9.22193 24.0985 9.95938 24.8364 10.866 24.8364C11.7729 24.8363 12.5115 24.0986 12.5115 23.1916C12.5116 22.2844 11.7727 21.5467 10.8662 21.5466ZM10.8662 26.1517C9.23451 26.1517 7.90625 24.8239 7.90625 23.1916C7.90647 21.5592 9.23429 20.2312 10.866 20.2312C12.499 20.2311 13.8269 21.5592 13.8269 23.1916C13.8271 24.8239 12.4989 26.1518 10.8662 26.1517Z" fill="#FF861D"/>
<path id="Vector_19" fill-rule="evenodd" clip-rule="evenodd" d="M28.8634 21.5466C27.9557 21.5466 27.2178 22.2845 27.2178 23.1916C27.218 24.0985 27.9554 24.8364 28.8633 24.8364C29.7701 24.8363 30.5076 24.0986 30.5076 23.1916C30.5077 22.2844 29.7699 21.5467 28.8634 21.5466ZM28.8634 26.1517C27.2304 26.1517 25.9023 24.8239 25.9023 23.1916C25.9026 21.5592 27.2304 20.2312 28.8633 20.2312C30.4951 20.2311 31.823 21.5592 31.823 23.1916C31.8231 24.8239 30.495 26.1518 28.8634 26.1517Z" fill="#FF861D"/>
<path id="Vector_20" fill-rule="evenodd" clip-rule="evenodd" d="M20.2925 18.3003H19.0447C18.6814 18.3003 18.3867 18.0059 18.3867 17.6427C18.3869 17.2794 18.6814 16.9849 19.0444 16.9849L20.2925 16.9849C20.6558 16.9849 20.9502 17.2794 20.9502 17.6427C20.9502 18.0059 20.6557 18.3004 20.2925 18.3003Z" fill="#FF861D"/>
</g>
</g>
</svg>
