<svg width="67" height="60" viewBox="0 0 67 60" fill="none" xmlns="http://www.w3.org/2000/svg">
<path id="Vector" d="M57.9037 20.0363H9.80488C9.62919 20.0363 9.4607 20.1061 9.33647 20.2303C9.21224 20.3546 9.14245 20.5231 9.14245 20.6988V52.8526C9.14245 53.0283 9.21224 53.1968 9.33647 53.321C9.4607 53.4453 9.62919 53.515 9.80488 53.515H57.9037C58.0794 53.515 58.2479 53.4453 58.3721 53.321C58.4964 53.1968 58.5662 53.0283 58.5662 52.8526V20.7003C58.5664 20.6132 58.5494 20.5269 58.5162 20.4463C58.483 20.3658 58.4342 20.2926 58.3727 20.2309C58.3112 20.1692 58.2381 20.1203 58.1576 20.0869C58.0771 20.0535 57.9909 20.0363 57.9037 20.0363ZM57.2405 52.1886H10.4673V21.3596H57.2405V52.1886ZM64.4214 3.99403H60.4515V0.662429C60.4515 0.486742 60.3817 0.318251 60.2575 0.194021C60.1332 0.069792 59.9647 4.57393e-07 59.7891 4.57393e-07H50.0589C49.9718 -0.000101842 49.8856 0.0169569 49.8052 0.0502012C49.7247 0.0834456 49.6516 0.132224 49.59 0.193746C49.5284 0.255268 49.4795 0.328329 49.4462 0.408749C49.4129 0.489169 49.3957 0.575372 49.3957 0.662429V3.99403H17.3345V0.662429C17.3345 0.575372 17.3173 0.489169 17.284 0.408749C17.2506 0.328329 17.2018 0.255268 17.1402 0.193746C17.0786 0.132224 17.0054 0.0834456 16.925 0.0502012C16.8445 0.0169569 16.7583 -0.000101842 16.6713 4.57393e-07H6.9411C6.76541 4.57393e-07 6.59692 0.069792 6.47269 0.194021C6.34846 0.318251 6.27867 0.486742 6.27867 0.662429V3.99403H2.3041C1.69348 3.99424 1.1079 4.23674 0.675908 4.66829C0.243917 5.09984 0.000824846 5.68518 0 6.2958V12.576C0.000618762 13.1868 0.24362 13.7723 0.675633 14.204C1.10765 14.6358 1.69335 14.8784 2.3041 14.8786H2.65983V56.6871C2.66066 57.5651 3.00964 58.4069 3.63025 59.0279C4.25086 59.649 5.09244 59.9986 5.97042 60H61.7374C62.6157 59.999 63.4578 59.6496 64.0789 59.0285C64.6999 58.4075 65.0493 57.5654 65.0503 56.6871V14.7891C65.5321 14.6522 65.9561 14.3622 66.2584 13.963C66.5606 13.5637 66.7246 13.0768 66.7255 12.576V6.2958C66.7247 5.68518 66.4816 5.09984 66.0496 4.66829C65.6176 4.23674 65.032 3.99424 64.4214 3.99403ZM50.7167 1.32486H59.1282V3.99403H50.7213L50.7167 1.32486ZM7.60042 1.32486H16.0073V3.99403H7.5973L7.60042 1.32486ZM61.7374 58.6751H5.97042C5.44341 58.6745 4.93818 58.4648 4.56561 58.0921C4.19303 57.7194 3.98355 57.2141 3.98313 56.6871V14.8786H63.7255V56.6871C63.7249 57.2142 63.5152 57.7195 63.1425 58.0922C62.7698 58.4649 62.2645 58.6745 61.7374 58.6751ZM65.396 12.576C65.3958 12.8347 65.2931 13.0827 65.1104 13.2658C64.9278 13.4488 64.68 13.5521 64.4214 13.5529H2.3041C2.04507 13.5527 1.79671 13.4497 1.61355 13.2666C1.43039 13.0834 1.3274 12.8351 1.32719 12.576V6.2958C1.3274 6.03677 1.43039 5.78841 1.61355 5.60525C1.79671 5.42209 2.04507 5.3191 2.3041 5.31889H64.4214C64.6804 5.3191 64.9288 5.42209 65.1119 5.60525C65.2951 5.78841 65.3981 6.03677 65.3983 6.2958L65.396 12.576ZM15.0685 9.46238C15.0685 9.63806 14.9987 9.80656 14.8745 9.93079C14.7503 10.055 14.5818 10.1248 14.4061 10.1248H12.46V12.0708C12.4518 12.2408 12.3785 12.401 12.2553 12.5184C12.1321 12.6357 11.9685 12.7012 11.7984 12.7012C11.6283 12.7012 11.4647 12.6357 11.3415 12.5184C11.2183 12.401 11.145 12.2408 11.1367 12.0708V10.1248H9.19071C9.02078 10.1166 8.86054 10.0433 8.74319 9.92007C8.62584 9.79689 8.56039 9.63329 8.56039 9.46316C8.56039 9.29303 8.62584 9.12942 8.74319 9.00624C8.86054 8.88306 9.02078 8.80975 9.19071 8.80151H11.1367V6.85548C11.145 6.68555 11.2183 6.5253 11.3415 6.40796C11.4647 6.29061 11.6283 6.22515 11.7984 6.22515C11.9685 6.22515 12.1321 6.29061 12.2553 6.40796C12.3785 6.5253 12.4518 6.68555 12.46 6.85548V8.80151H14.4061C14.4933 8.8013 14.5796 8.81831 14.6602 8.85156C14.7408 8.8848 14.8141 8.93364 14.8758 8.99525C14.9374 9.05687 14.9864 9.13005 15.0197 9.21061C15.0531 9.29117 15.0702 9.37752 15.0701 9.46471L15.0685 9.46238ZM58.1847 9.46238C58.1847 9.63806 58.115 9.80656 57.9907 9.93079C57.8665 10.055 57.698 10.1248 57.5223 10.1248H52.3155C52.1456 10.1166 51.9853 10.0433 51.868 9.92007C51.7506 9.79689 51.6852 9.63329 51.6852 9.46316C51.6852 9.29303 51.7506 9.12942 51.868 9.00624C51.9853 8.88306 52.1456 8.80975 52.3155 8.80151H57.5262C57.6133 8.80151 57.6995 8.81867 57.7799 8.85201C57.8603 8.88534 57.9334 8.93421 57.9949 8.9958C58.0564 9.0574 58.1052 9.13051 58.1384 9.21097C58.1717 9.29143 58.1887 9.37766 58.1886 9.46471L58.1847 9.46238ZM21.9473 48.8181C22.1278 48.9274 22.341 48.9693 22.5494 48.9365C22.7578 48.9038 22.9479 48.7984 23.0861 48.6391C23.097 48.6266 23.1072 48.6142 23.1173 48.6009L31.9912 36.7691C32.098 36.6372 32.1652 36.4777 32.1849 36.3092C32.2047 36.1407 32.1763 35.97 32.1029 35.817C32.0295 35.664 31.9143 35.535 31.7705 35.4449C31.6267 35.3548 31.4603 35.3073 31.2906 35.308H28.9554L32.3228 25.8044C32.3706 25.6691 32.3853 25.5244 32.3656 25.3823C32.3459 25.2402 32.2924 25.1049 32.2095 24.9878C32.1267 24.8706 32.017 24.7751 31.8896 24.7091C31.7622 24.6432 31.6209 24.6087 31.4774 24.6087H25.089C24.8839 24.6094 24.6851 24.6802 24.5257 24.8093C24.3663 24.9384 24.2558 25.1181 24.2125 25.3186L21.6149 37.5163C21.5766 37.6946 21.5787 37.8791 21.6209 38.0565C21.6632 38.2338 21.7446 38.3994 21.8591 38.5412C21.9737 38.683 22.1185 38.7974 22.283 38.876C22.4475 38.9546 22.6275 38.9953 22.8098 38.9953H24.5496L21.5675 47.7478C21.4972 47.9426 21.4967 48.1557 21.5659 48.3509C21.6352 48.5461 21.77 48.7112 21.9473 48.8181ZM25.9951 38.8661C26.0444 38.7307 26.0604 38.5853 26.0415 38.4424C26.0227 38.2995 25.9697 38.1632 25.8869 38.0451C25.8042 37.9271 25.6941 37.8308 25.5662 37.7643C25.4383 37.6979 25.2962 37.6633 25.1521 37.6635H22.9414L25.4401 25.9297H30.8718L27.5441 35.3181C27.4917 35.4664 27.4756 35.625 27.4972 35.7807C27.5188 35.9365 27.5774 36.0848 27.6681 36.2132C27.7589 36.3416 27.8791 36.4464 28.0187 36.5187C28.1583 36.5911 28.3132 36.6289 28.4704 36.629H30.4359L23.6863 45.6329L25.9951 38.8661ZM34.7911 48.8181C34.9715 48.9273 35.1846 48.9692 35.3928 48.9365C35.6011 48.9037 35.7911 48.7984 35.9292 48.6391C35.9401 48.6266 35.9502 48.6142 35.9603 48.6009L44.8342 36.7691C44.9408 36.6375 45.0079 36.4784 45.0278 36.3102C45.0477 36.142 45.0196 35.9716 44.9467 35.8188C44.8739 35.6659 44.7592 35.5368 44.616 35.4464C44.4728 35.356 44.3069 35.308 44.1375 35.308H41.7945L45.1619 25.8044C45.2097 25.6691 45.2244 25.5244 45.2047 25.3823C45.185 25.2402 45.1315 25.1049 45.0487 24.9878C44.9659 24.8706 44.8561 24.7751 44.7288 24.7091C44.6014 24.6432 44.46 24.6087 44.3166 24.6087H37.9297C37.7244 24.6092 37.5255 24.6799 37.3659 24.8091C37.2064 24.9382 37.0957 25.118 37.0524 25.3186L34.4525 37.5125C34.4141 37.6906 34.416 37.8752 34.4581 38.0525C34.5003 38.2298 34.5816 38.3955 34.6961 38.5373C34.8106 38.6792 34.9554 38.7936 35.1199 38.8721C35.2843 38.9507 35.4643 38.9915 35.6466 38.9914H37.3864L34.4074 47.7478C34.3372 47.9427 34.3368 48.1559 34.4062 48.3511C34.4756 48.5462 34.6105 48.7113 34.788 48.8181H34.7911ZM38.8311 38.8661C38.8802 38.7307 38.896 38.5854 38.8771 38.4425C38.8582 38.2997 38.8052 38.1635 38.7224 38.0455C38.6397 37.9275 38.5298 37.8312 38.402 37.7647C38.2741 37.6982 38.1322 37.6635 37.9881 37.6635H35.7758L38.2737 25.9297H43.7078L40.3832 35.3181C40.3308 35.4664 40.3147 35.6251 40.3363 35.7809C40.358 35.9367 40.4166 36.0851 40.5075 36.2135C40.5983 36.3419 40.7186 36.4467 40.8583 36.519C40.998 36.5913 41.153 36.629 41.3103 36.629H43.2766L36.5262 45.6329L38.8311 38.8661Z" fill="#FF861D"/>
</svg>
