<svg width="45" height="60" viewBox="0 0 45 60" fill="none" xmlns="http://www.w3.org/2000/svg">
<path d="M12.3443 53.4028C16.1121 55.83 19.1344 57.8495 21.6357 59.814C21.7893 59.9345 21.979 60 22.1742 60C22.3695 60 22.5591 59.9345 22.7127 59.814C25.2093 57.8529 28.2321 55.8326 32.0024 53.4028C37.0491 50.3049 40.8145 45.4965 42.6121 39.8542C44.2135 34.912 44.3476 30 44.3476 25.3924V8.70481C44.3476 8.50312 44.2777 8.30767 44.1498 8.15173C44.0219 7.99579 43.8439 7.88901 43.6461 7.84957C42.5108 7.62396 41.4142 7.4141 40.3551 7.21105C32.463 5.70073 26.7605 4.60928 22.8187 0.284344C22.737 0.194762 22.6375 0.123206 22.5265 0.0742467C22.4156 0.025287 22.2957 0 22.1744 0C22.0532 0 21.9333 0.025287 21.8223 0.0742467C21.7114 0.123206 21.6119 0.194762 21.5302 0.284344C17.5871 4.60928 11.8851 5.70073 3.99291 7.21105C2.93338 7.4141 1.83683 7.62396 0.701527 7.84957C0.503733 7.88901 0.325724 7.99579 0.197813 8.15173C0.0699012 8.30767 -4.13889e-06 8.50312 1.83794e-10 8.70481V25.3924C1.83794e-10 30 0.134091 34.912 1.73636 39.8541C3.53359 45.4961 7.29832 50.3045 12.3443 53.4028ZM1.74357 9.42122C2.62601 9.24796 3.48504 9.08209 4.32065 8.92359C12.1434 7.42646 17.9008 6.32476 22.1742 2.128C26.4468 6.32483 32.2041 7.42647 40.0273 8.92359C40.8625 9.08365 41.7214 9.24952 42.604 9.42122V25.3924C42.604 29.8604 42.4767 34.6161 40.9536 39.3169C39.2747 44.574 35.7627 49.0529 31.0578 51.9371C27.511 54.2231 24.6142 56.154 22.1742 58.0248C19.7304 56.151 16.834 54.2209 13.2885 51.9371C8.58437 49.0523 5.07321 44.5733 3.39479 39.3165C1.87127 34.6161 1.7436 29.8608 1.7436 25.3924L1.74357 9.42122Z" fill="white"/>
<path d="M15.3703 46.0721C17.9116 47.7089 19.9493 49.0707 21.6355 50.3945C21.7891 50.515 21.9787 50.5805 22.174 50.5805C22.3692 50.5805 22.5588 50.515 22.7124 50.3945C24.3977 49.0711 26.4355 47.7093 28.9764 46.0721C32.4464 43.9413 35.0353 40.6345 36.2709 36.7544C37.1908 33.5481 37.5919 30.2153 37.4589 26.8824V15.5911C37.4589 15.3895 37.389 15.194 37.2611 15.0381C37.1332 14.8821 36.9552 14.7753 36.7574 14.7359C35.9882 14.5831 35.245 14.4409 34.5273 14.3034C29.2411 13.292 25.4219 12.5611 22.8184 9.70391C22.7367 9.61432 22.6371 9.54276 22.5262 9.4938C22.4152 9.44484 22.2952 9.41956 22.1739 9.41956C22.0527 9.41956 21.9327 9.44484 21.8217 9.4938C21.7108 9.54276 21.6112 9.61432 21.5295 9.70391C18.9251 12.5611 15.1059 13.292 9.81978 14.3034C9.10208 14.4409 8.35884 14.5831 7.58963 14.7359C7.39183 14.7753 7.21382 14.8821 7.08591 15.0381C6.958 15.194 6.8881 15.3895 6.8881 15.5911V26.8824C6.75521 30.2154 7.1566 33.5482 8.07703 36.7544C9.31225 40.6343 11.9006 43.9412 15.3703 46.0721ZM8.63171 16.308C9.14892 16.2071 9.65406 16.1098 10.1471 16.0159C15.1765 15.0535 19.2227 14.2796 22.174 11.5301C25.1244 14.2791 29.17 15.0535 34.1995 16.0159C34.6924 16.1104 35.1977 16.2078 35.7154 16.308V26.8824C35.8439 30.0326 35.4717 33.1832 34.6124 36.2167C33.4956 39.7115 31.1603 42.6888 28.0322 44.606C25.7114 46.1019 23.7992 47.3742 22.174 48.6074C20.5478 47.3739 18.6357 46.1015 16.3144 44.6064C13.1866 42.6889 10.8518 39.7115 9.7355 36.2167C8.87557 33.1833 8.503 30.0326 8.63171 26.8823V16.308Z" fill="white"/>
</svg>
