<svg width="288" height="267" viewBox="0 0 288 267" fill="none" xmlns="http://www.w3.org/2000/svg">
<path d="M0 266.69L288 0.592137V9.10163L0 266.69Z" fill="url(#paint0_linear_2727_57967)"/>
<path d="M107.539 112.6L132.939 37H144.039L118.039 113H96.9395L70.9395 37H82.0395L107.539 112.6Z" fill="url(#paint1_linear_2727_57967)"/>
<path d="M163.781 233.2H163.381C159.081 231.3 155.581 228.5 152.881 224.9C150.181 221.3 148.481 217 147.781 212.1H158.281C158.781 215.4 159.881 218.2 161.681 220.5C163.481 222.8 165.781 224.5 168.581 225.7C171.381 226.9 174.481 227.5 177.981 227.5C182.381 227.5 186.181 226.9 189.281 225.8C192.381 224.7 194.781 223.1 196.381 221.1C197.981 219.1 198.781 216.7 198.781 214C198.781 211.3 198.181 209.2 196.881 207.6C195.581 206 193.681 204.7 191.181 203.8C188.681 202.9 185.081 201.9 180.381 200.9L170.881 198.8C164.581 197.4 159.581 195.1 155.881 191.8C152.181 188.5 150.381 184.2 150.381 178.8C150.381 174.9 151.581 171.3 153.981 168.1C156.381 164.9 159.681 162.4 163.881 160.6C168.081 158.8 172.681 157.9 177.781 157.9C183.081 157.9 187.781 158.8 191.881 160.5C195.981 162.2 199.381 164.6 201.981 167.8C204.581 171 206.281 174.6 206.981 178.7H196.481C195.381 174.5 193.181 171.4 189.981 169.4C186.781 167.4 182.781 166.4 177.981 166.4C174.781 166.4 171.881 166.9 169.281 167.9C166.681 168.9 164.581 170.3 163.081 172.1C161.581 173.9 160.781 175.9 160.781 178.2C160.781 180.6 161.381 182.5 162.481 183.9C163.581 185.3 165.281 186.5 167.581 187.5C169.881 188.5 173.181 189.4 177.381 190.3L186.881 192.4C192.181 193.5 196.381 194.9 199.581 196.6C202.781 198.3 205.181 200.5 206.781 203.1C208.381 205.7 209.181 209 209.181 212.9C209.181 217.4 207.881 221.4 205.281 224.9C202.681 228.4 199.081 231.1 194.381 233.1C189.681 235.1 184.281 236.1 178.181 236.1C172.881 236.1 168.081 235.1 163.781 233.2Z" fill="url(#paint2_linear_2727_57967)"/>
<defs>
<linearGradient id="paint0_linear_2727_57967" x1="282.133" y1="9.10196" x2="5.45844" y2="230.765" gradientUnits="userSpaceOnUse">
<stop stop-color="#282831"/>
<stop offset="1" stop-color="#725DF2" stop-opacity="0"/>
</linearGradient>
<linearGradient id="paint1_linear_2727_57967" x1="143.472" y1="12" x2="36.9058" y2="59.0618" gradientUnits="userSpaceOnUse">
<stop stop-color="#725DF2"/>
<stop offset="1" stop-color="#725DF2" stop-opacity="0"/>
</linearGradient>
<linearGradient id="paint2_linear_2727_57967" x1="212.574" y1="134" x2="110.975" y2="175.877" gradientUnits="userSpaceOnUse">
<stop stop-color="#725DF2"/>
<stop offset="1" stop-color="#725DF2" stop-opacity="0"/>
</linearGradient>
</defs>
</svg>
