<svg width="60" height="60" viewBox="0 0 60 60" fill="none" xmlns="http://www.w3.org/2000/svg">
<path id="Vector" d="M53.75 5H45V0H42.5V5H17.5V0H15V5H6.25C2.8025 5 0 7.805 0 11.25V60H60V11.25C60 7.805 57.1975 5 53.75 5ZM6.25 7.5H53.75C55.8175 7.5 57.5 9.1825 57.5 11.25V20H2.5V11.25C2.5 9.1825 4.1825 7.5 6.25 7.5ZM2.5 57.5V22.5H57.5V57.5H2.5ZM42.87 29.11L44.6275 30.89L28.895 46.4075C28.1675 47.135 27.2075 47.5 26.25 47.5C25.2875 47.5 24.3275 47.135 23.595 46.4025L15.375 38.3975L17.1175 36.605L25.35 44.6225C25.85 45.1225 26.645 45.1225 27.13 44.635L42.8675 29.1125L42.87 29.11Z" fill="#FF861D"/>
</svg>
