<svg width="60" height="60" viewBox="0 0 60 60" fill="none" xmlns="http://www.w3.org/2000/svg">
<g id="Layer_1" clip-path="url(#clip0_1176_8953)">
<path id="Vector" d="M37.9256 25.5701L35.9031 18.8151L41.2455 14.5076V12.5001H33.6356L31.0256 5.00006H28.9931L26.3631 12.5001H20.0031L18.753 12.6576V14.5051L24.0955 18.8126L22.0756 25.5676L23.6681 26.7801L30.0006 22.6701L36.333 26.7801L37.9256 25.5701ZM30.0006 19.6951L25.583 22.5601L26.9706 17.9226L23.348 15.0026H28.1355L30.0006 9.68506L31.8631 15.0026H36.6506L33.0281 17.9226L34.4156 22.5601L30.0006 19.6951ZM37.5206 39.9576C54.0581 39.5226 60.0006 30.7976 60.0006 23.2801C60.0006 19.0076 56.7356 15.5201 52.5756 15.0851C53.6206 12.3901 54.4105 9.76256 54.8806 7.47756C55.2505 5.65756 54.7881 3.78256 53.6031 2.33256C52.3931 0.847559 50.6031 -0.00244141 48.6905 -0.00244141H11.308C9.39305 -0.00244141 7.60305 0.850059 6.39305 2.33256C5.20805 3.78506 4.74555 5.66006 5.11805 7.47756C5.58805 9.76506 6.37805 12.3901 7.42305 15.0851C3.26555 15.5201 -0.00195312 19.0076 -0.00195312 23.2801C-0.00195312 30.7976 5.94055 39.5226 22.4781 39.9576C22.4831 40.0851 22.498 40.2126 22.498 40.3401V51.2476C22.498 57.2776 16.883 57.4926 16.243 57.4976H12.498V59.9976H47.4981V57.4976H43.753C43.113 57.4926 37.4981 57.2776 37.4981 51.2476V40.3401C37.4981 40.2101 37.5156 40.0851 37.5181 39.9576H37.5206ZM57.5005 23.2801C57.5005 29.9101 52.2756 36.9626 37.8405 37.4526C38.4281 34.9226 39.7705 32.6726 41.6831 31.1451C46.0256 27.6726 49.2931 22.5776 51.5706 17.5001H51.7206C54.9081 17.5001 57.5005 20.0926 57.5005 23.2801ZM2.50055 23.2801C2.50055 20.0926 5.09305 17.5001 8.28055 17.5001H8.43055C10.708 22.5801 13.973 27.6726 18.318 31.1451C20.2305 32.6751 21.5731 34.9251 22.1606 37.4526C7.72555 36.9626 2.50055 29.9126 2.50055 23.2801ZM37.4531 57.5001H22.5506C23.9581 56.1476 25.0031 54.1726 25.0031 51.2501V40.3426C25.0031 35.8601 23.1381 31.7951 19.883 29.1926C13.038 23.7201 8.97305 13.8051 7.56805 6.97506C7.34805 5.89506 7.62305 4.78006 8.33055 3.91256C9.06555 3.01506 10.1505 2.50006 11.308 2.50006H48.6905C49.848 2.50006 50.9306 3.01506 51.6631 3.91256C52.3706 4.78006 52.6506 5.89506 52.4281 6.97506C51.0256 13.8026 46.9606 23.7176 40.1181 29.1926C36.8631 31.7926 34.9981 35.8576 34.9981 40.3426V51.2501C34.9981 54.1726 36.043 56.1476 37.4506 57.5001H37.4531Z" fill="#FF861D"/>
</g>
<defs>
<clipPath id="clip0_1176_8953">
<rect width="60" height="60" fill="white"/>
</clipPath>
</defs>
</svg>
