<svg width="66" height="60" viewBox="0 0 66 60" fill="none" xmlns="http://www.w3.org/2000/svg">
<path id="Vector" d="M49.9614 17.2898L48.0261 15.3763L35.497 28.0198C34.6695 27.5135 33.7005 27.2222 32.6607 27.2222C29.6584 27.2222 27.2168 29.6638 27.2168 32.6662C27.2168 35.6685 29.6584 38.1101 32.6607 38.1101C35.663 38.1101 38.1046 35.6685 38.1046 32.6662C38.1046 31.689 37.8433 30.769 37.3887 29.9741L49.9614 17.2898ZM32.6634 35.3854C31.1636 35.3854 29.9415 34.166 29.9415 32.6634C29.9415 31.1609 31.1636 29.9415 32.6634 29.9415C34.1632 29.9415 35.3854 31.1609 35.3854 32.6634C35.3854 34.166 34.1632 35.3854 32.6634 35.3854ZM65.3269 32.6634C65.3269 43.2709 60.1252 53.2632 51.4095 59.3876L50.5412 60L43.1566 53.6116L44.9367 51.5538L50.6991 56.5377C58.1736 50.8815 62.6049 42.0351 62.6049 32.6634C62.6049 16.1548 49.1721 2.72195 32.6634 2.72195C16.1548 2.72195 2.72195 16.1548 2.72195 32.6634C2.72195 42.0324 7.15329 50.8815 14.6278 56.5377L20.3901 51.5538L22.1703 53.6116L14.7856 60L13.9173 59.3876C5.20165 53.2605 0 43.2709 0 32.6634C0 14.6523 14.6523 0 32.6634 0C50.6746 0 65.3269 14.6523 65.3269 32.6634Z" fill="#FF861D"/>
</svg>
