<svg width="60" height="60" viewBox="0 0 60 60" fill="none" xmlns="http://www.w3.org/2000/svg">
<g id="Layer_1">
<g id="Group">
<path id="Vector" d="M28.2461 19.9867C28.2461 21.6461 29.5952 22.9953 31.2547 22.9953C32.9132 22.9953 34.2624 21.6461 34.2624 19.9867C34.2624 18.3281 32.9132 16.979 31.2547 16.979C29.5952 16.979 28.2461 18.3281 28.2461 19.9867ZM32.9758 19.9867C32.9758 20.9364 32.2035 21.7096 31.2538 21.7096C30.3041 21.7096 29.531 20.9373 29.531 19.9867C29.531 19.0379 30.3032 18.2647 31.2538 18.2647C32.2035 18.2647 32.9758 19.037 32.9758 19.9867Z" fill="#FF861D"/>
<path id="Vector_2" d="M34.3614 27.5991C34.3408 27.6265 34.3151 27.6608 34.2988 27.6831C34.3108 27.6677 34.3305 27.6403 34.358 27.6043C34.3588 27.6026 34.3605 27.6008 34.3614 27.5991Z" fill="#FF861D"/>
<path id="Vector_3" d="M56.5394 11.0699C57.1308 11.0699 57.6596 10.739 57.9185 10.2076C58.1782 9.67532 58.1122 9.05475 57.7479 8.58932L52.9994 2.51989C52.7062 2.14446 52.2665 1.93018 51.7899 1.93018H42.1025C41.4142 1.93018 40.8382 2.38789 40.6436 3.01275H39.1728C38.0782 3.01275 37.1876 3.90418 37.1876 4.99875C37.1876 6.09332 38.0782 6.98389 39.1728 6.98389H40.5965C40.6531 7.30189 40.8074 7.59589 41.0414 7.82046C40.2545 8.88246 39.0374 9.52789 37.7071 9.56732C37.3411 9.56732 37.0239 9.78846 36.8988 10.1305C36.7711 10.4767 36.8731 10.8582 37.1585 11.0999C37.1602 11.1016 37.1628 11.1033 37.1645 11.1059C37.5039 11.3862 37.8776 11.6262 38.2745 11.8207C39.0545 12.2047 39.8936 12.3907 40.7251 12.3907C42.0991 12.3907 43.4525 11.8825 44.4948 10.9276C44.6919 11.0167 44.9045 11.069 45.1256 11.069H47.1031V13.8222H45.4702C44.3156 13.8222 43.3779 14.7607 43.3779 15.9145V17.5627C42.2911 17.6193 41.3911 18.1567 40.8288 18.911C35.9671 25.4442 34.6531 27.2099 34.3599 27.6042C34.3454 27.623 34.3256 27.6505 34.2982 27.6865C34.2991 27.6856 34.2999 27.6839 34.3008 27.683C34.2974 27.6873 34.2965 27.689 34.2939 27.6916C34.2914 27.6959 34.2888 27.6985 34.2862 27.7019C34.2871 27.701 34.2871 27.7002 34.2879 27.7002C34.2871 27.701 34.2862 27.7027 34.2854 27.7027C34.1936 27.8227 34.1156 27.953 34.0411 28.0859C32.5762 27.4799 30.8456 27.5365 29.4511 28.2325C28.6231 24.857 25.5828 22.4185 22.0162 22.4185C20.8359 22.4185 19.6856 22.6876 18.6434 23.2027C17.9379 21.3205 16.1242 20.027 14.0448 20.027C11.3319 20.027 9.12479 22.2299 9.12479 24.9385C9.12479 26.1333 9.53364 27.239 10.2888 28.1227C8.84021 29.3733 7.99336 31.1956 7.99336 33.1327C7.99336 33.227 8.00879 33.3162 8.01307 33.4087C6.26707 34.1133 4.91621 35.0107 4.05993 36.071C1.16107 39.6582 1.26907 50.1993 4.05736 53.6605C6.9245 57.2056 14.1896 58.0696 18.8139 58.0696C24.0742 58.0696 30.1179 57.0899 33.6185 54.803C33.6931 56.6133 35.1785 58.0679 37.0068 58.0679H54.6296C56.5059 58.0679 58.0334 56.5413 58.0334 54.665C58.0334 42.5588 58.0334 33.4893 58.0334 20.945C58.0334 19.8273 57.4839 18.8416 56.6491 18.221C56.3748 18.017 56.0696 17.8576 55.7405 17.7436V15.9153C55.7405 14.7607 54.8019 13.823 53.6491 13.823H52.0154V11.0699H56.5394ZM40.5682 5.69818H39.1728C38.7871 5.69818 38.4734 5.38446 38.4734 4.99875C38.4734 4.61218 38.7871 4.29846 39.1728 4.29846H40.5682V5.69818ZM38.9002 10.6962C40.1225 10.4005 41.2051 9.70618 41.9851 8.70932L43.4851 10.1065C42.2199 11.1659 40.4234 11.417 38.9002 10.6962ZM11.6191 28.7193C11.7836 28.607 11.8874 28.4236 11.8994 28.2239C11.9105 28.025 11.8282 27.8305 11.6765 27.701C10.8588 26.9982 10.4088 26.0176 10.4088 24.9393C10.4088 22.9396 12.0391 21.3136 14.0431 21.3136C15.7994 21.3136 17.3002 22.5625 17.6105 24.2827C17.6491 24.4936 17.7905 24.6719 17.9868 24.7585C18.1831 24.8433 18.4102 24.8262 18.5911 24.7079C19.6085 24.0513 20.7914 23.705 22.0136 23.705C25.2596 23.705 27.9811 26.1307 28.3436 29.3485C28.3694 29.5782 28.5159 29.7762 28.7285 29.867C28.9376 29.9562 29.1836 29.9279 29.3696 29.789C30.5705 28.8813 32.2634 28.7073 33.6365 29.321C33.6194 29.459 33.6022 29.5979 33.6022 29.7385V34.9268C29.6208 32.3287 22.3556 31.4185 16.6916 31.715C13.8665 31.865 11.3619 32.2936 9.28679 32.9545C9.34593 31.2556 10.2022 29.6819 11.6191 28.7193ZM3.30907 42.6282C3.53021 40.2248 4.11136 38.0527 5.0585 36.8802C6.78307 34.7467 11.1571 33.2956 16.7611 32.9999C21.9434 32.729 30.7076 33.5647 34.0736 36.9307C35.1296 37.9867 35.7742 40.1768 36.0176 42.6247C36.0168 42.6333 36.0116 42.6402 36.0108 42.6488C35.7571 45.3736 35.0516 47.5002 34.0762 48.4816C31.4011 51.1525 24.1179 52.811 16.7336 52.4116C11.1425 52.1125 6.77707 50.663 5.05679 48.533C4.17821 47.4436 3.54307 45.3008 3.31593 42.6539C3.31507 42.6436 3.30993 42.6367 3.30907 42.6282ZM34.0736 52.799C31.0625 55.8102 23.6079 56.7522 19.2579 56.7865C15.0339 56.8199 7.6865 56.1016 5.0585 52.8496C4.18164 51.7653 3.72136 49.8753 3.50193 48.5039C3.66736 48.8056 3.8525 49.0867 4.0565 49.3405C6.03136 51.7859 10.6274 53.3733 16.6651 53.6956C23.0756 54.0376 31.5348 52.8367 34.9874 49.3893C35.3225 49.0516 35.6105 48.647 35.8582 48.2005C35.6336 49.6233 35.0928 51.7807 34.0736 52.799ZM56.7468 54.665C56.7468 55.8316 55.7971 56.7822 54.6288 56.7822H37.0059C35.8385 56.7822 34.8888 55.8325 34.8888 54.665V53.7976C35.9688 52.7587 36.5671 51.089 36.8971 49.6336H56.7459L56.7468 54.665ZM56.7468 48.3479H37.1362C37.6651 44.8645 37.4799 39.1062 35.2771 36.3822H56.7459L56.7468 48.3479ZM56.7468 35.0965H34.8896V29.7393C34.8896 29.2816 35.0379 28.835 35.3105 28.4776L38.7999 23.7907H56.7468V35.0965ZM55.8116 19.1905C56.3739 19.571 56.7434 20.2139 56.7434 20.9416V22.505H39.7574L41.8591 19.6825C42.2756 19.1227 42.9151 18.8279 43.5554 18.8279H54.6296C55.0668 18.8279 55.4739 18.9616 55.8116 19.1905ZM53.6465 15.1079C54.0914 15.1079 54.4522 15.4696 54.4522 15.9145V17.5405H44.6619V15.9145C44.6619 15.4687 45.0236 15.1079 45.4685 15.1079H53.6465ZM48.3879 13.8213V11.069H50.7271V13.8213H48.3879ZM51.3699 9.78418H47.7451H45.1248C45.0622 9.78418 45.0014 9.76103 44.9551 9.71646L41.9319 6.89646C41.8822 6.85018 41.8539 6.78418 41.8539 6.71475V6.34103V3.65475V3.46446C41.8539 3.32732 41.9654 3.21589 42.1025 3.21589H51.7908C51.8679 3.21589 51.9391 3.25018 51.9871 3.31103L56.7365 9.38132C56.8205 9.48846 56.7905 9.59132 56.7639 9.64446C56.7391 9.69675 56.6756 9.78418 56.5402 9.78418H51.3699Z" fill="#FF861D"/>
<path id="Vector_4" d="M45.8151 46.9301C48.3334 46.9301 50.3811 44.8798 50.3811 42.3598C50.3811 39.8424 48.3326 37.7947 45.8151 37.7947C43.2977 37.7947 41.25 39.8432 41.25 42.3598C41.2491 44.8807 43.2977 46.9301 45.8151 46.9301ZM45.8151 39.0804C47.6237 39.0804 49.0954 40.5521 49.0954 42.3598C49.0954 44.171 47.6237 45.6444 45.8151 45.6444C44.0074 45.6444 42.5357 44.171 42.5357 42.3598C42.5349 40.5521 44.0066 39.0804 45.8151 39.0804Z" fill="#FF861D"/>
<path id="Vector_5" d="M45.8146 44.1049C46.6169 44.1049 47.2708 43.4535 47.2708 42.6486C47.2708 42.0821 46.544 41.1144 46.1171 40.5949C45.9594 40.4029 45.6689 40.4029 45.5111 40.5949C45.0843 41.1144 44.3574 42.0821 44.3574 42.6486C44.3583 43.4535 45.0114 44.1049 45.8146 44.1049Z" fill="#FF861D"/>
<path id="Vector_6" d="M19.667 47.6083C24.509 47.6083 28.3027 45.5872 28.3027 43.0063C28.3027 40.4254 24.509 38.4043 19.667 38.4043C14.825 38.4043 11.0312 40.4263 11.0312 43.0063C11.0312 45.5863 14.8241 47.6083 19.667 47.6083ZM19.667 39.69C23.999 39.69 27.017 41.4377 27.017 43.0063C27.017 44.5749 23.999 46.3226 19.667 46.3226C15.335 46.3226 12.317 44.5749 12.317 43.0063C12.317 41.4377 15.335 39.69 19.667 39.69Z" fill="#FF861D"/>
<path id="Vector_7" d="M16.7109 17.3836C16.7109 18.7876 17.8535 19.9302 19.2584 19.9302C20.6632 19.9302 21.8058 18.7876 21.8058 17.3836C21.8058 15.9788 20.6632 14.8362 19.2584 14.8362C17.8535 14.8362 16.7109 15.9788 16.7109 17.3836ZM20.5192 17.3836C20.5192 18.0788 19.9535 18.6445 19.2575 18.6445C18.5615 18.6445 17.9958 18.0788 17.9958 17.3836C17.9958 16.6876 18.5615 16.1219 19.2575 16.1219C19.9535 16.1219 20.5192 16.6876 20.5192 17.3836Z" fill="#FF861D"/>
</g>
</g>
</svg>
