<svg width="60" height="60" viewBox="0 0 60 60" fill="none" xmlns="http://www.w3.org/2000/svg">
<g id="Layer_1" clip-path="url(#clip0_1524_11219)">
<path id="Vector" d="M37.9256 25.57L35.9031 18.815L41.2455 14.5075V12.5H33.6356L31.0256 5H28.9931L26.3631 12.5H20.0031L18.753 12.6575V14.505L24.0955 18.8125L22.0756 25.5675L23.6681 26.78L30.0006 22.67L36.333 26.78L37.9256 25.57ZM30.0006 19.695L25.583 22.56L26.9706 17.9225L23.348 15.0025H28.1355L30.0006 9.685L31.8631 15.0025H36.6506L33.0281 17.9225L34.4156 22.56L30.0006 19.695ZM37.5206 39.9575C54.0581 39.5225 60.0006 30.7975 60.0006 23.28C60.0006 19.0075 56.7356 15.52 52.5756 15.085C53.6206 12.39 54.4105 9.7625 54.8806 7.4775C55.2505 5.6575 54.7881 3.7825 53.6031 2.3325C52.3931 0.847498 50.6031 -0.00250244 48.6905 -0.00250244H11.308C9.39305 -0.00250244 7.60305 0.849998 6.39305 2.3325C5.20805 3.785 4.74555 5.66 5.11805 7.4775C5.58805 9.765 6.37805 12.39 7.42305 15.085C3.26555 15.52 -0.00195312 19.0075 -0.00195312 23.28C-0.00195312 30.7975 5.94055 39.5225 22.4781 39.9575C22.4831 40.085 22.498 40.2125 22.498 40.34V51.2475C22.498 57.2775 16.883 57.4925 16.243 57.4975H12.498V59.9975H47.4981V57.4975H43.753C43.113 57.4925 37.4981 57.2775 37.4981 51.2475V40.34C37.4981 40.21 37.5156 40.085 37.5181 39.9575H37.5206ZM57.5005 23.28C57.5005 29.91 52.2756 36.9625 37.8405 37.4525C38.4281 34.9225 39.7705 32.6725 41.6831 31.145C46.0256 27.6725 49.2931 22.5775 51.5706 17.5H51.7206C54.9081 17.5 57.5005 20.0925 57.5005 23.28ZM2.50055 23.28C2.50055 20.0925 5.09305 17.5 8.28055 17.5H8.43055C10.708 22.58 13.973 27.6725 18.318 31.145C20.2305 32.675 21.5731 34.925 22.1606 37.4525C7.72555 36.9625 2.50055 29.9125 2.50055 23.28ZM37.4531 57.5H22.5506C23.9581 56.1475 25.0031 54.1725 25.0031 51.25V40.3425C25.0031 35.86 23.1381 31.795 19.883 29.1925C13.038 23.72 8.97305 13.805 7.56805 6.975C7.34805 5.895 7.62305 4.78 8.33055 3.9125C9.06555 3.015 10.1505 2.5 11.308 2.5H48.6905C49.848 2.5 50.9306 3.015 51.6631 3.9125C52.3706 4.78 52.6506 5.895 52.4281 6.975C51.0256 13.8025 46.9606 23.7175 40.1181 29.1925C36.8631 31.7925 34.9981 35.8575 34.9981 40.3425V51.25C34.9981 54.1725 36.043 56.1475 37.4506 57.5H37.4531Z" fill="#FF861D"/>
</g>
<defs>
<clipPath id="clip0_1524_11219">
<rect width="60" height="60" fill="white"/>
</clipPath>
</defs>
</svg>
