<svg width="77" height="25" viewBox="0 0 77 25" fill="none" xmlns="http://www.w3.org/2000/svg">
<path d="M15.8813 9.04311H15.9678V24.7253H15.8813V9.04311Z" fill="white" fill-opacity="0.7"/>
<path d="M60.0981 10.8916H60.1846V24.8887H60.0981V10.8916Z" fill="white" fill-opacity="0.7"/>
<path d="M7.39705 18.0294H25.21V18.1108H7.39705V18.0294Z" fill="white" fill-opacity="0.7"/>
<path d="M50.8746 18.0294H68.6875V18.1108H50.8746V18.0294Z" fill="white" fill-opacity="0.7"/>
<path d="M15.9227 23.5204C19.14 23.5204 21.7588 21.0746 21.7588 18.0697C21.7588 15.0649 19.14 12.619 15.9227 12.619C12.7054 12.619 10.0866 15.0649 10.0866 18.0697C10.0866 21.0746 12.7054 23.5204 15.9227 23.5204ZM15.9227 12.8228C19.0212 12.8228 21.5427 15.1779 21.5427 18.0717C21.5427 20.9656 19.0212 23.3207 15.9227 23.3207C12.8242 23.3207 10.3027 20.9656 10.3027 18.0717C10.3027 15.1759 12.8242 12.8228 15.9227 12.8228Z" fill="white" fill-opacity="0.7"/>
<path d="M15.9263 21.9383C18.2101 21.9383 20.0684 20.2028 20.0684 18.0697C20.0684 15.9367 18.2101 14.2012 15.9263 14.2012C13.6424 14.2012 11.7842 15.9367 11.7842 18.0697C11.7842 20.2028 13.6424 21.9383 15.9263 21.9383ZM15.9263 14.2819C18.1626 14.2819 19.9819 15.9811 19.9819 18.0697C19.9819 20.1584 18.1626 21.8576 15.9263 21.8576C13.6899 21.8576 11.8706 20.1584 11.8706 18.0697C11.8706 15.9811 13.6899 14.2819 15.9263 14.2819ZM16.3022 21.1856L16.3519 21.1795C16.944 21.1089 17.5079 20.891 17.9811 20.5479L18.02 20.5196L16.7689 19.3512L16.7409 19.3673C16.6134 19.436 16.4773 19.4884 16.3346 19.5247L16.3022 19.5328V21.1856ZM17.8882 20.5136C17.4474 20.8223 16.931 21.0221 16.3887 21.0948V19.5974C16.5161 19.5631 16.6393 19.5167 16.756 19.4561L17.8882 20.5136ZM15.5503 21.1856V19.5348L15.5179 19.5268C15.3753 19.4925 15.2392 19.44 15.1117 19.3694L15.0836 19.3532L13.8325 20.5217L13.8714 20.5499C14.3446 20.893 14.9086 21.1109 15.5006 21.1816L15.5503 21.1856ZM15.4639 19.5974V21.0948C14.9215 21.0221 14.4051 20.8223 13.9643 20.5136L15.0987 19.4541C15.2132 19.5147 15.3364 19.5631 15.4639 19.5974ZM18.5515 20.0252L18.5818 19.9889C18.9491 19.5469 19.1825 19.0202 19.2581 18.4673L19.2646 18.4209H17.4971L17.4885 18.4512C17.4517 18.5843 17.3956 18.7115 17.3199 18.8305L17.3026 18.8568L18.5515 20.0252ZM19.1652 18.5016C19.0874 19.0081 18.8735 19.4904 18.5429 19.9021L17.4085 18.8427C17.4733 18.7357 17.523 18.6207 17.5598 18.4996H19.1652V18.5016ZM13.301 20.0252L14.5521 18.8568L14.5348 18.8305C14.4613 18.7115 14.403 18.5843 14.3662 18.4512L14.3576 18.4209H12.5901L12.5966 18.4673C12.6722 19.0202 12.9056 19.5469 13.2729 19.9889L13.301 20.0252ZM14.444 18.8447L13.3096 19.9041C12.9791 19.4925 12.7651 19.0101 12.6874 18.5036H14.2906C14.3273 18.6207 14.3792 18.7357 14.444 18.8447ZM17.4949 17.7186H19.2624L19.2559 17.6722C19.1803 17.1192 18.9469 16.5925 18.5796 16.1506L18.5494 16.1143L17.2983 17.2827L17.3156 17.3089C17.3891 17.426 17.4452 17.5551 17.4841 17.6883L17.4949 17.7186ZM19.1652 17.6379H17.5619C17.5252 17.5188 17.4755 17.4038 17.4107 17.2948L18.5451 16.2353C18.8735 16.649 19.0874 17.1314 19.1652 17.6379ZM12.5901 17.7186H14.3576L14.3662 17.6883C14.403 17.5551 14.4591 17.428 14.5348 17.3089L14.5521 17.2827L13.301 16.1143L13.2708 16.1506C12.9034 16.5925 12.6701 17.1192 12.5944 17.6722L12.5901 17.7186ZM14.2928 17.6379H12.6895C12.7673 17.1314 12.9812 16.647 13.3118 16.2374L14.4462 17.2968C14.3792 17.4038 14.3273 17.5188 14.2928 17.6379ZM15.0836 16.7863L15.1117 16.7701C15.237 16.7015 15.3753 16.647 15.5179 16.6127L15.5503 16.6047V14.9539L15.5006 14.9599C14.9086 15.0306 14.3446 15.2485 13.8714 15.5916L13.8325 15.6198L15.0836 16.7863ZM15.4639 16.5441C15.3364 16.5784 15.2132 16.6248 15.0966 16.6854L13.9622 15.6259C14.403 15.3171 14.9194 15.1174 15.4617 15.0447V16.5441H15.4639ZM16.7689 16.7863L18.02 15.6178L17.9811 15.5896C17.5079 15.2465 16.944 15.0286 16.3519 14.9579L16.3022 14.9519V16.6026L16.3346 16.6107C16.4773 16.645 16.6134 16.6975 16.7409 16.7681L16.7689 16.7863ZM17.8882 15.6259L16.7538 16.6854C16.6393 16.6248 16.5161 16.5764 16.3865 16.5441V15.0467C16.9332 15.1174 17.4496 15.3171 17.8882 15.6259Z" fill="white" fill-opacity="0.7"/>
<path d="M15.9244 21.2178C17.7826 21.2178 19.293 19.8052 19.293 18.0717C19.293 16.3362 17.7805 14.9256 15.9244 14.9256C14.0662 14.9256 12.5559 16.3382 12.5559 18.0717C12.5559 19.8052 14.0662 21.2178 15.9244 21.2178ZM15.9244 15.0043C17.7351 15.0043 19.2065 16.3806 19.2065 18.0697C19.2065 19.7608 17.7329 21.1351 15.9244 21.1351C14.1137 21.1351 12.6423 19.7588 12.6423 18.0697C12.6423 16.3806 14.1137 15.0043 15.9244 15.0043Z" fill="white" fill-opacity="0.7"/>
<path d="M15.9227 19.2765C16.6358 19.2765 17.2148 18.7356 17.2148 18.0697C17.2148 17.4037 16.6358 16.8629 15.9227 16.8629C15.2097 16.8629 14.6306 17.4037 14.6306 18.0697C14.6306 18.7356 15.2119 19.2765 15.9227 19.2765ZM15.9227 16.9457C16.5882 16.9457 17.1284 17.4502 17.1284 18.0717C17.1284 18.6933 16.5882 19.1978 15.9227 19.1978C15.2572 19.1978 14.7171 18.6933 14.7171 18.0717C14.7171 17.4502 15.2594 16.9457 15.9227 16.9457Z" fill="white" fill-opacity="0.7"/>
<path d="M15.9249 23.131C18.9132 23.131 21.3418 20.8607 21.3418 18.0718C21.3418 15.2808 18.911 13.0125 15.9249 13.0125C12.9388 13.0125 10.508 15.2828 10.508 18.0718C10.508 20.8607 12.9388 23.131 15.9249 23.131ZM15.9249 13.2123C18.7922 13.2123 21.1257 15.3918 21.1257 18.0697C21.1257 20.7477 18.7922 22.9271 15.9249 22.9271C13.0576 22.9271 10.7241 20.7477 10.7241 18.0697C10.7241 15.3918 13.0576 13.2123 15.9249 13.2123Z" fill="white" fill-opacity="0.7"/>
<path d="M60.1463 23.5204C63.3636 23.5204 65.9824 21.0746 65.9824 18.0697C65.9824 15.0649 63.3636 12.619 60.1463 12.619C56.929 12.619 54.3103 15.0649 54.3103 18.0697C54.3103 21.0746 56.9269 23.5204 60.1463 23.5204ZM60.1463 12.8228C63.2448 12.8228 65.7664 15.1779 65.7664 18.0717C65.7664 20.9656 63.2448 23.3206 60.1463 23.3206C57.0479 23.3206 54.5263 20.9656 54.5263 18.0717C54.5263 15.1759 57.0479 12.8228 60.1463 12.8228Z" fill="white" fill-opacity="0.7"/>
<path d="M60.146 21.9383C62.4299 21.9383 64.2881 20.2028 64.2881 18.0698C64.2881 15.9367 62.4299 14.2012 60.146 14.2012C57.8621 14.2012 56.0039 15.9367 56.0039 18.0698C56.0018 20.2028 57.86 21.9383 60.146 21.9383ZM60.146 14.2819C62.3823 14.2819 64.2017 15.9811 64.2017 18.0698C64.2017 20.1584 62.3823 21.8576 60.146 21.8576C57.9097 21.8576 56.0903 20.1584 56.0903 18.0698C56.0882 15.9811 57.9075 14.2819 60.146 14.2819ZM59.77 21.1856V19.5349L59.7376 19.5268C59.595 19.4925 59.4589 19.44 59.3314 19.3694L59.3033 19.3532L58.0523 20.5217L58.0912 20.5499C58.5644 20.893 59.1283 21.1109 59.7203 21.1816L59.77 21.1856ZM59.6836 19.5974V21.0948C59.1413 21.0221 58.6249 20.8224 58.1841 20.5136L59.3184 19.4541C59.4308 19.5147 59.554 19.5631 59.6836 19.5974ZM60.5198 21.1856L60.5695 21.1795C61.1615 21.1089 61.7255 20.891 62.1987 20.5479L62.2376 20.5197L60.9865 19.3512L60.9584 19.3674C60.8331 19.436 60.6948 19.4884 60.5522 19.5248L60.5198 19.5328V21.1856ZM62.1079 20.5136C61.6671 20.8224 61.1507 21.0221 60.6084 21.0948V19.5974C60.7359 19.5631 60.859 19.5167 60.9757 19.4561L62.1079 20.5136ZM62.7691 20.0252L62.7994 19.9889C63.1667 19.547 63.4 19.0203 63.4757 18.4673L63.4821 18.4209H61.7147L61.706 18.4512C61.6693 18.5844 61.6131 18.7115 61.5375 18.8306L61.5202 18.8568L62.7691 20.0252ZM63.3827 18.5016C63.305 19.0081 63.0911 19.4925 62.7605 19.9021L61.6261 18.8427C61.6909 18.7357 61.7406 18.6207 61.7773 18.4996H63.3827V18.5016ZM57.5207 20.0252L58.7718 18.8568L58.7545 18.8306C58.681 18.7115 58.6249 18.5844 58.586 18.4512L58.5773 18.4209H56.8077L56.8142 18.4673C56.8898 19.0203 57.1232 19.547 57.4905 19.9889L57.5207 20.0252ZM58.6616 18.8447L57.5272 19.9041C57.1966 19.4925 56.9827 19.0102 56.9049 18.5036H58.5082C58.5471 18.6207 58.5968 18.7357 58.6616 18.8447ZM61.7125 17.7186H63.48L63.4735 17.6722C63.3979 17.1193 63.1645 16.5926 62.7972 16.1506L62.7669 16.1143L61.5159 17.2827L61.5332 17.309C61.6066 17.426 61.6628 17.5552 61.7017 17.6884L61.7125 17.7186ZM63.3827 17.6379H61.7795C61.7428 17.5188 61.6931 17.4038 61.6282 17.2948L62.7626 16.2354C63.0911 16.6491 63.305 17.1314 63.3827 17.6379ZM56.8077 17.7186H58.5752L58.5838 17.6884C58.6205 17.5552 58.6767 17.428 58.7523 17.309L58.7696 17.2827L57.5186 16.1143L57.4883 16.1506C57.121 16.5926 56.8876 17.1193 56.812 17.6722L56.8077 17.7186ZM58.5103 17.6379H56.9071C56.9849 17.1314 57.1988 16.647 57.5294 16.2374L58.6638 17.2969C58.5968 17.4038 58.5471 17.5188 58.5103 17.6379ZM59.3012 16.7863L59.3293 16.7701C59.4546 16.7015 59.5929 16.647 59.7355 16.6127L59.7679 16.6047V14.9539L59.7182 14.96C59.1261 15.0306 58.5622 15.2485 58.089 15.5916L58.0501 15.6199L59.3012 16.7863ZM59.6836 16.5441C59.5561 16.5784 59.433 16.6248 59.3163 16.6854L58.1819 15.6259C58.6227 15.3172 59.1391 15.1174 59.6814 15.0447V16.5441H59.6836ZM60.9887 16.7863L62.2397 15.6178L62.2008 15.5896C61.7276 15.2465 61.1637 15.0286 60.5717 14.958L60.522 14.9519V16.6026L60.5544 16.6107C60.697 16.645 60.8331 16.6975 60.9606 16.7681L60.9887 16.7863ZM62.1079 15.6259L60.9736 16.6854C60.859 16.6248 60.7359 16.5784 60.6062 16.5441V15.0467C61.1507 15.1174 61.6671 15.3172 62.1079 15.6259Z" fill="white" fill-opacity="0.7"/>
<path d="M60.1451 21.2178C62.0033 21.2178 63.5137 19.8052 63.5137 18.0717C63.5137 16.3362 62.0012 14.9256 60.1451 14.9256C58.2869 14.9256 56.7766 16.3382 56.7766 18.0717C56.7744 19.8052 58.2869 21.2178 60.1451 21.2178ZM60.1451 15.0043C61.9558 15.0043 63.4272 16.3806 63.4272 18.0697C63.4272 19.7608 61.9536 21.1351 60.1451 21.1351C58.3344 21.1351 56.863 19.7588 56.863 18.0697C56.8608 16.3806 58.3344 15.0043 60.1451 15.0043Z" fill="white" fill-opacity="0.7"/>
<path d="M60.1464 19.2765C60.8594 19.2765 61.4385 18.7357 61.4385 18.0697C61.4385 17.4038 60.8594 16.8629 60.1464 16.8629C59.4333 16.8629 58.8543 17.4038 58.8543 18.0697C58.8543 18.7357 59.4333 19.2765 60.1464 19.2765ZM60.1464 16.9457C60.8119 16.9457 61.352 17.4502 61.352 18.0717C61.352 18.6933 60.8119 19.1978 60.1464 19.1978C59.4809 19.1978 58.9407 18.6933 58.9407 18.0717C58.9407 17.4502 59.4809 16.9457 60.1464 16.9457Z" fill="white" fill-opacity="0.7"/>
<path d="M60.1475 23.131C63.1358 23.131 65.5645 20.8607 65.5645 18.0718C65.5645 15.2808 63.1337 13.0125 60.1475 13.0125C57.1614 13.0125 54.7306 15.2828 54.7306 18.0718C54.7285 20.8607 57.1593 23.131 60.1475 23.131ZM60.1475 13.2123C63.0148 13.2123 65.3484 15.3918 65.3484 18.0697C65.3484 20.7477 63.0148 22.9271 60.1475 22.9271C57.2803 22.9271 54.9467 20.7477 54.9467 18.0697C54.9445 15.3918 57.2781 13.2123 60.1475 13.2123Z" fill="white" fill-opacity="0.7"/>
<path d="M22.2874 19.7003H53.6999L53.6847 18.0698C53.6847 14.7441 56.5822 12.0359 60.1453 12.0359C63.7083 12.0359 66.6058 14.742 66.6058 18.0698L66.6123 19.7003H73.1657C74.6328 19.7003 76.0589 19.4138 76.5472 17.3271C76.9426 15.632 76.9707 14.7844 76.6423 14.405C76.4673 14.2032 76.2123 14.1568 75.9876 14.1487C75.8688 13.7149 75.2292 11.5979 74.0278 11.0975C72.4462 10.4376 67.8957 9.06329 55.167 7.26522C54.5339 7.17643 53.2936 6.55084 51.725 5.75775C48.8491 4.30678 44.9079 2.31901 40.5152 1.34229C38.8752 0.977022 35.1242 0.722748 31.3927 0.722748C28.4973 0.722748 26.1961 0.874104 24.9084 1.14856C21.7688 1.81854 17.1039 3.65495 14.3165 4.75276C13.0569 5.2492 12.0608 5.6407 11.7864 5.69519C11.6265 5.72748 11.1857 5.77792 10.5785 5.84856C6.20091 6.35306 2.11068 6.96857 1.82979 8.05023C1.4603 9.46689 1.02601 12.9803 1.0044 13.4525C0.967667 13.4687 0.8834 13.4868 0.82074 13.5009C0.567932 13.5575 0.185486 13.6422 0.185486 13.9651C0.185486 14.0842 0.183327 14.2113 0.183327 14.3465C0.170357 15.5916 0.153076 17.4745 1.09947 18.7761C1.50784 19.3391 8.05696 19.6116 9.36635 19.66L9.47223 19.664L9.56514 18.0758C9.56514 14.7945 12.4194 12.1287 15.9284 12.1287C19.4374 12.1287 22.2896 14.7945 22.2896 18.0698V19.7003H22.2874ZM53.4816 19.4985H22.5035V18.0698C22.5035 14.6815 19.552 11.9269 15.9263 11.9269C12.3006 11.9269 9.34907 14.6835 9.34907 18.0698L9.26696 19.4541C5.55054 19.3109 1.51432 18.988 1.27664 18.6611C0.366982 17.4119 0.384277 15.5674 0.39724 14.3465C0.399399 14.2113 0.399399 14.0842 0.399399 13.9631C0.399399 13.8117 0.611145 13.7512 0.868271 13.6947C1.05625 13.6523 1.21831 13.616 1.21831 13.4808C1.21831 13.2386 1.66125 9.55165 2.03938 8.09665C2.32459 7.00287 8.34002 6.30867 10.6044 6.04835C11.2181 5.97771 11.661 5.92726 11.8317 5.89295C12.1256 5.83443 13.0785 5.45908 14.3987 4.93843C17.1795 3.84263 21.8358 2.01025 24.9559 1.3443C26.2264 1.07388 28.5124 0.924551 31.3905 0.924551C35.1069 0.924551 38.8385 1.17681 40.4633 1.53804C44.8301 2.51073 48.7561 4.49042 51.6212 5.93533C53.272 6.76878 54.4647 7.37016 55.1346 7.465C67.8374 9.25904 72.3684 10.6252 73.9392 11.2811C74.9785 11.715 75.6462 13.6321 75.7975 14.2698L75.8169 14.3485H75.9033C76.1929 14.3485 76.3636 14.403 76.4738 14.5322C76.7482 14.851 76.705 15.7006 76.3355 17.2848C75.858 19.329 74.4492 19.4985 73.1657 19.4985H66.8283L66.8219 18.0698C66.8219 14.631 63.8271 11.834 60.1453 11.834C56.4634 11.834 53.4687 14.631 53.4687 18.0698L53.4816 19.4985Z" fill="white" fill-opacity="0.7"/>
<path d="M23.3091 18.0697H23.3955C23.3955 14.2213 20.0442 11.0914 15.9238 11.0914C13.4692 11.0914 11.1572 12.2275 9.73764 14.1325L9.80895 14.1789C11.2113 12.2961 13.4973 11.1721 15.9238 11.1721C19.9967 11.1741 23.3091 14.2677 23.3091 18.0697Z" fill="white" fill-opacity="0.7"/>
<path d="M52.5731 18.0698H52.6595C52.6595 14.2153 56.0173 11.0813 60.1421 11.0813C62.6355 11.0813 65.0512 12.3022 66.4492 14.2678L66.5205 14.2234C65.1074 12.2356 62.6636 11.0006 60.1421 11.0006C55.9697 11.0006 52.5731 14.1729 52.5731 18.0698Z" fill="white" fill-opacity="0.7"/>
<path d="M24.0757 17.991H24.1621C24.134 15.4887 22.9003 13.2043 20.8627 11.8764C19.8342 11.2084 19.2443 9.0007 19.2443 5.82431H19.1579C19.1579 9.02895 19.7607 11.2589 20.813 11.943C22.8289 13.2527 24.0476 15.5149 24.0757 17.991Z" fill="white" fill-opacity="0.7"/>
<path d="M75.7764 13.8581V13.7774C74.1083 13.7774 70.0245 13.2103 70.0245 12.7139C70.0245 11.6141 71.2821 11.2246 71.604 11.2246H73.9895V11.1439H71.6062C71.254 11.1439 69.9403 11.5374 69.9403 12.7139C69.9381 13.3435 74.346 13.8581 75.7764 13.8581Z" fill="white" fill-opacity="0.7"/>
<path d="M52.5737 18.0697H52.6602C52.6602 10.0924 51.6684 8.47399 51.2968 8.14707C54.8857 8.21971 70.1209 10.8432 71.5923 11.2225C72.7872 11.5878 73.1956 13.6482 73.1999 13.6684L73.2842 13.6543C73.2669 13.5675 72.8628 11.5273 71.6183 11.1459C70.1252 10.7604 54.4579 8.06635 51.1542 8.06635L51.1455 8.14707C51.1563 8.14908 52.5737 8.60516 52.5737 18.0697Z" fill="white" fill-opacity="0.7"/>
<path d="M72.6689 18.0879H76.2232V18.0072H72.7553C72.7855 17.3635 73.5439 16.5583 74.3477 16.5583H76.6035V16.4775H74.3499C73.4834 16.4775 72.6689 17.3614 72.6689 18.0476V18.0879Z" fill="white" fill-opacity="0.7"/>
<path d="M51.2412 8.14707L50.3596 7.06137C50.3553 6.18756 49.8389 5.79001 49.3614 5.79001C48.4517 5.79001 47.8165 6.33285 47.8165 6.8192C47.8165 7.45892 48.6916 8.14102 50.3164 8.14102L51.2412 8.14707ZM49.3592 5.87073C49.7979 5.87073 50.2711 6.2481 50.2711 7.0755V7.08962L51.064 8.06635L50.3143 8.06231C48.7456 8.06231 47.9008 7.4226 47.9008 6.82122C47.9029 6.3712 48.5014 5.87073 49.3592 5.87073Z" fill="white" fill-opacity="0.7"/>
<path d="M1.1149 13.4406L10.9209 14.2034L10.9137 14.2846L1.10766 13.5218L1.1149 13.4406Z" fill="white" fill-opacity="0.7"/>
<path d="M10.9248 14.4211V14.2193C6.18852 14.2193 0.354605 13.8682 0.296266 13.8642L0.283295 14.066C0.341634 14.068 6.18204 14.4211 10.9248 14.4211Z" fill="white" fill-opacity="0.7"/>
<path d="M22.394 17.9688H53.5752V18.1706H22.394V17.9688Z" fill="white" fill-opacity="0.7"/>
<path d="M65.2781 14.1447H75.9023V14.3465H65.2781V14.1447Z" fill="white" fill-opacity="0.7"/>
<path d="M49.3162 8.04214L49.3184 7.96142C49.1153 7.95537 28.9796 7.32574 24.9196 7.32574C20.7213 7.32574 19.2434 6.08666 19.2434 5.8223C19.2434 4.81934 24.6517 2.18984 27.3936 1.85686C30.4164 1.4916 35.6238 1.61066 38.0286 1.85686C42.873 2.3533 48.1818 6.15528 48.2358 6.19363L48.2899 6.12905C48.2358 6.0907 42.9097 2.2746 38.0394 1.77412C35.6324 1.52792 30.4121 1.40684 27.385 1.77412C24.8353 2.08288 19.1591 4.7144 19.1591 5.81827C19.1591 6.14115 20.663 7.40243 24.9218 7.40243C28.9774 7.40848 49.1131 8.03609 49.3162 8.04214Z" fill="white" fill-opacity="0.7"/>
<path d="M4.39239 11.5939C4.46154 11.5939 4.51987 11.5475 4.56525 11.4587C4.82237 10.942 4.62359 8.97244 3.8695 8.13697L3.85653 8.12285H1.91837V8.20357H3.81548C4.58037 9.06931 4.70785 10.9784 4.4853 11.4244C4.46586 11.4647 4.43128 11.5131 4.39023 11.5131C3.68152 11.5131 1.36956 11.5051 1.36956 11.5051V11.5858C1.36956 11.5858 3.68368 11.5939 4.39239 11.5939Z" fill="white" fill-opacity="0.7"/>
<path d="M1.61744 9.61818H4.46094V9.69965H1.61744V9.61818Z" fill="white" fill-opacity="0.7"/>
<path d="M1.49419 10.3831H4.61426V10.4645H1.49419V10.3831Z" fill="white" fill-opacity="0.7"/>
<path d="M71.5986 11.2266L71.6094 11.1458C48.533 8.23786 7.1834 8.12485 4.02444 8.12081C4.95571 7.71922 9.77842 5.86061 19.1991 5.86061V5.77989C8.66566 5.77989 3.86239 8.10063 3.81485 8.12485L3.66145 8.20153H3.8343C4.26644 8.20557 47.7184 8.21768 71.5986 11.2266Z" fill="white" fill-opacity="0.7"/>
<path d="M35.6572 7.61232L34.3327 1.56023L32.6149 1.58243L32.6193 1.62481L33.0817 7.57195L35.6572 7.61232ZM34.2614 1.64297L35.5492 7.53159L33.1573 7.49527L32.7057 1.66517L34.2614 1.64297Z" fill="white" fill-opacity="0.7"/>
<path d="M34.9175 18.0697H35.0039C35.0039 13.7128 33.5346 1.72971 33.5195 1.60863L33.4331 1.6167C33.4482 1.73778 34.9175 13.7168 34.9175 18.0697Z" fill="white" fill-opacity="0.7"/>
<path d="M24.4747 2.62599L24.7188 7.31027L24.6324 7.3142L24.3884 2.62991L24.4747 2.62599Z" fill="white" fill-opacity="0.7"/>
<path d="M20.4227 9.699H22.9767C23.2122 9.699 23.4023 9.52141 23.4023 9.30144V9.25301C23.4023 9.03304 23.2122 8.85545 22.9767 8.85545H20.4227C20.1872 8.85545 19.9971 9.03304 19.9971 9.25301V9.30144C19.9949 9.51939 20.1872 9.699 20.4227 9.699ZM22.9767 8.93416C23.1647 8.93416 23.3159 9.07744 23.3159 9.25099V9.29942C23.3159 9.47499 23.1625 9.61626 22.9767 9.61626H20.4227C20.2347 9.61626 20.0835 9.47297 20.0835 9.29942V9.25099C20.0835 9.07542 20.2369 8.93416 20.4227 8.93416H22.9767Z" fill="white" fill-opacity="0.7"/>
<path d="M21.1409 10.0178H22.5929C22.8284 10.0178 23.0186 9.84024 23.0186 9.62028V8.89378H22.9321V9.62028C22.9321 9.79585 22.7787 9.93711 22.5929 9.93711H21.1409C20.9529 9.93711 20.8017 9.79383 20.8017 9.62028V8.89378H20.7152V9.62028C20.7152 9.84024 20.9054 10.0178 21.1409 10.0178Z" fill="white" fill-opacity="0.7"/>
<path d="M35.1934 9.699H37.7452C37.9808 9.699 38.1709 9.52141 38.1709 9.30144V9.25301C38.1709 9.03304 37.9786 8.85545 37.7452 8.85545H35.1913C34.9558 8.85545 34.7656 9.03304 34.7656 9.25301V9.30144C34.7656 9.51939 34.9579 9.699 35.1934 9.699ZM37.7452 8.93416C37.9332 8.93416 38.0845 9.07744 38.0845 9.25099V9.29942C38.0845 9.47499 37.9311 9.61626 37.7452 9.61626H35.1913C35.0033 9.61626 34.852 9.47297 34.852 9.29942V9.25099C34.852 9.07542 35.0055 8.93416 35.1913 8.93416H37.7452Z" fill="white" fill-opacity="0.7"/>
<path d="M35.9094 10.0178H37.3614C37.597 10.0178 37.7871 9.84023 37.7871 9.62026V8.89377H37.7007V9.62026C37.7007 9.79583 37.5473 9.9371 37.3614 9.9371H35.9094C35.7215 9.9371 35.5702 9.79381 35.5702 9.62026V8.89377H35.4838V9.62026C35.4838 9.84023 35.6739 10.0178 35.9094 10.0178Z" fill="white" fill-opacity="0.7"/>
<path d="M51.3251 8.17937C53.0234 8.17937 54.4214 7.18851 54.4365 7.17842L54.3847 7.11385C54.3695 7.12394 52.8786 8.18138 51.1198 8.09259L51.1155 8.17331C51.1825 8.17735 51.2538 8.17937 51.3251 8.17937Z" fill="white" fill-opacity="0.7"/>
<path d="M52.9921 7.86657L53.0439 7.80199C52.9683 7.7475 45.3324 2.36944 37.7245 1.02946L37.7094 1.10817C45.2978 2.44815 52.9165 7.8141 52.9921 7.86657Z" fill="white" fill-opacity="0.7"/>
</svg>
