<svg width="135" height="46" viewBox="0 0 135 46" fill="none" xmlns="http://www.w3.org/2000/svg">
<path d="M27.8131 15.6397H27.9648V45.1173H27.8131V15.6397Z" fill="white" fill-opacity="0.5"/>
<path d="M105.44 19.1144H105.592V45.4246H105.44V19.1144Z" fill="white" fill-opacity="0.5"/>
<path d="M12.9205 32.5311H44.1924V32.6829H12.9205V32.5311Z" fill="white" fill-opacity="0.5"/>
<path d="M89.2496 32.5311H120.521V32.6829H89.2496V32.5311Z" fill="white" fill-opacity="0.5"/>
<path d="M27.8891 42.8527C33.5373 42.8527 38.1348 38.2552 38.1348 32.607C38.1348 26.9588 33.5373 22.3613 27.8891 22.3613C22.2409 22.3613 17.6434 26.9588 17.6434 32.607C17.6434 38.2552 22.2409 42.8527 27.8891 42.8527ZM27.8891 22.7444C33.3287 22.7444 37.7554 27.1712 37.7554 32.6108C37.7554 38.0504 33.3287 42.4771 27.8891 42.4771C22.4495 42.4771 18.0227 38.0504 18.0227 32.6108C18.0227 27.1674 22.4495 22.7444 27.8891 22.7444Z" fill="white" fill-opacity="0.5"/>
<path d="M27.8894 39.8784C31.8989 39.8784 35.1611 36.6162 35.1611 32.6067C35.1611 28.5972 31.8989 25.335 27.8894 25.335C23.8799 25.335 20.6177 28.5972 20.6177 32.6067C20.6177 36.6162 23.8799 39.8784 27.8894 39.8784ZM27.8894 25.4867C31.8154 25.4867 35.0094 28.6806 35.0094 32.6067C35.0094 36.5327 31.8154 39.7267 27.8894 39.7267C23.9633 39.7267 20.7694 36.5327 20.7694 32.6067C20.7694 28.6806 23.9633 25.4867 27.8894 25.4867ZM28.5494 38.4635L28.6367 38.4521C29.676 38.3194 30.6661 37.9097 31.4968 37.2648L31.5651 37.2117L29.3688 35.0154L29.3195 35.0458C29.0957 35.1748 28.8567 35.2734 28.6063 35.3417L28.5494 35.3568V38.4635ZM31.3337 37.2004C30.5599 37.7807 29.6533 38.1563 28.7012 38.2928V35.4782C28.925 35.4137 29.1412 35.3265 29.346 35.2127L31.3337 37.2004ZM27.2294 38.4635V35.3606L27.1725 35.3454C26.9221 35.281 26.6831 35.1823 26.4593 35.0496L26.41 35.0192L24.2137 37.2155L24.282 37.2686C25.1127 37.9135 26.1028 38.3232 27.1421 38.4559L27.2294 38.4635ZM27.0776 35.4782V38.2928C26.1255 38.1563 25.2189 37.7807 24.4451 37.2004L26.4366 35.2089C26.6376 35.3227 26.8538 35.4137 27.0776 35.4782ZM32.4982 36.2824L32.5513 36.2141C33.1962 35.3834 33.6059 34.3933 33.7386 33.354L33.75 33.2667H30.6471L30.6319 33.3236C30.5675 33.574 30.4688 33.813 30.3361 34.0368L30.3057 34.0861L32.4982 36.2824ZM33.5755 33.4185C33.439 34.3706 33.0634 35.2772 32.4831 36.051L30.4916 34.0595C30.6054 33.8585 30.6926 33.6423 30.7571 33.4147H33.5755V33.4185ZM23.2806 36.2824L25.4769 34.0861L25.4465 34.0368C25.3175 33.813 25.2151 33.574 25.1506 33.3236L25.1355 33.2667H22.0326L22.0439 33.354C22.1767 34.3933 22.5864 35.3834 23.2312 36.2141L23.2806 36.2824ZM25.2872 34.0633L23.2957 36.0548C22.7154 35.281 22.3398 34.3744 22.2033 33.4223H25.0179C25.0824 33.6423 25.1734 33.8585 25.2872 34.0633ZM30.6433 31.9467H33.7462L33.7349 31.8594C33.6021 30.82 33.1924 29.83 32.5476 28.9993L32.4945 28.931L30.2981 31.1273L30.3285 31.1766C30.4574 31.3966 30.5561 31.6394 30.6244 31.8898L30.6433 31.9467ZM33.5755 31.7949H30.7609C30.6964 31.5711 30.6092 31.3549 30.4954 31.1501L32.4869 29.1586C33.0634 29.9362 33.439 30.8428 33.5755 31.7949ZM22.0326 31.9467H25.1355L25.1506 31.8898C25.2151 31.6394 25.3138 31.4004 25.4465 31.1766L25.4769 31.1273L23.2806 28.931L23.2274 28.9993C22.5826 29.83 22.1729 30.82 22.0401 31.8594L22.0326 31.9467ZM25.0217 31.7949H22.207C22.3436 30.8428 22.7191 29.9324 23.2995 29.1624L25.291 31.1539C25.1734 31.3549 25.0824 31.5711 25.0217 31.7949ZM26.41 30.1942L26.4593 30.1638C26.6793 30.0348 26.9221 29.9324 27.1725 29.8679L27.2294 29.8528V26.7498L27.1421 26.7612C26.1028 26.894 25.1127 27.3037 24.282 27.9485L24.2137 28.0016L26.41 30.1942ZM27.0776 29.739C26.8538 29.8034 26.6376 29.8907 26.4328 30.0045L24.4413 28.013C25.2151 27.4326 26.1217 27.0571 27.0738 26.9206V29.739H27.0776ZM29.3688 30.1942L31.5651 27.9978L31.4968 27.9447C30.6661 27.2999 29.676 26.8902 28.6367 26.7574L28.5494 26.7461V29.849L28.6063 29.8641C28.8567 29.9286 29.0957 30.0273 29.3195 30.16L29.3688 30.1942ZM31.3337 28.013L29.3422 30.0045C29.1412 29.8907 28.925 29.7997 28.6974 29.739V26.9243C29.6571 27.0571 30.5637 27.4326 31.3337 28.013Z" fill="white" fill-opacity="0.5"/>
<path d="M27.889 38.5245C31.1512 38.5245 33.8027 35.8692 33.8027 32.6108C33.8027 29.3485 31.1474 26.697 27.889 26.697C24.6268 26.697 21.9753 29.3523 21.9753 32.6108C21.9753 35.8692 24.6268 38.5245 27.889 38.5245ZM27.889 26.845C31.0678 26.845 33.651 29.432 33.651 32.607C33.651 35.7857 31.064 38.369 27.889 38.369C24.7102 38.369 22.127 35.7819 22.127 32.607C22.127 29.432 24.7102 26.845 27.889 26.845Z" fill="white" fill-opacity="0.5"/>
<path d="M27.8888 34.8756C29.1406 34.8756 30.1572 33.859 30.1572 32.6072C30.1572 31.3555 29.1406 30.3389 27.8888 30.3389C26.6371 30.3389 25.6204 31.3555 25.6204 32.6072C25.6204 33.859 26.6408 34.8756 27.8888 34.8756ZM27.8888 30.4944C29.0572 30.4944 30.0055 31.4427 30.0055 32.611C30.0055 33.7794 29.0572 34.7277 27.8888 34.7277C26.7205 34.7277 25.7722 33.7794 25.7722 32.611C25.7722 31.4427 26.7243 30.4944 27.8888 30.4944Z" fill="white" fill-opacity="0.5"/>
<path d="M27.8896 42.1201C33.1358 42.1201 37.3994 37.8527 37.3994 32.6104C37.3994 27.3642 33.132 23.1006 27.8896 23.1006C22.6473 23.1006 18.3799 27.368 18.3799 32.6104C18.3799 37.8527 22.6473 42.1201 27.8896 42.1201ZM27.8896 23.4761C32.9233 23.4761 37.0201 27.5729 37.0201 32.6066C37.0201 37.6403 32.9233 41.737 27.8896 41.737C22.8559 41.737 18.7592 37.6403 18.7592 32.6066C18.7592 27.5729 22.8559 23.4761 27.8896 23.4761Z" fill="white" fill-opacity="0.5"/>
<path d="M105.522 42.8527C111.17 42.8527 115.768 38.2552 115.768 32.607C115.768 26.9588 111.17 22.3613 105.522 22.3613C99.8737 22.3613 95.2762 26.9588 95.2762 32.607C95.2762 38.2552 99.8699 42.8527 105.522 42.8527ZM105.522 22.7444C110.961 22.7444 115.388 27.1712 115.388 32.6108C115.388 38.0504 110.961 42.4771 105.522 42.4771C100.082 42.4771 95.6556 38.0504 95.6556 32.6108C95.6556 27.1674 100.082 22.7444 105.522 22.7444Z" fill="white" fill-opacity="0.5"/>
<path d="M105.522 39.8784C109.532 39.8784 112.794 36.6162 112.794 32.6067C112.794 28.5972 109.532 25.335 105.522 25.335C101.513 25.335 98.2505 28.5972 98.2505 32.6067C98.2467 36.6162 101.509 39.8784 105.522 39.8784ZM105.522 25.4867C109.448 25.4867 112.642 28.6806 112.642 32.6067C112.642 36.5327 109.448 39.7267 105.522 39.7267C101.596 39.7267 98.4022 36.5327 98.4022 32.6067C98.3984 28.6806 101.592 25.4867 105.522 25.4867ZM104.862 38.4635V35.3606L104.805 35.3454C104.555 35.281 104.316 35.1823 104.092 35.0496L104.043 35.0192L101.847 37.2155L101.915 37.2686C102.746 37.9135 103.736 38.3232 104.775 38.4559L104.862 38.4635ZM104.71 35.4782V38.2928C103.758 38.1563 102.852 37.7807 102.078 37.2004L104.069 35.2089C104.267 35.3227 104.483 35.4137 104.71 35.4782ZM106.178 38.4635L106.266 38.4521C107.305 38.3194 108.295 37.9097 109.126 37.2648L109.194 37.2117L106.998 35.0154L106.948 35.0458C106.728 35.1748 106.486 35.2734 106.235 35.3417L106.178 35.3568V38.4635ZM108.967 37.2004C108.193 37.7807 107.286 38.1563 106.334 38.2928V35.4782C106.558 35.4137 106.774 35.3265 106.979 35.2127L108.967 37.2004ZM110.127 36.2824L110.18 36.2141C110.825 35.3834 111.235 34.3933 111.368 33.354L111.379 33.2667H108.276L108.261 33.3236C108.196 33.574 108.098 33.813 107.965 34.0368L107.935 34.0861L110.127 36.2824ZM111.205 33.4185C111.068 34.3706 110.692 35.281 110.112 36.051L108.121 34.0595C108.234 33.8585 108.322 33.6423 108.386 33.4147H111.205V33.4185ZM100.913 36.2824L103.11 34.0861L103.079 34.0368C102.95 33.813 102.852 33.574 102.783 33.3236L102.768 33.2667H99.6616L99.673 33.354C99.8057 34.3933 100.215 35.3834 100.86 36.2141L100.913 36.2824ZM102.916 34.0633L100.925 36.0548C100.344 35.281 99.9688 34.3744 99.8323 33.4223H102.647C102.715 33.6423 102.802 33.8585 102.916 34.0633ZM108.272 31.9467H111.375L111.364 31.8594C111.231 30.82 110.821 29.83 110.177 28.9993L110.123 28.931L107.927 31.1273L107.958 31.1766C108.086 31.3966 108.185 31.6394 108.253 31.8898L108.272 31.9467ZM111.205 31.7949H108.39C108.325 31.5711 108.238 31.3549 108.124 31.1501L110.116 29.1586C110.692 29.9362 111.068 30.8428 111.205 31.7949ZM99.6616 31.9467H102.764L102.78 31.8898C102.844 31.6394 102.943 31.4004 103.076 31.1766L103.106 31.1273L100.91 28.931L100.856 28.9993C100.212 29.83 99.8019 30.82 99.6692 31.8594L99.6616 31.9467ZM102.651 31.7949H99.8361C99.9726 30.8428 100.348 29.9324 100.929 29.1624L102.92 31.1539C102.802 31.3549 102.715 31.5711 102.651 31.7949ZM104.039 30.1942L104.088 30.1638C104.308 30.0348 104.551 29.9324 104.801 29.8679L104.858 29.8528V26.7498L104.771 26.7612C103.732 26.894 102.742 27.3037 101.911 27.9485L101.843 28.0016L104.039 30.1942ZM104.71 29.739C104.487 29.8034 104.27 29.8907 104.066 30.0045L102.074 28.013C102.848 27.4326 103.755 27.0571 104.707 26.9206V29.739H104.71ZM107.002 30.1942L109.198 27.9978L109.13 27.9447C108.299 27.2999 107.309 26.8902 106.269 26.7574L106.182 26.7461V29.849L106.239 29.8641C106.49 29.9286 106.728 30.0273 106.952 30.16L107.002 30.1942ZM108.967 28.013L106.975 30.0045C106.774 29.8907 106.558 29.8034 106.33 29.739V26.9243C107.286 27.0571 108.193 27.4326 108.967 28.013Z" fill="white" fill-opacity="0.5"/>
<path d="M105.523 38.5245C108.785 38.5245 111.437 35.8692 111.437 32.6108C111.437 29.3485 108.781 26.697 105.523 26.697C102.261 26.697 99.6091 29.3523 99.6091 32.6108C99.6053 35.8692 102.261 38.5245 105.523 38.5245ZM105.523 26.845C108.702 26.845 111.285 29.432 111.285 32.607C111.285 35.7857 108.698 38.369 105.523 38.369C102.344 38.369 99.7608 35.7819 99.7608 32.607C99.757 29.432 102.344 26.845 105.523 26.845Z" fill="white" fill-opacity="0.5"/>
<path d="M105.523 34.8756C106.774 34.8756 107.791 33.859 107.791 32.6072C107.791 31.3555 106.774 30.3389 105.523 30.3389C104.271 30.3389 103.254 31.3555 103.254 32.6072C103.254 33.859 104.271 34.8756 105.523 34.8756ZM105.523 30.4944C106.691 30.4944 107.639 31.4427 107.639 32.611C107.639 33.7794 106.691 34.7277 105.523 34.7277C104.354 34.7277 103.406 33.7794 103.406 32.611C103.406 31.4427 104.354 30.4944 105.523 30.4944Z" fill="white" fill-opacity="0.5"/>
<path d="M105.521 42.1201C110.768 42.1201 115.031 37.8527 115.031 32.6104C115.031 27.3642 110.764 23.1006 105.521 23.1006C100.279 23.1006 96.0117 27.368 96.0117 32.6104C96.0079 37.8527 100.275 42.1201 105.521 42.1201ZM105.521 23.4761C110.555 23.4761 114.652 27.5729 114.652 32.6066C114.652 37.6403 110.555 41.737 105.521 41.737C100.488 41.737 96.391 37.6403 96.391 32.6066C96.3872 27.5729 100.484 23.4761 105.521 23.4761Z" fill="white" fill-opacity="0.5"/>
<path d="M39.0604 35.6721H94.2072L94.1807 32.6071C94.1807 26.3558 99.2675 21.2652 105.523 21.2652C111.778 21.2652 116.865 26.352 116.865 32.6071L116.876 35.6721H128.381C130.957 35.6721 133.46 35.1334 134.317 31.2112C135.012 28.0248 135.061 26.4316 134.484 25.7185C134.177 25.3392 133.729 25.2519 133.335 25.2367C133.126 24.4212 132.004 20.442 129.894 19.5013C127.118 18.2609 119.129 15.6777 96.7828 12.2978C95.6714 12.1309 93.4941 10.955 90.7401 9.46426C85.6913 6.73688 78.7723 3.00049 71.0606 1.16454C68.1815 0.477957 61.5963 0 55.0453 0C49.9623 0 45.9224 0.284503 43.6617 0.80039C38.15 2.05976 29.9603 5.51165 25.067 7.5752C22.8555 8.50834 21.1068 9.24425 20.625 9.34667C20.3443 9.40736 19.5705 9.50218 18.5046 9.63495C10.8194 10.5833 3.63867 11.7402 3.14554 13.7734C2.49689 16.4363 1.73445 23.0404 1.69652 23.9281C1.63203 23.9584 1.48409 23.9925 1.37408 24.0191C0.930267 24.1253 0.25885 24.2846 0.25885 24.8916C0.25885 25.1154 0.255066 25.3543 0.255066 25.6085C0.2323 27.9489 0.201965 31.4881 1.86342 33.9347C2.58035 34.9931 14.0778 35.5052 16.3765 35.5962L16.5624 35.6038L16.7255 32.6185C16.7255 26.4506 21.7364 21.4397 27.8967 21.4397C34.057 21.4397 39.0642 26.4506 39.0642 32.6071V35.6721H39.0604ZM93.8241 35.2928H39.4397V32.6071C39.4397 26.2382 34.2581 21.0603 27.893 21.0603C21.5278 21.0603 16.3462 26.242 16.3462 32.6071L16.202 35.2093C9.67759 34.94 2.59172 34.333 2.17445 33.7185C0.577484 31.3705 0.607849 27.9034 0.6306 25.6085C0.634399 25.3543 0.634384 25.1154 0.634384 24.8878C0.634384 24.6033 1.00613 24.4895 1.45753 24.3833C1.78755 24.3036 2.07205 24.2353 2.07205 23.9812C2.07205 23.526 2.84967 16.5956 3.51349 13.8607C4.01421 11.8047 14.5747 10.4998 18.5501 10.0105C19.6274 9.87773 20.405 9.78289 20.7047 9.7184C21.2206 9.6084 22.8934 8.90285 25.2111 7.92418C30.0931 5.86443 38.2676 2.42011 43.7451 1.16833C45.9756 0.660027 49.9889 0.379329 55.0415 0.379329C61.566 0.379329 68.117 0.853493 70.9695 1.53249C78.6358 3.36086 85.5282 7.08206 90.5581 9.79806C93.4561 11.3647 95.55 12.4951 96.7259 12.6734C119.027 16.0456 126.981 18.6137 129.739 19.8465C131.563 20.662 132.736 24.2657 133.001 25.4643L133.035 25.6123H133.187C133.695 25.6123 133.995 25.7147 134.188 25.9575C134.67 26.5568 134.594 28.1538 133.946 31.1315C133.107 34.9741 130.634 35.2928 128.381 35.2928H117.255L117.244 32.6071C117.244 26.1433 111.986 20.8858 105.523 20.8858C99.0588 20.8858 93.8013 26.1433 93.8013 32.6071L93.8241 35.2928Z" fill="white" fill-opacity="0.5"/>
<path d="M40.8541 32.6074H41.0059C41.0059 25.3736 35.1225 19.4902 27.8887 19.4902C23.5795 19.4902 19.5207 21.6259 17.0285 25.2067L17.1537 25.294C19.6155 21.7548 23.6288 19.642 27.8887 19.642C35.039 19.6458 40.8541 25.4609 40.8541 32.6074Z" fill="white" fill-opacity="0.5"/>
<path d="M92.2311 32.607H92.3829C92.3829 25.3619 98.2776 19.4709 105.519 19.4709C109.896 19.4709 114.137 21.7658 116.592 25.4605L116.717 25.377C114.236 21.6406 109.946 19.3192 105.519 19.3192C98.1942 19.3192 92.2311 25.2822 92.2311 32.607Z" fill="white" fill-opacity="0.5"/>
<path d="M42.1969 32.4596H42.3486C42.2993 27.7559 40.1334 23.4619 36.5563 20.9659C34.7507 19.7103 33.7151 15.5605 33.7151 9.58984H33.5634C33.5634 15.6136 34.6217 19.8052 36.469 21.0911C40.0082 23.5529 42.1476 27.8052 42.1969 32.4596Z" fill="white" fill-opacity="0.5"/>
<path d="M132.963 24.6908V24.5391C130.034 24.5391 122.865 23.4732 122.865 22.54C122.865 20.4727 125.073 19.7406 125.638 19.7406H129.826V19.5889H125.642C125.024 19.5889 122.717 20.3286 122.717 22.54C122.713 23.7236 130.452 24.6908 132.963 24.6908Z" fill="white" fill-opacity="0.5"/>
<path d="M92.2312 32.607H92.3829C92.3829 17.6122 90.6418 14.57 89.9893 13.9554C96.29 14.092 123.036 19.0233 125.62 19.7364C127.717 20.423 128.434 24.2959 128.442 24.3339L128.59 24.3073C128.559 24.1442 127.85 20.3092 125.665 19.5923C123.044 18.8677 95.5389 13.8037 89.739 13.8037L89.7238 13.9554C89.7428 13.9592 92.2312 14.8165 92.2312 32.607Z" fill="white" fill-opacity="0.5"/>
<path d="M127.508 32.6412H133.748V32.4895H127.66C127.713 31.2794 129.045 29.7659 130.456 29.7659H134.416V29.6142H130.46C128.939 29.6142 127.508 31.2757 127.508 32.5654V32.6412Z" fill="white" fill-opacity="0.5"/>
<path d="M89.8906 13.9559L88.343 11.9152C88.3354 10.2727 87.4288 9.52539 86.5905 9.52539C84.9935 9.52539 83.8783 10.5458 83.8783 11.46C83.8783 12.6624 85.4145 13.9446 88.2671 13.9446L89.8906 13.9559ZM86.5867 9.67712C87.3567 9.67712 88.1874 10.3865 88.1874 11.9417V11.9683L89.5796 13.8042L88.2633 13.7966C85.5094 13.7966 84.0262 12.5942 84.0262 11.4638C84.03 10.6179 85.0807 9.67712 86.5867 9.67712Z" fill="white" fill-opacity="0.5"/>
<path d="M1.89422 23.9062L19.1084 25.34L19.0958 25.4912L1.88163 24.0574L1.89422 23.9062Z" fill="white" fill-opacity="0.5"/>
<path d="M19.1113 25.7491V25.3698C10.7964 25.3698 0.554577 24.7097 0.452158 24.7021L0.429386 25.0815C0.531805 25.0853 10.7851 25.7491 19.1113 25.7491Z" fill="white" fill-opacity="0.5"/>
<path d="M39.2493 32.417H93.9902V32.7963H39.2493V32.417Z" fill="white" fill-opacity="0.5"/>
<path d="M114.536 25.2295H133.188V25.6088H114.536V25.2295Z" fill="white" fill-opacity="0.5"/>
<path d="M86.5099 13.7586L86.5137 13.6068C86.1571 13.5954 50.8075 12.4119 43.6799 12.4119C36.3095 12.4119 33.7149 10.0829 33.7149 9.58594C33.7149 7.70068 43.2095 2.75803 48.0232 2.13213C53.33 1.44555 62.4718 1.66935 66.6937 2.13213C75.1983 3.06528 84.5184 10.2118 84.6132 10.2839L84.7081 10.1625C84.6132 10.0905 75.2628 2.91734 66.7127 1.97661C62.487 1.51383 53.3224 1.28623 48.008 1.97661C43.5319 2.55698 33.567 7.50343 33.567 9.57836C33.567 10.1853 36.2071 12.5561 43.6837 12.5561C50.8037 12.5675 86.1533 13.7472 86.5099 13.7586Z" fill="white" fill-opacity="0.5"/>
<path d="M7.64411 20.4346C7.7655 20.4346 7.86791 20.3474 7.94757 20.1805C8.39897 19.2094 8.04999 15.5071 6.72613 13.9367L6.70337 13.9102H3.30079V14.0619H6.6313C7.97412 15.6892 8.19793 19.2777 7.80722 20.116C7.77308 20.1918 7.71239 20.2829 7.64032 20.2829C6.39612 20.2829 2.33731 20.2677 2.33731 20.2677V20.4194C2.33731 20.4194 6.39992 20.4346 7.64411 20.4346Z" fill="white" fill-opacity="0.5"/>
<path d="M2.77366 16.7207H7.76562V16.8724H2.77366V16.7207Z" fill="white" fill-opacity="0.5"/>
<path d="M2.55765 18.1582H8.03516V18.3099H2.55765V18.1582Z" fill="white" fill-opacity="0.5"/>
<path d="M125.63 19.7439L125.649 19.5922C85.1371 14.1261 12.5449 13.9137 6.99916 13.9061C8.63406 13.1512 17.1007 9.65759 33.6394 9.65759V9.50586C15.1471 9.50586 6.71466 13.8681 6.63121 13.9137L6.36189 14.0578H6.66535C7.424 14.0654 83.707 14.0881 125.63 19.7439Z" fill="white" fill-opacity="0.5"/>
<path d="M62.5332 12.9503L60.2079 1.57422L57.1923 1.61595L57.1998 1.69561L58.0116 12.8744L62.5332 12.9503ZM60.0827 1.72974L62.3435 12.7986L58.1444 12.7303L57.3516 1.77148L60.0827 1.72974Z" fill="white" fill-opacity="0.5"/>
<path d="M61.236 32.607H61.3877C61.3877 24.4173 58.8083 1.89276 58.7817 1.66516L58.63 1.68033C58.6565 1.90792 61.236 24.4249 61.236 32.607Z" fill="white" fill-opacity="0.5"/>
<path d="M42.8968 3.57682L43.3252 12.3818L43.1736 12.3892L42.7452 3.58419L42.8968 3.57682Z" fill="white" fill-opacity="0.5"/>
<path d="M35.7866 16.8726H40.2703C40.6838 16.8726 41.0176 16.5388 41.0176 16.1253V16.0343C41.0176 15.6208 40.6838 15.287 40.2703 15.287H35.7866C35.3732 15.287 35.0394 15.6208 35.0394 16.0343V16.1253C35.0356 16.535 35.3732 16.8726 35.7866 16.8726ZM40.2703 15.4349C40.6003 15.4349 40.8658 15.7043 40.8658 16.0305V16.1215C40.8658 16.4515 40.5965 16.7171 40.2703 16.7171H35.7866C35.4566 16.7171 35.1911 16.4477 35.1911 16.1215V16.0305C35.1911 15.7005 35.4604 15.4349 35.7866 15.4349H40.2703Z" fill="white" fill-opacity="0.5"/>
<path d="M37.0464 17.4719H39.5955C40.009 17.4719 40.3428 17.1381 40.3428 16.7246V15.359H40.191V16.7246C40.191 17.0546 39.9217 17.3201 39.5955 17.3201H37.0464C36.7164 17.3201 36.4509 17.0508 36.4509 16.7246V15.359H36.2991V16.7246C36.2991 17.1381 36.6329 17.4719 37.0464 17.4719Z" fill="white" fill-opacity="0.5"/>
<path d="M61.7201 16.8726H66.2C66.6135 16.8726 66.9473 16.5388 66.9473 16.1253V16.0343C66.9473 15.6208 66.6097 15.287 66.2 15.287H61.7163C61.3029 15.287 60.969 15.6208 60.969 16.0343V16.1253C60.969 16.535 61.3066 16.8726 61.7201 16.8726ZM66.2 15.4349C66.53 15.4349 66.7955 15.7043 66.7955 16.0305V16.1215C66.7955 16.4515 66.5262 16.7171 66.2 16.7171H61.7163C61.3863 16.7171 61.1208 16.4477 61.1208 16.1215V16.0305C61.1208 15.7005 61.3901 15.4349 61.7163 15.4349H66.2Z" fill="white" fill-opacity="0.5"/>
<path d="M62.98 17.4721H65.5291C65.9426 17.4721 66.2764 17.1383 66.2764 16.7248V15.3593H66.1246V16.7248C66.1246 17.0549 65.8553 17.3204 65.5291 17.3204H62.98C62.65 17.3204 62.3845 17.0511 62.3845 16.7248V15.3593H62.2327V16.7248C62.2327 17.1383 62.5665 17.4721 62.98 17.4721Z" fill="white" fill-opacity="0.5"/>
<path d="M90.0377 14.0165C93.0192 14.0165 95.4734 12.154 95.5 12.135L95.409 12.0137C95.3824 12.0326 92.765 14.0203 89.6773 13.8534L89.6697 14.0051C89.7873 14.0127 89.9125 14.0165 90.0377 14.0165Z" fill="white" fill-opacity="0.5"/>
<path d="M92.9637 13.4278L93.0547 13.3064C92.9219 13.204 79.5164 3.09491 66.1603 0.576172L66.1337 0.724116C79.4558 3.24286 92.8309 13.3292 92.9637 13.4278Z" fill="white" fill-opacity="0.5"/>
</svg>
