<svg width="62" height="60" viewBox="0 0 62 60" fill="none" xmlns="http://www.w3.org/2000/svg">
<path id="Vector" d="M61.925 12.1896C61.9254 9.8671 61.2621 7.59287 60.0133 5.63471C58.7644 3.67655 56.9821 2.11601 54.8761 1.13688C52.7701 0.157739 50.4282 -0.199223 48.1261 0.108027C45.824 0.415278 43.6577 1.37395 41.8822 2.87113C40.1067 4.36832 38.796 6.34168 38.1044 8.55881C37.4129 10.7759 37.3692 13.1445 37.9787 15.3856C38.5882 17.6267 39.8253 19.647 41.5445 21.2085C43.2637 22.7701 45.3933 23.8078 47.6825 24.1996V40.3133C47.6815 41.1658 47.3424 41.9831 46.7397 42.5858C46.1369 43.1886 45.3196 43.5277 44.4671 43.5286H32.0878V3.00523C32.0869 2.20849 31.7699 1.44466 31.2065 0.881275C30.6432 0.317893 29.8793 0.000961902 29.0826 0H3.00523C2.20849 0.000961902 1.44466 0.317893 0.881275 0.881275C0.317893 1.44466 0.000961902 2.20849 0 3.00523V56.9948C0.000961902 57.7915 0.317893 58.5553 0.881275 59.1187C1.44466 59.6821 2.20849 59.999 3.00523 60H29.0826C29.8793 59.999 30.6432 59.6821 31.2065 59.1187C31.7699 58.5553 32.0869 57.7915 32.0878 56.9948V47.6374H44.4686C46.4104 47.6353 48.2721 46.863 49.6452 45.4899C51.0182 44.1168 51.7906 42.2551 51.7927 40.3133V24.1996C54.6254 23.7114 57.1949 22.239 59.0485 20.0419C60.902 17.8449 61.9207 15.0641 61.925 12.1896ZM30.8498 51.395L27.2252 52.7712V50.6492L30.8498 49.273V51.395ZM30.8498 8.3927L27.2252 9.76883V7.64684L30.8498 6.27072V8.3927ZM30.8498 19.1436L27.2252 20.5198V18.3978L30.8498 17.0209V19.1436ZM30.8498 29.8939L27.2252 31.27V29.148L30.8498 27.7719V29.8939ZM30.8498 40.6441L27.2252 42.0202V39.8982L30.8498 38.5221V40.6441ZM16.8988 4.38645L18.7278 7.53199L16.8988 10.6768C16.8438 10.7713 16.8149 10.8786 16.8149 10.9879C16.8149 11.0972 16.8438 11.2046 16.8988 11.2991L18.7278 14.4432L16.8988 17.5887C16.8438 17.683 16.8149 17.7903 16.8149 17.8995C16.8149 18.0087 16.8438 18.1159 16.8988 18.2102L18.7278 21.3558L16.8988 24.5013C16.8438 24.5958 16.8149 24.7031 16.8149 24.8124C16.8149 24.9218 16.8438 25.0291 16.8988 25.1236L18.7278 28.2698L16.8988 31.4154C16.8438 31.5097 16.8149 31.617 16.8149 31.7262C16.8149 31.8354 16.8438 31.9426 16.8988 32.0369L18.7278 35.1825L16.8988 38.328C16.8438 38.4223 16.8149 38.5296 16.8149 38.6388C16.8149 38.748 16.8438 38.8552 16.8988 38.9496L18.7278 42.0958L16.8988 45.2414C16.8438 45.3358 16.8149 45.4432 16.8149 45.5525C16.8149 45.6618 16.8438 45.7691 16.8988 45.8636L18.7278 49.0092L16.8988 52.1554C16.8438 52.2498 16.8149 52.357 16.8149 52.4662C16.8149 52.5754 16.8438 52.6826 16.8988 52.777L18.7278 55.9232L17.0776 58.762H13.7191L15.1876 56.2344C15.2425 56.14 15.2715 56.0328 15.2715 55.9236C15.2715 55.8144 15.2425 55.7072 15.1876 55.6128L13.36 52.4629L15.1876 49.3203C15.2425 49.2258 15.2715 49.1185 15.2715 49.0092C15.2715 48.8999 15.2425 48.7925 15.1876 48.698L13.3585 45.5525L15.1876 42.4062C15.2425 42.3119 15.2715 42.2046 15.2715 42.0954C15.2715 41.9863 15.2425 41.879 15.1876 41.7847L13.3585 38.6384L15.1876 35.4936C15.2425 35.3991 15.2715 35.2918 15.2715 35.1825C15.2715 35.0732 15.2425 34.9658 15.1876 34.8713L13.3585 31.7258L15.1876 28.581C15.2425 28.4866 15.2715 28.3794 15.2715 28.2702C15.2715 28.161 15.2425 28.0538 15.1876 27.9594L13.3585 24.8139L15.1876 21.6684C15.2425 21.5739 15.2715 21.4665 15.2715 21.3572C15.2715 21.2479 15.2425 21.1406 15.1876 21.0461L13.3585 17.9006L15.1876 14.7557C15.2425 14.6613 15.2715 14.5539 15.2715 14.4446C15.2715 14.3353 15.2425 14.2279 15.1876 14.1335L13.3585 10.9879L15.1876 7.84312C15.2425 7.74865 15.2715 7.64129 15.2715 7.53199C15.2715 7.42268 15.2425 7.31533 15.1876 7.22085L13.3585 4.07531L15.0087 1.24019H18.3665L16.8988 3.76418C16.8438 3.85865 16.8149 3.96601 16.8149 4.07531C16.8149 4.18462 16.8438 4.29197 16.8988 4.38645ZM1.23728 49.273L4.86479 50.6492V52.7712L1.23728 51.395V49.273ZM1.23728 38.5221L4.86479 39.8982V42.0202L1.23728 40.6441V38.5221ZM1.23728 27.7719L4.86479 29.148V31.27L1.23728 29.8939V27.7719ZM1.23728 17.0209L4.86479 18.3978V20.5198L1.23728 19.1436V17.0209ZM1.23728 6.27072L4.86479 7.64684V9.76883L1.23728 8.3927V6.27072ZM1.23728 56.9948V52.7181L5.2617 54.2447C5.3556 54.2805 5.45682 54.2929 5.55659 54.2808C5.65636 54.2686 5.75166 54.2324 5.83423 54.1751C5.91681 54.1178 5.98416 54.0412 6.03045 53.952C6.07674 53.8628 6.10057 53.7636 6.09988 53.6631V50.2174C6.1 50.0919 6.06186 49.9693 5.99056 49.8661C5.91925 49.7628 5.81817 49.6838 5.70079 49.6394L1.23728 47.9493V41.9679L5.2617 43.4945C5.33127 43.5214 5.40521 43.5352 5.47979 43.5352C5.64386 43.5352 5.80122 43.47 5.91723 43.354C6.03325 43.238 6.09843 43.0806 6.09843 42.9165V39.4708C6.09908 39.3447 6.06121 39.2215 5.98988 39.1175C5.91856 39.0136 5.81718 38.9339 5.69933 38.8892L1.23728 37.1969V31.2177L5.2617 32.7443C5.3556 32.7801 5.45682 32.7925 5.55659 32.7803C5.65636 32.7682 5.75166 32.7319 5.83423 32.6746C5.91681 32.6173 5.98416 32.5408 6.03045 32.4516C6.07674 32.3623 6.10057 32.2632 6.09988 32.1627V28.7213C6.10064 28.5952 6.0628 28.4719 5.99147 28.368C5.92013 28.264 5.8187 28.1844 5.70079 28.1397L1.23728 26.4481V20.4667L5.2617 21.9933C5.35561 22.029 5.45678 22.0412 5.55647 22.029C5.65617 22.0168 5.75139 21.9805 5.83392 21.9232C5.91644 21.866 5.98378 21.7895 6.03012 21.7004C6.07646 21.6112 6.1004 21.5122 6.09988 21.4117V17.966C6.10074 17.8399 6.06295 17.7165 5.9916 17.6126C5.92024 17.5086 5.81875 17.429 5.70079 17.3844L1.23728 15.6979V9.71794L5.2617 11.2445C5.33127 11.2714 5.40521 11.2852 5.47979 11.2853C5.56152 11.2855 5.6425 11.2696 5.71805 11.2385C5.79359 11.2073 5.86221 11.1614 5.91994 11.1036C5.97766 11.0457 6.02335 10.977 6.05436 10.9013C6.08537 10.8257 6.10109 10.7447 6.10061 10.663V7.21721C6.10126 7.09116 6.06339 6.96792 5.99206 6.86398C5.92074 6.76005 5.81936 6.68038 5.70151 6.63565L1.23801 4.94184V3.00523C1.23877 2.53677 1.42521 2.08772 1.75646 1.75646C2.08772 1.42521 2.53677 1.23877 3.00523 1.23801H13.5788L12.1096 3.76418C12.0547 3.85865 12.0257 3.96601 12.0257 4.07531C12.0257 4.18462 12.0547 4.29197 12.1096 4.38645L13.9386 7.53199L12.1096 10.6768C12.0547 10.7713 12.0257 10.8786 12.0257 10.9879C12.0257 11.0972 12.0547 11.2046 12.1096 11.2991L13.9386 14.4432L12.1096 17.5887C12.0546 17.683 12.0257 17.7903 12.0257 17.8995C12.0257 18.0087 12.0546 18.1159 12.1096 18.2102L13.9386 21.3558L12.1096 24.5013C12.0547 24.5958 12.0257 24.7031 12.0257 24.8124C12.0257 24.9218 12.0547 25.0291 12.1096 25.1236L13.9386 28.2684L12.1096 31.4139C12.0546 31.5083 12.0257 31.6155 12.0257 31.7247C12.0257 31.8339 12.0546 31.9411 12.1096 32.0355L13.9386 35.181L12.1096 38.3265C12.0546 38.4209 12.0257 38.5281 12.0257 38.6373C12.0257 38.7465 12.0546 38.8538 12.1096 38.9481L13.9386 42.0944L12.1096 45.2399C12.0547 45.3344 12.0257 45.4417 12.0257 45.551C12.0257 45.6603 12.0547 45.7677 12.1096 45.8622L13.9386 49.0077L12.1096 52.154C12.0546 52.2483 12.0257 52.3555 12.0257 52.4647C12.0257 52.5739 12.0546 52.6812 12.1096 52.7755L13.9386 55.9218L12.2885 58.7605H3.00523C2.5369 58.76 2.08788 58.5738 1.75651 58.2429C1.42514 57.9119 1.23843 57.4631 1.23728 56.9948ZM29.0797 58.762H18.509L19.9782 56.2344C20.0332 56.14 20.0621 56.0328 20.0621 55.9236C20.0621 55.8144 20.0332 55.7072 19.9782 55.6128L18.1492 52.4629L19.9782 49.3174C20.0332 49.2229 20.0621 49.1156 20.0621 49.0062C20.0621 48.8969 20.0332 48.7896 19.9782 48.6951L18.1492 45.5496L19.9782 42.4033C20.0332 42.309 20.0621 42.2017 20.0621 42.0925C20.0621 41.9833 20.0332 41.8761 19.9782 41.7818L18.1492 38.6355L19.9782 35.4907C20.0332 35.3962 20.0621 35.2889 20.0621 35.1796C20.0621 35.0703 20.0332 34.9629 19.9782 34.8684L18.1492 31.7229L19.9782 28.5781C20.0332 28.4837 20.0621 28.3765 20.0621 28.2673C20.0621 28.1581 20.0332 28.0509 19.9782 27.9565L18.1492 24.811L19.9782 21.6655C20.0332 21.571 20.0621 21.4636 20.0621 21.3543C20.0621 21.245 20.0332 21.1377 19.9782 21.0432L18.1492 17.8976L19.9782 14.7557C20.0332 14.6613 20.0621 14.5539 20.0621 14.4446C20.0621 14.3353 20.0332 14.2279 19.9782 14.1335L18.1492 10.9879L19.9782 7.84312C20.0332 7.74865 20.0621 7.64129 20.0621 7.53199C20.0621 7.42268 20.0332 7.31533 19.9782 7.22085L18.1492 4.07531L19.7994 1.24019H29.0826C29.5511 1.24076 30.0003 1.42714 30.3316 1.75843C30.6629 2.08973 30.8492 2.53889 30.8498 3.00742V4.94984L26.3863 6.64365C26.2685 6.68847 26.1672 6.76815 26.0959 6.87207C26.0246 6.97598 25.9867 7.09918 25.9872 7.22521V10.663C25.9874 10.827 26.0526 10.9842 26.1686 11.1002C26.2846 11.2162 26.4418 11.2814 26.6058 11.2816C26.6804 11.2815 26.7543 11.2677 26.8239 11.2409L30.8476 9.71431V15.6957L26.3841 17.3902C26.2663 17.435 26.1649 17.5146 26.0936 17.6186C26.0222 17.7225 25.9844 17.8457 25.985 17.9718V21.4176C25.9852 21.5816 26.0505 21.7388 26.1664 21.8548C26.2824 21.9708 26.4397 22.036 26.6037 22.0362C26.6782 22.036 26.752 22.0225 26.8218 21.9962L30.8454 20.4696V26.451L26.3819 28.1455C26.2641 28.1903 26.1627 28.2699 26.0914 28.3739C26.0201 28.4778 25.9822 28.601 25.9828 28.7271V32.1663C25.9826 32.2667 26.0068 32.3657 26.0533 32.4547C26.0997 32.5437 26.1671 32.6201 26.2497 32.6773C26.3322 32.7345 26.4273 32.7708 26.527 32.7831C26.6267 32.7954 26.7278 32.7833 26.8218 32.7479L30.8454 31.2213V37.1969L26.3819 38.8907C26.2642 38.9355 26.1628 39.0152 26.0915 39.1191C26.0202 39.223 25.9823 39.3462 25.9828 39.4722V42.918C25.983 43.082 26.0483 43.2393 26.1643 43.3552C26.2802 43.4712 26.4375 43.5364 26.6015 43.5366C26.6761 43.5365 26.75 43.5227 26.8196 43.4959L30.8433 41.9693V47.9507L26.3798 49.6452C26.2625 49.6898 26.1615 49.7689 26.0902 49.8721C26.019 49.9753 25.9808 50.0977 25.9807 50.2232V53.6689C25.9804 53.7694 26.0046 53.8683 26.0511 53.9573C26.0976 54.0463 26.165 54.1227 26.2475 54.1799C26.33 54.2371 26.4252 54.2734 26.5248 54.2857C26.6245 54.298 26.7256 54.2859 26.8196 54.2505L30.8433 52.7239V57.0006C30.8412 57.467 30.655 57.9137 30.3253 58.2435C29.9956 58.5734 29.549 58.7597 29.0826 58.762H29.0797ZM50.5554 40.3133C50.5537 41.9271 49.9118 43.4743 48.7707 44.6154C47.6296 45.7565 46.0824 46.3984 44.4686 46.4001H32.0878V44.7659H44.4686C45.6486 44.764 46.7798 44.2942 47.6139 43.4595C48.4481 42.6248 48.9171 41.4934 48.9183 40.3133V24.3457C49.1887 24.3639 49.4606 24.3741 49.7354 24.3741C50.0102 24.3741 50.2821 24.3639 50.5525 24.3457L50.5554 40.3133ZM49.7383 23.1368C47.5726 23.1368 45.4556 22.4946 43.6549 21.2914C41.8542 20.0881 40.4508 18.3779 39.6222 16.3771C38.7935 14.3762 38.5768 12.1745 38.9994 10.0505C39.4221 7.92645 40.4652 5.97546 41.9967 4.44424C43.5282 2.91303 45.4794 1.87037 47.6035 1.44813C49.7276 1.02589 51.9293 1.24304 53.93 2.07211C55.9307 2.90117 57.6406 4.30493 58.8435 6.10583C60.0463 7.90674 60.6881 10.0239 60.6877 12.1896C60.6839 15.0922 59.529 17.8747 57.4763 19.927C55.4237 21.9792 52.6409 23.1335 49.7383 23.1368ZM49.7383 2.14961C47.7531 2.14946 45.8124 2.73799 44.1616 3.84078C42.5109 4.94356 41.2242 6.51107 40.4643 8.3451C39.7044 10.1791 39.5053 12.1973 39.8924 14.1444C40.2794 16.0916 41.2352 17.8802 42.6387 19.2842C44.0423 20.6882 45.8307 21.6444 47.7777 22.032C49.7247 22.4196 51.7429 22.2212 53.5772 21.4618C55.4114 20.7024 56.9793 19.4162 58.0826 17.7658C59.1859 16.1153 59.7749 14.1748 59.7754 12.1896C59.7731 9.52803 58.7149 6.97611 56.8332 5.09383C54.9515 3.21155 52.3999 2.15269 49.7383 2.14961ZM43.975 18.8274L44.8771 17.9245C44.9787 17.8062 45.0318 17.6539 45.0258 17.4981C45.0199 17.3423 44.9553 17.1945 44.8451 17.0842C44.7348 16.974 44.587 16.9094 44.4312 16.9035C44.2754 16.8976 44.1231 16.9507 44.0048 17.0522L43.1019 17.9551C41.8489 16.5178 41.0991 14.711 40.9661 12.809H42.2463C42.33 12.813 42.4136 12.8 42.4921 12.7708C42.5706 12.7416 42.6423 12.6967 42.703 12.639C42.7636 12.5812 42.8119 12.5117 42.8449 12.4347C42.8779 12.3577 42.8949 12.2748 42.8949 12.191C42.8949 12.1073 42.8779 12.0244 42.8449 11.9474C42.8119 11.8704 42.7636 11.8009 42.703 11.7431C42.6423 11.6853 42.5706 11.6405 42.4921 11.6113C42.4136 11.582 42.33 11.5691 42.2463 11.5731H40.9625C41.0953 9.67079 41.8452 7.86372 43.0983 6.42629L44.0012 7.32916C44.1195 7.4307 44.2718 7.48381 44.4276 7.47786C44.5834 7.47192 44.7312 7.40737 44.8415 7.29712C44.9517 7.18687 45.0163 7.03905 45.0222 6.88325C45.0282 6.72745 44.975 6.57515 44.8735 6.45682L43.975 5.5474C45.412 4.29409 47.2189 3.54417 49.1211 3.4116V4.69177C49.1288 4.85047 49.1973 5.00012 49.3123 5.10971C49.4273 5.2193 49.5801 5.28043 49.739 5.28043C49.8979 5.28043 50.0507 5.2193 50.1657 5.10971C50.2808 5.00012 50.3492 4.85047 50.3569 4.69177V3.4116C52.2591 3.54417 54.066 4.29409 55.5031 5.5474L54.6009 6.44664C54.4994 6.56497 54.4463 6.71727 54.4522 6.87307C54.4581 7.02888 54.5227 7.17669 54.6329 7.28694C54.7432 7.39719 54.891 7.46175 55.0468 7.46769C55.2026 7.47363 55.3549 7.42052 55.4733 7.31899L56.3761 6.41611C57.6293 7.85354 58.3791 9.66061 58.5119 11.563H57.2332C57.0745 11.5707 56.9249 11.6391 56.8153 11.7542C56.7057 11.8692 56.6446 12.022 56.6446 12.1809C56.6446 12.3398 56.7057 12.4925 56.8153 12.6076C56.9249 12.7226 57.0745 12.7911 57.2332 12.7988H58.5141C58.3812 14.7009 57.6313 16.5077 56.3783 17.9449L55.4754 17.0493C55.3571 16.9478 55.2048 16.8946 55.049 16.9006C54.8932 16.9065 54.7454 16.9711 54.6351 17.0813C54.5249 17.1916 54.4603 17.3394 54.4544 17.4952C54.4484 17.651 54.5016 17.8033 54.6031 17.9216L55.5052 18.8245C53.9076 20.2171 51.8598 20.9842 49.7405 20.9842C47.6211 20.9842 45.5734 20.2171 43.9757 18.8245L43.975 18.8274ZM50.3584 9.72376V6.46263C50.3507 6.30394 50.2822 6.15429 50.1672 6.0447C50.0522 5.93511 49.8994 5.87398 49.7405 5.87398C49.5816 5.87398 49.4288 5.93511 49.3138 6.0447C49.1987 6.15429 49.1303 6.30394 49.1226 6.46263V9.72376C48.5203 9.87455 47.9939 10.2404 47.6426 10.7523C47.2913 11.2643 47.1393 11.887 47.2152 12.5032C47.2912 13.1195 47.5899 13.6866 48.055 14.0979C48.5201 14.5092 49.1196 14.7363 49.7405 14.7363C50.3614 14.7363 50.9608 14.5092 51.426 14.0979C51.8911 13.6866 52.1897 13.1195 52.2657 12.5032C52.3417 11.887 52.1897 11.2643 51.8384 10.7523C51.4871 10.2404 50.9607 9.87455 50.3584 9.72376ZM49.7398 13.4923C49.481 13.4923 49.228 13.4156 49.0128 13.2718C48.7976 13.128 48.6299 12.9236 48.5308 12.6845C48.4318 12.4454 48.4059 12.1823 48.4564 11.9285C48.5069 11.6747 48.6315 11.4415 48.8145 11.2585C48.9975 11.0755 49.2306 10.9509 49.4845 10.9004C49.7383 10.8499 50.0014 10.8758 50.2405 10.9749C50.4796 11.0739 50.684 11.2416 50.8277 11.4568C50.9715 11.672 51.0483 11.925 51.0483 12.1838C51.0483 12.3557 51.0144 12.526 50.9485 12.6849C50.8827 12.8437 50.7862 12.988 50.6645 13.1096C50.5428 13.2311 50.3984 13.3274 50.2395 13.3931C50.0806 13.4588 49.9103 13.4925 49.7383 13.4923H49.7398Z" fill="#FF861D"/>
</svg>
