<svg width="60" height="60" viewBox="0 0 60 60" fill="none" xmlns="http://www.w3.org/2000/svg">
<g id="Group">
<g id="Group_2">
<path id="Vector" fill-rule="evenodd" clip-rule="evenodd" d="M30.0011 25.873C27.7255 25.873 25.874 27.7253 25.874 30.0008C25.8744 32.2764 27.725 34.1275 30.0006 34.1275C32.2767 34.1274 34.1285 32.2765 34.1285 30.0008C34.1289 27.7252 32.2763 25.873 30.0011 25.873ZM30.0011 35.5015C26.9681 35.5015 24.5 33.0338 24.5 30.0008C24.5004 26.9667 26.9677 24.499 30.0006 24.499C33.0351 24.499 35.5025 26.9667 35.5025 30.0008C35.5029 33.0338 33.0348 35.5015 30.0011 35.5015Z" fill="#FF861D"/>
<path id="Vector_2" fill-rule="evenodd" clip-rule="evenodd" d="M30.0059 4.56673C29.6264 4.56673 29.3184 4.25905 29.3184 3.87979L29.3189 0.686943C29.3189 0.307715 29.6262 3.62148e-09 30.0053 3.62148e-09C30.3859 -3.85476e-05 30.6923 0.307715 30.6923 0.68702L30.6929 3.87975C30.6929 4.25898 30.3859 4.56677 30.0059 4.56673Z" fill="#FF861D"/>
<path id="Vector_3" fill-rule="evenodd" clip-rule="evenodd" d="M3.87898 30.6876H0.687175C0.307715 30.6876 0 30.38 0 30.0007C0.000192755 29.6202 0.307715 29.3138 0.686904 29.3138L3.87898 29.3137C4.25786 29.3137 4.56557 29.6203 4.56557 30.0007C4.56596 30.38 4.25782 30.6877 3.87898 30.6876Z" fill="#FF861D"/>
<path id="Vector_4" fill-rule="evenodd" clip-rule="evenodd" d="M9.27497 51.4142C9.09945 51.4142 8.92381 51.3462 8.78911 51.2127C8.52087 50.9443 8.52076 50.509 8.78911 50.2406L11.0461 47.984C11.3144 47.7169 11.7493 47.7169 12.0177 47.9841C12.2864 48.2524 12.286 48.6878 12.0177 48.9561L9.76122 51.2127C9.62652 51.3462 9.451 51.4142 9.27497 51.4142Z" fill="#FF861D"/>
<path id="Vector_5" fill-rule="evenodd" clip-rule="evenodd" d="M30.0059 59.9994C29.6264 59.9994 29.3184 59.6917 29.3184 59.3124L29.3189 56.1208C29.3189 55.7415 29.6262 55.4338 30.0053 55.4338C30.3859 55.4338 30.6923 55.7416 30.6923 56.1208L30.6929 59.3124C30.6929 59.6917 30.3859 59.9994 30.0059 59.9994Z" fill="#FF861D"/>
<path id="Vector_6" fill-rule="evenodd" clip-rule="evenodd" d="M50.7365 51.4142C50.561 51.4142 50.3853 51.3462 50.2506 51.2127L47.9945 48.9561C47.7261 48.6878 47.7257 48.2524 47.994 47.9841C48.2628 47.7169 48.6977 47.7169 48.9661 47.9841L51.2227 50.2406C51.4911 50.5089 51.491 50.9443 51.2227 51.2127C51.088 51.3462 50.9126 51.4142 50.7365 51.4142Z" fill="#FF861D"/>
<path id="Vector_7" fill-rule="evenodd" clip-rule="evenodd" d="M59.322 30.6876H56.1307C55.7502 30.6876 55.4434 30.38 55.4434 30.0007C55.4437 29.6202 55.7498 29.3138 56.1303 29.3138L59.3219 29.3137C59.7014 29.3137 60.0089 29.6203 60.0089 30.0007C60.0089 30.38 59.7011 30.6877 59.322 30.6876Z" fill="#FF861D"/>
<path id="Vector_8" fill-rule="evenodd" clip-rule="evenodd" d="M48.4601 12.2176C48.2847 12.2176 48.1093 12.1497 47.9746 12.0161C47.7066 11.7477 47.7062 11.3125 47.9746 11.0441L50.2313 8.78751C50.4996 8.52035 50.9349 8.52039 51.2032 8.78755C51.4716 9.05586 51.4715 9.49122 51.2032 9.75958L48.947 12.0161C48.8123 12.1497 48.6365 12.2177 48.4601 12.2176Z" fill="#FF861D"/>
<path id="Vector_9" fill-rule="evenodd" clip-rule="evenodd" d="M6.81386 16.7213C6.83055 16.7213 6.84724 16.7213 6.86393 16.7225C7.06078 16.7368 7.24204 16.8358 7.36124 16.9921C8.30486 18.2348 9.73711 18.9468 11.2923 18.9468C14.0132 18.9468 16.2252 16.7344 16.2252 14.014C16.2255 13.8934 16.2193 13.7599 16.2074 13.6072C16.1848 13.3234 16.3386 13.0562 16.595 12.9334C16.8503 12.8105 17.1556 12.8571 17.3631 13.0515C17.8464 13.5059 18.4747 13.7551 19.1342 13.7551C20.5621 13.7551 21.7248 12.5935 21.7248 11.1646C21.7251 10.0173 20.9542 8.99518 19.8486 8.67913C19.6701 8.62782 19.5194 8.50615 19.4324 8.34278C19.3443 8.17932 19.3262 7.98737 19.3823 7.80965C19.5375 7.32306 19.616 6.81734 19.616 6.30688C19.6164 3.58756 17.4036 1.37399 14.6832 1.37399C11.9641 1.37391 9.75022 3.58756 9.75022 6.30688C9.75022 6.58472 9.77524 6.86622 9.82301 7.14653C9.87309 7.4399 9.72752 7.73331 9.46279 7.87167C9.19682 8.0088 8.87365 7.95992 8.66127 7.74881C8.17121 7.26218 7.52231 6.99386 6.83417 6.99386C5.40663 6.99383 4.24361 8.15672 4.24361 9.58435C4.24361 10.2308 4.48691 10.8522 4.92824 11.334C5.10985 11.5319 5.15843 11.817 5.05469 12.0652C4.94991 12.312 4.71112 12.4766 4.44165 12.4849C3.03333 12.5266 1.92857 13.6621 1.92857 15.0694C1.9288 16.4983 3.09151 17.6599 4.51913 17.6599C5.20164 17.6599 5.84541 17.3964 6.3332 16.9181C6.46234 16.7917 6.63494 16.7213 6.81386 16.7213ZM11.2927 20.3208C9.54198 20.3208 7.91233 19.6159 6.72561 18.3636C6.07807 18.8001 5.31467 19.0339 4.51913 19.0339C2.33293 19.0339 0.554688 17.2556 0.554688 15.0694C0.554842 13.3114 1.68057 11.829 3.2668 11.3089C3.00704 10.7747 2.86964 10.1878 2.86964 9.58436C2.86964 7.39939 4.64793 5.61991 6.83416 5.61991C7.37689 5.61987 7.9028 5.72847 8.38816 5.93596C8.58019 2.63104 11.3305 3.93826e-10 14.6832 3.93826e-10C18.1614 -3.85508e-05 20.99 2.83023 20.99 6.3069C20.9904 6.74218 20.9458 7.17395 20.8576 7.59855C22.2055 8.25095 23.0998 9.63566 23.0986 11.1658C23.0991 13.3508 21.3204 15.1291 19.1342 15.1291C18.5832 15.1291 18.0453 15.0158 17.5515 14.7999C17.1642 17.908 14.5042 20.3208 11.2927 20.3208Z" fill="#FF861D"/>
<path id="Vector_10" fill-rule="evenodd" clip-rule="evenodd" d="M22.7558 21.9228C21.9819 21.9228 21.2076 21.7236 20.517 21.3241L15.2232 18.2661C14.8937 18.0764 14.7814 17.6566 14.9711 17.3274C15.1609 16.9994 15.5806 16.8861 15.9097 17.077L21.2043 20.135C22.1606 20.6872 23.3496 20.6872 24.3061 20.135C24.7776 19.8642 25.1709 19.4707 25.4452 18.9972C25.7163 18.526 25.859 17.9894 25.859 17.4467L25.8591 8.88449C25.8591 8.50515 26.1667 8.19751 26.546 8.19751C26.9266 8.19751 27.2329 8.50519 27.2329 8.88449L27.233 17.4467C27.233 18.2291 27.0267 19.0019 26.6355 19.6841C26.2385 20.3675 25.6718 20.9341 24.9932 21.3253C24.3043 21.7236 23.5298 21.9228 22.7558 21.9228Z" fill="#FF861D"/>
<path id="Vector_11" fill-rule="evenodd" clip-rule="evenodd" d="M9.98323 38.2522C9.74548 38.2522 9.51406 38.1282 9.38769 37.9087C9.19694 37.5795 9.31012 37.1598 9.63812 36.9701L17.0543 32.6884C18.0112 32.1362 18.6058 31.1057 18.6058 30.0013C18.6059 28.8957 18.0107 27.8652 17.0542 27.313L9.63812 23.0313C9.3102 22.8416 9.19686 22.4219 9.38769 22.0939C9.5764 21.7647 9.99718 21.6526 10.3251 21.8422L17.7413 26.1227C19.1228 26.9206 19.9798 28.4067 19.9798 30.0013C19.9798 31.5948 19.1223 33.0808 17.7411 33.8787L10.3256 38.1604C10.2178 38.2224 10.0997 38.2523 9.98323 38.2522Z" fill="#FF861D"/>
<path id="Vector_12" fill-rule="evenodd" clip-rule="evenodd" d="M26.5433 51.8004C26.1644 51.8004 25.8563 51.4927 25.8563 51.1135L25.8563 42.5513C25.8563 41.4468 25.2624 40.4164 24.3046 39.863C23.3483 39.3107 22.159 39.3108 21.2024 39.863L13.7869 44.1447C13.4574 44.3343 13.0374 44.2222 12.8477 43.893C12.6582 43.565 12.7714 43.144 13.0994 42.9544L20.5156 38.6738C21.8971 37.876 23.6117 37.876 24.9928 38.6739C26.3731 39.4718 27.2302 40.9579 27.2302 42.5513L27.2303 51.1134C27.2303 51.4927 26.9238 51.8004 26.5433 51.8004Z" fill="#FF861D"/>
<path id="Vector_13" fill-rule="evenodd" clip-rule="evenodd" d="M33.449 51.8028C33.0696 51.8028 32.7617 51.4964 32.7617 51.1159L32.7621 42.5537C32.7621 40.9602 33.6204 39.4742 35.0004 38.6763C36.3816 37.8784 38.0977 37.8784 39.4776 38.6763L46.894 42.9568C47.2219 43.1476 47.335 43.5675 47.1443 43.8955C46.9558 44.2246 46.5347 44.3368 46.2067 44.1471L38.7909 39.8666C37.8344 39.3131 36.6451 39.3132 35.6885 39.8666C34.7313 40.4188 34.1357 41.4493 34.1357 42.5537L34.136 51.1159C34.136 51.4963 33.8291 51.8029 33.449 51.8028Z" fill="#FF861D"/>
<path id="Vector_14" fill-rule="evenodd" clip-rule="evenodd" d="M50.0072 38.2522C49.8901 38.2522 49.7718 38.2225 49.6632 38.1604L42.2485 33.8787C40.8676 33.0808 40.0098 31.5948 40.0098 30.0013C40.01 28.4067 40.8673 26.9206 42.2484 26.1227L49.6637 21.8422C49.9926 21.6526 50.4123 21.7647 50.6019 22.0939C50.7918 22.4219 50.6795 22.8417 50.3502 23.0313L42.9355 27.313C41.9792 27.8652 41.3837 28.8957 41.3837 30.0013C41.3839 31.1057 41.9789 32.1362 42.9354 32.6896L50.3507 36.9701C50.6796 37.1597 50.7916 37.5796 50.6019 37.9087C50.4757 38.1282 50.2441 38.2523 50.0072 38.2522Z" fill="#FF861D"/>
<path id="Vector_15" fill-rule="evenodd" clip-rule="evenodd" d="M37.2393 21.9228C36.4653 21.9228 35.691 21.7237 35.0004 21.3241C33.6208 20.5262 32.7617 19.0402 32.7617 17.4467L32.7621 8.88449C32.7621 8.50523 33.0694 8.19751 33.4487 8.19751C33.8295 8.19751 34.1357 8.50523 34.1357 8.88453L34.136 17.4467C34.136 18.5511 34.7308 19.5816 35.6885 20.135C36.645 20.6872 37.8342 20.6872 38.7907 20.135L46.207 15.8533C46.535 15.6637 46.9558 15.777 47.1443 16.105C47.3352 16.4341 47.2218 16.854 46.8937 17.0436L39.4779 21.3241C38.7871 21.7237 38.0131 21.9228 37.2393 21.9228Z" fill="#FF861D"/>
<path id="Vector_16" fill-rule="evenodd" clip-rule="evenodd" d="M29.9996 52.0806C28.8054 52.0806 27.6055 51.9839 26.4318 51.7943C21.1316 50.9319 16.3298 48.159 12.9117 43.9858C9.69178 40.0584 7.91797 35.0909 7.91797 30.0017C7.91797 26.2531 8.87323 22.5535 10.6802 19.3034C10.8639 18.9718 11.2825 18.8526 11.614 19.0363C11.946 19.2211 12.0648 19.6386 11.8812 19.9702C10.1877 23.0174 9.29186 26.4857 9.29186 30.0017C9.29194 34.7748 10.9545 39.4322 13.9743 43.1152C17.1804 47.0283 21.6826 49.6296 26.6525 50.4382C28.8532 50.7948 31.1465 50.7948 33.347 50.4382C38.3169 49.6295 42.8193 47.0283 46.0251 43.1152C49.044 39.4333 50.7064 34.776 50.7064 30.0017C50.7067 25.2274 49.0439 20.57 46.0251 16.887C42.8193 12.9739 38.3169 10.3727 33.347 9.56522C31.1465 9.20739 28.853 9.20739 26.6525 9.56522C25.2262 9.79537 23.8187 10.1795 22.4698 10.7054C22.117 10.8437 21.7184 10.6696 21.5801 10.3154C21.4429 9.96234 21.617 9.56403 21.97 9.4257C23.41 8.86506 24.9112 8.45483 26.4319 8.20795C28.7781 7.82749 31.2216 7.82749 33.5676 8.20795C38.8681 9.07142 43.6696 11.8444 47.0877 16.0164C50.3084 19.945 52.0803 24.9114 52.0803 30.0017C52.0806 35.0933 50.308 40.0596 47.0877 43.9859C43.67 48.159 38.8679 50.932 33.5676 51.7943C32.3943 51.984 31.1941 52.0806 29.9996 52.0806Z" fill="#FF861D"/>
<path id="Vector_17" fill-rule="evenodd" clip-rule="evenodd" d="M29.9998 59.9999C21.9873 59.9999 14.4528 56.8787 8.78646 51.2123C3.12168 45.5459 0 38.013 0 30.0005C0.000192755 25.7593 0.868249 21.6589 2.58216 17.8137C2.68482 17.5645 2.93043 17.3892 3.21663 17.3892C3.59613 17.3891 3.90365 17.6969 3.90365 18.0762C3.90365 18.1728 3.88334 18.2694 3.84401 18.3576C2.20551 22.0299 1.37397 25.9478 1.37397 30.0005C1.37416 45.7843 14.2155 58.6259 29.9993 58.6259C45.7849 58.6259 58.6259 45.7844 58.6259 30.0005C58.626 14.2154 45.7844 1.374 29.9993 1.374C26.3116 1.37392 22.7205 2.06692 19.3261 3.43136C18.9732 3.57322 18.5735 3.40271 18.4328 3.0509C18.2911 2.69777 18.4614 2.2983 18.8132 2.15639C22.3711 0.726341 26.1351 3.57106e-10 29.9993 3.57106e-10C38.0133 -3.85508e-05 45.5459 3.12126 51.2123 8.78766C56.8791 14.454 59.9999 21.987 59.9999 30.0005C60 38.013 56.8787 45.5472 51.2123 51.2135C45.546 56.8787 38.0129 59.9999 29.9998 59.9999Z" fill="#FF861D"/>
</g>
</g>
</svg>
