<svg width="18" height="25" viewBox="0 0 18 25" fill="none" xmlns="http://www.w3.org/2000/svg">
<path d="M13.7926 0H3.69886C1.66056 0 0 1.66058 0 3.69888V21.3011C0 23.3394 1.66056 25 3.69886 25H13.7926C15.8309 25 17.4915 23.3394 17.4915 21.3011V3.69888C17.4915 1.66058 15.8309 0 13.7926 0ZM3.69238 1.71268H13.7862C14.8867 1.71268 15.7789 2.60484 15.7789 3.70538V17.8106H1.69967V3.70538C1.69967 2.60484 2.59183 1.71268 3.69238 1.71268ZM13.7926 23.3003H3.69886C2.59831 23.3003 1.70615 22.4082 1.70615 21.3076V19.5168H15.7919V21.3076C15.7853 22.4082 14.8867 23.3003 13.7926 23.3003Z" fill="#FF861D"/>
<path d="M8.51189 4.16784C8.88959 4.16784 9.19565 3.86177 9.19565 3.48407C9.19565 3.10636 8.88959 2.80029 8.51189 2.80029C8.13419 2.80029 7.82812 3.10636 7.82812 3.48407C7.82812 3.86177 8.13419 4.16784 8.51189 4.16784Z" fill="#FF861D"/>
<path d="M8.51189 20.5784C8.13419 20.5784 7.82812 20.8844 7.82812 21.2621C7.82812 21.6398 8.13419 21.9459 8.51189 21.9459C8.88959 21.9459 9.19565 21.6398 9.19565 21.2621C9.18914 20.8844 8.88308 20.5784 8.51189 20.5784Z" fill="#FF861D"/>
</svg>
