<svg width="25" height="25" viewBox="0 0 25 25" fill="none" xmlns="http://www.w3.org/2000/svg">
<path d="M24.7475 11.9582L15.5211 1.38561C14.7528 0.505648 13.643 0 12.4807 0C11.3118 0 10.2085 0.505648 9.4402 1.38561L0.213758 11.9582C-0.00951449 12.2143 -0.0620437 12.5755 0.0758602 12.8776C0.213764 13.1862 0.522408 13.3832 0.857317 13.3832H2.43336V24.1397C2.43336 24.6126 2.8208 25 3.29361 25H21.648C22.1208 25 22.5082 24.6126 22.5082 24.1397V13.3832H24.0843C24.4192 13.3832 24.7278 13.1862 24.8657 12.8776C25.0233 12.569 24.9708 12.2078 24.7475 11.9582ZM10.7404 2.51511C11.1804 2.00946 11.8174 1.72051 12.4872 1.72051C13.157 1.72051 13.794 2.00946 14.2274 2.51511L22.2062 11.6627H2.7617L10.7404 2.51511ZM20.8008 23.2795H4.167V13.3832H20.8008V23.2795Z" fill="#FF861D"/>
</svg>
