<svg width="20" height="25" viewBox="0 0 20 25" fill="none" xmlns="http://www.w3.org/2000/svg">
<path d="M9.71635 25C9.47775 25 9.24577 24.9006 9.08007 24.7216C8.70892 24.324 0 14.886 0 9.71633C0 4.36108 4.3611 0 9.71635 0C15.0716 0 19.4327 4.36108 19.4327 9.71633C19.4327 14.886 10.7238 24.3173 10.3526 24.7216C10.1935 24.9006 9.96158 25 9.71635 25ZM9.71635 1.74311C5.31551 1.74311 1.7365 5.3221 1.7365 9.72295C1.7365 13.1561 7.01222 19.7972 9.71635 22.8393C12.4205 19.7972 17.6962 13.1495 17.6962 9.72295C17.6962 5.3221 14.1172 1.74311 9.71635 1.74311Z" fill="#FF861D"/>
<path d="M9.71811 13.6732C7.3056 13.6732 5.34375 11.7114 5.34375 9.2989C5.34375 6.88639 7.3056 4.92456 9.71811 4.92456C12.1306 4.92456 14.0924 6.88639 14.0924 9.2989C14.0924 11.7114 12.1306 13.6732 9.71811 13.6732ZM9.71811 6.66104C8.26663 6.66104 7.08023 7.84079 7.08023 9.2989C7.08023 10.7504 8.26 11.9368 9.71811 11.9368C11.1696 11.9368 12.356 10.757 12.356 9.2989C12.356 7.84079 11.1762 6.66104 9.71811 6.66104Z" fill="#FF861D"/>
</svg>
