<svg width="61" height="60" viewBox="0 0 61 60" fill="none" xmlns="http://www.w3.org/2000/svg">
<path d="M28.315 57.5C28.63 58.3825 29.015 59.2325 29.5275 60H8.875C5.4275 60 2.625 57.1975 2.625 53.75V27.3675C1.08 25.7875 0.125 23.63 0.125 21.25L6.7075 0H53.5425L60.125 21.25C60.125 23.3225 59.37 25.205 58.16 26.705C57.7125 25.9575 57.195 25.2575 56.62 24.6125C57.215 23.6875 57.59 22.605 57.6225 21.435L51.7075 2.5025H42.625V12.5H40.125V2.5H20.125V12.5H17.625V2.5H8.5425L2.6275 21.4325C2.725 24.795 5.49 27.5 8.875 27.5H11.375C14.8225 27.5 17.625 24.6975 17.625 21.25V20H20.125V21.25C20.125 24.6975 22.9275 27.5 26.375 27.5C26.375 27.5 34.0625 27.475 34.1575 27.4725C33.745 28.2725 33.41 29.12 33.1575 30H26.375C23.195 30 20.4075 28.295 18.875 25.7525C17.3425 28.295 14.555 30 11.375 30H8.875C7.535 30 6.2625 29.695 5.125 29.155V53.75C5.125 55.8175 6.8075 57.5 8.875 57.5H28.315ZM47.625 46.25H45.125V51.25H47.625V46.25ZM55.125 37.5H60.125V53.75C60.125 57.1975 57.3225 60 53.875 60H38.875C35.4275 60 32.625 57.1975 32.625 53.75V37.5H37.625V33.75C37.625 28.925 41.55 25 46.375 25C51.2 25 55.125 28.925 55.125 33.75V37.5ZM40.125 37.5H52.625V33.75C52.625 30.3025 49.8225 27.5 46.375 27.5C42.9275 27.5 40.125 30.3025 40.125 33.75V37.5ZM57.625 40H35.125V53.75C35.125 55.8175 36.8075 57.5 38.875 57.5H53.875C55.9425 57.5 57.625 55.8175 57.625 53.75V40Z" fill="#787B8A"/>
</svg>
